<?xml version="1.0" encoding="UTF-8" standalone="no"?>
<svg width="70px" height="60px" viewBox="0 0 70 60" version="1.1" xmlns="http://www.w3.org/2000/svg" xmlns:xlink="http://www.w3.org/1999/xlink" xmlns:sketch="http://www.bohemiancoding.com/sketch/ns">
    <!-- Generator: Sketch 3.0.4 (8054) - http://www.bohemiancoding.com/sketch -->
    <title>Artboard 1</title>
    <desc>Created with Sketch.</desc>
    <defs></defs>
    <g id="Page-1" stroke="none" stroke-width="1" fill="none" fill-rule="evenodd" sketch:type="MSPage">
        <g id="Artboard-1" sketch:type="MSArtboardGroup">
            <g id="Fill-1-+-Fill-2-+-Fill-4" sketch:type="MSLayerGroup" transform="translate(17.000000, 15.000000) rotate(90.000000) translate(-17.000000, -15.000000) translate(2.500000, -1.500000)" fill="#0B9E7E">
                <path d="M10.3745104,19.5861068 L10.3745104,-0.639142887 L18.1444136,-0.639142887 L18.1444136,19.8205253 L18.1444136,19.8205253 L23.2718996,15.365681 L28.7032544,20.0839175 L19.8254958,27.797527 L19.9158189,27.8760036 L14.4844641,32.5946185 L14.3944436,32.5164001 L14.3039802,32.5950008 L8.8726254,27.8760076 L8.96325574,27.7972664 L0.0860608816,20.0839135 L5.51698024,15.365677 L10.3745104,19.5861068 Z" id="Fill-1" sketch:type="MSShapeGroup"></path>
            </g>
            <g id="Fill-1-+-Fill-2-+-Fill-4" sketch:type="MSLayerGroup" transform="translate(17.000000, 45.000000) rotate(90.000000) translate(-17.000000, -45.000000) translate(2.500000, 28.500000)" fill="#33E6AB">
                <path d="M10.3745104,19.5861068 L10.3745104,-0.639142887 L18.1444136,-0.639142887 L18.1444136,19.8205253 L18.1444136,19.8205253 L23.2718996,15.365681 L28.7032544,20.0839175 L19.8254958,27.797527 L19.9158189,27.8760036 L14.4844641,32.5946185 L14.3944436,32.5164001 L14.3039802,32.5950008 L8.8726254,27.8760076 L8.96325574,27.7972664 L0.0860608816,20.0839135 L5.51698024,15.365677 L10.3745104,19.5861068 Z" id="Fill-1" sketch:type="MSShapeGroup"></path>
            </g>
            <g id="Fill-1-+-Fill-2-+-Fill-4" sketch:type="MSLayerGroup" transform="translate(52.500000, 15.000000) scale(-1, 1) rotate(90.000000) translate(-52.500000, -15.000000) translate(38.000000, -2.000000)" fill="#0B9E7E">
                <path d="M10.3745104,20.5861068 L10.3745104,0.360857113 L18.1444136,0.360857113 L18.1444136,20.8205253 L18.1444136,20.8205253 L23.2718996,16.365681 L28.7032544,21.0839175 L19.8254958,28.797527 L19.9158189,28.8760036 L14.4844641,33.5946185 L14.3944436,33.5164001 L14.3039802,33.5950008 L8.8726254,28.8760076 L8.96325574,28.7972664 L0.0860608816,21.0839135 L5.51698024,16.365677 L10.3745104,20.5861068 Z" id="Fill-1" sketch:type="MSShapeGroup"></path>
            </g>
            <g id="Fill-1-+-Fill-2-+-Fill-4" sketch:type="MSLayerGroup" transform="translate(53.000000, 45.000000) scale(-1, 1) rotate(90.000000) translate(-53.000000, -45.000000) translate(38.500000, 28.500000)" fill="#33E6AB">
                <path d="M10.3745104,19.5861068 L10.3745104,-0.639142887 L18.1444136,-0.639142887 L18.1444136,19.8205253 L18.1444136,19.8205253 L23.2718996,15.365681 L28.7032544,20.0839175 L19.8254958,27.797527 L19.9158189,27.8760036 L14.4844641,32.5946185 L14.3944436,32.5164001 L14.3039802,32.5950008 L8.8726254,27.8760076 L8.96325574,27.7972664 L0.0860608816,20.0839135 L5.51698024,15.365677 L10.3745104,19.5861068 Z" id="Fill-1" sketch:type="MSShapeGroup"></path>
            </g>
        </g>
    </g>
</svg>