<svg baseProfile="full" height="100%" version="1.1" viewBox="0,-1,901,901" width="100%" xmlns="http://www.w3.org/2000/svg" xmlns:ev="http://www.w3.org/2001/xml-events" xmlns:xlink="http://www.w3.org/1999/xlink"><defs><clipPath id="LOGO_CLIPPATH"><rect height="901" width="901" x="0" y="-1" /></clipPath></defs><g clip-path="url(#LOGO_CLIPPATH )" id="Logo_GROUP"><g id="PathGroup"><polyline fill="none" points="0.0,0.0 25.0,25.0 77.0,77.0 116.0,116.0 156.0,156.0 222.0,222.0 255.0,255.0 318.0,318.0 380.0,380.0 432.0,432.0 494.0,494.0 525.0,525.0 574.0,574.0 639.0,639.0 657.0,657.0 707.0,707.0 785.0,785.0 846.0,846.0 900.0,900.0" stroke="#009EE0" stroke-width="0.3" /></g><g id="PathGroup"><polyline fill="none" points="-7.52996808263,-4.15446514904 17.6561647848,21.826975523 65.0445834987,71.8943152976 108.35364618,113.038028822 146.656954631,152.435241491 214.364023037,219.297805369 241.781963576,250.386594198 305.916979575,314.089678094 366.658120076,375.758038177 419.140175332,428.606637432 481.026401923,494.828102005 517.307656966,530.046568997 565.449433831,583.792232544 638.728957479,648.796251117 658.552607869,671.919430579 708.833716134,720.576725862 787.537422768,797.749960223 849.281071084,855.763430368 906.763082801,912.258087576" stroke="#009EE0" stroke-width="0.6" /></g><g id="PathGroup"><polyline fill="none" points="-15.0599361653,-8.30893029807 10.3123295696,18.653951046 53.0891669974,66.7886305952 100.70729236,110.076057644 137.313909262,148.870482982 206.728046074,216.595610738 228.563927152,245.773188395 293.83395915,310.179356187 353.316240153,371.516076355 406.280350665,425.213274864 468.052803846,495.65620401 509.615313931,535.093137994 556.898867662,593.584465087 638.457914958,658.592502234 660.105215737,686.838861158 710.667432269,734.153451724 790.074845536,810.499920447 852.562142167,865.526860735 913.526165602,924.516175153" stroke="#009EE0" stroke-width="0.9" /></g><g id="PathGroup"><polyline fill="none" points="-22.5899042479,-12.4633954471 2.96849435433,15.480926569 41.1337504961,61.6829458928 93.0609385401,107.114086466 127.970863892,145.305724473 199.092069112,213.893416107 215.345890728,241.159782593 281.750938725,306.269034281 339.974360229,367.274114532 393.420525997,421.819912296 455.079205768,496.484306015 501.922970897,540.139706991 548.348301493,603.376697631 638.186872437,668.388753352 661.657823606,701.758291737 712.501148403,747.730177587 792.612268303,823.24988067 855.843213251,875.290291103 920.289248402,936.774262729" stroke="#009EE0" stroke-width="1.2" /></g><g id="PathGroup"><polyline fill="none" points="-30.1198723305,-16.6178605961 -4.37534086089,12.307902092 29.1783339948,56.5772611904 85.4145847202,104.152115287 118.627818523,141.740965964 191.456092149,211.191221476 202.127854305,236.54637679 269.667918301,302.358712374 326.632480306,363.03215271 380.56070133,418.426549728 442.105607691,497.31240802 494.230627863,545.186275988 539.797735323,613.168930174 637.915829916,678.185004469 663.210431475,716.677722317 714.334864538,761.306903449 795.149691071,835.999840893 859.124284335,885.053721471 927.052331203,949.032350306" stroke="#009EE0" stroke-width="1.5" /></g><g id="PathGroup"><polyline fill="none" points="-37.6498404132,-20.7723257452 -11.7191760761,9.13487761499 17.2229174935,51.471576488 77.7682309002,101.190144109 109.284773154,138.176207454 183.820115186,208.489026845 188.909817881,231.932970988 257.584897876,298.448390468 313.290600382,358.790190887 367.700876662,415.03318716 429.132009614,498.140510025 486.538284828,550.232844985 531.247169154,622.961162718 637.644787395,687.981255586 664.763039343,731.597152896 716.168580672,774.883629311 797.687113839,848.749801117 862.405355419,894.817151838 933.815414004,961.290437882" stroke="#009EE0" stroke-width="1.8" /></g><g id="PathGroup"><polyline fill="none" points="-45.1798084958,-24.9267908942 -19.0630112913,5.96185313799 5.26750099219,46.3658917856 70.1218770803,98.2281729312 99.9417277845,134.611448945 176.184138223,205.786832214 175.691781457,227.319565186 245.501877451,294.538068561 299.948720458,354.548229065 354.841051994,411.639824592 416.158411537,498.96861203 478.845941794,555.279413982 522.696602985,632.753395261 637.373744874,697.777506703 666.315647212,746.516583475 718.002296807,788.460355173 800.224536607,861.49976134 865.686426502,904.580582206 940.578496805,973.548525458" stroke="#009EE0" stroke-width="2.1" /></g><g id="PathGroup"><polyline fill="none" points="-52.7097765784,-29.0812560433 -26.4068465066,2.78882866099 -6.68791550911,41.2602070832 62.4755232603,95.2662017531 90.5986824153,131.046690436 168.54816126,203.084637583 162.473745033,222.706159383 233.418857026,290.627746655 286.606840535,350.306267242 341.981227327,408.246462024 403.184813459,499.796714035 471.15359876,560.325982979 514.146036816,642.545627805 637.102702353,707.573757821 667.868255081,761.436014054 719.836012941,802.037081036 802.761959375,874.249721564 868.967497586,914.344012573 947.341579605,985.806613035" stroke="#009EE0" stroke-width="2.4" /></g><g id="PathGroup"><polyline fill="none" points="-60.239744661,-33.2357211923 -33.7506817218,-0.384195816009 -18.6433320104,36.1545223807 54.8291694404,92.3042305749 81.255637046,127.481931927 160.912184298,200.382442952 149.255708609,218.092753581 221.335836601,286.717424748 273.264960611,346.06430542 329.121402659,404.853099456 390.211215382,500.624816039 463.461255725,565.372551976 505.595470647,652.337860348 636.831659832,717.370008938 669.420862949,776.355444633 721.669729075,815.613806898 805.299382142,886.999681787 872.24856867,924.107442941 954.104662406,998.064700611" stroke="#009EE0" stroke-width="2.7" /></g><g id="PathGroup"><polyline fill="none" points="-67.7697127437,-37.3901863413 -41.094516937,-3.55722029301 -30.5987485117,31.0488376783 47.1828156204,89.3422593968 71.9125916768,123.917173418 153.276207335,197.680248321 136.037672185,213.479347778 209.252816176,282.807102842 259.923080687,341.822343597 316.261577991,401.459736888 377.237617305,501.452918044 455.768912691,570.419120973 497.044904478,662.130092892 636.560617311,727.166260055 670.973470818,791.274875212 723.50344521,829.19053276 807.83680491,899.74964201 875.529639753,933.870873309 960.867745207,1010.32278819" stroke="#009EE0" stroke-width="3.0" /></g><g id="PathGroup"><polyline fill="none" points="-75.2996808263,-41.5446514904 -48.4383521522,-6.73024477001 -42.554165013,25.9431529759 39.5364618005,86.3802882187 62.5695463075,120.352414909 145.640230372,194.97805369 122.819635761,208.865941976 197.169795751,278.896780935 246.581200764,337.580381775 303.401753324,398.06637432 364.264019228,502.281020049 448.076569657,575.465689971 488.494338308,671.922325435 636.28957479,736.962511172 672.526078687,806.194305792 725.337161344,842.767258622 810.374227678,912.499602234 878.810710837,943.634303676 967.630828008,1022.58087576" stroke="#009EE0" stroke-width="3.3" /></g><g id="PathGroup"><polyline fill="none" points="-54.5095815143,20.8374682735 31.8901079805,83.4183170405 53.2265009383,116.7876564 138.004253409,192.275859059 109.601599338,204.252536173 185.086775327,274.986459029 233.23932084,333.338419952 290.541928656,394.673011752 351.290421151,503.109122054 440.384226622,580.512258968 479.943772139,681.714557979 636.018532269,746.75876229 674.078686555,821.113736371 727.170877479,856.343984485 812.911650446,925.249562457 882.091781921,953.397734044" stroke="#009EE0" stroke-width="3.6" /></g><g id="PathGroup"><polyline fill="none" points="-66.4649980156,15.7317835711 24.2437541606,80.4563458624 43.8834555691,113.222897891 130.368276446,189.573664428 96.3835629138,199.639130371 173.003754902,271.076137122 219.897440917,329.09645813 277.682103989,391.279649184 338.316823073,503.937224059 432.691883588,585.558827965 471.39320597,691.506790523 635.747489748,756.555013407 675.631294424,836.03316695 729.004593613,869.920710347 815.449073214,937.99952268 885.372853005,963.161164412" stroke="#009EE0" stroke-width="3.9" /></g><g id="PathGroup"><polyline fill="none" points="-78.4204145169,10.6260988687 16.5974003406,77.4943746843 34.5404101998,109.658139382 122.732299484,186.871469797 83.1655264899,195.025724569 160.920734477,267.165815216 206.555560993,324.854496307 264.822279321,387.886286616 325.343224996,504.765326064 424.999540554,590.605396962 462.842639801,701.299023066 635.476447227,766.351264524 677.183902293,850.952597529 730.838309747,883.497436209 817.986495981,950.749482904 888.653924088,972.924594779" stroke="#009EE0" stroke-width="4.2" /></g><g id="PathGroup"><polyline fill="none" points="-90.3758310182,5.5204141663 8.95104652067,74.5324035061 25.1973648306,106.093380873 115.096322521,184.169275166 69.9474900661,190.412318766 148.837714052,263.255493309 193.213681069,320.612534485 251.962454653,384.492924048 312.369626919,505.593428069 417.307197519,595.651965959 454.292073632,711.09125561 635.205404706,776.147515641 678.736510161,865.872028108 732.672025882,897.074162071 820.523918749,963.499443127" stroke="#009EE0" stroke-width="4.5" /></g><g id="PathGroup"><polyline fill="none" points="-102.33124752,0.414729463893 1.30469270071,71.570432328 15.8543194613,102.528622363 107.460345558,181.467080535 56.7294536422,185.798912964 136.754693627,259.345171403 179.871801146,316.370572662 239.102629986,381.09956148 299.396028842,506.421530074 409.614854485,600.698534956 445.741507463,720.883488153 634.934362185,785.943766758 680.28911803,880.791458687 734.505742016,910.650887934 823.061341517,976.24940335" stroke="#009EE0" stroke-width="4.8" /></g><g id="PathGroup"><polyline fill="none" points="-114.286664021,-4.69095523851 -6.34166111924,68.6084611499 6.51127409207,98.9638638544 99.8243685953,178.764885904 43.5114172184,181.185507161 124.671673202,255.434849496 166.529921222,312.12861084 226.242805318,377.706198912 286.422430764,507.249632079 401.922511451,605.745103953 437.190941294,730.675720697 634.663319664,795.740017876 681.841725899,895.710889266 736.339458151,924.227613796 825.598764285,988.999363574" stroke="#009EE0" stroke-width="5.1" /></g><g id="PathGroup"><polyline fill="none" points="-126.242080522,-9.79663994092 -13.9880149392,65.6464899717 -2.83177127717,95.3991053452 92.1883916325,176.062691274 30.2933807945,176.572101359 112.588652777,251.52452759 153.188041298,307.886649017 213.38298065,374.312836344 273.448832687,508.077734084 394.230168416,610.79167295 428.640375124,740.46795324 634.392277142,805.536268993 683.394333768,910.630319846 738.173174285,937.804339658 828.136187053,1001.7493238" stroke="#009EE0" stroke-width="5.4" /></g><g id="PathGroup"><polyline fill="none" points="-138.197497023,-14.9023246433 -21.6343687591,62.6845187936 -12.1748166464,91.8343468361 84.5524146697,173.360496643 17.0753443707,171.958695557 100.505632352,247.614205683 139.846161375,303.644687195 200.523155983,370.919473776 260.47523461,508.905836089 386.537825382,615.838241947 420.089808955,750.260185784 634.121234621,815.33252011 684.946941636,925.549750425 740.00689042,951.38106552 830.67360982,1014.49928402" stroke="#009EE0" stroke-width="5.7" /></g><g id="PathGroup"><polyline fill="none" points="-150.152913525,-20.0080093457 -29.2807225791,59.7225476154 -21.5178620157,88.269588327 76.9164377069,170.658302012 3.85730794684,167.345289754 88.4226119276,243.703883777 126.504281451,299.402725372 187.663331315,367.526111208 247.501636533,509.733938094 378.845482348,620.884810944 411.539242786,760.052418327 633.8501921,825.128771227 686.499549505,940.469181004 741.840606554,964.957791383" stroke="#009EE0" stroke-width="6.0" /></g><g id="PathGroup"><polyline fill="none" points="-162.108330026,-25.1136940481 -36.927076399,56.7605764373 -30.8609073849,84.7048298179 69.2804607441,167.956107381 -9.36072847701,162.731883952 76.3395915027,239.79356187 113.162401528,295.16076355 174.803506648,364.13274864 234.528038455,510.562040099 371.153139313,625.931379941 402.988676617,769.844650871 633.579149579,834.925022345 688.052157374,955.388611583 743.674322688,978.534517245" stroke="#009EE0" stroke-width="6.3" /></g><g id="PathGroup"><polyline fill="none" points="-174.063746527,-30.2193787505 -44.573430219,53.7986052592 -40.2039527542,81.1400713088 61.6444837813,165.25391275 -22.5787649009,158.118478149 64.2565710779,235.883239964 99.820521604,290.918801727 161.94368198,360.739386072 221.554440378,511.390142104 363.460796279,630.977948938 394.438110448,779.636883415 633.308107058,844.721273462 689.604765242,970.308042162" stroke="#009EE0" stroke-width="6.6" /></g><g id="PathGroup"><polyline fill="none" points="-186.019163029,-35.325063453 -52.219784039,50.836634081 -49.5469981234,77.5753127997 54.0085068185,162.551718119 -35.7968013247,153.505072347 52.173550653,231.972918057 86.4786416803,286.676839905 149.083857312,357.346023504 208.580842301,512.218244108 355.768453244,636.024517935 385.887544279,789.429115958 633.037064537,854.517524579 691.157373111,985.227472741" stroke="#009EE0" stroke-width="6.9" /></g><g id="PathGroup"><polyline fill="none" points="-58.8900434926,74.0105542906 46.3725298557,159.849523488 -49.0148377486,148.891666544 40.0905302281,228.062596151 73.1367617567,282.434878082 136.224032645,353.952660936 195.607244224,513.046346113 348.07611021,641.071086932 377.33697811,799.221348502 632.766022016,864.313775696 692.70998098,1000.14690332" stroke="#009EE0" stroke-width="7.2" /></g><g id="PathGroup"><polyline fill="none" points="-68.2330888619,70.4457957815 38.7365528929,157.147328857 -62.2328741724,144.278260742 28.0075098033,224.152274244 59.7948818331,278.19291626 123.364207977,350.559298368 182.633646147,513.874448118 340.383767176,646.117655929 368.78641194,809.013581045 632.494979495,874.110026813 694.262588848,1015.0663339" stroke="#009EE0" stroke-width="7.5" /></g><g id="PathGroup"><polyline fill="none" points="-77.5761342311,66.8810372724 31.1005759301,154.445134226 -75.4509105963,139.66485494 15.9244893784,220.241952338 46.4530019095,273.950954437 110.504383309,347.1659358 169.660048069,514.702550123 332.691424141,651.164224926 360.235845771,818.805813589 632.223936974,883.906277931 695.815196717,1029.98576448" stroke="#009EE0" stroke-width="7.8" /></g><g id="PathGroup"><polyline fill="none" points="-86.9191796004,63.3162787633 23.4645989673,151.742939595 -88.6689470201,135.051449137 3.84146895356,216.331630431 33.1111219859,269.708992615 97.6445586418,343.772573232 156.686449992,515.530652128 324.999081107,656.210793923 351.685279602,828.598046132 631.952894453,893.702529048 697.367804586,1044.90519506" stroke="#009EE0" stroke-width="8.1" /></g><g id="PathGroup"><polyline fill="none" points="-96.2622249696,59.7515202542 15.8286220045,149.040744964 -101.886983444,130.438043335 -8.24155147131,212.421308525 19.7692420622,265.467030792 84.7847339742,340.379210664 143.712851915,516.358754133 317.306738073,661.25736292 343.134713433,838.390278676 631.681851932,903.498780165 698.920412454,1059.82462564" stroke="#009EE0" stroke-width="8.4" /></g><g id="PathGroup"><polyline fill="none" points="-105.605270339,56.1867617451 8.1926450417,146.338550333 -115.105019868,125.824637532 -20.3245718962,208.510986618 6.42736213861,261.22506897 71.9249093066,336.985848096 130.739253838,517.186856138 309.614395038,666.303931917 334.584147264,848.182511219 631.410809411,913.295031282 700.473020323,1074.74405622" stroke="#009EE0" stroke-width="8.7" /></g><g id="PathGroup"><polyline fill="none" points="-114.948315708,52.622003236 0.556668078902,143.636355702 -128.323056292,121.21123173 -32.407592321,204.600664712 -6.91451778501,256.983107147 59.0650846389,333.592485528 117.76565576,518.014958143 301.922052004,671.350500915 326.033581095,857.974743763 631.13976689,923.0912824 702.025628192,1089.6634868" stroke="#009EE0" stroke-width="9.0" /></g><g id="PathGroup"><polyline fill="none" points="-124.291361077,49.0572447269 -7.07930888389,140.934161071 -141.541092716,116.597825928 -44.4906127459,200.690342805 -20.2563977086,252.741145325 46.2052599713,330.19912296 104.792057683,518.843060148 294.22970897,676.397069912 317.483014925,867.766976306 630.868724369,932.887533517 703.57823606,1104.58291737" stroke="#009EE0" stroke-width="9.3" /></g><g id="PathGroup"><polyline fill="none" points="-133.634406447,45.4924862178 -14.7152858467,138.23196644 -154.759129139,111.984420125 -56.5736331708,196.780020899 -33.5982776323,248.499183502 33.3454353037,326.805760392 91.818459606,519.671162153 286.537365935,681.443638909 308.932448756,877.55920885 630.597681848,942.683784634 705.130843929,1119.50234795" stroke="#009EE0" stroke-width="9.6" /></g><g id="PathGroup"><polyline fill="none" points="-142.977451816,41.9277277087 -22.3512628095,135.529771809 -167.977165563,107.371014323 -68.6566535956,192.869698992 -46.9401575559,244.25722168 20.4856106361,323.412397824 78.8448615287,520.499264158 278.845022901,686.490207906 300.381882587,887.351441394 630.326639327,952.480035751 706.683451798,1134.42177853" stroke="#009EE0" stroke-width="9.9" /></g><g id="PathGroup"><polyline fill="none" points="-152.320497185,38.3629691996 -29.9872397723,132.827577178 -181.195201987,102.75760852 -80.7396740205,188.959377086 -60.2820374795,240.015259857 7.62578596844,320.019035256 65.8712634515,521.327366163 271.152679867,691.536776903 291.831316418,897.143673937 630.055596806,962.276286869" stroke="#009EE0" stroke-width="10.2" /></g><g id="PathGroup"><polyline fill="none" points="-161.663542554,34.7982106905 -37.6232167351,130.125382547 -194.413238411,98.1442027179 -92.8226944453,185.049055179 -73.6239174031,235.773298034 -5.23403869918,316.625672688 52.8976653743,522.155468168 263.460336832,696.5833459 283.280750249,906.935906481 629.784554285,972.072537986" stroke="#009EE0" stroke-width="10.5" /></g><g id="PathGroup"><polyline fill="none" points="-171.006587924,31.2334521814 -45.2591936979,127.423187916 -207.631274835,93.5307969155 -104.90571487,181.138733273 -86.9657973267,231.531336212 -18.0938633668,313.23231012 39.924067297,522.983570173 255.767993798,701.629914897 274.73018408,916.728139024 629.513511764,981.868789103" stroke="#009EE0" stroke-width="10.8" /></g><g id="PathGroup"><polyline fill="none" points="-180.349633293,27.6686936723 -52.8951706607,124.720993285 -220.849311259,88.917391113 -116.988735295,177.228411367 -100.30767725,227.289374389 -30.9536880344,309.838947552 26.9504692198,523.811672177 248.075650764,706.676483894 266.179617911,926.520371568 629.242469243,991.66504022" stroke="#009EE0" stroke-width="11.1" /></g><g id="PathGroup"><polyline fill="none" points="-189.692678662,24.1039351632 -60.5311476235,122.018798654 -234.067347682,84.3039853106 -129.07175572,173.31808946 -113.649557174,223.047412567 -43.813512702,306.445584983 13.9768711426,524.639774182 240.383307729,711.723052891 257.629051741,936.312604111 628.971426722,1001.46129134" stroke="#009EE0" stroke-width="11.4" /></g><g id="PathGroup"><polyline fill="none" points="-126.991437098,218.805450744 -56.6733373697,303.052222415 1.00327306537,525.467876187 232.690964695,716.769621888 249.078485572,946.104836655 628.700384201,1011.25754245" stroke="#009EE0" stroke-width="11.7" /></g><g id="PathGroup"><polyline fill="none" points="-69.5331620373,299.658859847 -11.9703250119,526.295978192 224.998621661,721.816190885 240.527919403,955.897069198 628.42934168,1021.05379357" stroke="#009EE0" stroke-width="12.0" /></g><g id="PathGroup"><polyline fill="none" points="-82.3929867049,296.265497279 -24.9439230891,527.124080197 217.306278626,726.862759882 231.977353234,965.689301742" stroke="#009EE0" stroke-width="12.3" /></g><g id="PathGroup"><polyline fill="none" points="-95.2528113725,292.872134711 -37.9175211663,527.952182202 209.613935592,731.909328879 223.426787065,975.481534286" stroke="#009EE0" stroke-width="12.6" /></g><g id="PathGroup"><polyline fill="none" points="-108.11263604,289.478772143 -50.8911192435,528.780284207 201.921592558,736.955897876 214.876220896,985.273766829" stroke="#009EE0" stroke-width="12.9" /></g><g id="PathGroup"><polyline fill="none" points="-63.8647173208,529.608386212 194.229249523,742.002466873 206.325654726,995.065999373" stroke="#009EE0" stroke-width="13.2" /></g><g id="PathGroup"><polyline fill="none" points="-76.838315398,530.436488217 186.536906489,747.04903587 197.775088557,1004.85823192" stroke="#009EE0" stroke-width="13.5" /></g><g id="PathGroup"><polyline fill="none" points="-89.8119134752,531.264590222 178.844563455,752.095604867 189.224522388,1014.65046446" stroke="#009EE0" stroke-width="13.8" /></g><g id="PathGroup"><polyline fill="none" points="-102.785511552,532.092692227 171.15222042,757.142173864 180.673956219,1024.442697" stroke="#009EE0" stroke-width="14.1" /></g><g id="PathGroup"><polyline fill="none" points="-115.75910963,532.920794232 163.459877386,762.188742861 172.12339005,1034.23492955" stroke="#009EE0" stroke-width="14.4" /></g><g id="PathGroup"><polyline fill="none" points="-128.732707707,533.748896237 155.767534352,767.235311859 163.572823881,1044.02716209" stroke="#009EE0" stroke-width="14.7" /></g><g id="PathGroup"><polyline fill="none" points="-141.706305784,534.576998242 148.075191317,772.281880856 155.022257712,1053.81939463" stroke="#009EE0" stroke-width="15.0" /></g><g id="PathGroup"><polyline fill="none" points="-154.679903861,535.405100246 140.382848283,777.328449853 146.471691542,1063.61162718" stroke="#009EE0" stroke-width="15.3" /></g><g id="PathGroup"><polyline fill="none" points="-167.653501939,536.233202251 132.690505249,782.37501885 137.921125373,1073.40385972" stroke="#009EE0" stroke-width="15.6" /></g><g id="PathGroup"><polyline fill="none" points="-180.627100016,537.061304256 124.998162214,787.421587847 129.370559204,1083.19609226" stroke="#009EE0" stroke-width="15.9" /></g><g id="PathGroup"><polyline fill="none" points="-193.600698093,537.889406261 117.30581918,792.468156844 120.819993035,1092.98832481" stroke="#009EE0" stroke-width="16.2" /></g><g id="PathGroup"><polyline fill="none" points="-206.57429617,538.717508266 109.613476146,797.514725841 112.269426866,1102.78055735" stroke="#009EE0" stroke-width="16.5" /></g><g id="PathGroup"><polyline fill="none" points="-219.547894247,539.545610271 101.921133111,802.561294838 103.718860697,1112.5727899" stroke="#009EE0" stroke-width="16.8" /></g><g id="PathGroup"><polyline fill="none" points="-232.521492325,540.373712276 94.2287900768,807.607863835 95.1682945275,1122.36502244" stroke="#009EE0" stroke-width="17.1" /></g><g id="PathGroup"><polyline fill="none" points="-245.495090402,541.201814281 86.5364470425,812.654432832 86.6177283584,1132.15725498" stroke="#009EE0" stroke-width="17.4" /></g><g id="PathGroup"><polyline fill="none" points="-258.468688479,542.029916286 78.8441040082,817.701001829 78.0671621892,1141.94948753" stroke="#009EE0" stroke-width="17.7" /></g><g id="PathGroup"><polyline fill="none" points="-271.442286556,542.858018291 71.1517609738,822.747570826 69.5165960201,1151.74172007" stroke="#009EE0" stroke-width="18.0" /></g><g id="PathGroup"><polyline fill="none" points="-284.415884634,543.686120296 63.4594179395,827.794139823 60.9660298509,1161.53395261" stroke="#009EE0" stroke-width="18.3" /></g><g id="PathGroup"><polyline fill="none" points="-297.389482711,544.514222301 55.7670749051,832.84070882 52.4154636817,1171.32618516" stroke="#009EE0" stroke-width="18.6" /></g><g id="PathGroup"><polyline fill="none" points="-310.363080788,545.342324306 48.0747318708,837.887277817 43.8648975126,1181.1184177" stroke="#009EE0" stroke-width="18.9" /></g><g id="PathGroup"><polyline fill="none" points="-323.336678865,546.170426311 40.3823888365,842.933846814 35.3143313434,1190.91065024" stroke="#009EE0" stroke-width="19.2" /></g><g id="PathGroup"><polyline fill="none" points="-336.310276943,546.998528315 32.6900458021,847.980415811 26.7637651743,1200.70288279" stroke="#009EE0" stroke-width="19.5" /></g><g id="PathGroup"><polyline fill="none" points="-349.28387502,547.82663032 24.9977027678,853.026984808 18.2131990051,1210.49511533" stroke="#009EE0" stroke-width="19.8" /></g><g id="PathGroup"><polyline fill="none" points="-362.257473097,548.654732325 17.3053597334,858.073553805 9.66263283599,1220.28734787" stroke="#009EE0" stroke-width="20.1" /></g><g id="PathGroup"><polyline fill="none" points="-375.231071174,549.48283433 9.61301669909,863.120122803 1.11206666684,1230.07958042" stroke="#009EE0" stroke-width="20.4" /></g><g id="PathGroup"><polyline fill="none" points="-388.204669251,550.310936335 1.92067366474,868.1666918 -7.43849950231,1239.87181296" stroke="#009EE0" stroke-width="20.7" /></g><g id="PathGroup"><polyline fill="none" points="-401.178267329,551.13903834 -5.7716693696,873.213260797 -15.9890656715,1249.6640455" stroke="#009EE0" stroke-width="21.0" /></g><g id="PathGroup"><polyline fill="none" points="-414.151865406,551.967140345 -13.4640124039,878.259829794 -24.5396318406,1259.45627805" stroke="#009EE0" stroke-width="21.3" /></g><g id="PathGroup"><polyline fill="none" points="-427.125463483,552.79524235 -21.1563554383,883.306398791 -33.0901980098,1269.24851059" stroke="#009EE0" stroke-width="21.6" /></g><g id="PathGroup"><polyline fill="none" points="-440.09906156,553.623344355 -28.8486984726,888.352967788 -41.6407641789,1279.04074314" stroke="#009EE0" stroke-width="21.9" /></g><g id="PathGroup"><polyline fill="none" points="-453.072659638,554.45144636 -36.541041507,893.399536785 -50.1913303481,1288.83297568" stroke="#009EE0" stroke-width="22.2" /></g><g id="PathGroup"><polyline fill="none" points="-466.046257715,555.279548365 -44.2333845413,898.446105782 -58.7418965172,1298.62520822" stroke="#009EE0" stroke-width="22.5" /></g><g id="PathGroup"><polyline fill="none" points="-479.019855792,556.10765037 -51.9257275756,903.492674779 -67.2924626864,1308.41744077" stroke="#009EE0" stroke-width="22.8" /></g><g id="PathGroup"><polyline fill="none" points="-491.993453869,556.935752375 -59.61807061,908.539243776 -75.8430288555,1318.20967331" stroke="#009EE0" stroke-width="23.1" /></g><g id="PathGroup"><polyline fill="none" points="-504.967051946,557.76385438 -67.3104136443,913.585812773 -84.3935950247,1328.00190585" stroke="#009EE0" stroke-width="23.4" /></g></g></svg>
