<svg baseProfile="full" height="100%" version="1.1" viewBox="0,-1,901,901" width="100%" xmlns="http://www.w3.org/2000/svg" xmlns:ev="http://www.w3.org/2001/xml-events" xmlns:xlink="http://www.w3.org/1999/xlink"><defs><clipPath id="LOGO_CLIPPATH"><rect height="901" width="901" x="0" y="-1" /></clipPath></defs><g clip-path="url(#LOGO_CLIPPATH )" id="Logo_GROUP"><g id="PathGroup"><polyline fill="none" points="0.0,0.0 16.0,16.0 96.0,96.0 145.0,145.0 191.0,191.0 238.0,238.0 297.0,297.0 339.0,339.0 354.0,354.0 438.0,438.0 456.0,456.0 549.0,549.0 588.0,588.0 639.0,639.0 668.0,668.0 732.0,732.0 756.0,756.0 847.0,847.0 900.0,900.0" stroke="#009EE0" stroke-width="0.3" /></g><g id="PathGroup"><polyline fill="none" points="-10.7696055135,-5.94185131781 5.98931258411,10.5459980325 85.4381948905,90.3036614541 136.879687145,140.675590313 180.210402011,185.747898018 228.994967273,233.651507665 283.813990278,292.295837205 326.553904025,335.608142843 340.291498983,351.157993692 425.807118281,437.583304191 441.011985619,456.599520575 537.601848601,549.205291685 574.325750104,594.165621605 630.676335336,644.895473396 660.312272373,678.483264946 734.271558755,744.596825823 761.367431189,767.840214628 852.169631129,857.272532015 906.763082801,912.258087576" stroke="#009EE0" stroke-width="0.6" /></g><g id="PathGroup"><polyline fill="none" points="-21.5392110271,-11.8837026356 -4.02137483178,5.09199606504 74.8763897811,84.6073229082 128.75937429,136.351180627 169.420804022,180.495796036 219.989934546,229.30301533 270.627980556,287.591674409 314.10780805,332.216285686 326.582997965,348.315987383 413.614236563,437.166608382 426.023971238,457.19904115 526.203697201,549.410583371 560.651500208,600.33124321 622.352670672,650.790946791 652.624544746,688.966529892 736.54311751,757.193651647 766.734862379,779.680429255 857.339262257,867.54506403 913.526165602,924.516175153" stroke="#009EE0" stroke-width="0.9" /></g><g id="PathGroup"><polyline fill="none" points="-32.3088165406,-17.8255539534 -14.0320622477,-0.362005902446 64.3145846716,78.9109843622 120.639061435,132.02677094 158.631206032,175.243694054 210.984901819,224.954522995 257.441970833,282.887511614 301.661712074,328.824428528 312.874496948,345.473981075 401.421354844,436.749912573 411.035956858,457.798561726 514.805545802,549.615875056 546.977250311,606.496864815 614.029006007,656.686420187 644.936817119,699.449794838 738.814676265,769.79047747 772.102293568,791.520643883 862.508893386,877.817596044 920.289248402,936.774262729" stroke="#009EE0" stroke-width="1.2" /></g><g id="PathGroup"><polyline fill="none" points="-43.0784220541,-23.7674052712 -24.0427496636,-5.81600786993 53.7527795622,73.2146458163 112.51874858,127.702361254 147.841608043,169.991592071 201.979869093,220.60603066 244.255961111,278.183348818 289.215616099,325.432571371 299.165995931,342.631974766 389.228473126,436.333216764 396.047942477,458.398082301 503.407394402,549.821166741 533.303000415,612.66248642 605.705341343,662.581893582 637.249089491,709.933059784 741.08623502,782.387303293 777.469724758,803.36085851 867.678524514,888.090128059 927.052331203,949.032350306" stroke="#009EE0" stroke-width="1.5" /></g><g id="PathGroup"><polyline fill="none" points="-53.8480275676,-29.709256589 -34.0534370795,-11.2700098374 43.1909744527,67.5183072704 104.398435725,123.377951567 137.052010054,164.739490089 192.974836366,216.257538325 231.069951389,273.479186023 276.769520124,322.040714214 285.457494913,339.789968458 377.035591407,435.916520954 381.059928096,458.997602876 492.009243003,550.026458427 519.628750519,618.828108025 597.381676679,668.477366978 629.561361864,720.416324731 743.357793775,794.984129116 782.837155947,815.201073138 872.848155643,898.362660074 933.815414004,961.290437882" stroke="#009EE0" stroke-width="1.8" /></g><g id="PathGroup"><polyline fill="none" points="-64.6176330812,-35.6511079069 -44.0641244954,-16.7240118049 32.6291693432,61.8219687245 96.27812287,119.053541881 126.262412065,159.487388107 183.969803639,211.909045989 217.883941667,268.775023227 264.323424149,318.648857057 271.748993896,336.947962149 364.842709689,435.499825145 366.071913715,459.597123451 480.611091604,550.231750112 505.954500623,624.99372963 589.058012015,674.372840373 621.873634237,730.899589677 745.62935253,807.58095494 788.204587137,827.041287765 878.017786771,908.635192089 940.578496805,973.548525458" stroke="#009EE0" stroke-width="2.1" /></g><g id="PathGroup"><polyline fill="none" points="-54.0748119112,-22.1780137724 22.0673642338,56.1256301785 88.157810015,114.729132194 115.472814075,154.235286125 174.964770912,207.560553654 204.697931945,264.070860432 251.877328173,315.256999899 258.040492879,334.105955841 352.64982797,435.083129336 351.083899334,460.196644027 469.212940204,550.437041797 492.280250727,631.159351235 580.73434735,680.268313769 614.18590661,741.382854623 747.900911285,820.177780763 793.572018326,838.881502393 883.1874179,918.907724103 947.341579605,985.806613035" stroke="#009EE0" stroke-width="2.4" /></g><g id="PathGroup"><polyline fill="none" points="-64.0854993271,-27.6320157399 11.5055591243,50.4292916326 80.03749716,110.404722508 104.683216086,148.983184143 165.959738185,203.212061319 191.511922223,259.366697636 239.431232198,311.865142742 244.331991861,331.263949532 340.456946252,434.666433527 336.095884953,460.796164602 457.814788805,550.642333483 478.60600083,637.32497284 572.410682686,686.163787164 606.498178983,751.866119569 750.17247004,832.774606586 798.939449516,850.72171702 888.357049029,929.180256118 954.104662406,998.064700611" stroke="#009EE0" stroke-width="2.7" /></g><g id="PathGroup"><polyline fill="none" points="-74.096186743,-33.0860177073 0.943754014859,44.7329530867 71.917184305,106.080312821 93.8936180969,143.731082161 156.954705458,198.863568984 178.3259125,254.662534841 226.985136223,308.473285585 230.623490844,328.421943224 328.264064533,434.249737718 321.107870573,461.395685177 446.416637405,550.847625168 464.931750934,643.490594445 564.087018022,692.05926056 598.810451356,762.349384515 752.444028795,845.37143241 804.306880705,862.561931648 893.526680157,939.452788133 960.867745207,1010.32278819" stroke="#009EE0" stroke-width="3.0" /></g><g id="PathGroup"><polyline fill="none" points="-84.1068741589,-38.5400196748 -9.6180510946,39.0366145408 63.79687145,101.755903135 83.1040201076,138.478980179 147.949672731,194.515076649 165.139902778,249.958372045 214.539040248,305.081428428 216.914989827,325.579936915 316.071182814,433.833041909 306.119856192,461.995205752 435.018486006,551.052916853 451.257501038,649.65621605 555.763353358,697.954733956 591.122723728,772.832649461 754.71558755,857.968258233 809.674311894,874.402146276 898.696311286,949.725320148 967.630828008,1022.58087576" stroke="#009EE0" stroke-width="3.3" /></g><g id="PathGroup"><polyline fill="none" points="-94.1175615748,-43.9940216423 -20.1798562041,33.3402759948 55.676558595,97.4314934481 72.3144221184,133.226878197 138.944640005,190.166584314 151.953893056,245.25420925 202.092944272,301.689571271 203.206488809,322.737930607 303.878301096,433.4163461 291.131841811,462.594726328 423.620334606,551.258208539 437.583251142,655.821837655 547.439688694,703.850207351 583.434996101,783.315914407 756.987146305,870.565084056 815.041743084,886.242360903 903.865942414,959.997852163" stroke="#009EE0" stroke-width="3.6" /></g><g id="PathGroup"><polyline fill="none" points="-104.128248991,-49.4480236098 -30.7416613135,27.6439374489 47.55624574,93.1070837616 61.5248241292,127.974776214 129.939607278,185.818091979 138.767883334,240.550046454 189.646848297,298.297714113 189.497987792,319.895924298 291.685419377,432.999650291 276.14382743,463.194246903 412.222183207,551.463500224 423.909001245,661.98745926 539.116024029,709.745680747 575.747268474,793.799179353 759.25870506,883.16190988 820.409174273,898.082575531 909.035573543,970.270384177" stroke="#009EE0" stroke-width="3.9" /></g><g id="PathGroup"><polyline fill="none" points="-114.138936407,-54.9020255773 -41.303466423,21.947598903 39.435932885,88.7826740751 50.7352261399,122.722674232 120.934574551,181.469599644 125.581873612,235.845883659 177.200752322,294.905856956 175.789486774,317.05391799 279.492537659,432.582954482 261.155813049,463.793767478 400.824031808,551.668791909 410.234751349,668.153080865 530.792359365,715.641154142 568.059540847,804.2824443 761.530263815,895.758735703 825.776605463,909.922790158 914.205204671,980.542916192" stroke="#009EE0" stroke-width="4.2" /></g><g id="PathGroup"><polyline fill="none" points="-124.149623822,-60.3560275447 -51.8652715324,16.2512603571 31.3156200301,84.4582643885 39.9456281507,117.47057225 111.929541824,177.121107309 112.395863889,231.141720863 164.754656347,291.513999799 162.080985757,314.211911681 267.29965594,432.166258673 246.167798668,464.393288053 389.425880408,551.874083595 396.560501453,674.31870247 522.468694701,721.536627538 560.37181322,814.765709246 763.80182257,908.355561526 831.144036652,921.763004786 919.3748358,990.815448207" stroke="#009EE0" stroke-width="4.5" /></g><g id="PathGroup"><polyline fill="none" points="-62.4270766419,10.5549218111 23.1953071751,80.133854702 29.1560301615,112.218470268 102.924509097,172.772614974 99.2098541673,226.437558068 152.308560371,288.122142642 148.37248474,311.369905373 255.106774222,431.749562863 231.179784288,464.992808628 378.027729009,552.07937528 382.886251557,680.484324075 514.145030037,727.432100933 552.684085593,825.248974192 766.073381325,920.952387349 836.511467842,933.603219413 924.544466928,1001.08798022" stroke="#009EE0" stroke-width="4.8" /></g><g id="PathGroup"><polyline fill="none" points="-72.9888817514,4.85858326521 15.0749943201,75.8094450155 18.3664321722,106.966368286 93.9194763703,168.424122639 86.0238444451,221.733395272 139.862464396,284.730285485 134.663983722,308.527899064 242.913892503,431.332867054 216.191769907,465.592329204 366.629577609,552.284666966 369.212001661,686.64994568 505.821365373,733.327574329 544.996357965,835.732239138 768.34494008,933.549213173 841.878899031,945.443434041 929.714098057,1011.36051224" stroke="#009EE0" stroke-width="5.1" /></g><g id="PathGroup"><polyline fill="none" points="-83.5506868608,-0.837755280712 6.95468146506,71.4850353289 7.57683418298,101.714266304 84.9144436435,164.075630304 72.8378347229,217.029232477 127.416368421,281.338428327 120.955482705,305.685892756 230.721010785,430.916171245 201.203755526,466.191849779 355.23142621,552.489958651 355.537751764,692.815567285 497.497700708,739.223047724 537.308630338,846.215504084 770.616498835,946.146038996 847.246330221,957.283648668" stroke="#009EE0" stroke-width="5.4" /></g><g id="PathGroup"><polyline fill="none" points="-94.1124919703,-6.53409382664 -1.16563138993,67.1606256424 -3.21276380626,96.4621643217 75.9094109166,159.727137968 59.6518250007,212.325069681 114.970272446,277.94657117 107.246981688,302.843886447 218.528129066,430.499475436 186.215741145,466.791370354 343.833274811,552.695250336 341.863501868,698.98118889 489.174036044,745.11852112 529.620902711,856.69876903 772.88805759,958.742864819" stroke="#009EE0" stroke-width="5.7" /></g><g id="PathGroup"><polyline fill="none" points="-104.67429708,-12.2304323726 -9.28594424493,62.8362159559 -14.0023617955,91.2100623396 66.9043781898,155.378645633 46.4658152785,207.620906886 102.52417647,274.554714013 93.5384806704,300.001880139 206.335247347,430.082779627 171.227726764,467.390890929 332.435123411,552.900542022 328.189251972,705.146810495 480.85037138,751.013994515 521.933175084,867.182033976 775.159616345,971.339690643" stroke="#009EE0" stroke-width="6.0" /></g><g id="PathGroup"><polyline fill="none" points="-115.236102189,-17.9267709185 -17.4062570999,58.5118062693 -24.7919597847,85.9579603575 57.8993454629,151.030153298 33.2798055564,202.91674409 90.0780804951,271.162856856 79.8299796531,297.159873831 194.142365629,429.666083818 156.239712383,467.990411505 321.036972012,553.105833707 314.515002076,711.3124321 472.526706716,756.909467911 514.245447457,877.665298922 777.4311751,983.936516466" stroke="#009EE0" stroke-width="6.3" /></g><g id="PathGroup"><polyline fill="none" points="-125.797907299,-23.6231094644 -25.5265699549,54.1873965828 -35.581557774,80.7058583753 48.8943127361,146.681660963 20.0937958342,198.212581295 77.6319845198,267.770999698 66.1214786357,294.317867522 181.94948391,429.249388009 141.251698003,468.58993208 309.638820612,553.311125392 300.84075218,717.478053705 464.203042051,762.804941307 506.55771983,888.148563869 779.702733855,996.533342289" stroke="#009EE0" stroke-width="6.6" /></g><g id="PathGroup"><polyline fill="none" points="-136.359712408,-29.3194480103 -33.6468828099,49.8629868963 -46.3711557632,75.4537563932 39.8892800092,142.333168628 6.90778611199,193.508418499 65.1858885446,264.379142541 52.4129776184,291.475861214 169.756602192,428.8326922 126.263683622,469.189452655 298.240669213,553.516417078 287.166502283,723.64367531 455.879377387,768.700414702 498.869992203,898.631828815 781.97429261,1009.13016811" stroke="#009EE0" stroke-width="6.9" /></g><g id="PathGroup"><polyline fill="none" points="-146.921517518,-35.0157865563 -41.7671956649,45.5385772097 -57.1607537524,70.2016544111 30.8842472824,137.984676293 -6.2782236102,188.804255704 52.7397925693,260.987285384 38.704476601,288.633854905 157.563720473,428.415996391 111.275669241,469.78897323 286.842517814,553.721708763 273.492252387,729.809296915 447.555712723,774.595888098 491.182264575,909.115093761 784.245851365,1021.72699394" stroke="#009EE0" stroke-width="7.2" /></g><g id="PathGroup"><polyline fill="none" points="-157.483322627,-40.7121251022 -49.8875085199,41.2141675232 -67.9503517417,64.9495524289 21.8792145555,133.636183958 -19.4642333324,184.100092908 40.2936965941,257.595428227 24.9959755837,285.791848597 145.370838755,427.999300582 96.2876548602,470.388493806 275.444366414,553.927000448 259.818002491,735.97491852 439.232048059,780.491361493 483.494536948,919.598358707 786.51741012,1034.32381976" stroke="#009EE0" stroke-width="7.5" /></g><g id="PathGroup"><polyline fill="none" points="-78.7399497309,59.6974504468 12.8741818286,129.287691623 -32.6502430546,179.395930113 27.8476006188,254.20357107 11.2874745663,282.949842288 133.177957036,427.582604772 81.2996404793,470.988014381 264.046215015,554.132292134 246.143752595,742.140540125 430.908383395,786.386834889 475.806809321,930.081623653 788.788968876,1046.92064558" stroke="#009EE0" stroke-width="7.8" /></g><g id="PathGroup"><polyline fill="none" points="-89.5295477201,54.4453484647 3.86914910179,124.939199288 -45.8362527767,174.691767317 15.4015046436,250.811713912 -2.42102645101,280.10783598 120.985075318,427.165908963 66.3116260985,471.587534956 252.648063615,554.337583819 232.469502698,748.30616173 422.58471873,792.282308284 468.119081694,940.564888599 791.060527631,1059.51747141" stroke="#009EE0" stroke-width="8.1" /></g><g id="PathGroup"><polyline fill="none" points="-100.319145709,49.1932464826 -5.13588362506,120.590706953 -59.0222624989,169.987604522 2.95540866835,247.419856755 -16.1295274684,277.265829671 108.792193599,426.749213154 51.3236117177,472.187055531 241.249912216,554.542875504 218.795252802,754.471783335 414.261054066,798.17778168 460.431354067,951.048153545 793.332086386,1072.11429723" stroke="#009EE0" stroke-width="8.4" /></g><g id="PathGroup"><polyline fill="none" points="-111.108743699,43.9411445004 -14.1409163519,116.242214618 -72.2082722211,165.283441726 -9.4906873069,244.027999598 -29.8380284857,274.423823363 96.5993118805,426.332517345 36.3355973368,472.786576107 229.851760816,554.74816719 205.121002906,760.63740494 405.937389402,804.073255075 452.74362644,961.531418491" stroke="#009EE0" stroke-width="8.7" /></g><g id="PathGroup"><polyline fill="none" points="-121.898341688,38.6890425183 -23.1459490788,111.893722283 -85.3942819433,160.579278931 -21.9367832821,240.636142441 -43.5465295031,271.581817054 84.4064301619,425.915821536 21.347582956,473.386096682 218.453609417,554.953458875 191.44675301,766.803026545 397.613724738,809.968728471 445.055898812,972.014683438" stroke="#009EE0" stroke-width="9.0" /></g><g id="PathGroup"><polyline fill="none" points="-132.687939677,33.4369405362 -32.1509818056,107.545229947 -98.5802916655,155.875116135 -34.3828792574,237.244285284 -57.2550305204,268.739810746 72.2135484433,425.499125727 6.35956857519,473.985617257 207.055458018,555.15875056 177.772503114,772.96864815 389.290060073,815.864201867 437.368171185,982.497948384" stroke="#009EE0" stroke-width="9.3" /></g><g id="PathGroup"><polyline fill="none" points="-143.477537666,28.1848385541 -41.1560145325,103.196737612 -111.766301388,151.17095334 -46.8289752326,233.852428126 -70.9635315377,265.897804437 60.0206667248,425.082429918 -8.62844580563,474.585137832 195.657306618,555.364042246 164.098253217,779.134269755 380.966395409,821.759675262 429.680443558,992.98121333" stroke="#009EE0" stroke-width="9.6" /></g><g id="PathGroup"><polyline fill="none" points="-154.267135656,22.9327365719 -50.1610472593,98.8482452773 -124.95231111,146.466790544 -59.2750712079,230.460570969 -84.6720325551,263.055798129 47.8277850062,424.665734109 -23.6164601865,475.184658407 184.259155219,555.569333931 150.424003321,785.29989136 372.642730745,827.655148658 421.992715931,1003.46447828" stroke="#009EE0" stroke-width="9.9" /></g><g id="PathGroup"><polyline fill="none" points="-165.056733645,17.6806345898 -59.1660799862,94.4997529422 -138.138320832,141.762627749 -71.7211671831,227.068713812 -98.3805335724,260.21379182 35.6349032877,424.2490383 -38.6044745673,475.784178983 172.861003819,555.774625616 136.749753425,791.465512965 364.319066081,833.550622053 414.304988304,1013.94774322" stroke="#009EE0" stroke-width="10.2" /></g><g id="PathGroup"><polyline fill="none" points="-112.08903459,257.371785512 23.4420215691,423.83234249 -53.5924889481,476.383699558 161.46285242,555.979917302 123.075503529,797.63113457 355.995401417,839.446095449 406.617260677,1024.43100817" stroke="#009EE0" stroke-width="10.5" /></g><g id="PathGroup"><polyline fill="none" points="-125.797535607,254.529779203 11.2491398506,423.415646681 -68.5805033289,476.983220133 150.064701021,556.185208987 109.401253633,803.796756175 347.671736752,845.341568844 398.929533049,1034.91427311" stroke="#009EE0" stroke-width="10.8" /></g><g id="PathGroup"><polyline fill="none" points="-139.506036624,251.687772895 -0.943741867984,422.998950872 -83.5685177098,477.582740708 138.666549621,556.390500672 95.7270037363,809.96237778 339.348072088,851.23704224 391.241805422,1045.39753806" stroke="#009EE0" stroke-width="11.1" /></g><g id="PathGroup"><polyline fill="none" points="-153.214537642,248.845766586 -13.1366235865,422.582255063 -98.5565320906,478.182261284 127.268398222,556.595792358 82.0527538401,816.127999385 331.024407424,857.132515635 383.554077795,1055.88080301" stroke="#009EE0" stroke-width="11.4" /></g><g id="PathGroup"><polyline fill="none" points="-166.923038659,246.003760278 -25.3295053051,422.165559254 -113.544546471,478.781781859 115.870246822,556.801084043 68.3785039439,822.29362099 322.70074276,863.027989031 375.866350168,1066.36406795" stroke="#009EE0" stroke-width="11.7" /></g><g id="PathGroup"><polyline fill="none" points="-180.631539677,243.16175397 -37.5223870236,421.748863445 -128.532560852,479.381302434 104.472095423,557.006375728 54.7042540477,828.459242595 314.377078095,868.923462426 368.178622541,1076.8473329" stroke="#009EE0" stroke-width="12.0" /></g><g id="PathGroup"><polyline fill="none" points="-194.340040694,240.319747661 -49.7152687422,421.332167636 -143.520575233,479.980823009 93.0739440235,557.211667414 41.0300041515,834.6248642 306.053413431,874.818935822 360.490894914,1087.33059784" stroke="#009EE0" stroke-width="12.3" /></g><g id="PathGroup"><polyline fill="none" points="-208.048541711,237.477741353 -61.9081504608,420.915471827 -158.508589614,480.580343585 81.6757926241,557.416959099 27.3557542553,840.790485805 297.729748767,880.714409218 352.803167287,1097.81386279" stroke="#009EE0" stroke-width="12.6" /></g><g id="PathGroup"><polyline fill="none" points="-173.496603995,481.17986416 70.2776412247,557.622250785 13.681504359,846.95610741 289.406084103,886.609882613 345.115439659,1108.29712774" stroke="#009EE0" stroke-width="12.9" /></g><g id="PathGroup"><polyline fill="none" points="-188.484618376,481.779384735 58.8794898253,557.82754247 0.00725446282422,853.121729015 281.082419439,892.505356009 337.427712032,1118.78039268" stroke="#009EE0" stroke-width="13.2" /></g><g id="PathGroup"><polyline fill="none" points="-203.472632756,482.37890531 47.4813384259,558.032834155 -13.6669954334,859.28735062 272.758754774,898.400829404 329.739984405,1129.26365763" stroke="#009EE0" stroke-width="13.5" /></g><g id="PathGroup"><polyline fill="none" points="-218.460647137,482.978425885 36.0831870264,558.238125841 -27.3412453296,865.452972225 264.43509011,904.2963028 322.052256778,1139.74692258" stroke="#009EE0" stroke-width="13.8" /></g><g id="PathGroup"><polyline fill="none" points="-233.448661518,483.577946461 24.685035627,558.443417526 -41.0154952258,871.618593829 256.111425446,910.191776195 314.364529151,1150.23018752" stroke="#009EE0" stroke-width="14.1" /></g><g id="PathGroup"><polyline fill="none" points="-248.436675899,484.177467036 13.2868842276,558.648709211 -54.689745122,877.784215434 247.787760782,916.087249591 306.676801524,1160.71345247" stroke="#009EE0" stroke-width="14.4" /></g><g id="PathGroup"><polyline fill="none" points="-263.42469028,484.776987611 1.8887328282,558.854000897 -68.3639950182,883.949837039 239.464096118,921.982722986 298.989073896,1171.19671741" stroke="#009EE0" stroke-width="14.7" /></g><g id="PathGroup"><polyline fill="none" points="-278.412704661,485.376508186 -9.50941857121,559.059292582 -82.0382449145,890.115458644 231.140431453,927.878196382 291.301346269,1181.67998236" stroke="#009EE0" stroke-width="15.0" /></g><g id="PathGroup"><polyline fill="none" points="-293.400719041,485.976028762 -20.9075699706,559.264584267 -95.7124948107,896.281080249 222.816766789,933.773669778 283.613618642,1192.16324731" stroke="#009EE0" stroke-width="15.3" /></g><g id="PathGroup"><polyline fill="none" points="-308.388733422,486.575549337 -32.30572137,559.469875953 -109.386744707,902.446701854 214.493102125,939.669143173 275.925891015,1202.64651225" stroke="#009EE0" stroke-width="15.6" /></g><g id="PathGroup"><polyline fill="none" points="-323.376747803,487.175069912 -43.7038727694,559.675167638 -123.060994603,908.612323459 206.169437461,945.564616569 268.238163388,1213.1297772" stroke="#009EE0" stroke-width="15.9" /></g><g id="PathGroup"><polyline fill="none" points="-338.364762184,487.774590487 -55.1020241689,559.880459323 -136.735244499,914.777945064 197.845772796,951.460089964 260.550435761,1223.61304214" stroke="#009EE0" stroke-width="16.2" /></g><g id="PathGroup"><polyline fill="none" points="-150.409494396,920.943566669 189.522108132,957.35556336 252.862708133,1234.09630709" stroke="#009EE0" stroke-width="16.5" /></g><g id="PathGroup"><polyline fill="none" points="-164.083744292,927.109188274 181.198443468,963.251036755 245.174980506,1244.57957204" stroke="#009EE0" stroke-width="16.8" /></g><g id="PathGroup"><polyline fill="none" points="-177.757994188,933.274809879 172.874778804,969.146510151" stroke="#009EE0" stroke-width="17.1" /></g><g id="PathGroup"><polyline fill="none" points="-191.432244084,939.440431484 164.55111414,975.041983546" stroke="#009EE0" stroke-width="17.4" /></g><g id="PathGroup"><polyline fill="none" points="-205.10649398,945.606053089 156.227449475,980.937456942" stroke="#009EE0" stroke-width="17.7" /></g><g id="PathGroup"><polyline fill="none" points="-218.780743877,951.771674694 147.903784811,986.832930337" stroke="#009EE0" stroke-width="18.0" /></g><g id="PathGroup"><polyline fill="none" points="-232.454993773,957.937296299 139.580120147,992.728403733" stroke="#009EE0" stroke-width="18.3" /></g><g id="PathGroup"><polyline fill="none" points="-246.129243669,964.102917904 131.256455483,998.623877129" stroke="#009EE0" stroke-width="18.6" /></g></g></svg>
