<svg baseProfile="full" height="100%" version="1.1" viewBox="0,-1,901,901" width="100%" xmlns="http://www.w3.org/2000/svg" xmlns:ev="http://www.w3.org/2001/xml-events" xmlns:xlink="http://www.w3.org/1999/xlink"><defs><clipPath id="LOGO_CLIPPATH"><rect height="901" width="901" x="0" y="-1" /></clipPath></defs><g clip-path="url(#LOGO_CLIPPATH )" id="Logo_GROUP"><g id="PathGroup"><polyline fill="none" points="0.0,0.0 14.0,14.0 96.0,96.0 116.0,116.0 161.0,161.0 211.0,211.0 290.0,290.0 321.0,321.0 389.0,389.0 422.0,422.0 471.0,471.0 544.0,544.0 585.0,585.0 627.0,627.0 653.0,653.0 728.0,728.0 769.0,769.0 831.0,831.0 900.0,900.0" stroke="#009EE0" stroke-width="0.3" /></g><g id="PathGroup"><polyline fill="none" points="-7.52996808263,-4.15446514904 6.87168402513,10.3685937486 87.844693606,92.193298328 108.176683167,112.428485794 149.057623584,155.863888091 201.738420697,207.228640986 277.056931573,284.663617358 309.881903027,316.484701595 374.566673183,384.915997431 413.976505854,425.363560865 469.413209181,485.915833698 544.317848699,555.795718384 587.336188745,595.749056803 629.414593854,637.321324359 655.951208026,662.554599478 731.006996307,736.37663257 774.748471786,781.765385702 834.992937539,840.168230462 904.830773429,908.75577684" stroke="#009EE0" stroke-width="0.6" /></g><g id="PathGroup"><polyline fill="none" points="-15.0599361653,-8.30893029807 -0.256631949749,6.7371874973 79.689387212,88.386596656 100.353366334,108.856971587 137.115247168,150.727776182 192.476841394,203.457281972 264.113863147,279.327234715 298.763806053,311.969403189 360.133346365,380.831994862 405.953011708,428.727121729 467.826418362,500.831667395 544.635697398,567.591436769 589.67237749,606.498113605 631.829187708,647.642648718 658.902416052,672.109198956 734.013992614,744.75326514 780.496943571,794.530771405 838.985875079,849.336460924 909.661546858,917.511553681" stroke="#009EE0" stroke-width="0.9" /></g><g id="PathGroup"><polyline fill="none" points="-22.5899042479,-12.4633954471 -7.38494792462,3.10578124595 71.534080818,84.5798949839 92.5300495003,105.285457381 125.172870752,145.591664274 183.215262091,199.685922958 251.17079472,273.990852073 287.64570908,307.454104784 345.700019548,376.747992293 397.929517562,432.090682594 466.239627543,515.747501093 544.953546097,579.387155153 592.008566236,617.247170408 634.243781562,657.963973076 661.853624078,681.663798434 737.020988921,753.129897709 786.245415357,807.296157107 842.978812618,858.504691386 914.492320287,926.267330521" stroke="#009EE0" stroke-width="1.2" /></g><g id="PathGroup"><polyline fill="none" points="-30.1198723305,-16.6178605961 -14.5132638995,-0.525625005404 63.3787744239,80.7731933119 84.7067326671,101.713943174 113.230494336,140.455552365 173.953682788,195.914563944 238.227726294,268.65446943 276.527612106,302.938806378 331.26669273,372.663989725 389.906023416,435.454243459 464.652836724,530.663334791 545.271394796,591.182873538 594.344754981,627.996227211 636.658375416,668.285297435 664.804832104,691.218397913 740.027985228,761.506530279 791.993887143,820.061542809 846.971750158,867.672921848 919.323093716,935.023107361" stroke="#009EE0" stroke-width="1.5" /></g><g id="PathGroup"><polyline fill="none" points="-37.6498404132,-20.7723257452 -21.6415798744,-4.15703125676 55.2234680299,76.9664916399 76.8834158339,98.1424289676 101.28811792,135.319440456 164.692103484,192.14320493 225.284657867,263.318086788 265.409515133,298.423507973 316.833365913,368.579987156 381.88252927,438.817804323 463.066045905,545.579168488 545.589243495,602.978591922 596.680943726,638.745284013 639.072969271,678.606621794 667.75604013,700.772997391 743.034981536,769.883162849 797.742358928,832.826928512 850.964687697,876.84115231 924.153867146,943.778884201" stroke="#009EE0" stroke-width="1.8" /></g><g id="PathGroup"><polyline fill="none" points="-45.1798084958,-24.9267908942 -28.7698958492,-7.78843750811 47.0681616359,73.1597899679 69.0600990007,94.5709147612 89.3457415044,130.183328547 155.430524181,188.371845916 212.341589441,257.981704146 254.291418159,293.908209568 302.400039096,364.495984587 373.859035124,442.181365188 461.479255087,560.495002186 545.907092194,614.774310307 599.017132471,649.494340816 641.487563125,688.927946153 670.707248156,710.327596869 746.041977843,778.259795419 803.490830714,845.592314214 854.957625237,886.009382772 928.984640575,952.534661042" stroke="#009EE0" stroke-width="2.1" /></g><g id="PathGroup"><polyline fill="none" points="-52.7097765784,-29.0812560433 -35.8982118241,-11.4198437595 38.9128552419,69.3530882959 61.2367821674,90.9994005547 77.4033650884,125.047216638 146.168944878,184.600486902 199.398521014,252.645321503 243.173321186,289.392911162 287.966712278,360.411982018 365.835540979,445.544926053 459.892464268,575.410835884 546.224940893,626.570028691 601.353321216,660.243397619 643.902156979,699.249270512 673.658456182,719.882196347 749.04897415,786.636427988 809.239302499,858.357699916 858.950562776,895.177613235 933.815414004,961.290437882" stroke="#009EE0" stroke-width="2.4" /></g><g id="PathGroup"><polyline fill="none" points="-60.239744661,-33.2357211923 -43.026527799,-15.0512500108 30.7575488479,65.5463866238 53.4134653342,87.4278863482 65.4609886725,119.911104729 136.907365575,180.829127888 186.455452588,247.308938861 232.055224213,284.877612757 273.533385461,356.327979449 357.812046833,448.908486917 458.305673449,590.326669581 546.542789592,638.365747075 603.689509962,670.992454421 646.316750833,709.57059487 676.609664208,729.436795825 752.055970457,795.013060558 814.987774285,871.123085619 862.943500316,904.345843697 938.646187433,970.046214722" stroke="#009EE0" stroke-width="2.7" /></g><g id="PathGroup"><polyline fill="none" points="-67.7697127437,-37.3901863413 -50.1548437739,-18.6826562622 22.6022424539,61.7396849518 45.590148501,83.8563721418 53.5186122565,114.774992821 127.645786272,177.057768874 173.512384161,241.972556218 220.937127239,280.362314352 259.100058643,352.24397688 349.788552687,452.272047782 456.71888263,605.242503279 546.860638291,650.16146546 606.025698707,681.741511224 648.731344687,719.891919229 679.560872233,738.991395303 755.062966764,803.389693128 820.736246071,883.888471321 866.936437855,913.514074159 943.476960862,978.801991562" stroke="#009EE0" stroke-width="3.0" /></g><g id="PathGroup"><polyline fill="none" points="-57.2831597487,-22.3140625135 14.4469360599,57.9329832798 37.7668316678,80.2848579353 41.5762358406,109.638880912 118.384206969,173.28640986 160.569315735,236.636173576 209.819030266,275.847015946 244.666731826,348.159974312 341.765058541,455.635608647 455.132091811,620.158336977 547.17848699,661.957183844 608.361887452,692.490568027 651.145938541,730.213243588 682.512080259,748.545994781 758.069963071,811.766325698 826.484717856,896.653857024 870.929375395,922.682304621 948.307734291,987.557768403" stroke="#009EE0" stroke-width="3.3" /></g><g id="PathGroup"><polyline fill="none" points="-64.4114757236,-25.9454687649 6.29162966585,54.1262816078 29.9435148346,76.7133437288 29.6338594247,104.502769003 109.122627666,169.515050846 147.626247308,231.299790934 198.700933292,271.331717541 230.233405009,344.075971743 333.741564395,458.999169511 453.545300992,635.074170675 547.496335689,673.752902229 610.698076197,703.239624829 653.560532395,740.534567947 685.463288285,758.10059426 761.076959378,820.142958268 832.233189642,909.419242726 874.922312934,931.850535083 953.13850772,996.313545243" stroke="#009EE0" stroke-width="3.6" /></g><g id="PathGroup"><polyline fill="none" points="-71.5397916985,-29.5768750162 -1.86367672816,50.3195799357 22.1201980013,73.1418295223 17.6914830087,99.3666570941 99.8610483628,165.743691832 134.683178882,225.963408291 187.582836319,266.816419135 215.800078191,339.991969174 325.718070249,462.362730376 451.958510173,649.990004372 547.814184388,685.548620613 613.034264942,713.988681632 655.975126249,750.855892306 688.414496311,767.655193738 764.083955685,828.519590837 837.981661428,922.184628428 878.915250474,941.018765545 957.969281149,1005.06932208" stroke="#009EE0" stroke-width="3.9" /></g><g id="PathGroup"><polyline fill="none" points="-78.6681076734,-33.2082812676 -10.0189831222,46.5128782637 14.2968811681,69.5703153159 5.74910659278,94.2305451852 90.5994690597,161.972332818 121.740110455,220.627025649 176.464739346,262.30112073 201.366751374,335.907966605 317.694576103,465.726291241 450.371719354,664.90583807 548.132033087,697.344338997 615.370453687,724.737738435 658.389720104,761.177216664 691.365704337,777.209793216 767.090951992,836.896223407 843.730133213,934.950014131 882.908188013,950.186996007 962.800054578,1013.82509892" stroke="#009EE0" stroke-width="4.2" /></g><g id="PathGroup"><polyline fill="none" points="-85.7964236482,-36.8396875189 -18.1742895162,42.7061765917 6.47356433489,65.9988011094 -6.19326982316,89.0944332764 81.3378897566,158.200973804 108.797042029,215.290643006 165.346642372,257.785822325 186.933424557,331.823964036 309.671081957,469.089852105 448.784928535,679.821671768 548.449881786,709.140057382 617.706642433,735.486795237 660.804313958,771.498541023 694.316912363,786.764392694 770.097948299,845.272855977 849.478604999,947.715399833 886.901125553,959.355226469" stroke="#009EE0" stroke-width="4.5" /></g><g id="PathGroup"><polyline fill="none" points="-92.9247396231,-40.4710937703 -26.3295959102,38.8994749197 -1.34975249833,62.4272869029 -18.1356462391,83.9583213676 72.0763104535,154.42961479 95.853973602,209.954260364 154.228545399,253.270523919 172.500097739,327.739961467 301.647587811,472.45341297 447.198137716,694.737505465 548.767730485,720.935775766 620.042831178,746.23585204 663.218907812,781.819865382 697.268120389,796.318992172 773.104944607,853.649488547 855.227076784,960.480785535" stroke="#009EE0" stroke-width="4.8" /></g><g id="PathGroup"><polyline fill="none" points="-100.053055598,-44.1025000216 -34.4849023042,35.0927732477 -9.17306933155,58.8557726965 -30.078022655,78.8222094588 62.8147311504,150.658255776 82.9109051755,204.617877722 143.110448425,248.755225514 158.066770922,323.655958898 293.624093665,475.816973835 445.611346898,709.653339163 549.085579184,732.731494151 622.379019923,756.984908843 665.633501666,792.141189741 700.219328415,805.87359165 776.111940914,862.026121116 860.97554857,973.246171238" stroke="#009EE0" stroke-width="5.1" /></g><g id="PathGroup"><polyline fill="none" points="-107.181371573,-47.733906273 -42.6402086982,31.2860715756 -16.9963861648,55.28425849 -42.020399071,73.6860975499 53.5531518473,146.886896762 69.967836749,199.281495079 131.992351452,244.239927109 143.633444104,319.57195633 285.600599519,479.180534699 444.024556079,724.569172861 549.403427883,744.527212535 624.715208668,767.733965645 668.04809552,802.4625141 703.170536441,815.428191128 779.118937221,870.402753686 866.724020356,986.01155694" stroke="#009EE0" stroke-width="5.4" /></g><g id="PathGroup"><polyline fill="none" points="-114.309687548,-51.3653125243 -50.7955150922,27.4793699036 -24.819702998,51.7127442835 -53.9627754869,68.5499856411 44.2915725442,143.115537748 57.0247683224,193.945112437 120.874254478,239.724628703 129.200117287,315.487953761 277.577105373,482.544095564 442.43776526,739.485006558 549.721276582,756.32293092 627.051397413,778.483022448 670.462689374,812.783838458 706.121744467,824.982790606 782.125933528,878.779386256 872.472492141,998.776942642" stroke="#009EE0" stroke-width="5.7" /></g><g id="PathGroup"><polyline fill="none" points="-58.9508214863,23.6726682316 -32.6430198312,48.1412300771 -65.9051519029,63.4138737323 35.0299932411,139.344178734 44.0816998959,188.608729794 109.756157505,235.209330298 114.76679047,311.403951192 269.553611227,485.907656429 440.850974441,754.400840256 550.039125281,768.118649304 629.387586159,789.232079251 672.877283228,823.105162817 709.072952493,834.537390085 785.132929835,887.156018826 878.220963927,1011.54232834" stroke="#009EE0" stroke-width="6.0" /></g><g id="PathGroup"><polyline fill="none" points="-67.1061278803,19.8659665596 -40.4663366644,44.5697158706 -77.8475283188,58.2777618234 25.768413938,135.57281972 31.1386314694,183.272347152 98.6380605316,230.694031892 100.333463652,307.319948623 261.530117082,489.271217293 439.264183622,769.316673954 550.35697398,779.914367688 631.723774904,799.981136053 675.291877082,833.426487176 712.024160519,844.091989563 788.139926142,895.532651396 883.969435713,1024.30771405" stroke="#009EE0" stroke-width="6.3" /></g><g id="PathGroup"><polyline fill="none" points="-75.2614342743,16.0592648876 -48.2896534977,40.9982016641 -89.7899047347,53.1416499146 16.5068346349,131.801460706 18.1955630429,177.93596451 87.5199635582,226.178733487 85.9001368348,303.235946054 253.506622936,492.634778158 437.677392803,784.232507651 550.674822679,791.710086073 634.059963649,810.730192856 677.706470937,843.747811535 714.975368545,853.646589041 791.146922449,903.909283965 889.717907498,1037.07309975" stroke="#009EE0" stroke-width="6.6" /></g><g id="PathGroup"><polyline fill="none" points="-83.4167406683,12.2525632155 -56.1129703309,37.4266874576 -101.732281151,48.0055380058 7.24525533177,128.030101692 5.25249461632,172.599581867 76.4018665847,221.663435082 71.4668100174,299.151943485 245.48312879,495.998339023 436.090601984,799.148341349 550.992671378,803.505804457 636.396152394,821.479249659 680.121064791,854.069135894 717.926576571,863.201188519 794.153918756,912.285916535 895.466379284,1049.83848545" stroke="#009EE0" stroke-width="6.9" /></g><g id="PathGroup"><polyline fill="none" points="-113.674657567,42.869426097 -2.01632397133,124.258742678 -7.69057381021,167.263199225 65.2837696113,217.148136676 57.0334832,295.067940916 237.459634644,499.361899887 434.503811165,814.064175047 551.310520077,815.301522842 638.732341139,832.228306461 682.535658645,864.390460252 720.877784597,872.755787997 797.160915063,920.662549105 901.214851069,1062.60387115" stroke="#009EE0" stroke-width="7.2" /></g><g id="PathGroup"><polyline fill="none" points="-125.617033983,37.7333141881 -11.2779032744,120.487383664 -20.6336422367,161.926816582 54.1656726379,212.632838271 42.6001563826,290.983938348 229.436140498,502.725460752 432.917020346,828.980008744 551.628368776,827.097241226 641.068529885,842.977363264 684.950252499,874.711784611 723.828992623,882.310387475 800.16791137,929.039181675 906.963322855,1075.36925686" stroke="#009EE0" stroke-width="7.5" /></g><g id="PathGroup"><polyline fill="none" points="-137.559410398,32.5972022793 -20.5394825775,116.71602465 -33.5767106633,156.59043394 43.0475756645,208.117539866 28.1668295652,286.899935779 221.412646352,506.089021617 431.330229527,843.895842442 551.946217475,838.892959611 643.40471863,853.726420067 687.364846353,885.03310897 726.780200649,891.864986953 803.174907678,937.415814244 912.711794641,1088.13464256" stroke="#009EE0" stroke-width="7.8" /></g><g id="PathGroup"><polyline fill="none" points="-149.501786814,27.4610903705 -29.8010618806,112.944665636 -46.5197790898,151.254051298 31.9294786911,203.60224146 13.7335027478,282.81593321 213.389152206,509.452582481 429.743438709,858.81167614 552.264066174,850.688677995 645.740907375,864.475476869 689.779440207,895.354433329 729.731408675,901.419586432 806.181903985,945.792446814 918.460266426,1100.90002826" stroke="#009EE0" stroke-width="8.1" /></g><g id="PathGroup"><polyline fill="none" points="-161.44416323,22.3249784616 -39.0626411837,109.173306622 -59.4628475163,145.917668655 20.8113817176,199.086943055 -0.699824069578,278.731930641 205.36565806,512.816143346 428.15664789,873.727509838 552.581914872,862.484396379 648.07709612,875.224533672 692.194034061,905.675757688 732.6826167,910.97418591 809.188900292,954.169079384 924.208738212,1113.66541396" stroke="#009EE0" stroke-width="8.4" /></g><g id="PathGroup"><polyline fill="none" points="-173.386539646,17.1888665528 -48.3242204868,105.401947608 -72.4059159429,140.581286013 9.69328474421,194.571644649 -15.133150887,274.647928072 197.342163914,516.179704211 426.569857071,888.643343535 552.899763571,874.280114764 650.413284865,885.973590475 694.608627915,915.997082047 735.633824726,920.528785388 812.195896599,962.545711954" stroke="#009EE0" stroke-width="8.7" /></g><g id="PathGroup"><polyline fill="none" points="-185.328916062,12.052754644 -57.5857997899,101.630588594 -85.3489843694,135.24490337 -1.42481222921,190.056346244 -29.5664777044,270.563925503 189.318669768,519.543265075 424.983066252,903.559177233 553.21761227,886.075833148 652.749473611,896.722647277 697.02322177,926.318406405 738.585032752,930.083384866 815.202892906,970.922344524" stroke="#009EE0" stroke-width="9.0" /></g><g id="PathGroup"><polyline fill="none" points="-98.2920527959,129.908520728 -12.5429092026,185.541047839 -43.9998045218,266.479922935 181.295175622,522.90682594 423.396275433,918.475010931 553.535460969,897.871551533 655.085662356,907.47170408 699.437815624,936.639730764 741.536240778,939.637984344 818.209889213,979.298977093" stroke="#009EE0" stroke-width="9.3" /></g><g id="PathGroup"><polyline fill="none" points="-111.235121222,124.572138085 -23.6610061761,181.025749433 -58.4331313391,262.395920366 173.271681476,526.270386805 421.809484614,933.390844628 553.853309668,909.667269917 657.421851101,918.220760883 701.852409478,946.961055123 744.487448804,949.192583822 821.21688552,987.675609663" stroke="#009EE0" stroke-width="9.6" /></g><g id="PathGroup"><polyline fill="none" points="-124.178189649,119.235755443 -34.7791031495,176.510451028 -72.8664581565,258.311917797 165.24818733,529.633947669 420.222693795,948.306678326 554.171158367,921.462988301 659.758039846,928.969817685 704.267003332,957.282379482 747.43865683,958.7471833 824.223881827,996.052242233" stroke="#009EE0" stroke-width="9.9" /></g><g id="PathGroup"><polyline fill="none" points="-137.121258076,113.899372801 -45.8972001229,171.995152623 -87.2997849739,254.227915228 157.224693184,532.997508534 418.635902976,963.222512024 554.489007066,933.258706686 662.094228591,939.718874488 706.681597186,967.603703841" stroke="#009EE0" stroke-width="10.2" /></g><g id="PathGroup"><polyline fill="none" points="-150.064326502,108.562990158 -57.0152970963,167.479854217 -101.733111791,250.143912659 149.201199039,536.361069399 417.049112157,978.138345721 554.806855765,945.05442507 664.430417336,950.46793129 709.09619104,977.925028199" stroke="#009EE0" stroke-width="10.5" /></g><g id="PathGroup"><polyline fill="none" points="-116.166438609,246.05991009 141.177704893,539.724630263 415.462321338,993.054179419 555.124704464,956.850143455 666.766606082,961.216988093" stroke="#009EE0" stroke-width="10.8" /></g><g id="PathGroup"><polyline fill="none" points="-130.599765426,241.975907521 133.154210747,543.088191128 413.875530519,1007.97001312" stroke="#009EE0" stroke-width="11.1" /></g><g id="PathGroup"><polyline fill="none" points="-145.033092243,237.891904953 125.130716601,546.451751993 412.288739701,1022.88584681" stroke="#009EE0" stroke-width="11.4" /></g><g id="PathGroup"><polyline fill="none" points="-159.466419061,233.807902384 117.107222455,549.815312857 410.701948882,1037.80168051" stroke="#009EE0" stroke-width="11.7" /></g><g id="PathGroup"><polyline fill="none" points="-173.899745878,229.723899815 109.083728309,553.178873722 409.115158063,1052.71751421" stroke="#009EE0" stroke-width="12.0" /></g><g id="PathGroup"><polyline fill="none" points="-188.333072696,225.639897246 101.060234163,556.542434587 407.528367244,1067.63334791" stroke="#009EE0" stroke-width="12.3" /></g><g id="PathGroup"><polyline fill="none" points="-202.766399513,221.555894677 93.0367400171,559.905995451 405.941576425,1082.54918161" stroke="#009EE0" stroke-width="12.6" /></g><g id="PathGroup"><polyline fill="none" points="-217.19972633,217.471892108 85.0132458712,563.269556316 404.354785606,1097.4650153" stroke="#009EE0" stroke-width="12.9" /></g><g id="PathGroup"><polyline fill="none" points="-231.633053148,213.38788954 76.9897517253,566.633117181 402.767994787,1112.380849" stroke="#009EE0" stroke-width="13.2" /></g><g id="PathGroup"><polyline fill="none" points="-246.066379965,209.303886971 68.9662575793,569.996678045 401.181203968,1127.2966827" stroke="#009EE0" stroke-width="13.5" /></g><g id="PathGroup"><polyline fill="none" points="-260.499706783,205.219884402 60.9427634334,573.36023891 399.594413149,1142.2125164" stroke="#009EE0" stroke-width="13.8" /></g><g id="PathGroup"><polyline fill="none" points="-274.9330336,201.135881833 52.9192692875,576.723799775 398.00762233,1157.12835009" stroke="#009EE0" stroke-width="14.1" /></g><g id="PathGroup"><polyline fill="none" points="-289.366360417,197.051879264 44.8957751416,580.087360639 396.420831512,1172.04418379" stroke="#009EE0" stroke-width="14.4" /></g><g id="PathGroup"><polyline fill="none" points="-303.799687235,192.967876695 36.8722809956,583.450921504 394.834040693,1186.96001749" stroke="#009EE0" stroke-width="14.7" /></g><g id="PathGroup"><polyline fill="none" points="-318.233014052,188.883874126 28.8487868497,586.814482369 393.247249874,1201.87585119" stroke="#009EE0" stroke-width="15.0" /></g><g id="PathGroup"><polyline fill="none" points="-332.66634087,184.799871558 20.8252927038,590.178043233 391.660459055,1216.79168488" stroke="#009EE0" stroke-width="15.3" /></g><g id="PathGroup"><polyline fill="none" points="-347.099667687,180.715868989 12.8017985579,593.541604098 390.073668236,1231.70751858" stroke="#009EE0" stroke-width="15.6" /></g><g id="PathGroup"><polyline fill="none" points="-361.532994504,176.63186642 4.77830441194,596.905164963 388.486877417,1246.62335228" stroke="#009EE0" stroke-width="15.9" /></g><g id="PathGroup"><polyline fill="none" points="-375.966321322,172.547863851 -3.24518973399,600.268725827 386.900086598,1261.53918598" stroke="#009EE0" stroke-width="16.2" /></g><g id="PathGroup"><polyline fill="none" points="-390.399648139,168.463861282 -11.2686838799,603.632286692 385.313295779,1276.45501968" stroke="#009EE0" stroke-width="16.5" /></g><g id="PathGroup"><polyline fill="none" points="-404.832974957,164.379858713 -19.2921780258,606.995847557 383.72650496,1291.37085337" stroke="#009EE0" stroke-width="16.8" /></g><g id="PathGroup"><polyline fill="none" points="-419.266301774,160.295856144 -27.3156721718,610.359408421 382.139714141,1306.28668707" stroke="#009EE0" stroke-width="17.1" /></g><g id="PathGroup"><polyline fill="none" points="-433.699628591,156.211853576 -35.3391663177,613.722969286 380.552923323,1321.20252077" stroke="#009EE0" stroke-width="17.4" /></g><g id="PathGroup"><polyline fill="none" points="-448.132955409,152.127851007 -43.3626604636,617.086530151 378.966132504,1336.11835447" stroke="#009EE0" stroke-width="17.7" /></g><g id="PathGroup"><polyline fill="none" points="-462.566282226,148.043848438 -51.3861546095,620.450091015 377.379341685,1351.03418816" stroke="#009EE0" stroke-width="18.0" /></g><g id="PathGroup"><polyline fill="none" points="-476.999609044,143.959845869 -59.4096487555,623.81365188 375.792550866,1365.95002186" stroke="#009EE0" stroke-width="18.3" /></g><g id="PathGroup"><polyline fill="none" points="-491.432935861,139.8758433 -67.4331429014,627.177212745 374.205760047,1380.86585556" stroke="#009EE0" stroke-width="18.6" /></g><g id="PathGroup"><polyline fill="none" points="-75.4566370473,630.540773609 372.618969228,1395.78168926" stroke="#009EE0" stroke-width="18.9" /></g><g id="PathGroup"><polyline fill="none" points="-83.4801311932,633.904334474 371.032178409,1410.69752295" stroke="#009EE0" stroke-width="19.2" /></g><g id="PathGroup"><polyline fill="none" points="-91.5036253392,637.267895339 369.44538759,1425.61335665" stroke="#009EE0" stroke-width="19.5" /></g><g id="PathGroup"><polyline fill="none" points="-99.5271194851,640.631456203 367.858596771,1440.52919035" stroke="#009EE0" stroke-width="19.8" /></g><g id="PathGroup"><polyline fill="none" points="-107.550613631,643.995017068 366.271805952,1455.44502405" stroke="#009EE0" stroke-width="20.1" /></g><g id="PathGroup"><polyline fill="none" points="-115.574107777,647.358577933 364.685015134,1470.36085775" stroke="#009EE0" stroke-width="20.4" /></g><g id="PathGroup"><polyline fill="none" points="-123.597601923,650.722138797 363.098224315,1485.27669144" stroke="#009EE0" stroke-width="20.7" /></g><g id="PathGroup"><polyline fill="none" points="-131.621096069,654.085699662 361.511433496,1500.19252514" stroke="#009EE0" stroke-width="21.0" /></g><g id="PathGroup"><polyline fill="none" points="-139.644590215,657.449260527 359.924642677,1515.10835884" stroke="#009EE0" stroke-width="21.3" /></g><g id="PathGroup"><polyline fill="none" points="-147.668084361,660.812821391 358.337851858,1530.02419254" stroke="#009EE0" stroke-width="21.6" /></g><g id="PathGroup"><polyline fill="none" points="-155.691578507,664.176382256 356.751061039,1544.94002623" stroke="#009EE0" stroke-width="21.9" /></g><g id="PathGroup"><polyline fill="none" points="-163.715072652,667.539943121 355.16427022,1559.85585993" stroke="#009EE0" stroke-width="22.2" /></g><g id="PathGroup"><polyline fill="none" points="-171.738566798,670.903503985 353.577479401,1574.77169363" stroke="#009EE0" stroke-width="22.5" /></g><g id="PathGroup"><polyline fill="none" points="-179.762060944,674.26706485 351.990688582,1589.68752733" stroke="#009EE0" stroke-width="22.8" /></g><g id="PathGroup"><polyline fill="none" points="-187.78555509,677.630625715 350.403897763,1604.60336102" stroke="#009EE0" stroke-width="23.1" /></g><g id="PathGroup"><polyline fill="none" points="-195.809049236,680.994186579 348.817106944,1619.51919472" stroke="#009EE0" stroke-width="23.4" /></g><g id="PathGroup"><polyline fill="none" points="-203.832543382,684.357747444 347.230316126,1634.43502842" stroke="#009EE0" stroke-width="23.7" /></g><g id="PathGroup"><polyline fill="none" points="-211.856037528,687.721308309 345.643525307,1649.35086212" stroke="#009EE0" stroke-width="24.0" /></g><g id="PathGroup"><polyline fill="none" points="-219.879531674,691.084869173 344.056734488,1664.26669581" stroke="#009EE0" stroke-width="24.3" /></g><g id="PathGroup"><polyline fill="none" points="-227.90302582,694.448430038 342.469943669,1679.18252951" stroke="#009EE0" stroke-width="24.6" /></g><g id="PathGroup"><polyline fill="none" points="-235.926519966,697.811990903 340.88315285,1694.09836321" stroke="#009EE0" stroke-width="24.9" /></g><g id="PathGroup"><polyline fill="none" points="-243.950014112,701.175551767 339.296362031,1709.01419691" stroke="#009EE0" stroke-width="25.2" /></g><g id="PathGroup"><polyline fill="none" points="-251.973508258,704.539112632 337.709571212,1723.93003061" stroke="#009EE0" stroke-width="25.5" /></g><g id="PathGroup"><polyline fill="none" points="-259.997002404,707.902673497 336.122780393,1738.8458643" stroke="#009EE0" stroke-width="25.8" /></g><g id="PathGroup"><polyline fill="none" points="-268.020496549,711.266234361 334.535989574,1753.761698" stroke="#009EE0" stroke-width="26.1" /></g><g id="PathGroup"><polyline fill="none" points="-276.043990695,714.629795226 332.949198755,1768.6775317" stroke="#009EE0" stroke-width="26.4" /></g><g id="PathGroup"><polyline fill="none" points="-284.067484841,717.993356091 331.362407937,1783.5933654" stroke="#009EE0" stroke-width="26.7" /></g><g id="PathGroup"><polyline fill="none" points="-292.090978987,721.356916955 329.775617118,1798.50919909" stroke="#009EE0" stroke-width="27.0" /></g><g id="PathGroup"><polyline fill="none" points="-300.114473133,724.72047782 328.188826299,1813.42503279" stroke="#009EE0" stroke-width="27.3" /></g><g id="PathGroup"><polyline fill="none" points="-308.137967279,728.084038685 326.60203548,1828.34086649" stroke="#009EE0" stroke-width="27.6" /></g><g id="PathGroup"><polyline fill="none" points="-316.161461425,731.447599549 325.015244661,1843.25670019" stroke="#009EE0" stroke-width="27.9" /></g><g id="PathGroup"><polyline fill="none" points="-324.184955571,734.811160414 323.428453842,1858.17253388" stroke="#009EE0" stroke-width="28.2" /></g><g id="PathGroup"><polyline fill="none" points="-332.208449717,738.174721279 321.841663023,1873.08836758" stroke="#009EE0" stroke-width="28.5" /></g><g id="PathGroup"><polyline fill="none" points="-340.231943863,741.538282143 320.254872204,1888.00420128" stroke="#009EE0" stroke-width="28.8" /></g><g id="PathGroup"><polyline fill="none" points="-348.255438009,744.901843008 318.668081385,1902.92003498" stroke="#009EE0" stroke-width="29.1" /></g><g id="PathGroup"><polyline fill="none" points="-356.278932155,748.265403873 317.081290566,1917.83586868" stroke="#009EE0" stroke-width="29.4" /></g><g id="PathGroup"><polyline fill="none" points="-364.302426301,751.628964737 315.494499748,1932.75170237" stroke="#009EE0" stroke-width="29.7" /></g><g id="PathGroup"><polyline fill="none" points="-372.325920447,754.992525602 313.907708929,1947.66753607" stroke="#009EE0" stroke-width="30.0" /></g><g id="PathGroup"><polyline fill="none" points="-380.349414592,758.356086467 312.32091811,1962.58336977" stroke="#009EE0" stroke-width="30.3" /></g><g id="PathGroup"><polyline fill="none" points="-388.372908738,761.719647331 310.734127291,1977.49920347" stroke="#009EE0" stroke-width="30.6" /></g><g id="PathGroup"><polyline fill="none" points="-396.396402884,765.083208196 309.147336472,1992.41503716" stroke="#009EE0" stroke-width="30.9" /></g><g id="PathGroup"><polyline fill="none" points="-404.41989703,768.446769061 307.560545653,2007.33087086" stroke="#009EE0" stroke-width="31.2" /></g><g id="PathGroup"><polyline fill="none" points="-412.443391176,771.810329925 305.973754834,2022.24670456" stroke="#009EE0" stroke-width="31.5" /></g><g id="PathGroup"><polyline fill="none" points="-420.466885322,775.17389079 304.386964015,2037.16253826" stroke="#009EE0" stroke-width="31.8" /></g><g id="PathGroup"><polyline fill="none" points="-428.490379468,778.537451655 302.800173196,2052.07837195" stroke="#009EE0" stroke-width="32.1" /></g><g id="PathGroup"><polyline fill="none" points="-436.513873614,781.901012519 301.213382377,2066.99420565" stroke="#009EE0" stroke-width="32.4" /></g><g id="PathGroup"><polyline fill="none" points="-444.53736776,785.264573384 299.626591558,2081.91003935" stroke="#009EE0" stroke-width="32.7" /></g><g id="PathGroup"><polyline fill="none" points="-452.560861906,788.628134249 298.03980074,2096.82587305" stroke="#009EE0" stroke-width="33.0" /></g><g id="PathGroup"><polyline fill="none" points="-460.584356052,791.991695113 296.453009921,2111.74170675" stroke="#009EE0" stroke-width="33.3" /></g><g id="PathGroup"><polyline fill="none" points="-468.607850198,795.355255978 294.866219102,2126.65754044" stroke="#009EE0" stroke-width="33.6" /></g><g id="PathGroup"><polyline fill="none" points="-476.631344344,798.718816843 293.279428283,2141.57337414" stroke="#009EE0" stroke-width="33.9" /></g><g id="PathGroup"><polyline fill="none" points="-484.654838489,802.082377707 291.692637464,2156.48920784" stroke="#009EE0" stroke-width="34.2" /></g><g id="PathGroup"><polyline fill="none" points="-492.678332635,805.445938572 290.105846645,2171.40504154" stroke="#009EE0" stroke-width="34.5" /></g><g id="PathGroup"><polyline fill="none" points="-500.701826781,808.809499437 288.519055826,2186.32087523" stroke="#009EE0" stroke-width="34.8" /></g><g id="PathGroup"><polyline fill="none" points="-508.725320927,812.173060301 286.932265007,2201.23670893" stroke="#009EE0" stroke-width="35.1" /></g><g id="PathGroup"><polyline fill="none" points="-516.748815073,815.536621166 285.345474188,2216.15254263" stroke="#009EE0" stroke-width="35.4" /></g><g id="PathGroup"><polyline fill="none" points="-524.772309219,818.900182031 283.758683369,2231.06837633" stroke="#009EE0" stroke-width="35.7" /></g><g id="PathGroup"><polyline fill="none" points="-532.795803365,822.263742895 282.171892551,2245.98421002" stroke="#009EE0" stroke-width="36.0" /></g><g id="PathGroup"><polyline fill="none" points="-540.819297511,825.62730376 280.585101732,2260.90004372" stroke="#009EE0" stroke-width="36.3" /></g><g id="PathGroup"><polyline fill="none" points="-548.842791657,828.990864625 278.998310913,2275.81587742" stroke="#009EE0" stroke-width="36.6" /></g><g id="PathGroup"><polyline fill="none" points="-556.866285803,832.354425489 277.411520094,2290.73171112" stroke="#009EE0" stroke-width="36.9" /></g><g id="PathGroup"><polyline fill="none" points="-564.889779949,835.717986354 275.824729275,2305.64754482" stroke="#009EE0" stroke-width="37.2" /></g><g id="PathGroup"><polyline fill="none" points="-572.913274095,839.081547219 274.237938456,2320.56337851" stroke="#009EE0" stroke-width="37.5" /></g><g id="PathGroup"><polyline fill="none" points="-580.936768241,842.445108083 272.651147637,2335.47921221" stroke="#009EE0" stroke-width="37.8" /></g><g id="PathGroup"><polyline fill="none" points="-588.960262386,845.808668948 271.064356818,2350.39504591" stroke="#009EE0" stroke-width="38.1" /></g><g id="PathGroup"><polyline fill="none" points="-596.983756532,849.172229813 269.477565999,2365.31087961" stroke="#009EE0" stroke-width="38.4" /></g><g id="PathGroup"><polyline fill="none" points="-605.007250678,852.535790677 267.89077518,2380.2267133" stroke="#009EE0" stroke-width="38.7" /></g><g id="PathGroup"><polyline fill="none" points="-613.030744824,855.899351542 266.303984362,2395.142547" stroke="#009EE0" stroke-width="39.0" /></g><g id="PathGroup"><polyline fill="none" points="-621.05423897,859.262912407 264.717193543,2410.0583807" stroke="#009EE0" stroke-width="39.3" /></g><g id="PathGroup"><polyline fill="none" points="-629.077733116,862.626473271 263.130402724,2424.9742144" stroke="#009EE0" stroke-width="39.6" /></g><g id="PathGroup"><polyline fill="none" points="-637.101227262,865.990034136 261.543611905,2439.89004809" stroke="#009EE0" stroke-width="39.9" /></g><g id="PathGroup"><polyline fill="none" points="-645.124721408,869.353595001 259.956821086,2454.80588179" stroke="#009EE0" stroke-width="40.2" /></g><g id="PathGroup"><polyline fill="none" points="-653.148215554,872.717155865 258.370030267,2469.72171549" stroke="#009EE0" stroke-width="40.5" /></g><g id="PathGroup"><polyline fill="none" points="-661.1717097,876.08071673 256.783239448,2484.63754919" stroke="#009EE0" stroke-width="40.8" /></g><g id="PathGroup"><polyline fill="none" points="-669.195203846,879.444277595 255.196448629,2499.55338289" stroke="#009EE0" stroke-width="41.1" /></g><g id="PathGroup"><polyline fill="none" points="-677.218697992,882.807838459 253.60965781,2514.46921658" stroke="#009EE0" stroke-width="41.4" /></g><g id="PathGroup"><polyline fill="none" points="-685.242192138,886.171399324 252.022866991,2529.38505028" stroke="#009EE0" stroke-width="41.7" /></g><g id="PathGroup"><polyline fill="none" points="-693.265686283,889.534960189 250.436076173,2544.30088398" stroke="#009EE0" stroke-width="42.0" /></g><g id="PathGroup"><polyline fill="none" points="-701.289180429,892.898521053 248.849285354,2559.21671768" stroke="#009EE0" stroke-width="42.3" /></g><g id="PathGroup"><polyline fill="none" points="-709.312674575,896.262081918 247.262494535,2574.13255137" stroke="#009EE0" stroke-width="42.6" /></g><g id="PathGroup"><polyline fill="none" points="-717.336168721,899.625642783 245.675703716,2589.04838507" stroke="#009EE0" stroke-width="42.9" /></g><g id="PathGroup"><polyline fill="none" points="-725.359662867,902.989203647 244.088912897,2603.96421877" stroke="#009EE0" stroke-width="43.2" /></g><g id="PathGroup"><polyline fill="none" points="-733.383157013,906.352764512 242.502122078,2618.88005247" stroke="#009EE0" stroke-width="43.5" /></g><g id="PathGroup"><polyline fill="none" points="-741.406651159,909.716325377 240.915331259,2633.79588616" stroke="#009EE0" stroke-width="43.8" /></g><g id="PathGroup"><polyline fill="none" points="-749.430145305,913.079886241 239.32854044,2648.71171986" stroke="#009EE0" stroke-width="44.1" /></g><g id="PathGroup"><polyline fill="none" points="-757.453639451,916.443447106 237.741749621,2663.62755356" stroke="#009EE0" stroke-width="44.4" /></g><g id="PathGroup"><polyline fill="none" points="-765.477133597,919.807007971 236.154958802,2678.54338726" stroke="#009EE0" stroke-width="44.7" /></g><g id="PathGroup"><polyline fill="none" points="-773.500627743,923.170568835 234.568167983,2693.45922096" stroke="#009EE0" stroke-width="45.0" /></g><g id="PathGroup"><polyline fill="none" points="-781.524121889,926.5341297 232.981377165,2708.37505465" stroke="#009EE0" stroke-width="45.3" /></g><g id="PathGroup"><polyline fill="none" points="-789.547616035,929.897690565 231.394586346,2723.29088835" stroke="#009EE0" stroke-width="45.6" /></g><g id="PathGroup"><polyline fill="none" points="-797.57111018,933.261251429 229.807795527,2738.20672205" stroke="#009EE0" stroke-width="45.9" /></g><g id="PathGroup"><polyline fill="none" points="-805.594604326,936.624812294 228.221004708,2753.12255575" stroke="#009EE0" stroke-width="46.2" /></g><g id="PathGroup"><polyline fill="none" points="-813.618098472,939.988373159 226.634213889,2768.03838944" stroke="#009EE0" stroke-width="46.5" /></g><g id="PathGroup"><polyline fill="none" points="-821.641592618,943.351934023 225.04742307,2782.95422314" stroke="#009EE0" stroke-width="46.8" /></g><g id="PathGroup"><polyline fill="none" points="-829.665086764,946.715494888 223.460632251,2797.87005684" stroke="#009EE0" stroke-width="47.1" /></g><g id="PathGroup"><polyline fill="none" points="-837.68858091,950.079055753 221.873841432,2812.78589054" stroke="#009EE0" stroke-width="47.4" /></g><g id="PathGroup"><polyline fill="none" points="-845.712075056,953.442616617 220.287050613,2827.70172423" stroke="#009EE0" stroke-width="47.7" /></g><g id="PathGroup"><polyline fill="none" points="-853.735569202,956.806177482 218.700259794,2842.61755793" stroke="#009EE0" stroke-width="48.0" /></g><g id="PathGroup"><polyline fill="none" points="-861.759063348,960.169738347 217.113468976,2857.53339163" stroke="#009EE0" stroke-width="48.3" /></g><g id="PathGroup"><polyline fill="none" points="-869.782557494,963.533299211 215.526678157,2872.44922533" stroke="#009EE0" stroke-width="48.6" /></g><g id="PathGroup"><polyline fill="none" points="-877.80605164,966.896860076 213.939887338,2887.36505903" stroke="#009EE0" stroke-width="48.9" /></g><g id="PathGroup"><polyline fill="none" points="-885.829545786,970.260420941 212.353096519,2902.28089272" stroke="#009EE0" stroke-width="49.2" /></g><g id="PathGroup"><polyline fill="none" points="-893.853039932,973.623981805 210.7663057,2917.19672642" stroke="#009EE0" stroke-width="49.5" /></g><g id="PathGroup"><polyline fill="none" points="-901.876534078,976.98754267 209.179514881,2932.11256012" stroke="#009EE0" stroke-width="49.8" /></g><g id="PathGroup"><polyline fill="none" points="-909.900028223,980.351103535 207.592724062,2947.02839382" stroke="#009EE0" stroke-width="50.1" /></g><g id="PathGroup"><polyline fill="none" points="-917.923522369,983.714664399 206.005933243,2961.94422751" stroke="#009EE0" stroke-width="50.4" /></g><g id="PathGroup"><polyline fill="none" points="-925.947016515,987.078225264 204.419142424,2976.86006121" stroke="#009EE0" stroke-width="50.7" /></g><g id="PathGroup"><polyline fill="none" points="-933.970510661,990.441786129 202.832351605,2991.77589491" stroke="#009EE0" stroke-width="51.0" /></g><g id="PathGroup"><polyline fill="none" points="-941.994004807,993.805346993 201.245560787,3006.69172861" stroke="#009EE0" stroke-width="51.3" /></g><g id="PathGroup"><polyline fill="none" points="-950.017498953,997.168907858 199.658769968,3021.6075623" stroke="#009EE0" stroke-width="51.6" /></g><g id="PathGroup"><polyline fill="none" points="-958.040993099,1000.53246872 198.071979149,3036.523396" stroke="#009EE0" stroke-width="51.9" /></g></g></svg>
