<svg baseProfile="full" height="100%" version="1.1" viewBox="0,-1,901,901" width="100%" xmlns="http://www.w3.org/2000/svg" xmlns:ev="http://www.w3.org/2001/xml-events" xmlns:xlink="http://www.w3.org/1999/xlink"><defs><clipPath id="LOGO_CLIPPATH"><rect height="901" width="901" x="0" y="-1" /></clipPath></defs><g clip-path="url(#LOGO_CLIPPATH )" id="Logo_GROUP"><g id="PathGroup"><polyline fill="none" points="0.0,0.0 39.0,39.0 76.0,76.0 117.0,117.0 170.0,170.0 208.0,208.0 265.0,265.0 306.0,306.0 362.0,362.0 432.0,432.0 487.0,487.0 522.0,522.0 556.0,556.0 636.0,636.0 695.0,695.0 736.0,736.0 765.0,765.0 839.0,839.0 900.0,900.0" stroke="#009EE0" stroke-width="0.3" /></g><g id="PathGroup"><polyline fill="none" points="-11.0322788187,-6.08677452068 29.8713462199,34.229498961 62.6542995886,69.152206156 107.315768877,114.13195754 158.042620498,168.989517225 198.933307526,207.222126243 256.346607535,267.473620596 297.477489438,308.19244469 347.348834852,365.216109423 420.463708692,433.950380185 475.747798189,495.329943242 516.397675271,531.698141968 549.650001352,569.589610633 636.746299615,648.577878871 697.506106155,706.735392279 739.055284293,744.571769822 769.224778745,774.063732374 843.18950086,847.414753861 904.347696086,907.880199156" stroke="#009EE0" stroke-width="0.6" /></g><g id="PathGroup"><polyline fill="none" points="-22.0645576375,-12.1735490414 20.7426924398,29.4589979221 49.3085991773,62.3044123119 97.6315377538,111.263915079 146.085240995,167.97903445 189.866615052,206.444252487 247.693215071,269.947241191 288.954978876,310.38488938 332.697669705,368.432218845 408.927417385,435.90076037 464.495596378,503.659886483 510.795350542,541.396283936 543.300002704,583.179221267 637.492599229,661.155757741 700.01221231,718.470784558 742.110568586,753.143539645 773.449557491,783.127464749 847.37900172,855.829507722 908.695392172,915.760398312" stroke="#009EE0" stroke-width="0.9" /></g><g id="PathGroup"><polyline fill="none" points="-33.0968364562,-18.260323562 11.6140386597,24.6884968831 35.9628987659,55.4566184679 87.9473066307,108.395872619 134.127861493,166.968551675 180.799922578,205.66637873 239.039822606,272.420861787 280.432468314,312.57733407 318.046504557,371.648328268 397.391126077,437.851140555 453.243394567,511.989829725 505.193025813,551.094425904 536.950004056,596.7688319 638.238898844,673.733636612 702.518318465,730.206176837 745.165852879,761.715309467 777.674336236,792.191197123 851.56850258,864.244261583 913.043088259,923.640597469" stroke="#009EE0" stroke-width="1.2" /></g><g id="PathGroup"><polyline fill="none" points="-44.129115275,-24.3470980827 2.48538487954,19.9179958441 22.6171983546,48.6088246239 78.2630755076,105.527830158 122.170481991,165.958068901 171.733230104,204.888504974 230.386430141,274.894482383 271.909957752,314.76977876 303.39533941,374.864437691 385.85483477,439.80152074 441.991192756,520.319772966 499.590701084,560.792567872 530.600005407,610.358442534 638.985198458,686.311515483 705.024424621,741.941569116 748.221137173,770.28707929 781.899114981,801.254929497 855.758003441,872.659015444 917.390784345,931.520796625" stroke="#009EE0" stroke-width="1.5" /></g><g id="PathGroup"><polyline fill="none" points="-55.1613940937,-30.4338726034 -6.64326890058,15.1474948052 9.27149794322,41.7610307799 68.5788443845,102.659787698 110.213102489,164.947586126 162.66653763,204.110631217 221.733037676,277.368102979 263.38744719,316.96222345 288.744174262,378.080547113 374.318543462,441.751900925 430.738990946,528.649716208 493.988376355,570.49070984 524.250006759,623.948053167 639.731498073,698.889394353 707.530530776,753.676961394 751.276421466,778.858849112 786.123893727,810.318661872 859.947504301,881.073769305 921.738480431,939.400995781" stroke="#009EE0" stroke-width="1.8" /></g><g id="PathGroup"><polyline fill="none" points="-66.1936729124,-36.5206471241 -15.7719226807,10.3769937662 -4.07420246814,34.9132369358 58.8946132615,99.7917452377 98.2557229863,163.937103351 153.599845156,203.332757461 213.079645212,279.841723574 254.864936627,319.15466814 274.093009115,381.296656536 362.782252154,443.702281111 419.486789135,536.979659449 488.386051626,580.188851808 517.900008111,637.537663801 640.477797688,711.467273224 710.036636931,765.412353673 754.331705759,787.430618934 790.348672472,819.382394246 864.137005161,889.488523167 926.086176517,947.281194937" stroke="#009EE0" stroke-width="2.1" /></g><g id="PathGroup"><polyline fill="none" points="-77.2259517312,-42.6074216448 -24.9005764608,5.60649272724 -17.4199028795,28.0654430918 49.2103821384,96.9237027773 86.298343484,162.926620576 144.533152682,202.554883704 204.426252747,282.31534417 246.342426065,321.34711283 259.441843967,384.512765958 351.245960847,445.652661296 408.234587324,545.309602691 482.783726897,589.886993776 511.550009463,651.127274434 641.224097302,724.045152095 712.542743086,777.147745952 757.386990052,796.002388757 794.573451217,828.44612662 868.326506021,897.903277028 930.433872603,955.161394094" stroke="#009EE0" stroke-width="2.4" /></g><g id="PathGroup"><polyline fill="none" points="-88.2582305499,-48.6941961655 -34.0292302409,0.835991688271 -30.7656032909,21.2176492478 39.5261510153,94.0556603169 74.3409639817,161.916137801 135.466460208,201.777009947 195.772860282,284.788964766 237.819915503,323.53955752 244.790678819,387.728875381 339.709669539,447.603041481 396.982385513,553.639545932 477.181402168,599.585135743 505.200010815,664.716885068 641.970396917,736.623030965 715.048849241,788.883138231 760.442274345,804.574158579 798.798229963,837.509858994 872.516006881,906.318030889 934.78156869,963.04159325" stroke="#009EE0" stroke-width="2.7" /></g><g id="PathGroup"><polyline fill="none" points="-99.2905093686,-54.7809706861 -43.157884021,-3.9345093507 -44.1113037022,14.3698554037 29.8419198922,91.1876178565 62.3835844794,160.905655026 126.399767734,200.999136191 187.119467818,287.262585362 229.297404941,325.732002211 230.139513672,390.944984804 328.173378232,449.553421666 385.730183702,561.969489174 471.579077439,609.283277711 498.850012167,678.306495701 642.716696532,749.200909836 717.554955396,800.61853051 763.497558638,813.145928402 803.023008708,846.573591369 876.705507741,914.73278475 939.129264776,970.921792406" stroke="#009EE0" stroke-width="3.0" /></g><g id="PathGroup"><polyline fill="none" points="-110.322788187,-60.8677452068 -52.2865378012,-8.70501038966 -57.4570041136,7.52206155971 20.1576887691,88.3195753962 50.4262049771,159.895172252 117.33307526,200.221262434 178.466075353,289.736205957 220.774894379,327.924446901 215.488348524,394.161094226 316.637086924,451.503801851 374.477981891,570.299432415 465.976752709,618.981419679 492.500013519,691.896106334 643.462996146,761.778788707 720.061061551,812.353922789 766.552842931,821.717698224 807.247787453,855.637323743 880.895008602,923.147538611 943.476960862,978.801991562" stroke="#009EE0" stroke-width="3.3" /></g><g id="PathGroup"><polyline fill="none" points="-70.8027045249,0.674267715678 10.473457646,85.4515329358 38.4688254748,158.884689477 108.266382786,199.443388678 169.812682888,292.209826553 212.252383817,330.116891591 200.837183377,397.377203649 305.100795617,453.454182036 363.22578008,578.629375657 460.37442798,628.679561647 486.150014871,705.485716968 644.209295761,774.356667577 722.567167707,824.089315068 769.608127224,830.289468046 811.472566198,864.701056117 885.084509462,931.562292472 947.824656948,986.682190719" stroke="#009EE0" stroke-width="3.6" /></g><g id="PathGroup"><polyline fill="none" points="-84.1484049363,-6.17352612835 0.789226522916,82.5834904754 26.5114459725,157.874206702 99.1996903115,198.665514921 161.159290423,294.683447149 203.729873255,332.309336281 186.186018229,400.593313072 293.564504309,455.404562221 351.973578269,586.959318898 454.772103251,638.377703615 479.800016222,719.075327601 644.955595375,786.934546448 725.073273862,835.824707347 772.663411518,838.861237869 815.697344944,873.764788492 889.274010322,939.977046333 952.172353034,994.562389875" stroke="#009EE0" stroke-width="3.9" /></g><g id="PathGroup"><polyline fill="none" points="-97.4941053476,-13.0213199724 -8.89500460017,79.715448015 14.5540664702,156.863723927 90.1329978375,197.887641165 152.505897959,297.157067745 195.207362693,334.501780971 171.534853081,403.809422494 282.028213001,457.354942406 340.721376458,595.28926214 449.169778522,648.075845583 473.450017574,732.664938235 645.70189499,799.512425319 727.579380017,847.560099625 775.718695811,847.433007691 819.922123689,882.828520866 893.463511182,948.391800194 956.520049121,1002.44258903" stroke="#009EE0" stroke-width="4.2" /></g><g id="PathGroup"><polyline fill="none" points="-110.839805759,-19.8691138164 -18.5792357233,76.8474055546 2.59668696796,155.853241152 81.0663053634,197.109767408 143.852505494,299.63068834 186.684852131,336.694225661 156.883687934,407.025531917 270.491921694,459.305322591 329.469174648,603.619205381 443.567453793,657.773987551 467.100018926,746.254548868 646.448194605,812.090304189 730.085486172,859.295491904 778.773980104,856.004777514 824.146902434,891.89225324 897.653012042,956.806554055" stroke="#009EE0" stroke-width="4.5" /></g><g id="PathGroup"><polyline fill="none" points="-124.18550617,-26.7169076604 -28.2634668464,73.9793630942 -9.36069253433,154.842758377 71.9996128894,196.331893652 135.199113029,302.104308936 178.162341569,338.886670351 142.232522786,410.24164134 258.955630386,461.255702776 318.216972837,611.949148623 437.965129064,667.472129519 460.750020278,759.844159502 647.194494219,824.66818306 732.591592327,871.030884183 781.829264397,864.576547336 828.37168118,900.955985615 901.842512902,965.221307916" stroke="#009EE0" stroke-width="4.8" /></g><g id="PathGroup"><polyline fill="none" points="-137.531206582,-33.5647015045 -37.9476979694,71.1113206338 -21.3180720366,153.832275603 62.9329204153,195.554019895 126.545720565,304.577929532 169.639831006,341.079115041 127.581357639,413.457750762 247.419339079,463.206082962 306.964771026,620.279091864 432.362804335,677.170271487 454.40002163,773.433770135 647.940793834,837.246061931 735.097698482,882.766276462 784.88454869,873.148317158 832.596459925,910.019717989 906.032013763,973.636061777" stroke="#009EE0" stroke-width="5.1" /></g><g id="PathGroup"><polyline fill="none" points="-150.876906993,-40.4124953485 -47.6319290925,68.2432781735 -33.2754515389,152.821792828 53.8662279413,194.776146138 117.8923281,307.051550128 161.117320444,343.271559731 112.930192491,416.673860185 235.883047771,465.156463147 295.712569215,628.609035106 426.760479606,686.868413455 448.050022982,787.023380769 648.687093448,849.823940801 737.603804637,894.501668741 787.939832983,881.720086981 836.82123867,919.083450363 910.221514623,982.050815639" stroke="#009EE0" stroke-width="5.4" /></g><g id="PathGroup"><polyline fill="none" points="-57.3161602156,65.3752357131 -45.2328310412,151.811310053 44.7995354672,193.998272382 109.238935635,309.525170723 152.594809882,345.464004421 98.2790273436,419.889969608 224.346756463,467.106843332 284.460367404,636.938978347 421.158154877,696.566555423 441.700024334,800.612991402 649.433393063,862.401819672 740.109910792,906.23706102 790.995117276,890.291856803 841.046017416,928.147182738 914.411015483,990.4655695" stroke="#009EE0" stroke-width="5.7" /></g><g id="PathGroup"><polyline fill="none" points="-57.1902105435,150.800827278 35.7328429932,193.220398625 100.585543171,311.998791319 144.07229932,347.656449111 83.627862196,423.10607903 212.810465156,469.057223517 273.208165593,645.268921589 415.555830148,706.264697391 435.350025685,814.202602035 650.179692678,874.979698543 742.616016948,917.972453299 794.050401569,898.863626626 845.270796161,937.210915112 918.600516343,998.880323361" stroke="#009EE0" stroke-width="6.0" /></g><g id="PathGroup"><polyline fill="none" points="-69.1475900458,149.790344503 26.6661505192,192.442524869 91.9321507058,314.472411915 135.549788758,349.848893801 68.9766970484,426.322188453 201.274173848,471.007603702 261.955963782,653.598864831 409.953505419,715.962839359 429.000027037,827.792212669 650.925992292,887.557577413 745.122123103,929.707845578 797.105685863,907.435396448 849.495574906,946.274647486 922.790017203,1007.29507722" stroke="#009EE0" stroke-width="6.3" /></g><g id="PathGroup"><polyline fill="none" points="-81.1049695481,148.779861728 17.5994580451,191.664651112 83.2787582411,316.946032511 127.027278196,352.041338491 54.3255319009,429.538297875 189.737882541,472.957983887 250.703761971,661.928808072 404.35118069,725.660981327 422.650028389,841.381823302 651.672291907,900.135456284 747.628229258,941.443237856 800.160970156,916.00716627 853.720353652,955.338379861 926.979518063,1015.70983108" stroke="#009EE0" stroke-width="6.6" /></g><g id="PathGroup"><polyline fill="none" points="-93.0623490503,147.769378953 8.53276557108,190.886777356 74.6253657764,319.419653106 118.504767634,354.233783181 39.6743667533,432.754407298 178.201591233,474.908364072 239.45156016,670.258751314 398.748855961,735.359123295 416.300029741,854.971433936 652.418591521,912.713335155 750.134335413,953.178630135 803.216254449,924.578936093 857.945132397,964.402112235" stroke="#009EE0" stroke-width="6.9" /></g><g id="PathGroup"><polyline fill="none" points="-105.019728553,146.758896179 -0.533926902966,190.108903599 65.9719733117,321.893273702 109.982257072,356.426227871 25.0232016057,435.970516721 166.665299925,476.858744257 228.19935835,678.588694555 393.146531232,745.057265263 409.950031093,868.561044569 653.164891136,925.291214025 752.640441568,964.914022414 806.271538742,933.150705915 862.169911142,973.465844609" stroke="#009EE0" stroke-width="7.2" /></g><g id="PathGroup"><polyline fill="none" points="-116.977108055,145.748413404 -9.60061937701,189.331029842 57.318580847,324.366894298 101.45974651,358.618672561 10.3720364581,439.186626143 155.129008618,478.809124442 216.947156539,686.918637797 387.544206503,754.75540723 403.600032445,882.150655203 653.911190751,937.869092896 755.146547723,976.649414693 809.326823035,941.722475738 866.394689888,982.529576983" stroke="#009EE0" stroke-width="7.5" /></g><g id="PathGroup"><polyline fill="none" points="-128.934487557,144.737930629 -18.6673118511,188.553156086 48.6651883823,326.840514894 92.9372359476,360.811117251 -4.27912868946,442.402735566 143.59271731,480.759504627 205.694954728,695.248581038 381.941881774,764.453549198 397.250033797,895.740265836 654.657490365,950.446971767 757.652653878,988.384806972 812.382107328,950.29424556 870.619468633,991.593309358" stroke="#009EE0" stroke-width="7.8" /></g><g id="PathGroup"><polyline fill="none" points="-140.89186706,143.727447854 -27.7340043251,187.775282329 40.0117959176,329.314135489 84.4147253855,363.003561941 -18.930293837,445.618844989 132.056426003,482.709884813 194.442752917,703.57852428 376.339557045,774.151691166 390.900035149,909.32987647 655.40378998,963.024850637" stroke="#009EE0" stroke-width="8.1" /></g><g id="PathGroup"><polyline fill="none" points="-152.849246562,142.716965079 -36.8006967991,186.997408573 31.3584034528,331.787756085 75.8922148234,365.196006632 -33.5814589846,448.834954411 120.520134695,484.660264998 183.190551106,711.908467521 370.737232316,783.849833134 384.5500365,922.919487103 656.150089595,975.602729508" stroke="#009EE0" stroke-width="8.4" /></g><g id="PathGroup"><polyline fill="none" points="-164.806626064,141.706482304 -45.8673892732,186.219534816 22.7050109881,334.261376681 67.3697042613,367.388451322 -48.2326241322,452.051063834 108.983843387,486.610645183 171.938349295,720.238410763 365.134907587,793.547975102 378.200037852,936.509097737 656.896389209,988.180608379" stroke="#009EE0" stroke-width="8.7" /></g><g id="PathGroup"><polyline fill="none" points="-176.764005566,140.69599953 -54.9340817472,185.44166106 14.0516185234,336.734997277 58.8471936992,369.580896012 -62.8837892798,455.267173257 97.4475520799,488.561025368 160.686147484,728.568354004 359.532582858,803.24611707 371.850039204,950.09870837 657.642688824,1000.75848725" stroke="#009EE0" stroke-width="9.0" /></g><g id="PathGroup"><polyline fill="none" points="-64.0007742213,184.663787303 5.39822605871,339.208617872 50.3246831371,371.773340702 -77.5349544273,458.483282679 85.9112607723,490.511405553 149.433945673,736.898297246 353.930258128,812.944259038 365.500040556,963.688319003" stroke="#009EE0" stroke-width="9.3" /></g><g id="PathGroup"><polyline fill="none" points="-73.0674666953,183.885913547 -3.255166406,341.682238468 41.802172575,373.965785392 -92.1861195749,461.699392102 74.3749694647,492.461785738 138.181743862,745.228240487 348.327933399,822.642401006 359.150041908,977.277929637" stroke="#009EE0" stroke-width="9.6" /></g><g id="PathGroup"><polyline fill="none" points="-82.1341591693,183.10803979 -11.9085588707,344.155859064 33.2796620129,376.158230082 -106.837284723,464.915501524 62.8386781571,494.412165923 126.929542052,753.558183729 342.72560867,832.340542974 352.80004326,990.86754027" stroke="#009EE0" stroke-width="9.9" /></g><g id="PathGroup"><polyline fill="none" points="-91.2008516434,182.330166033 -20.5619513354,346.62947966 24.7571514508,378.350674772 -121.48844987,468.131610947 51.3023868495,496.362546108 115.677340241,761.88812697 337.123283941,842.038684942 346.450044612,1004.4571509" stroke="#009EE0" stroke-width="10.2" /></g><g id="PathGroup"><polyline fill="none" points="-100.267544117,181.552292277 -29.2153438001,349.103100255 16.2346408887,380.543119462 -136.139615018,471.34772037 39.7660955419,498.312926293 104.42513843,770.218070212 331.520959212,851.73682691 340.100045963,1018.04676154" stroke="#009EE0" stroke-width="10.5" /></g><g id="PathGroup"><polyline fill="none" points="-109.334236591,180.77441852 -37.8687362648,351.576720851 7.71213032662,382.735564152 -150.790780165,474.563829792 28.2298042343,500.263306478 93.1729366189,778.548013453 325.918634483,861.434968878 333.750047315,1031.63637217" stroke="#009EE0" stroke-width="10.8" /></g><g id="PathGroup"><polyline fill="none" points="-118.400929066,179.996544764 -46.5221287295,354.050341447 -0.810380235474,384.928008842 -165.441945313,477.779939215 16.6935129267,502.213686663 81.9207348081,786.877956695 320.316309754,871.133110846 327.400048667,1045.2259828" stroke="#009EE0" stroke-width="11.1" /></g><g id="PathGroup"><polyline fill="none" points="-127.46762154,179.218671007 -55.1755211943,356.523962043 -9.33289079757,387.120453532 -180.09311046,480.996048638 5.15722161916,504.164066849 70.6685329972,795.207899937 314.713985025,880.831252814 321.050050019,1058.81559344" stroke="#009EE0" stroke-width="11.4" /></g><g id="PathGroup"><polyline fill="none" points="-63.828913659,358.997582638 -17.8554013597,389.312898222 -194.744275608,484.21215806 -6.37906968843,506.114447034 59.4163311863,803.537843178 309.111660296,890.529394782 314.700051371,1072.40520407" stroke="#009EE0" stroke-width="11.7" /></g><g id="PathGroup"><polyline fill="none" points="-72.4823061237,361.471203234 -26.3779119218,391.505342912 -209.395440756,487.428267483 -17.915360996,508.064827219 48.1641293754,811.86778642 303.509335567,900.22753675 308.350052723,1085.9948147" stroke="#009EE0" stroke-width="12.0" /></g><g id="PathGroup"><polyline fill="none" points="-81.1356985884,363.94482383 -34.9004224839,393.697787602 -224.046605903,490.644376906 -29.4516523036,510.015207404 36.9119275645,820.197729661 297.907010838,909.925678717 302.000054075,1099.58442534" stroke="#009EE0" stroke-width="12.3" /></g><g id="PathGroup"><polyline fill="none" points="-89.7890910531,366.418444426 -43.422933046,395.890232292 -238.697771051,493.860486328 -40.9879436112,511.965587589 25.6597257536,828.527672903 292.304686109,919.623820685 295.650055426,1113.17403597" stroke="#009EE0" stroke-width="12.6" /></g><g id="PathGroup"><polyline fill="none" points="-98.4424835178,368.892065021 -51.9454436081,398.082676982 -253.348936198,497.076595751 -52.5242349188,513.915967774 14.4075239427,836.857616144 286.70236138,929.321962653 289.300056778,1126.7636466" stroke="#009EE0" stroke-width="12.9" /></g><g id="PathGroup"><polyline fill="none" points="-107.095875983,371.365685617 -60.4679541701,400.275121672 -268.000101346,500.292705173 -64.0605262264,515.866347959 3.15532213184,845.187559386 281.100036651,939.020104621 282.95005813,1140.35325724" stroke="#009EE0" stroke-width="13.2" /></g><g id="PathGroup"><polyline fill="none" points="-75.596817534,517.816728144 -8.09687967905,853.517502627 275.497711922,948.718246589 276.600059482,1153.94286787" stroke="#009EE0" stroke-width="13.5" /></g><g id="PathGroup"><polyline fill="none" points="-87.1331088416,519.767108329 -19.3490814899,861.847445869 269.895387193,958.416388557 270.250060834,1167.53247851" stroke="#009EE0" stroke-width="13.8" /></g><g id="PathGroup"><polyline fill="none" points="-98.6694001492,521.717488514 -30.6012833008,870.17738911 264.293062464,968.114530525" stroke="#009EE0" stroke-width="14.1" /></g><g id="PathGroup"><polyline fill="none" points="-110.205691457,523.6678687 -41.8534851117,878.507332352 258.690737735,977.812672493" stroke="#009EE0" stroke-width="14.4" /></g><g id="PathGroup"><polyline fill="none" points="-121.741982764,525.618248885 -53.1056869226,886.837275593 253.088413006,987.510814461" stroke="#009EE0" stroke-width="14.7" /></g><g id="PathGroup"><polyline fill="none" points="-133.278274072,527.56862907 -64.3578887335,895.167218835 247.486088276,997.208956429" stroke="#009EE0" stroke-width="15.0" /></g><g id="PathGroup"><polyline fill="none" points="-75.6100905444,903.497162076 241.883763547,1006.9070984" stroke="#009EE0" stroke-width="15.3" /></g><g id="PathGroup"><polyline fill="none" points="-86.8622923553,911.827105318 236.281438818,1016.60524036" stroke="#009EE0" stroke-width="15.6" /></g><g id="PathGroup"><polyline fill="none" points="-98.1144941661,920.157048559 230.679114089,1026.30338233" stroke="#009EE0" stroke-width="15.9" /></g><g id="PathGroup"><polyline fill="none" points="-109.366695977,928.486991801 225.07678936,1036.0015243" stroke="#009EE0" stroke-width="16.2" /></g><g id="PathGroup"><polyline fill="none" points="-120.618897788,936.816935042 219.474464631,1045.69966627" stroke="#009EE0" stroke-width="16.5" /></g><g id="PathGroup"><polyline fill="none" points="-131.871099599,945.146878284 213.872139902,1055.39780824" stroke="#009EE0" stroke-width="16.8" /></g><g id="PathGroup"><polyline fill="none" points="-143.12330141,953.476821526 208.269815173,1065.0959502" stroke="#009EE0" stroke-width="17.1" /></g><g id="PathGroup"><polyline fill="none" points="-154.375503221,961.806764767 202.667490444,1074.79409217" stroke="#009EE0" stroke-width="17.4" /></g></g></svg>
