<svg baseProfile="full" height="100%" version="1.1" viewBox="0,-1,901,901" width="100%" xmlns="http://www.w3.org/2000/svg" xmlns:ev="http://www.w3.org/2001/xml-events" xmlns:xlink="http://www.w3.org/1999/xlink"><defs><clipPath id="LOGO_CLIPPATH"><rect height="901" width="901" x="0" y="-1" /></clipPath></defs><g clip-path="url(#LOGO_CLIPPATH )" id="Logo_GROUP"><g id="PathGroup"><polyline fill="none" points="0.0,0.0 17.0,17.0 77.0,77.0 132.0,132.0 168.0,168.0 226.0,226.0 261.0,261.0 344.0,344.0 383.0,383.0 419.0,419.0 457.0,457.0 531.0,531.0 573.0,573.0 640.0,640.0 671.0,671.0 726.0,726.0 786.0,786.0 823.0,823.0 900.0,900.0" stroke="#009EE0" stroke-width="0.5" /></g><g id="PathGroup"><polyline fill="none" points="-29.417710312,5.34867460218 -8.24231830013,29.3464718375 53.6400613589,94.1846811632 113.728456174,151.193766858 148.792152507,189.72690946 209.501089532,246.609365671 246.354104918,282.482498859 335.594703963,367.54465966 375.384992769,406.812006738 410.758285362,442.178311842 449.269012328,480.774604721 523.572586498,554.032010956 564.922258276,599.80951489 631.303353586,665.983231923 662.71321634,696.696871727 718.592168349,749.458133562 778.852641492,812.036805994 815.994490481,847.726763565 895.527864045,924.596747752" stroke="#009EE0" stroke-width="1.5" /></g><g id="PathGroup"><polyline fill="none" points="-58.835420624,10.6973492044 -33.4846366003,41.692943675 30.2801227177,111.369362326 95.4569123478,170.387533717 129.584305013,211.453818919 193.002179064,267.218731342 231.708209835,303.964997718 327.189407925,391.089319321 367.769985538,430.624013475 402.516570724,465.356623683 441.538024657,504.549209441 516.145172995,577.064021911 556.844516553,626.61902978 622.606707173,691.966463846 654.42643268,722.393743455 711.184336697,772.916267125 771.705282984,838.073611988 808.988980961,872.453527129 891.05572809,949.193495505" stroke="#009EE0" stroke-width="2.5" /></g><g id="PathGroup"><polyline fill="none" points="-58.7269549004,54.0394155126 6.92018407658,128.55404349 77.1853685217,189.581300575 110.37645752,233.180728379 176.503268596,287.828097013 217.062314753,325.447496577 318.784111888,414.633978981 360.154978308,454.436020213 394.274856086,488.534935525 433.807036985,528.323814162 508.717759493,600.096032867 548.766774829,653.42854467 613.910060759,717.949695769 646.139649021,748.090615182 703.776505046,796.374400687 764.557924476,864.110417981 801.983471442,897.180290694 886.583592135,973.790243257" stroke="#009EE0" stroke-width="3.5" /></g><g id="PathGroup"><polyline fill="none" points="-83.9692732005,66.3858873501 -16.4397545646,145.738724653 58.9138246957,208.775067433 91.1686100265,254.907637839 160.004358128,308.437462685 202.41641967,346.929995437 310.37881585,438.178638642 352.539971077,478.248026951 386.033141447,511.713247366 426.076049313,552.098418882 501.29034599,623.128043823 540.689033105,680.238059561 605.213414346,743.932927691 637.852865361,773.78748691 696.368673395,819.832534249 757.410565968,890.147223975 794.977961923,921.907054258 882.11145618,998.38699101" stroke="#009EE0" stroke-width="4.5" /></g><g id="PathGroup"><polyline fill="none" points="-109.211591501,78.7323591876 -39.7996932057,162.923405816 40.6422808696,227.968834292 71.9607625331,276.634547299 143.50544766,329.046828356 187.770524588,368.412494296 301.973519813,461.723298302 344.924963846,502.060033688 377.791426809,534.891559208 418.345061642,575.873023603 493.862932488,646.160054778 532.611291382,707.047574451 596.516767932,769.916159614 629.566081701,799.484358637 688.960841744,843.290667811 750.26320746,916.184029969 787.972452404,946.633817823 877.639320225,1022.98373876" stroke="#009EE0" stroke-width="5.5" /></g><g id="PathGroup"><polyline fill="none" points="-63.1596318468,180.108086979 22.3707370435,247.16260115 52.7529150397,298.361456758 127.006537192,349.656194027 173.124629505,389.894993155 293.568223775,485.267957962 337.309956615,525.872040426 369.549712171,558.069871049 410.61407397,599.647628324 486.435518985,669.192065734 524.533549658,733.857089341 587.820121518,795.899391537 621.279298041,825.181230365 681.553010092,866.748801374 743.115848951,942.220835963 780.966942884,971.360581387" stroke="#009EE0" stroke-width="6.5" /></g><g id="PathGroup"><polyline fill="none" points="-86.519570488,197.292768143 4.0991932174,266.356368008 33.5450675463,320.088366218 110.507626724,370.265559698 158.478734423,411.377492014 285.162927738,508.812617623 329.694949384,549.684047164 361.307997533,581.248182891 402.883086299,623.422233044 479.008105483,692.22407669 516.455807934,760.666604231 579.123475105,821.88262346 612.992514381,850.878102092 674.145178441,890.206934936 735.968490443,968.257641956" stroke="#009EE0" stroke-width="7.5" /></g><g id="PathGroup"><polyline fill="none" points="-109.879509129,214.477449306 -14.1723506087,285.550134867 14.337220053,341.815275678 94.0087162556,390.874925369 143.83283934,432.859990873 276.757631701,532.357277283 322.079942153,573.496053901 353.066282895,604.426494732 395.152098627,647.196837765 471.58069198,715.256087646 508.378066211,787.476119121 570.426828691,847.865855383 604.705730722,876.574973819 666.73734679,913.665068498 728.821131935,994.29444795" stroke="#009EE0" stroke-width="8.5" /></g><g id="PathGroup"><polyline fill="none" points="-133.23944777,231.662130469 -32.4438944348,304.743901725 -4.87062744042,363.542185138 77.5098057876,411.48429104 129.186944258,454.342489732 268.352335663,555.901936943 314.464934923,597.308060639 344.824568257,627.604806574 387.421110955,670.971442485 464.153278478,738.288098601 500.300324487,814.285634011 561.730182278,873.849087306 596.418947062,902.271845547 659.329515139,937.123202061 721.673773427,1020.33125394" stroke="#009EE0" stroke-width="9.5" /></g><g id="PathGroup"><polyline fill="none" points="-156.599386411,248.846811632 -50.7154382609,323.937668583 -24.0784749338,385.269094597 61.0108953196,432.093656712 114.541049175,475.824988591 259.947039626,579.446596604 306.849927692,621.120067377 336.582853619,650.783118415 379.690123284,694.746047206 456.725864975,761.320109557 492.222582763,841.095148902 553.033535864,899.832319229 588.132163402,927.968717274 651.921683487,960.581335623" stroke="#009EE0" stroke-width="10.5" /></g><g id="PathGroup"><polyline fill="none" points="-68.9869820869,343.131435441 -43.2863224272,406.996004057 44.5119848515,452.703022383 99.8951540926,497.30748745 251.541743588,602.991256264 299.234920461,644.932074114 328.341138981,673.961430257 371.959135612,718.520651927 449.298451473,784.352120513 484.14484104,867.904663792 544.33688945,925.815551151 579.845379742,953.665589002 644.513851836,984.039469185" stroke="#009EE0" stroke-width="11.5" /></g><g id="PathGroup"><polyline fill="none" points="-62.4941699206,428.722913517 28.0130743835,473.312388054 85.2492590101,518.78998631 243.136447551,626.535915925 291.61991323,668.744080852 320.099424342,697.139742098 364.22814794,742.295256647 441.87103797,807.384131468 476.067099316,894.714178682 535.640243037,951.798783074 571.558596082,979.362460729" stroke="#009EE0" stroke-width="12.5" /></g><g id="PathGroup"><polyline fill="none" points="-81.7020174139,450.449822976 11.5141639154,493.921753725 70.6033639276,540.272485169 234.731151514,650.080575585 284.004905999,692.55608759 311.857709704,720.31805394 356.497160269,766.069861368 434.443624468,830.416142424 467.989357592,921.523693572 526.943596623,977.782014997" stroke="#009EE0" stroke-width="13.5" /></g><g id="PathGroup"><polyline fill="none" points="-100.909864907,472.176732436 -4.98474655263,514.531119396 55.9574688452,561.754984028 226.325855476,673.625235245 276.389898768,716.368094327 303.615995066,743.496365782 348.766172597,789.844466088 427.016210965,853.44815338 459.911615869,948.333208462 518.24695021,1003.76524692" stroke="#009EE0" stroke-width="14.5" /></g><g id="PathGroup"><polyline fill="none" points="-120.117712401,493.903641896 -21.4836570207,535.140485067 41.3115737627,583.237482887 217.920559439,697.169894906 268.774891538,740.180101065 295.374280428,766.674677623 341.035184925,813.619070809 419.588797463,876.480164335 451.833874145,975.142723352" stroke="#009EE0" stroke-width="15.5" /></g><g id="PathGroup"><polyline fill="none" points="-139.325559894,515.630551356 -37.9825674887,555.749850739 26.6656786802,604.719981746 209.515263401,720.714554566 261.159884307,763.992107803 287.13256579,789.852989465 333.304197254,837.39367553 412.16138396,899.512175291 443.756132421,1001.95223824" stroke="#009EE0" stroke-width="16.5" /></g><g id="PathGroup"><polyline fill="none" points="-158.533407387,537.357460815 -54.4814779568,576.35921641 12.0197835977,626.202480605 201.109967364,744.259214227 253.544877076,787.80411454 278.890851152,813.031301306 325.573209582,861.16828025 404.733970458,922.544186247 435.678390698,1028.76175313" stroke="#009EE0" stroke-width="17.5" /></g><g id="PathGroup"><polyline fill="none" points="-70.9803884248,596.968582081 -2.6261114848,647.684979464 192.704671326,767.803873887 245.929869845,811.616121278 270.649136514,836.209613148 317.842221911,884.942884971 397.306556955,945.576197202 427.600648974,1055.57126802" stroke="#009EE0" stroke-width="18.5" /></g><g id="PathGroup"><polyline fill="none" points="-87.4792988929,617.577947752 -17.2720065673,669.167478324 184.299375289,791.348533547 238.314862614,835.428128016 262.407421876,859.387924989 310.111234239,908.717489692 389.879143453,968.608208158 419.52290725,1082.38078291" stroke="#009EE0" stroke-width="19.5" /></g><g id="PathGroup"><polyline fill="none" points="-103.978209361,638.187313423 -31.9179016498,690.649977183 175.894079252,814.893193208 230.699855383,859.240134753 254.165707237,882.566236831 302.380246567,932.492094412 382.45172995,991.640219114" stroke="#009EE0" stroke-width="20.5" /></g><g id="PathGroup"><polyline fill="none" points="-120.477119829,658.796679094 -46.5637967323,712.132476042 167.488783214,838.437852868 223.084848153,883.052141491 245.923992599,905.744548672 294.649258896,956.266699133 375.024316448,1014.67223007" stroke="#009EE0" stroke-width="21.5" /></g><g id="PathGroup"><polyline fill="none" points="-136.976030297,679.406044765 -61.2096918148,733.614974901 159.083487177,861.982512528 215.469840922,906.864148229 237.682277961,928.922860514 286.918271224,980.041303853" stroke="#009EE0" stroke-width="22.5" /></g><g id="PathGroup"><polyline fill="none" points="-75.8555868972,755.09747376 150.678191139,885.527172189 207.854833691,930.676154966 229.440563323,952.101172355 279.187283552,1003.81590857" stroke="#009EE0" stroke-width="23.5" /></g><g id="PathGroup"><polyline fill="none" points="-90.5014819797,776.579972619 142.272895102,909.071831849 200.23982646,954.488161704 221.198848685,975.279484197" stroke="#009EE0" stroke-width="24.5" /></g><g id="PathGroup"><polyline fill="none" points="-105.147377062,798.062471478 133.867599064,932.61649151 192.624819229,978.300168442" stroke="#009EE0" stroke-width="25.5" /></g><g id="PathGroup"><polyline fill="none" points="-119.793272145,819.544970338 125.462303027,956.16115117 185.009811999,1002.11217518" stroke="#009EE0" stroke-width="26.5" /></g><g id="PathGroup"><polyline fill="none" points="-134.439167227,841.027469197 117.05700699,979.70581083" stroke="#009EE0" stroke-width="27.5" /></g><g id="PathGroup"><polyline fill="none" points="-149.08506231,862.509968056 108.651710952,1003.25047049" stroke="#009EE0" stroke-width="28.5" /></g><g id="PathGroup"><polyline fill="none" points="-163.730957392,883.992466915 100.246414915,1026.79513015" stroke="#009EE0" stroke-width="29.5" /></g><g id="PathGroup"><polyline fill="none" points="-178.376852475,905.474965774 91.8411188773,1050.33978981" stroke="#009EE0" stroke-width="30.5" /></g></g></svg>
