<svg baseProfile="full" height="100%" version="1.1" viewBox="0,-1,901,901" width="100%" xmlns="http://www.w3.org/2000/svg" xmlns:ev="http://www.w3.org/2001/xml-events" xmlns:xlink="http://www.w3.org/1999/xlink"><defs><clipPath id="LOGO_CLIPPATH"><rect height="901" width="901" x="0" y="-1" /></clipPath></defs><g clip-path="url(#LOGO_CLIPPATH )" id="Logo_GROUP"><g id="PathGroup"><polyline fill="none" points="0.0,0.0 44.0,44.0 92.0,92.0 139.0,139.0 196.0,196.0 226.0,226.0 287.0,287.0 335.0,335.0 362.0,362.0 438.0,438.0 481.0,481.0 505.0,505.0 570.0,570.0 633.0,633.0 674.0,674.0 704.0,704.0 792.0,792.0 806.0,806.0 900.0,900.0" stroke="#009EE0" stroke-width="0.5" /></g><g id="PathGroup"><polyline fill="none" points="-24.3999737705,4.43635886736 20.6526508476,49.5588926553 68.5694398282,97.1970039479 115.467736712,143.715144168 167.436092066,201.010305732 203.220654551,235.549419926 265.78158233,306.768124635 318.972909521,354.833869284 342.925660084,383.844211059 421.126114294,459.077760346 466.16965605,505.921093442 494.005410467,528.781484415 557.86608345,596.33947739 622.503281743,654.915950945 664.986127159,699.450935079 695.378379579,727.039697509 782.084049614,817.113222174 801.484833935,829.978600364 894.812322292,928.532227393" stroke="#009EE0" stroke-width="1.5" /></g><g id="PathGroup"><polyline fill="none" points="-48.799947541,8.87271773472 -2.6946983049,55.1177853107 45.1388796563,102.394007896 91.9354734231,148.430288335 138.872184132,206.020611463 180.441309102,245.098839852 244.56316466,326.536249269 302.945819043,374.667738569 323.851320168,405.688422117 404.252228588,480.155520691 451.3393121,530.842186883 483.010820934,552.562968831 545.7321669,622.678954779 612.006563486,676.83190189 655.972254319,724.901870159 686.756759158,750.079395018 772.168099228,842.226444347 796.96966787,853.957200728 889.624644584,957.064454786" stroke="#009EE0" stroke-width="2.5" /></g><g id="PathGroup"><polyline fill="none" points="-73.1999213114,13.3090766021 -26.0420474573,60.676677966 21.7083194845,107.591011844 68.4032101346,153.145432503 110.308276197,211.030917195 157.661963654,254.648259778 223.34474699,346.304373904 286.918728564,394.501607853 304.776980253,427.532633176 387.378342882,501.233281037 436.50896815,555.763280325 472.016231401,576.344453246 533.598250349,649.018432169 601.509845229,698.747852836 646.958381478,750.352805238 678.135138737,773.119092528 762.252148842,867.339666521 792.454501805,877.935801091 884.436966877,985.596682179" stroke="#009EE0" stroke-width="3.5" /></g><g id="PathGroup"><polyline fill="none" points="-97.5998950819,17.7454354694 -49.3893966098,66.2355706214 -1.72224068731,112.788015792 44.8709468461,157.860576671 81.7443682631,216.041222927 134.882618205,264.197679704 202.126329319,366.072498539 270.891638085,414.335477137 285.702640337,449.376844235 370.504457176,522.311041382 421.6786242,580.684373767 461.021641868,600.125937662 521.464333799,675.357909558 591.013126972,720.663803781 637.944508638,775.803740317 669.513518316,796.158790037 752.336198455,892.452888694 787.939335741,901.914401455 879.249289169,1014.12890957" stroke="#009EE0" stroke-width="4.5" /></g><g id="PathGroup"><polyline fill="none" points="-72.7367457622,71.7944632767 -25.1528008591,117.985019739 21.3386835576,162.575720838 53.1804603289,221.051528658 112.103272756,273.747099631 180.907911649,385.840623174 254.864547606,434.169346422 266.628300421,471.221055293 353.63057147,543.388801728 406.84828025,605.605467208 450.027052335,623.907422077 509.330417249,701.697386948 580.516408715,742.579754726 628.930635797,801.254675397 660.891897895,819.198487546 742.420248069,917.566110868 783.424169676,925.893001819 874.061611461,1042.66113696" stroke="#009EE0" stroke-width="5.5" /></g><g id="PathGroup"><polyline fill="none" points="-96.0840949147,77.3533559321 -48.583361031,123.182023687 -2.19357973083,167.290865006 24.6165523946,226.06183439 89.3239273074,283.296519557 159.689493979,405.608747808 238.837457128,454.003215706 247.553960505,493.065266352 336.756685764,564.466562073 392.0179363,630.52656065 439.032462803,647.688906493 497.196500699,728.036864337 570.019690458,764.495705671 619.916762956,826.705610476 652.270277474,842.238185055 732.504297683,942.679333041 778.909003611,949.871602183 868.873933753,1071.19336436" stroke="#009EE0" stroke-width="6.5" /></g><g id="PathGroup"><polyline fill="none" points="-72.0139212028,128.379027635 -25.7258430193,172.006009174 -3.9473555396,231.072140122 66.5445818586,292.845939483 138.471076309,425.376872443 222.810366649,473.83708499 228.479620589,514.909477411 319.882800058,585.544322419 377.18759235,655.447654091 428.03787327,671.470390908 485.062584148,754.376341727 559.522972201,786.411656616 610.902890116,852.156545555 643.648657053,865.277882565 722.588347297,967.792555215" stroke="#009EE0" stroke-width="7.5" /></g><g id="PathGroup"><polyline fill="none" points="-95.4444813746,133.576031583 -49.2581063078,176.721153341 -32.5112634738,236.082445853 43.7652364098,302.395359409 117.252658639,445.144997078 206.78327617,493.670954275 209.405280674,536.75368847 303.008914352,606.622082764 362.357248401,680.368747533 417.043283737,695.251875324 472.928667598,780.715819116 549.026253944,808.327607562 601.889017275,877.607480635 635.027036632,888.317580074 712.672396911,992.905777389" stroke="#009EE0" stroke-width="8.5" /></g><g id="PathGroup"><polyline fill="none" points="-61.0751714081,241.092751585 20.985890961,311.944779335 96.0342409686,464.913121713 190.756185692,513.504823559 190.330940758,558.597899528 286.135028646,627.69984311 347.526904451,705.289840975 406.048694204,719.033359739 460.794751048,807.055296506 538.529535687,830.243558507 592.875144435,903.058415714 626.405416211,911.357277583 702.756446525,1018.01899956" stroke="#009EE0" stroke-width="9.5" /></g><g id="PathGroup"><polyline fill="none" points="-89.6390793423,246.103057317 -1.79345448773,321.494199261 74.8158232985,484.681246347 174.729095213,533.338692843 171.256600842,580.442110587 269.26114294,648.777603455 332.696560501,730.210934416 395.054104671,742.814844155 448.660834498,833.394773895 528.03281743,852.159509452 583.861271594,928.509350794 617.78379579,934.396975092 692.840496139,1043.13222174" stroke="#009EE0" stroke-width="10.5" /></g><g id="PathGroup"><polyline fill="none" points="-118.202987277,251.113363049 -24.5727999365,331.043619187 53.5974056283,504.449370982 158.702004734,553.172562127 152.182260926,602.286321646 252.387257234,669.855363801 317.866216551,755.132027858 384.059515138,766.59632857 436.526917948,859.734251285 517.536099173,874.075460397 574.847398753,953.960285873 609.162175369,957.436672601 682.924545753,1068.24544391" stroke="#009EE0" stroke-width="11.5" /></g><g id="PathGroup"><polyline fill="none" points="-146.766895211,256.12366878 -47.3521453853,340.593039113 32.3789879582,524.217495617 142.674914256,573.006431412 133.10792101,624.130532704 235.513371529,690.933124146 303.035872601,780.0531213 373.064925605,790.377812986 424.393001397,886.073728674 507.039380916,895.991411342 565.833525913,979.411220952" stroke="#009EE0" stroke-width="12.5" /></g><g id="PathGroup"><polyline fill="none" points="-70.1314908341,350.14245904 11.160570288,543.985620252 126.647823777,592.840300696 114.033581095,645.974743763 218.639485823,712.010884492 288.205528651,804.974214741 362.070336072,814.159297401 412.259084847,912.413206064 496.542662659,917.907362288 556.819653072,1004.86215603" stroke="#009EE0" stroke-width="13.5" /></g><g id="PathGroup"><polyline fill="none" points="-92.9108362828,359.691878966 -10.0578473821,563.753744886 110.620733298,612.67416998 94.9592411788,667.818954822 201.765600117,733.088644837 273.375184701,829.895308183 351.075746539,837.940781816 400.125168297,938.752683453 486.045944402,939.823313233 547.805780232,1030.31309111" stroke="#009EE0" stroke-width="14.5" /></g><g id="PathGroup"><polyline fill="none" points="-115.690181732,369.241298892 -31.2762650523,583.521869521 94.5936428194,632.508039265 75.884901263,689.66316588 184.891714411,754.166405183 258.544840751,854.816401625 340.081157006,861.722266232 387.991251747,965.092160843 475.549226145,961.739264178 538.791907391,1055.76402619" stroke="#009EE0" stroke-width="15.5" /></g><g id="PathGroup"><polyline fill="none" points="-138.46952718,378.790718818 -52.4946827224,603.289994156 78.5665523407,652.341908549 56.8105613472,711.507376939 168.017828705,775.244165528 243.714496801,879.737495066 329.086567473,885.503750647 375.857335196,991.431638232" stroke="#009EE0" stroke-width="16.5" /></g><g id="PathGroup"><polyline fill="none" points="-73.7131003926,623.058118791 62.539461862,672.175777833 37.7362214314,733.351587998 151.143942999,796.321925874 228.884152851,904.658588508 318.091977941,909.285235063 363.723418646,1017.77111562" stroke="#009EE0" stroke-width="17.5" /></g><g id="PathGroup"><polyline fill="none" points="-94.9315180627,642.826243425 46.5123713833,692.009647118 18.6618815156,755.195799056 134.270057293,817.399686219 214.053808901,929.579681949 307.097388408,933.066719478 351.589502096,1044.11059301" stroke="#009EE0" stroke-width="18.5" /></g><g id="PathGroup"><polyline fill="none" points="-116.149935733,662.59436806 30.4852809046,711.843516402 -0.412458400198,777.040010115 117.396171587,838.477446565 199.223464951,954.500775391 296.102798875,956.848203894 339.455585546,1070.4500704" stroke="#009EE0" stroke-width="19.5" /></g><g id="PathGroup"><polyline fill="none" points="-137.368353403,682.362492695 14.4581904259,731.677385686 -19.486798316,798.884221174 100.522285881,859.55520691 184.393121001,979.421868833" stroke="#009EE0" stroke-width="20.5" /></g><g id="PathGroup"><polyline fill="none" points="-158.586771073,702.13061733 -1.5689000528,751.511254971 -38.5611382318,820.728432232 83.6484001749,880.632967256 169.562777051,1004.34296227" stroke="#009EE0" stroke-width="21.5" /></g><g id="PathGroup"><polyline fill="none" points="-179.805188743,721.898741964 -17.5959905315,771.345124255 -57.6354781476,842.572643291 66.774514469,901.710727601 154.732433102,1029.26405572" stroke="#009EE0" stroke-width="22.5" /></g><g id="PathGroup"><polyline fill="none" points="-201.023606414,741.666866599 -33.6230810102,791.178993539 -76.7098180634,864.41685435 49.900628763,922.788487947 139.902089152,1054.18514916" stroke="#009EE0" stroke-width="23.5" /></g><g id="PathGroup"><polyline fill="none" points="-222.242024084,761.434991234 -49.6501714889,811.012862824 -95.7841579792,886.261065409 33.0267430571,943.866248292 125.071745202,1079.1062426" stroke="#009EE0" stroke-width="24.5" /></g><g id="PathGroup"><polyline fill="none" points="-243.460441754,781.203115869 -65.6772619676,830.846732108 -114.858497895,908.105276467 16.1528573511,964.944008638 110.241401252,1104.02733604" stroke="#009EE0" stroke-width="25.5" /></g><g id="PathGroup"><polyline fill="none" points="-133.932837811,929.949487526 -0.721028354829,986.021768983" stroke="#009EE0" stroke-width="26.5" /></g><g id="PathGroup"><polyline fill="none" points="-153.007177727,951.793698585 -17.5949140608,1007.09952933" stroke="#009EE0" stroke-width="27.5" /></g><g id="PathGroup"><polyline fill="none" points="-172.081517642,973.637909643 -34.4687997667,1028.17728967" stroke="#009EE0" stroke-width="28.5" /></g></g></svg>
