<svg baseProfile="full" height="100%" version="1.1" viewBox="0,-1,901,901" width="100%" xmlns="http://www.w3.org/2000/svg" xmlns:ev="http://www.w3.org/2001/xml-events" xmlns:xlink="http://www.w3.org/1999/xlink"><defs><clipPath id="LOGO_CLIPPATH"><rect height="901" width="901" x="0" y="-1" /></clipPath></defs><g clip-path="url(#LOGO_CLIPPATH )" id="Logo_GROUP"><g id="PathGroup"><polyline fill="none" points="0.0,0.0 8.0,8.0 74.0,74.0 106.0,106.0 154.0,154.0 238.0,238.0 279.0,279.0 308.0,308.0 380.0,380.0 431.0,431.0 467.0,467.0 505.0,505.0 562.0,562.0 604.0,604.0 696.0,696.0 704.0,704.0 754.0,754.0 833.0,833.0 900.0,900.0" stroke="#009EE0" stroke-width="0.5" /></g><g id="PathGroup"><polyline fill="none" points="-23.8096518244,4.32902760444 -15.5272219184,12.7402351 49.2292457989,77.3778301183 81.9704086642,109.615071263 130.886030437,160.460991492 214.482962831,242.790507571 255.15133978,286.499427026 284.861647485,315.74445885 352.016800403,387.611868384 406.502597241,439.710755309 445.430965849,481.518152974 487.293596289,521.496159178 548.89723245,585.607572568 595.056765016,629.051517879 683.801286049,721.203003352 695.207290585,730.056443755 746.364752471,779.897934187 827.00230139,857.578804108 894.99120773,927.548357483" stroke="#009EE0" stroke-width="1.5" /></g><g id="PathGroup"><polyline fill="none" points="-47.6193036488,8.65805520888 -39.0544438368,17.4804702 24.4584915978,80.7556602367 57.9408173285,113.230142526 107.772060875,166.921982984 190.965925662,247.581015143 231.30267956,293.998854051 261.72329497,323.4889177 324.033600805,395.223736767 382.005194481,448.421510617 423.861931698,496.036305949 469.587192578,537.992318356 535.794464901,609.215145136 586.113530032,654.103035757 671.602572098,746.406006703 686.41458117,756.112887509 738.729504941,805.795868374 821.00460278,882.157608216 889.982415461,955.096714966" stroke="#009EE0" stroke-width="2.5" /></g><g id="PathGroup"><polyline fill="none" points="-62.5816657551,22.2207053 -0.312262603322,84.133490355 33.9112259927,116.845213789 84.6580913122,173.382974476 167.448888493,252.371522714 207.45401934,301.498281077 238.584942454,331.23337655 296.050401208,402.835605151 357.507791722,457.132265926 402.292897547,510.554458923 451.880788867,554.488477534 522.691697351,632.822717703 577.170295049,679.154553636 659.403858147,771.609010055 677.621871755,782.169331264 731.094257412,831.693802562 815.00690417,906.736412324 884.973623191,982.645072448" stroke="#009EE0" stroke-width="3.5" /></g><g id="PathGroup"><polyline fill="none" points="-86.1088876735,26.9609404 -25.0830168044,87.5113204733 9.88163465692,120.460285052 61.5441217495,179.843965968 143.931851324,257.162030286 183.60535912,308.997708103 215.446589939,338.9778354 268.06720161,410.447473535 333.010388963,465.843021234 380.723863395,525.072611897 434.174385156,570.984636712 509.588929802,656.430290271 568.227060065,704.206071515 647.205144196,796.812013406 668.829162339,808.225775019 723.459009883,857.591736749 809.00920556,931.315216432 879.964830922,1010.19342993" stroke="#009EE0" stroke-width="4.5" /></g><g id="PathGroup"><polyline fill="none" points="-109.636109592,31.7011755 -49.8537710055,90.8891505917 -14.1479566789,124.075356315 38.4301521869,186.30495746 120.414814155,261.952537857 159.7566989,316.497135128 192.308237424,346.72229425 240.084002013,418.059341918 308.512986203,474.553776543 359.154829244,539.590764872 416.467981445,587.48079589 496.486162252,680.037862839 559.283825081,729.257589393 635.006430245,822.015016758 660.036452924,834.282218773 715.823762353,883.489670936 803.011506949,955.89402054" stroke="#009EE0" stroke-width="5.5" /></g><g id="PathGroup"><polyline fill="none" points="-74.6245252066,94.26698071 -38.1775480146,127.690427577 15.3161826243,192.765948951 96.897776986,266.743045429 135.90803868,323.996562154 169.169884909,354.4667531 212.100802415,425.671210302 284.015583444,483.264531852 337.585795093,554.108917846 398.761577734,603.976955068 483.383394703,703.645435407 550.340590097,754.309107272 622.807716294,847.21802011 651.243743509,860.338662528 708.188514824,909.387605123 797.013808339,980.472824648" stroke="#009EE0" stroke-width="6.5" /></g><g id="PathGroup"><polyline fill="none" points="-62.2071393504,131.30549884 -7.7977869383,199.226940443 73.3807398171,271.533553 112.05937846,331.49598918 146.031532393,362.21121195 184.117602818,433.283078686 259.518180685,491.97528716 316.016760942,568.62707082 381.055174023,620.473114246 470.280627153,727.253007974 541.397355113,779.360625151 610.609002343,872.421023461 642.451034094,886.395106283 700.553267295,935.285539311 791.016109729,1005.05162876" stroke="#009EE0" stroke-width="7.5" /></g><g id="PathGroup"><polyline fill="none" points="-86.2367306862,134.920570103 -30.9117565009,205.687931935 49.8637026481,276.324060572 88.2107182404,338.995416205 122.893179878,369.955670801 156.13440322,440.894947069 235.020777925,500.686042469 294.447726791,583.145223795 363.348770312,636.969273424 457.177859603,750.860580542 532.454120129,804.412143029 598.410288392,897.624026813 633.658324679,912.451550037 692.918019766,961.183473498" stroke="#009EE0" stroke-width="8.5" /></g><g id="PathGroup"><polyline fill="none" points="-110.266322022,138.535641366 -54.0257260635,212.148923427 26.3466654791,281.114568143 64.3620580205,346.494843231 99.7548273628,377.700129651 128.151203623,448.506815453 210.523375166,509.396797777 272.87869264,597.663376769 345.642366601,653.465432602 444.075092054,774.46815311 523.510885146,829.463660908 586.211574441,922.827030165 624.865615264,938.507993792 685.282772236,987.081407685" stroke="#009EE0" stroke-width="9.5" /></g><g id="PathGroup"><polyline fill="none" points="-77.1396956261,218.609914919 2.82962831008,285.905075715 40.5133978005,353.994270257 76.6164748476,385.444588501 100.168004026,456.118683836 186.025972406,518.107553086 251.309658488,612.181529743 327.93596289,669.96159178 430.972324504,798.075725678 514.567650162,854.515178786 574.01286049,948.030033516 616.072905848,964.564437547" stroke="#009EE0" stroke-width="10.5" /></g><g id="PathGroup"><polyline fill="none" points="-100.253665189,225.070906411 -20.6874088589,290.695583286 16.6647375806,361.493697283 53.4781223323,393.189047351 72.1848044282,463.73055222 161.528569647,526.818308394 229.740624337,626.699682718 310.229559179,686.457750958 417.869556955,821.683298245 505.624415178,879.566696665 561.814146539,973.233036868" stroke="#009EE0" stroke-width="11.5" /></g><g id="PathGroup"><polyline fill="none" points="-123.367634751,231.531897903 -44.2044460279,295.486090858 -7.18392263935,368.993124308 30.3397698171,400.933506201 44.2016048307,471.342420604 137.031166888,535.529063703 208.171590186,641.217835692 292.523155469,702.953910136 404.766789405,845.290870813 496.681180194,904.618214544 549.615432588,998.436040219" stroke="#009EE0" stroke-width="12.5" /></g><g id="PathGroup"><polyline fill="none" points="-67.7214831969,300.276598429 -31.0325828593,376.492551334 7.20141730187,408.677965051 16.2184052333,478.954288987 112.533764128,544.239819012 186.602556035,655.735988666 274.816751758,719.450069314 391.664021856,868.898443381 487.73794521,929.669732422 537.416718637,1023.63904357" stroke="#009EE0" stroke-width="13.5" /></g><g id="PathGroup"><polyline fill="none" points="-91.2385203659,305.067106 -54.8812430792,383.99197836 -15.9369352134,416.422423901 -11.7647943641,486.566157371 88.0363613691,552.95057432 165.033521884,670.254141641 257.110348047,735.946228491 378.561254306,892.506015949 478.794710227,954.721250301 525.218004686,1048.84204692" stroke="#009EE0" stroke-width="14.5" /></g><g id="PathGroup"><polyline fill="none" points="-78.7299032992,391.491405385 -39.0752877286,424.166882751 -39.7479939616,494.178025755 63.5389586097,561.661329629 143.464487733,684.772294615 239.403944336,752.442387669 365.458486756,916.113588516 469.851475243,979.77276818" stroke="#009EE0" stroke-width="15.5" /></g><g id="PathGroup"><polyline fill="none" points="-102.578563519,398.990832411 -62.2136402439,431.911341601 -67.731193559,501.789894138 39.0415558504,570.372084937 121.895453581,699.290447589 221.697540625,768.938546847 352.355719207,939.721161084 460.908240259,1004.82428606" stroke="#009EE0" stroke-width="16.5" /></g><g id="PathGroup"><polyline fill="none" points="-95.7143931564,509.401762522 14.544153091,579.082840246 100.32641943,713.808600564 203.991136914,785.434706025 339.252951657,963.328733652 451.965005275,1029.87580394" stroke="#009EE0" stroke-width="17.5" /></g><g id="PathGroup"><polyline fill="none" points="-123.697592754,517.013630906 -9.95324966832,587.793595555 78.7573852791,728.326753538 186.284733203,801.930865203 326.150184108,986.93630622" stroke="#009EE0" stroke-width="18.5" /></g><g id="PathGroup"><polyline fill="none" points="-151.680792351,524.625499289 -34.4506524277,596.504350863 57.188351128,742.844906512 168.578329492,818.427024381 313.047416558,1010.54387879" stroke="#009EE0" stroke-width="19.5" /></g><g id="PathGroup"><polyline fill="none" points="-179.663991949,532.237367673 -58.948055187,605.215106172 35.6193169768,757.363059487 150.871925781,834.923183559 299.944649009,1034.15145136" stroke="#009EE0" stroke-width="20.5" /></g><g id="PathGroup"><polyline fill="none" points="-83.4454579464,613.92586148 14.0502828257,771.881212461 133.16552207,851.419342737 286.841881459,1057.75902392" stroke="#009EE0" stroke-width="21.5" /></g><g id="PathGroup"><polyline fill="none" points="-107.942860706,622.636616789 -7.51875132551,786.399365435 115.459118359,867.915501915 273.739113909,1081.36659649" stroke="#009EE0" stroke-width="22.5" /></g><g id="PathGroup"><polyline fill="none" points="-132.440263465,631.347372098 -29.0877854767,800.91751841 97.752714648,884.411661093 260.63634636,1104.97416906" stroke="#009EE0" stroke-width="23.5" /></g><g id="PathGroup"><polyline fill="none" points="-156.937666224,640.058127406 -50.6568196278,815.435671384 80.0463109371,900.907820271 247.53357881,1128.58174163" stroke="#009EE0" stroke-width="24.5" /></g><g id="PathGroup"><polyline fill="none" points="-181.435068984,648.768882715 -72.225853779,829.953824358 62.3399072261,917.403979449 234.430811261,1152.18931419" stroke="#009EE0" stroke-width="25.5" /></g><g id="PathGroup"><polyline fill="none" points="-93.7948879301,844.471977333 44.6335035152,933.900138627 221.328043711,1175.79688676" stroke="#009EE0" stroke-width="26.5" /></g><g id="PathGroup"><polyline fill="none" points="-115.363922081,858.990130307 26.9270998042,950.396297805 208.225276162,1199.40445933" stroke="#009EE0" stroke-width="27.5" /></g><g id="PathGroup"><polyline fill="none" points="-136.932956232,873.508283281 9.22069609326,966.892456983 195.122508612,1223.0120319" stroke="#009EE0" stroke-width="28.5" /></g><g id="PathGroup"><polyline fill="none" points="-158.501990384,888.026436256 -8.4857076177,983.388616161" stroke="#009EE0" stroke-width="29.5" /></g><g id="PathGroup"><polyline fill="none" points="-180.071024535,902.54458923 -26.1921113287,999.884775339" stroke="#009EE0" stroke-width="30.5" /></g><g id="PathGroup"><polyline fill="none" points="-201.640058686,917.062742204 -43.8985150396,1016.38093452" stroke="#009EE0" stroke-width="31.5" /></g><g id="PathGroup"><polyline fill="none" points="-223.209092837,931.580895179 -61.6049187506,1032.87709369" stroke="#009EE0" stroke-width="32.5" /></g></g></svg>
