<svg baseProfile="full" height="100%" version="1.1" viewBox="0,-1,901,901" width="100%" xmlns="http://www.w3.org/2000/svg" xmlns:ev="http://www.w3.org/2001/xml-events" xmlns:xlink="http://www.w3.org/1999/xlink"><defs><clipPath id="LOGO_CLIPPATH"><rect height="901" width="901" x="0" y="-1" /></clipPath></defs><g clip-path="url(#LOGO_CLIPPATH )" id="Logo_GROUP"><g id="PathGroup"><polyline fill="none" points="0.0,0.0 42.0,42.0 83.0,83.0 137.0,137.0 197.0,197.0 228.0,228.0 252.0,252.0 317.0,317.0 394.0,394.0 402.0,402.0 482.0,482.0 532.0,532.0 574.0,574.0 626.0,626.0 683.0,683.0 705.0,705.0 765.0,765.0 833.0,833.0 900.0,900.0" stroke="#009EE0" stroke-width="0.5" /></g><g id="PathGroup"><polyline fill="none" points="-24.8919087255,4.52580158646 18.6528400138,49.7504916348 56.2692864492,91.3348037207 113.112893459,145.027835394 169.939744865,204.193232378 203.498388909,233.891608774 224.651158391,258.003404256 290.50221384,321.013393652 365.93102885,401.289228942 382.149124964,416.015447204 459.420660116,498.558182582 511.212899589,546.769781871 555.839756889,591.181547374 611.154199461,645.865603599 670.766689043,708.18622844 696.690634856,731.424315524 755.153346903,791.211513173 824.147778681,858.295813443 895.348978607,925.580617663" stroke="#009EE0" stroke-width="1.5" /></g><g id="PathGroup"><polyline fill="none" points="-49.7838174511,9.05160317292 -4.69431997233,57.5009832695 29.5385728983,99.6696074414 89.2257869189,153.055670789 142.87948973,211.386464755 178.996777818,239.783217548 197.302316782,264.006808511 264.00442768,325.026787305 337.8620577,408.578457884 362.298249929,430.030894407 436.841320232,515.116365163 490.425799178,561.539563742 537.679513779,608.363094748 596.308398922,665.731207198 658.533378087,733.37245688 688.381269711,757.848631047 745.306693807,817.423026345 815.295557362,883.591626885 890.697957214,951.161235325" stroke="#009EE0" stroke-width="2.5" /></g><g id="PathGroup"><polyline fill="none" points="-74.6757261766,13.5774047594 -28.0414799585,65.2514749043 2.80785934746,108.004411162 65.3386803783,161.083506183 115.819234596,218.579697133 154.495166727,245.674826321 169.953475174,270.010212767 237.506641519,329.040180957 309.793086549,415.867686826 342.447374893,444.046341611 414.261980348,531.674547745 469.638698768,576.309345612 519.519270668,625.544642122 581.462598383,685.596810797 646.30006713,758.55868532 680.071904567,784.272946571 735.46004071,843.634539518 806.443336043,908.887440328 886.04693582,976.741852988" stroke="#009EE0" stroke-width="3.5" /></g><g id="PathGroup"><polyline fill="none" points="-99.5676349021,18.1032063458 -51.3886399447,73.001966539 -23.9228542034,116.339214883 41.4515738377,169.111341578 88.7589794607,225.77292951 129.993555636,251.566435095 142.604633565,276.013617022 211.008855359,333.053574609 281.724115399,423.156915768 322.596499857,458.061788815 391.682640464,548.232730326 448.851598357,591.079127483 501.359027558,642.726189496 566.616797844,705.462414396 634.066756173,783.744913761 671.762539422,810.697262095 725.613387614,869.84605269 797.591114724,934.18325377 881.395914427,1002.32247065" stroke="#009EE0" stroke-width="4.5" /></g><g id="PathGroup"><polyline fill="none" points="-74.7357999308,80.7524581738 -50.6535677542,124.674018603 17.5644672972,177.139176972 61.6987243259,232.966161888 105.491944545,257.458043869 115.255791956,282.017021278 184.511069199,337.066968261 253.655144249,430.446144711 302.745624822,472.077236018 369.10330058,564.790912908 428.064497946,605.848909354 483.198784447,659.90773687 551.770997305,725.328017995 621.833445217,808.931142201 663.453174278,837.121577618 715.766734517,896.057565863 788.738893405,959.479067213" stroke="#009EE0" stroke-width="5.5" /></g><g id="PathGroup"><polyline fill="none" points="-77.3842813051,133.008822324 -6.32263924338,185.167012366 34.6384691911,240.159394266 80.9903334538,263.349652643 87.9069503471,288.020425534 158.013283039,341.080361914 225.586173099,437.735373653 282.894749786,486.092683222 346.523960696,581.349095489 407.277397535,620.618691225 465.038541337,677.089284244 536.925196766,745.193621594 609.60013426,834.117370641 655.143809133,863.545893142 705.920081421,922.269079035 779.886672086,984.774880655" stroke="#009EE0" stroke-width="6.5" /></g><g id="PathGroup"><polyline fill="none" points="-104.114994856,141.343626045 -30.2097457839,193.194847761 7.57821405624,247.352626643 56.4887223627,269.241261417 60.5581087383,294.023829789 131.515496879,345.093755566 197.517201949,445.024602595 263.04387475,500.108130426 323.944620812,597.907278071 386.490297124,635.388473096 446.878298226,694.270831618 522.079396227,765.059225193 597.366823304,859.303599081 646.834443989,889.970208666 696.073428324,948.480592208 771.034450767,1010.0706941" stroke="#009EE0" stroke-width="7.5" /></g><g id="PathGroup"><polyline fill="none" points="-130.845708407,149.678429766 -54.0968523245,201.222683155 -19.4820410786,254.545859021 31.9871112717,275.13287019 33.2092671295,300.027234045 105.017710718,349.107149218 169.448230799,452.313831537 243.192999715,514.123577629 301.365280928,614.465460653 365.703196714,650.158254967 428.718055116,711.452378992 507.233595687,784.924828792 585.133512347,884.489827521 638.525078844,916.39452419 686.226775227,974.692105381" stroke="#009EE0" stroke-width="8.5" /></g><g id="PathGroup"><polyline fill="none" points="-77.9839588651,209.25051855 -46.5422962134,261.739091398 7.48550018066,281.024478964 5.86042552069,306.0306383 78.5199245581,353.12054287 141.379259648,459.603060479 223.342124679,528.139024833 278.785941044,631.023643234 344.916096303,664.928036837 410.557812005,728.633926366 492.387795148,804.790432391 572.90020139,909.676055961 630.2157137,942.818839713 676.380122131,1000.90361855" stroke="#009EE0" stroke-width="9.5" /></g><g id="PathGroup"><polyline fill="none" points="-73.6025513482,268.932323776 -17.0161109104,286.916087738 -21.4884160881,312.034042556 52.0221383979,357.133936523 113.310288498,466.892289421 203.491249643,542.154472037 256.20660116,647.581825816 324.128995892,679.697818708 392.397568895,745.81547374 477.541994609,824.65603599 560.666890434,934.862284401 621.906348555,969.243155237" stroke="#009EE0" stroke-width="10.5" /></g><g id="PathGroup"><polyline fill="none" points="-100.662806483,276.125556154 -41.5177220014,292.807696512 -48.8372576969,318.037446812 25.5243522377,361.147330175 85.241317348,474.181518363 183.640374608,556.16991924 233.627261276,664.140008397 303.341895481,694.467600579 374.237325784,762.997021114 462.69619407,844.521639589 548.433579477,960.048512841 613.596983411,995.667470761" stroke="#009EE0" stroke-width="11.5" /></g><g id="PathGroup"><polyline fill="none" points="-76.1860993058,324.040851067 -0.973433922481,365.160723827 57.1723461978,481.470747305 163.789499572,570.185366444 211.047921392,680.698190979 282.554795071,709.23738245 356.077082674,780.178568488 447.850393531,864.387243188 536.20026852,985.234741282" stroke="#009EE0" stroke-width="12.5" /></g><g id="PathGroup"><polyline fill="none" points="-103.534940915,330.044255323 -27.4712200827,369.174117479 29.1033750477,488.759976247 143.938624536,584.200813648 188.468581509,697.25637356 261.76769466,724.007164321 337.916839563,797.360115862 433.004592992,884.252846788 523.966957564,1010.42096972" stroke="#009EE0" stroke-width="13.5" /></g><g id="PathGroup"><polyline fill="none" points="-130.883782523,336.047659578 -53.9690062429,373.187511132 1.03440389748,496.049205189 124.087749501,598.216260851 165.889241625,713.814556142 240.980594249,738.776946192 319.756596453,814.541663237 418.158792453,904.118450387 511.733646607,1035.60719816" stroke="#009EE0" stroke-width="14.5" /></g><g id="PathGroup"><polyline fill="none" points="-80.4667924031,377.200904784 -27.0345672527,503.338434132 104.236874465,612.231708055 143.309901741,730.372738724 220.193493838,753.546728062 301.596353342,831.723210611 403.312991914,923.984053986 499.50033565,1060.7934266" stroke="#009EE0" stroke-width="15.5" /></g><g id="PathGroup"><polyline fill="none" points="-106.964578563,381.214298436 -55.1035384029,510.627663074 84.3859994294,626.247155259 120.730561857,746.930921305 199.406393427,768.316509933 283.436110231,848.904757985 388.467191375,943.849657585 487.267024694,1085.97965504" stroke="#009EE0" stroke-width="16.5" /></g><g id="PathGroup"><polyline fill="none" points="-83.1725095531,517.916892016 64.5351243937,640.262602462 98.1512219727,763.489103887 178.619293017,783.086291804 265.275867121,866.086305359 373.621390836,963.715261184 475.033713737,1111.16588348" stroke="#009EE0" stroke-width="17.5" /></g><g id="PathGroup"><polyline fill="none" points="-111.241480703,525.206120958 44.6842493581,654.278049666 75.5718820887,780.047286468 157.832192606,797.856073675 247.11562401,883.267852733 358.775590297,983.580864783" stroke="#009EE0" stroke-width="18.5" /></g><g id="PathGroup"><polyline fill="none" points="-139.310451853,532.4953499 24.8333743224,668.293496869 52.9925422048,796.60546905 137.045092195,812.625855546 228.9553809,900.449400107 343.929789758,1003.44646838" stroke="#009EE0" stroke-width="19.5" /></g><g id="PathGroup"><polyline fill="none" points="-167.379423004,539.784578842 4.98249928674,682.308944073 30.4132023208,813.163651631 116.257991784,827.395637416 210.795137789,917.630947481 329.083989219,1023.31207198" stroke="#009EE0" stroke-width="20.5" /></g><g id="PathGroup"><polyline fill="none" points="-195.448394154,547.073807784 -14.8683757489,696.324391277 7.83386243685,829.721834213 95.4708913734,842.165419287 192.634894679,934.812494855 314.23818868,1043.17767558" stroke="#009EE0" stroke-width="21.5" /></g><g id="PathGroup"><polyline fill="none" points="-223.517365304,554.363036726 -34.7192507846,710.33983848 -14.7454774471,846.280016795 74.6837909626,856.935201158 174.474651568,951.994042229 299.392388141,1063.04327918" stroke="#009EE0" stroke-width="22.5" /></g><g id="PathGroup"><polyline fill="none" points="-251.586336454,561.652265668 -54.5701258202,724.355285684 -37.3248173311,862.838199376 53.8966905518,871.704983029 156.314408458,969.175589603 284.546587601,1082.90888278" stroke="#009EE0" stroke-width="23.5" /></g><g id="PathGroup"><polyline fill="none" points="-74.4210008559,738.370732888 -59.904157215,879.396381958 33.109590141,886.4747649 138.154165347,986.357136977" stroke="#009EE0" stroke-width="24.5" /></g><g id="PathGroup"><polyline fill="none" points="-82.483497099,895.954564539 12.3224897303,901.244546771 119.993922237,1003.53868435" stroke="#009EE0" stroke-width="25.5" /></g><g id="PathGroup"><polyline fill="none" points="-105.062836983,912.512747121 -8.46461068054,916.014328641 101.833679126,1020.72023172" stroke="#009EE0" stroke-width="26.5" /></g><g id="PathGroup"><polyline fill="none" points="-127.642176867,929.070929702 -29.2517110913,930.784110512 83.6734360156,1037.9017791" stroke="#009EE0" stroke-width="27.5" /></g><g id="PathGroup"><polyline fill="none" points="-150.221516751,945.629112284 -50.0388115021,945.553892383 65.5131929051,1055.08332647" stroke="#009EE0" stroke-width="28.5" /></g><g id="PathGroup"><polyline fill="none" points="-172.800856635,962.187294866 -70.8259119129,960.323674254 47.3529497945,1072.26487385" stroke="#009EE0" stroke-width="29.5" /></g><g id="PathGroup"><polyline fill="none" points="-91.6130123237,975.093456125 29.192706684,1089.44642122" stroke="#009EE0" stroke-width="30.5" /></g></g></svg>
