<svg baseProfile="full" height="100%" version="1.1" viewBox="0,-1,901,901" width="100%" xmlns="http://www.w3.org/2000/svg" xmlns:ev="http://www.w3.org/2001/xml-events" xmlns:xlink="http://www.w3.org/1999/xlink"><defs><clipPath id="LOGO_CLIPPATH"><rect height="901" width="901" x="0" y="-1" /></clipPath></defs><g clip-path="url(#LOGO_CLIPPATH )" id="Logo_GROUP"><g id="PathGroup"><polyline fill="none" points="0.0,0.0 23.0,23.0 88.0,88.0 146.0,146.0 165.0,165.0 202.0,202.0 265.0,265.0 346.0,346.0 354.0,354.0 421.0,421.0 486.0,486.0 545.0,545.0 568.0,568.0 641.0,641.0 659.0,659.0 728.0,728.0 782.0,782.0 826.0,826.0 900.0,900.0" stroke="#009EE0" stroke-width="0.5" /></g><g id="PathGroup"><polyline fill="none" points="-26.2693265997,4.77624119994 -1.40529079077,30.0385922895 62.5925560097,93.5192200428 127.629670356,164.257628235 147.394081478,184.131953193 188.457206066,222.055740636 246.636104083,287.444761677 325.947741107,365.685449279 340.575300027,379.705591428 408.775371101,442.232250193 476.577131215,509.156198822 539.751789836,569.033649121 563.048520316,596.574164011 634.98827688,668.244617544 652.484213436,686.231315162 723.81556296,755.078598314 778.02559902,810.726366579 821.150956841,852.357670239 895.170093169,926.564487573" stroke="#009EE0" stroke-width="1.5" /></g><g id="PathGroup"><polyline fill="none" points="-52.5386531993,9.55248239988 -25.8105815815,37.077184579 37.1851120195,99.0384400857 109.259340712,182.51525647 129.788162956,203.263906387 174.914412131,242.111481272 228.272208165,309.889523354 305.895482215,385.370898557 327.150600055,405.411182855 396.550742202,463.464500387 467.154262431,532.312397643 534.503579672,593.067298242 558.097040632,625.148328022 628.97655376,695.489235088 645.968426872,713.462630324 719.631125921,782.157196628 774.051198039,839.452733159 816.301913682,878.715340479 890.340186337,953.128975145" stroke="#009EE0" stroke-width="2.5" /></g><g id="PathGroup"><polyline fill="none" points="-78.807979799,14.3287235998 -50.2158723723,44.1157768685 11.7776680292,104.557660128 90.8890110681,200.772884705 112.182244434,222.39585958 161.371618197,262.167221907 209.908312248,332.334285031 285.843223322,405.056347836 313.725900082,431.116774283 384.326113302,484.69675058 457.731393646,555.468596465 529.255369507,617.100947363 553.145560947,653.722492033 622.96483064,722.733852632 639.452640308,740.693945486 715.446688881,809.235794943 770.076797059,868.179099738 811.452870524,905.073010718 885.510279506,979.693462718" stroke="#009EE0" stroke-width="3.5" /></g><g id="PathGroup"><polyline fill="none" points="-74.6211631631,51.154369158 -13.6297759611,110.076880171 72.5186814241,219.03051294 94.5763259116,241.527812773 147.828824262,282.222962543 191.54441633,354.779046708 265.79096443,424.741797115 300.301200109,456.82236571 372.101484403,505.929000774 448.308524862,578.624795287 524.007159343,641.134596484 548.194081263,682.296656045 616.95310752,749.978470177 632.936853744,767.925260648 711.262251841,836.314393257 766.102396079,896.905466317 806.603827365,931.430680957 880.680372674,1006.25795029" stroke="#009EE0" stroke-width="4.5" /></g><g id="PathGroup"><polyline fill="none" points="-99.0264539539,58.1929614475 -39.0372199514,115.596100214 54.1483517801,237.288141176 76.9704073895,260.659765967 134.286030328,302.278703179 173.180520413,377.223808384 245.738705537,444.427246394 286.876500136,482.527957138 359.876855504,527.161250967 438.885656077,601.780994108 518.758949179,665.168245605 543.242601579,710.870820056 610.9413844,777.223087721 626.42106718,795.15657581 707.077814802,863.392991571 762.127995098,925.631832896 801.754784206,957.788351197" stroke="#009EE0" stroke-width="5.5" /></g><g id="PathGroup"><polyline fill="none" points="-64.4446639416,121.115320257 35.7780221362,255.545769411 59.3644888674,279.79171916 120.743236393,322.334443815 154.816624495,399.668570061 225.686446644,464.112695672 273.451800164,508.233548566 347.652226605,548.393501161 429.462787293,624.93719293 513.510739015,689.201894726 538.291121895,739.444984067 604.92966128,804.467705265 619.905280616,822.387890972 702.893377762,890.471589885 758.153594118,954.358199476 796.905741047,984.146021436" stroke="#009EE0" stroke-width="6.5" /></g><g id="PathGroup"><polyline fill="none" points="-89.8521079319,126.6345403 17.4076924922,273.803397646 41.7585703453,298.923672354 107.200442459,342.39018445 136.452728578,422.113331738 205.634187752,483.798144951 260.027100191,533.939139993 335.427597705,569.625751354 420.039918508,648.093391752 508.262528851,713.235543847 533.33964221,768.019148078 598.917938159,831.712322809 613.389494052,849.619206134 698.708940722,917.550188199 754.179193138,983.084566055" stroke="#009EE0" stroke-width="7.5" /></g><g id="PathGroup"><polyline fill="none" points="-115.259551922,132.153760343 -0.962637151798,292.061025881 24.1526518232,318.055625547 93.6576485244,362.445925086 118.08883266,444.558093415 185.581928859,503.48359423 246.602400218,559.644731421 323.202968806,590.858001547 410.617049723,671.249590573 503.014318686,737.269192968 528.388162526,796.593312089 592.906215039,858.956940353 606.873707488,876.850521296 694.524503683,944.628786513 750.204792157,1011.81093263" stroke="#009EE0" stroke-width="8.5" /></g><g id="PathGroup"><polyline fill="none" points="-140.666995912,137.672980385 -19.3329667958,310.318654116 6.54673330106,337.18757874 80.1148545899,382.501665722 99.7249367429,467.002855092 165.529669967,523.169043508 233.177700245,585.350322848 310.978339907,612.090251741 401.194180939,694.405789395 497.766108522,761.302842089 523.436682842,825.1674761 586.894491919,886.201557897 600.357920924,904.081836458 690.340066643,971.707384828" stroke="#009EE0" stroke-width="9.5" /></g><g id="PathGroup"><polyline fill="none" points="-166.074439903,143.192200428 -37.7032964397,328.576282351 -11.059185221,356.319531934 66.5720606554,402.557406358 81.3610408254,489.447616769 145.477411074,542.854492787 219.753000273,611.055914276 298.753711008,633.322501934 391.771312154,717.561988217 492.517898358,785.33649121 518.485203158,853.741640112 580.882768799,913.446175442 593.84213436,931.31315162 686.155629603,998.785983142" stroke="#009EE0" stroke-width="10.5" /></g><g id="PathGroup"><polyline fill="none" points="-191.481883893,148.711420471 -56.0736260837,346.833910586 -28.6651037432,375.451485127 53.029266721,422.613146993 62.9971449079,511.892378446 125.425152181,562.539942066 206.3283003,636.761505704 286.529082108,654.554752128 382.34844337,740.718187038 487.269688194,809.370140331 513.533723473,882.315804123 574.871045679,940.690792986 587.326347796,958.544466782 681.971192564,1025.86458146" stroke="#009EE0" stroke-width="11.5" /></g><g id="PathGroup"><polyline fill="none" points="-74.4439557277,365.091538821 -46.2710222653,394.58343832 39.4864727865,442.668887629 44.6332489905,534.337140123 105.372893289,582.225391344 192.903600327,662.467097131 274.304453209,675.787002321 372.925574585,763.87438586 482.02147803,833.403789452 508.582243789,910.889968134 568.859322559,967.93541053" stroke="#009EE0" stroke-width="12.5" /></g><g id="PathGroup"><polyline fill="none" points="-63.8769407874,413.715391514 25.9436788521,462.724628265 26.269353073,556.7819018 85.3206343963,601.910840623 179.478900355,688.172688559 262.07982431,697.019252514 363.502705801,787.030584682 476.773267865,857.437438573 503.630764105,939.464132145 562.847599439,995.180028074" stroke="#009EE0" stroke-width="13.5" /></g><g id="PathGroup"><polyline fill="none" points="-81.4828593095,432.847344707 12.4008849176,482.780368901 7.90545715555,579.226663477 65.2683755037,621.596289902 166.054200382,713.878279986 249.855195411,718.251502708 354.079837016,810.186783503 471.525057701,881.471087694 498.679284421,968.038296156" stroke="#009EE0" stroke-width="14.5" /></g><g id="PathGroup"><polyline fill="none" points="-99.0887778316,451.9792979 -1.14190901684,502.836109536 -10.4584387619,601.671425153 45.2161166111,641.281739181 152.629500409,739.583871414 237.630566511,739.483752901 344.656968231,833.342982325 466.276847537,905.504736815 493.727804736,996.612460167" stroke="#009EE0" stroke-width="15.5" /></g><g id="PathGroup"><polyline fill="none" points="-116.694696354,471.111251094 -14.6847029513,522.891850172 -28.8223346794,624.11618683 25.1638577185,660.967188459 139.204800436,765.289462841 225.405937612,760.716003095 335.234099447,856.499181147 461.028637373,929.538385936 488.776325052,1025.18662418" stroke="#009EE0" stroke-width="16.5" /></g><g id="PathGroup"><polyline fill="none" points="-134.300614876,490.243204287 -28.2274968858,542.947590808 -47.1862305968,646.560948507 5.11159882592,680.652637738 125.780100464,790.995054269 213.181308713,781.948253288 325.811230662,879.655379968 455.780427209,953.572035057 483.824845368,1053.76078819" stroke="#009EE0" stroke-width="17.5" /></g><g id="PathGroup"><polyline fill="none" points="-151.906533398,509.375157481 -41.7702908202,563.003331444 -65.5501265143,669.005710184 -14.9406600667,700.338087017 112.355400491,816.700645697 200.956679814,803.180503482 316.388361878,902.81157879 450.532217044,977.605684178" stroke="#009EE0" stroke-width="18.5" /></g><g id="PathGroup"><polyline fill="none" points="-169.51245192,528.507110674 -55.3130847547,583.059072079 -83.9140224318,691.450471861 -34.9929189593,720.023536295 98.9307005182,842.406237124 188.732050914,824.412753675 306.965493093,925.967777612 445.28400688,1001.6393333" stroke="#009EE0" stroke-width="19.5" /></g><g id="PathGroup"><polyline fill="none" points="-187.118370442,547.639063867 -68.8558786891,603.114812715 -102.277918349,713.895233538 -55.0451778519,739.708985574 85.5060005455,868.111828552 176.507422015,845.645003868 297.542624308,949.123976433 440.035796716,1025.67298242" stroke="#009EE0" stroke-width="20.5" /></g><g id="PathGroup"><polyline fill="none" points="-75.0974367445,759.394434853 72.0813005728,893.817419979 164.282793116,866.877254062 288.119755524,972.280175255" stroke="#009EE0" stroke-width="21.5" /></g><g id="PathGroup"><polyline fill="none" points="-95.149695637,779.079884131 58.6566006001,919.523011407 152.058164217,888.109504255 278.696886739,995.436374077" stroke="#009EE0" stroke-width="22.5" /></g><g id="PathGroup"><polyline fill="none" points="-115.20195453,798.76533341 45.2319006273,945.228602835 139.833535317,909.341754449 269.274017955,1018.5925729" stroke="#009EE0" stroke-width="23.5" /></g><g id="PathGroup"><polyline fill="none" points="-135.254213422,818.450782689 31.8072006546,970.934194262 127.608906418,930.574004642 259.85114917,1041.74877172" stroke="#009EE0" stroke-width="24.5" /></g><g id="PathGroup"><polyline fill="none" points="-155.306472315,838.136231968 18.3825006819,996.63978569 115.384277519,951.806254835 250.428280386,1064.90497054" stroke="#009EE0" stroke-width="25.5" /></g><g id="PathGroup"><polyline fill="none" points="-175.358731207,857.821681246 4.95780070917,1022.34537712 103.15964862,973.038505029 241.005411601,1088.06116936" stroke="#009EE0" stroke-width="26.5" /></g><g id="PathGroup"><polyline fill="none" points="-195.4109901,877.507130525 -8.46689926355,1048.05096855" stroke="#009EE0" stroke-width="27.5" /></g><g id="PathGroup"><polyline fill="none" points="-215.463248993,897.192579804 -21.8915992363,1073.75655997" stroke="#009EE0" stroke-width="28.5" /></g><g id="PathGroup"><polyline fill="none" points="-235.515507885,916.878029082 -35.316299209,1099.4621514" stroke="#009EE0" stroke-width="29.5" /></g><g id="PathGroup"><polyline fill="none" points="-255.567766778,936.563478361 -48.7409991817,1125.16774283" stroke="#009EE0" stroke-width="30.5" /></g></g></svg>
