<svg baseProfile="full" height="100%" version="1.1" viewBox="0,-1,901,901" width="100%" xmlns="http://www.w3.org/2000/svg" xmlns:ev="http://www.w3.org/2001/xml-events" xmlns:xlink="http://www.w3.org/1999/xlink"><defs><clipPath id="LOGO_CLIPPATH"><rect height="901" width="901" x="0" y="-1" /></clipPath></defs><g clip-path="url(#LOGO_CLIPPATH )" id="Logo_GROUP"><g id="PathGroup"><polyline fill="none" points="0.0,0.0 26.0,26.0 62.0,62.0 115.0,115.0 179.0,179.0 246.0,246.0 266.0,266.0 334.0,334.0 386.0,386.0 409.0,409.0 476.0,476.0 511.0,511.0 575.0,575.0 638.0,638.0 674.0,674.0 717.0,717.0 770.0,770.0 812.0,812.0 900.0,900.0" stroke="#009EE0" stroke-width="0.5" /></g><g id="PathGroup"><polyline fill="none" points="-24.1048127974,4.3826932359 2.31182552167,29.85621445 34.0524812481,69.7418470413 88.7528363885,123.535010389 151.651704546,188.647317543 221.429150702,258.571132199 243.759299124,281.308534369 312.088147813,347.429844889 362.822509667,403.429972515 387.657461572,427.124460087 456.99264171,497.902518824 494.735209292,528.783885493 558.003348808,591.944434138 624.746298784,658.008483303 663.128097235,695.396301789 705.203888673,737.900998961 760.04352127,797.237263653 806.798283401,839.309012147 895.170093169,926.564487573" stroke="#009EE0" stroke-width="1.5" /></g><g id="PathGroup"><polyline fill="none" points="-48.2096255949,8.7653864718 -21.3763489567,33.7124288999 6.10496249615,77.4836940826 62.5056727769,132.070020779 124.303409093,198.294635086 196.858301404,271.142264398 221.518598248,296.617068739 290.176295626,360.859689778 339.645019334,420.859945029 366.314923144,445.248920175 437.98528342,519.805037648 478.470418583,546.567770985 541.006697616,608.888868276 611.492597568,678.016966606 652.256194469,716.792603579 693.407777346,758.801997922 750.08704254,824.474527306 801.596566801,866.618024293 890.340186337,953.128975145" stroke="#009EE0" stroke-width="2.5" /></g><g id="PathGroup"><polyline fill="none" points="-72.3144383923,13.1480797077 -45.064523435,37.5686433499 -21.8425562558,85.2255411239 36.2585091654,140.605031168 96.9551136388,207.941952629 172.287452105,283.713396597 199.277897371,311.925603108 268.264443439,374.289534666 316.467529001,438.289917544 344.972384717,463.373380262 418.97792513,541.707556472 462.205627875,564.351656478 524.010046423,625.833302413 598.238896352,698.025449908 641.384291704,738.188905368 681.611666019,779.702996883 740.130563809,851.711790959 796.394850202,893.92703644 885.510279506,979.693462718" stroke="#009EE0" stroke-width="3.5" /></g><g id="PathGroup"><polyline fill="none" points="-68.7526979133,41.4248577998 -49.7900750077,92.9673881652 10.0113455538,149.140041558 69.6068181851,217.589270172 147.716602807,296.284528796 177.037196495,327.234137477 246.352591252,387.719379555 293.290038668,455.719890058 323.629846289,481.497840349 399.97056684,563.610075296 445.940837167,582.135541971 507.013395231,642.777736551 584.985195136,718.033933211 630.512388939,759.585207157 669.815554692,800.603995844 730.174085079,878.949054611 791.193133603,921.236048586 880.680372674,1006.25795029" stroke="#009EE0" stroke-width="4.5" /></g><g id="PathGroup"><polyline fill="none" points="-77.7375937596,100.709235206 -16.2358180577,157.675051947 42.2585227313,227.236587715 123.145753509,308.855660995 154.796495619,342.542671847 224.440739065,401.149224444 270.112548335,473.149862573 302.287307861,499.622300437 380.963208551,585.512594121 429.676046459,599.919427463 490.016744039,659.722170689 571.73149392,738.042416514 619.640486173,780.981508947 658.019443365,821.504994804 720.217606349,906.186318264 785.991417003,948.545060733 875.850465843,1032.82243786" stroke="#009EE0" stroke-width="5.5" /></g><g id="PathGroup"><polyline fill="none" points="-105.685112512,108.451082248 -42.4829816693,166.210062337 14.9102272776,236.883905258 98.574904211,321.426793194 132.555794743,357.851206216 202.528886878,414.579069333 246.935058002,490.579835088 280.944769433,517.746760524 361.955850261,607.415112945 413.41125575,617.703312956 473.020092847,676.666604827 558.477792704,758.050899817 608.768583408,802.377810736 646.223332039,842.405993765 710.261127619,933.423581917 780.789700404,975.854072879" stroke="#009EE0" stroke-width="6.5" /></g><g id="PathGroup"><polyline fill="none" points="-68.7301452808,174.745072726 -12.4380681761,246.531222801 74.0040549128,333.997925393 110.315093867,373.159740585 180.617034691,428.008914221 223.757567669,508.009807602 259.602231005,535.871220611 342.948491971,629.317631769 397.146465042,635.487198448 456.023441655,693.611038965 545.224091488,778.05938312 597.896680643,823.774112525 634.427220712,863.306992726 700.304648888,960.66084557" stroke="#009EE0" stroke-width="7.5" /></g><g id="PathGroup"><polyline fill="none" points="-94.9773088924,183.280083116 -39.7863636299,256.178540344 49.4332056146,346.569057593 88.0743929906,388.468274955 158.705182504,441.43875911 200.580077335,525.439780117 238.259692578,553.995680699 323.941133681,651.220150593 380.881674334,653.271083941 439.026790463,710.555473103 531.970390273,798.067866422 587.024777877,845.170414315 622.631109385,884.207991687 690.348170158,987.898109223" stroke="#009EE0" stroke-width="8.5" /></g><g id="PathGroup"><polyline fill="none" points="-67.1346590836,265.825857887 24.8623563164,359.140189792 65.8336921144,403.776809324 136.793330317,454.868603999 177.402587002,542.869752632 216.91715415,572.120140786 304.933775391,673.122669417 364.616883625,671.054969434 422.03013927,727.49990724 518.716689057,818.076349725 576.152875112,866.566716104 610.834998058,905.108990648 680.391691428,1015.13537288" stroke="#009EE0" stroke-width="9.5" /></g><g id="PathGroup"><polyline fill="none" points="-94.4829545373,275.47317543 0.291507018254,371.711321991 43.5929912382,419.085343693 114.88147813,468.298448888 154.225096669,560.299725146 195.574615722,590.244600873 285.926417101,695.025188241 348.352092917,688.838854926 405.033488078,744.444341378 505.462987841,838.084833028 565.280972346,887.963017893 599.038886731,926.009989609 670.435212698,1042.37263653" stroke="#009EE0" stroke-width="10.5" /></g><g id="PathGroup"><polyline fill="none" points="-121.831249991,285.120492973 -24.2793422799,384.28245419 21.3522903621,434.393878062 92.9696259434,481.728293777 131.047606336,577.729697661 174.232077294,608.369060961 266.919058811,716.927707065 332.087302209,706.622740419 388.036836886,761.388775516 492.209286625,858.093316331 554.409069581,909.359319683 587.242775404,946.91098857 660.478733967,1069.60990018" stroke="#009EE0" stroke-width="11.5" /></g><g id="PathGroup"><polyline fill="none" points="-149.179545445,294.767810516 -48.8501915781,396.853586389 -0.8884105141,449.702412432 71.0577737565,495.158138665 107.870116003,595.159670175 152.889538866,626.493521048 247.911700521,738.830225889 315.8225115,724.406625912 371.040185694,778.333209654 478.955585409,878.101799634 543.537166816,930.755621472 575.446664077,967.811987531" stroke="#009EE0" stroke-width="12.5" /></g><g id="PathGroup"><polyline fill="none" points="-73.4210408763,409.424718588 -23.1291113903,465.010946801 49.1459215695,508.587983554 84.6926256701,612.58964269 131.547000439,644.617981135 228.904342232,760.732744713 299.557720792,742.190511404 354.043534502,795.277643792 465.701884193,898.110282937 532.66526405,952.151923261 563.65055275,988.712986492" stroke="#009EE0" stroke-width="13.5" /></g><g id="PathGroup"><polyline fill="none" points="-97.9918901744,421.995850787 -45.3698122665,480.31948117 27.2340693825,522.017828443 61.5151353371,630.019615205 110.204462011,662.742441223 209.896983942,782.635263537 283.292930084,759.974396897 337.046883309,812.22207793 452.448182977,918.118766239 521.793361285,973.548225051" stroke="#009EE0" stroke-width="14.5" /></g><g id="PathGroup"><polyline fill="none" points="-67.6105131426,495.62801554 5.32221719558,535.447673332 38.337645004,647.449587719 88.8619235829,680.86690131 190.889625652,804.537782362 267.028139376,777.75828239 320.050232117,829.166512067 439.194481761,938.127249542 510.92145852,994.94452684" stroke="#009EE0" stroke-width="15.5" /></g><g id="PathGroup"><polyline fill="none" points="-89.8512140188,510.936549909 -16.5896349914,548.877518221 15.1601546709,664.879560234 67.5193851551,698.991361397 171.882267362,826.440301186 250.763348667,795.542167882 303.053580925,846.110946205 425.940780545,958.135732845 500.049555754,1016.34082863" stroke="#009EE0" stroke-width="16.5" /></g><g id="PathGroup"><polyline fill="none" points="-112.091914895,526.245084278 -38.5014871783,562.307363109 -8.01733566214,682.309532749 46.1768467273,717.115821485 152.874909072,848.34282001 234.498557959,813.326053375 286.056929733,863.055380343 412.687079329,978.144216148" stroke="#009EE0" stroke-width="17.5" /></g><g id="PathGroup"><polyline fill="none" points="-134.332615771,541.553618648 -60.4133393653,575.737207998 -31.1948259952,699.739505263 24.8343082995,735.240281572 133.867550782,870.245338834 218.233767251,831.109938868 269.060278541,879.999814481 399.433378113,998.152699451" stroke="#009EE0" stroke-width="18.5" /></g><g id="PathGroup"><polyline fill="none" points="-82.3251915523,589.167052887 -54.3723163283,717.169477778 3.49176987168,753.364741659 114.860192492,892.147857658 201.968976542,848.89382436 252.063627349,896.944248619 386.179676897,1018.16118275" stroke="#009EE0" stroke-width="19.5" /></g><g id="PathGroup"><polyline fill="none" points="-77.5498066613,734.599450292 -17.8507685561,771.489201747 95.8528342024,914.050376482 185.704185834,866.677709853 235.066976156,913.888682757 372.925975681,1038.16966606" stroke="#009EE0" stroke-width="20.5" /></g><g id="PathGroup"><polyline fill="none" points="-100.727296994,752.029422807 -39.1933069839,789.613661834 76.8454759125,935.952895306 169.439395126,884.461595345 218.070324964,930.833116894 359.672274465,1058.17814936" stroke="#009EE0" stroke-width="21.5" /></g><g id="PathGroup"><polyline fill="none" points="-123.904787327,769.459395322 -60.5358454117,807.738121921 57.8381176226,957.85541413 153.174604418,902.245480838 201.073673772,947.777551032 346.41857325,1078.18663266" stroke="#009EE0" stroke-width="22.5" /></g><g id="PathGroup"><polyline fill="none" points="-81.8783838395,825.862582009 38.8307593327,979.757932954 136.909813709,920.029366331 184.07702258,964.72198517 333.164872034,1098.19511596" stroke="#009EE0" stroke-width="23.5" /></g><g id="PathGroup"><polyline fill="none" points="-103.220922267,843.987042096 19.8234010429,1001.66045178 120.645023001,937.813251823 167.080371388,981.666419308" stroke="#009EE0" stroke-width="24.5" /></g><g id="PathGroup"><polyline fill="none" points="-124.563460695,862.111502184 0.81604275298,1023.5629706 104.380232293,955.597137316 150.083720195,998.610853446" stroke="#009EE0" stroke-width="25.5" /></g><g id="PathGroup"><polyline fill="none" points="-145.905999123,880.235962271 -18.1913155369,1045.46548943 88.1154415844,973.381022809 133.087069003,1015.55528758" stroke="#009EE0" stroke-width="26.5" /></g><g id="PathGroup"><polyline fill="none" points="-167.248537551,898.360422358 -37.1986738268,1067.36800825" stroke="#009EE0" stroke-width="27.5" /></g><g id="PathGroup"><polyline fill="none" points="-188.591075979,916.484882446 -56.2060321167,1089.27052707" stroke="#009EE0" stroke-width="28.5" /></g><g id="PathGroup"><polyline fill="none" points="-209.933614406,934.609342533 -75.2133904065,1111.1730459" stroke="#009EE0" stroke-width="29.5" /></g></g></svg>
