<svg baseProfile="full" height="100%" version="1.1" viewBox="0,-1,901,901" width="100%" xmlns="http://www.w3.org/2000/svg" xmlns:ev="http://www.w3.org/2001/xml-events" xmlns:xlink="http://www.w3.org/1999/xlink"><defs><clipPath id="LOGO_CLIPPATH"><rect height="901" width="901" x="0" y="-1" /></clipPath></defs><g clip-path="url(#LOGO_CLIPPATH )" id="Logo_GROUP"><g id="PathGroup"><polyline fill="none" points="0.0,0.0 13.0,13.0 59.0,59.0 117.0,117.0 171.0,171.0 236.0,236.0 267.0,267.0 335.0,335.0 390.0,390.0 449.0,449.0 455.0,455.0 536.0,536.0 581.0,581.0 622.0,622.0 665.0,665.0 721.0,721.0 754.0,754.0 847.0,847.0 900.0,900.0" stroke="#009EE0" stroke-width="0.5" /></g><g id="PathGroup"><polyline fill="none" points="-26.1709396087,4.75835265612 -9.20772982304,25.1205089046 34.3844121621,72.3443934068 94.5180383163,128.384261015 144.879581096,183.598560087 210.781458592,246.967003659 244.169626311,284.882226853 317.115622906,352.611333169 371.558742442,408.328121008 434.428458602,469.314285153 442.830416166,481.323017101 529.180401605,564.083857957 573.742851462,609.077282545 614.73919291,648.938646596 660.696203824,692.667261131 717.08047134,746.196969958 750.386295662,779.747643406 841.550659485,872.217943769 894.812322292,928.532227393" stroke="#009EE0" stroke-width="1.5" /></g><g id="PathGroup"><polyline fill="none" points="-52.3418792173,9.51670531224 -31.4154596461,37.2410178092 9.76882432421,85.6887868136 72.0360766326,139.76852203 118.759162192,196.197120174 185.562917184,257.934007317 221.339252623,302.764453707 299.231245813,370.222666337 353.117484885,426.656242016 419.856917204,489.628570307 430.660832332,507.646034202 522.36080321,592.167715913 566.485702925,637.15456509 607.47838582,675.877293191 656.392407648,720.334522261 713.16094268,771.393939917 746.772591325,805.495286812 836.10131897,897.435887539 889.624644584,957.064454786" stroke="#009EE0" stroke-width="2.5" /></g><g id="PathGroup"><polyline fill="none" points="-53.6231894691,49.3615267138 -14.8467635137,99.0331802203 49.5541149489,151.152783044 92.6387432875,208.795680262 160.344375776,268.901010976 198.508878934,320.64668056 281.346868719,387.833999506 334.676227327,444.984363025 405.285375806,509.94285546 418.491248498,533.969051303 515.541204815,620.25157387 559.228554387,665.231847634 600.217578729,702.815939787 652.088611472,748.001783392 709.241414019,796.590909875 743.158886987,831.242930218 830.651978455,922.653831308 884.436966877,985.596682179" stroke="#009EE0" stroke-width="3.5" /></g><g id="PathGroup"><polyline fill="none" points="-75.8309192922,61.4820356184 -39.4623513516,112.377573627 27.0721532652,162.537044059 66.5183243833,221.394240349 135.125834368,279.868014635 175.678505246,338.528907414 263.462491625,405.445332674 316.234969769,463.312484033 390.713834408,530.257140613 406.321664663,560.292068404 508.721606421,648.335431827 551.971405849,693.309130179 592.956771639,729.754586382 647.784815296,775.669044523 705.321885359,821.787879833 739.545182649,856.990573624 825.202637939,947.871775077 879.249289169,1014.12890957" stroke="#009EE0" stroke-width="4.5" /></g><g id="PathGroup"><polyline fill="none" points="-64.0779391895,125.721967034 4.59019158155,173.921305074 40.3979054791,233.992800436 109.90729296,290.835018293 152.848131557,356.411134267 245.578114532,423.056665843 297.793712212,481.640605041 376.14229301,550.571425766 394.152080829,586.615085505 501.902008026,676.419289784 544.714257311,721.386412724 585.695964549,756.693232978 643.481019121,803.336305654 701.402356699,846.984849792 735.931478312,882.73821703 819.753297424,973.089718846" stroke="#009EE0" stroke-width="5.5" /></g><g id="PathGroup"><polyline fill="none" points="-88.6935270274,139.066360441 -17.8917701021,185.305566089 14.277486575,246.591360523 84.6887515516,301.802021952 130.017757868,374.293361121 227.693737438,440.667999011 279.352454654,499.968726049 361.570751612,570.88571092 381.982496995,612.938102607 495.082409631,704.50314774 537.457108774,749.463695269 578.435157459,783.631879573 639.177222945,831.003566784 697.482828039,872.18181975 732.317773974,908.485860436 814.303956909,998.307662616" stroke="#009EE0" stroke-width="6.5" /></g><g id="PathGroup"><polyline fill="none" points="-113.309114865,152.410753847 -40.3737317858,196.689827104 -11.8429323292,259.18992061 59.4702101436,312.769025611 107.18738418,392.175587974 209.809360345,458.27933218 260.911197096,518.296847058 346.999210215,591.199996073 369.812913161,639.261119708 488.262811236,732.587005697 530.199960236,777.540977814 571.174350369,810.570526169 634.873426769,858.670827915 693.563299379,897.378789708 728.704069636,934.233503842 808.854616394,1023.52560638" stroke="#009EE0" stroke-width="7.5" /></g><g id="PathGroup"><polyline fill="none" points="-62.8556934695,208.074088118 -37.9633512334,271.788480698 34.2516687355,323.73602927 84.3570104913,410.057814828 191.924983251,475.890665348 242.469939539,536.624968066 332.427668817,611.514281226 357.643329327,665.584136809 481.443212841,760.670863654 522.942811698,805.618260359 563.913543278,837.509172764 630.569630593,886.338089046 689.643770718,922.575759667 725.090365299,959.981147248" stroke="#009EE0" stroke-width="8.5" /></g><g id="PathGroup"><polyline fill="none" points="-64.0837701376,284.387040785 9.03312732743,334.703032928 61.5266368027,427.940041681 174.040606157,493.501998517 224.028681981,554.953089074 317.856127419,631.828566379 345.473745493,691.90715391 474.623614446,788.75472161 515.685663161,833.695542903 556.652736188,864.44781936 626.265834417,914.005350177 685.724242058,947.772729625 721.476660961,985.728790654" stroke="#009EE0" stroke-width="9.5" /></g><g id="PathGroup"><polyline fill="none" points="-90.2041890417,296.985600872 -16.1854140806,345.670036587 38.6962631141,445.822268535 156.156229064,511.113331685 205.587424423,573.281210082 303.284586021,652.142851533 333.304161659,718.230171011 467.804016052,816.838579567 508.428514623,861.772825448 549.391929098,891.386465955 621.962038241,941.672611307 681.804713398,972.969699583" stroke="#009EE0" stroke-width="10.5" /></g><g id="PathGroup"><polyline fill="none" points="-116.324607946,309.584160959 -41.4039554887,356.637040246 15.8658894255,463.704495388 138.27185197,528.724664854 187.146166866,591.60933109 288.713044623,672.457136686 321.134577825,744.553188112 460.984417657,844.922437524 501.171366085,889.850107993 542.131122008,918.325112551 617.658242065,969.339872438" stroke="#009EE0" stroke-width="11.5" /></g><g id="PathGroup"><polyline fill="none" points="-66.6224968968,367.604043904 -6.9644842631,481.586722242 120.387474876,546.335998022 168.704909308,609.937452099 274.141503225,692.771421839 308.96499399,770.876205213 454.164819262,873.006295481 493.914217547,917.927390538 534.870314918,945.263759146 613.354445889,997.007133569" stroke="#009EE0" stroke-width="12.5" /></g><g id="PathGroup"><polyline fill="none" points="-91.8410383048,378.571047563 -29.7948579517,499.468949095 102.503097783,563.947331191 150.26365175,628.265573107 259.569961827,713.085706993 296.795410156,797.199222314 447.345220867,901.090153437 486.65706901,946.004673083 527.609507827,972.202405742" stroke="#009EE0" stroke-width="13.5" /></g><g id="PathGroup"><polyline fill="none" points="-117.059579713,389.538051222 -52.6252316403,517.351175949 84.6187206892,581.558664359 131.822394193,646.593694115 244.998420429,733.399992146 284.625826322,823.522239415 440.525622472,929.174011394 479.399920472,974.081955627" stroke="#009EE0" stroke-width="14.5" /></g><g id="PathGroup"><polyline fill="none" points="-75.4556053289,535.233402802 66.7343435956,599.169997528 113.381136635,664.921815123 230.426879031,753.714277299 272.456242488,849.845256516 433.706024077,957.257869351 472.142771934,1002.15923817" stroke="#009EE0" stroke-width="15.5" /></g><g id="PathGroup"><polyline fill="none" points="-98.2859790175,553.115629656 48.849966502,616.781330697 94.9398790775,683.249936132 215.855337633,774.028562452 260.286658654,876.168273617 426.886425683,985.341727307" stroke="#009EE0" stroke-width="16.5" /></g><g id="PathGroup"><polyline fill="none" points="-121.116352706,570.997856509 30.9655894084,634.392663865 76.4986215198,701.57805714 201.283796235,794.342847606 248.11707482,902.491290718 420.066827288,1013.42558526" stroke="#009EE0" stroke-width="17.5" /></g><g id="PathGroup"><polyline fill="none" points="-143.946726395,588.880083363 13.0812123147,652.003997034 58.0573639622,719.906178148 186.712254837,814.657132759 235.947490986,928.81430782 413.247228893,1041.50944322" stroke="#009EE0" stroke-width="18.5" /></g><g id="PathGroup"><polyline fill="none" points="-166.777100083,606.762310216 -4.80316477888,669.615330202 39.6161064045,738.234299156 172.140713439,834.971417912 223.777907151,955.137324921 406.427630498,1069.59330118" stroke="#009EE0" stroke-width="19.5" /></g><g id="PathGroup"><polyline fill="none" points="-189.607473772,624.64453707 -22.6875418725,687.226663371 21.1748488468,756.562420164 157.569172042,855.285703066 211.608323317,981.460342022" stroke="#009EE0" stroke-width="20.5" /></g><g id="PathGroup"><polyline fill="none" points="-212.43784746,642.526763923 -40.5719189661,704.837996539 2.73359128918,774.890541173 142.997630644,875.599988219 199.438739483,1007.78335912" stroke="#009EE0" stroke-width="21.5" /></g><g id="PathGroup"><polyline fill="none" points="-235.268221149,660.408990777 -58.4562960598,722.449329708 -15.7076662685,793.218662181 128.426089246,895.914273372 187.269155649,1034.10637622" stroke="#009EE0" stroke-width="22.5" /></g><g id="PathGroup"><polyline fill="none" points="-76.3406731534,740.060662876 -34.1489238261,811.546783189 113.854547848,916.228558525 175.099571815,1060.42939332" stroke="#009EE0" stroke-width="23.5" /></g><g id="PathGroup"><polyline fill="none" points="-94.225050247,757.671996045 -52.5901813838,829.874904197 99.2830064498,936.542843679 162.929987981,1086.75241043" stroke="#009EE0" stroke-width="24.5" /></g><g id="PathGroup"><polyline fill="none" points="-112.109427341,775.283329213 -71.0314389415,848.203025206 84.7114650519,956.857128832 150.760404147,1113.07542753" stroke="#009EE0" stroke-width="25.5" /></g><g id="PathGroup"><polyline fill="none" points="-89.4726964991,866.531146214 70.139923654,977.171413985" stroke="#009EE0" stroke-width="26.5" /></g><g id="PathGroup"><polyline fill="none" points="-107.913954057,884.859267222 55.568382256,997.485699138" stroke="#009EE0" stroke-width="27.5" /></g><g id="PathGroup"><polyline fill="none" points="-126.355211614,903.18738823 40.9968408581,1017.79998429" stroke="#009EE0" stroke-width="28.5" /></g><g id="PathGroup"><polyline fill="none" points="-144.796469172,921.515509239 26.4252994602,1038.11426944" stroke="#009EE0" stroke-width="29.5" /></g><g id="PathGroup"><polyline fill="none" points="-163.23772673,939.843630247 11.8537580623,1058.4285546" stroke="#009EE0" stroke-width="30.5" /></g></g></svg>
