<svg baseProfile="full" height="100%" version="1.1" viewBox="0,-1,901,901" width="100%" xmlns="http://www.w3.org/2000/svg" xmlns:ev="http://www.w3.org/2001/xml-events" xmlns:xlink="http://www.w3.org/1999/xlink"><defs><clipPath id="LOGO_CLIPPATH"><rect height="901" width="901" x="0" y="-1" /></clipPath></defs><g clip-path="url(#LOGO_CLIPPATH )" id="Logo_GROUP"><g id="PathGroup"><polyline fill="none" points="0.0,0.0 48.0,48.0 86.0,86.0 130.0,130.0 172.0,172.0 223.0,223.0 297.0,297.0 313.0,313.0 357.0,357.0 425.0,425.0 491.0,491.0 524.0,524.0 578.0,578.0 640.0,640.0 684.0,684.0 733.0,733.0 753.0,753.0 833.0,833.0 900.0,900.0" stroke="#009EE0" stroke-width="0.5" /></g><g id="PathGroup"><polyline fill="none" points="-24.6951347435,4.49002449882 25.8868930663,58.7782420523 60.3229396572,97.1664037252 105.63301198,141.629698828 147.697103911,183.763045596 200.669471675,232.326709213 274.60335462,308.108117559 292.922126066,326.688278866 341.953632631,381.791265176 407.956649496,447.592348342 476.602137599,516.173429609 510.782530061,549.136795508 563.090682236,601.700469274 627.008259666,661.476142184 674.858338564,709.40531492 726.500400745,757.45087339 747.14540785,780.381083813 825.848051576,859.657262308 895.170093169,926.564487573" stroke="#009EE0" stroke-width="1.5" /></g><g id="PathGroup"><polyline fill="none" points="-49.390269487,8.98004899764 3.77378613261,69.5564841047 34.6458793145,108.33280745 81.2660239597,153.259397656 123.394207822,195.526091191 178.338943351,241.653418426 252.206709239,319.216235118 272.844252133,340.376557731 326.907265263,406.582530351 390.913298993,470.184696684 462.204275199,541.346859219 497.565060123,574.273591016 548.181364472,625.400938548 614.016519333,682.952284368 665.716677129,734.81062984 720.000801489,781.901746779 741.290815699,807.762167625 818.696103152,886.314524615 890.340186337,953.128975145" stroke="#009EE0" stroke-width="2.5" /></g><g id="PathGroup"><polyline fill="none" points="-74.0854042305,13.4700734965 -18.3393208011,80.334726157 8.96881897173,119.499211176 56.8990359395,164.889096483 99.0913117328,207.289136787 156.008415026,250.980127639 229.810063859,330.324352678 252.766378199,354.064836597 311.860897894,431.373795527 373.869948489,492.777045026 447.806412798,566.520288828 484.347590184,599.410386525 533.272046708,649.101407822 601.024778999,704.428426552 656.575015693,760.215944761 713.501202234,806.352620169 735.436223549,835.143251438 811.544154728,912.971786923 885.510279506,979.693462718" stroke="#009EE0" stroke-width="3.5" /></g><g id="PathGroup"><polyline fill="none" points="-98.780538974,17.9600979953 -40.4524277348,91.1129682094 -16.708241371,130.665614901 32.5320479194,176.518795311 74.7884156438,219.052182382 133.677886702,260.306836852 207.413418479,341.432470237 232.688504265,367.753115462 296.814530525,456.165060702 356.826597985,515.369393368 433.408550398,591.693718437 471.130120246,624.547182033 518.362728944,672.801877097 588.033038666,725.904568736 647.433354257,785.621259681 707.001602978,830.803493559 729.581631398,862.52433525 804.392206304,939.629049231 880.680372674,1006.25795029" stroke="#009EE0" stroke-width="4.5" /></g><g id="PathGroup"><polyline fill="none" points="-62.5655346685,101.891210262 -42.3853017138,141.832018626 8.1650598992,188.148494139 50.4855195547,230.815227978 111.347358377,269.633546065 185.016773098,352.540587796 212.610630331,381.441394328 281.768163157,480.956325878 339.783247482,537.96174171 419.010687997,616.867148047 457.912650307,649.683977541 503.45341118,696.502346371 575.041298332,747.38071092 638.291692821,811.026574601 700.502003723,855.254366948 723.727039248,889.905419063 797.24025788,966.286311538" stroke="#009EE0" stroke-width="5.5" /></g><g id="PathGroup"><polyline fill="none" points="-68.0623620565,152.998422351 -16.201928121,199.778192967 26.1826234657,242.578273574 89.0168300524,278.960255278 162.620127718,363.648705355 192.532756398,395.129673193 266.721795788,505.747591054 322.739896978,560.554090052 404.612825597,642.040577656 444.695180368,674.820773049 488.544093416,720.202815645 562.049557999,768.856853104 629.150031386,836.431889521 694.002404467,879.705240338 717.872447098,917.286502876 790.088309456,992.943573846" stroke="#009EE0" stroke-width="6.5" /></g><g id="PathGroup"><polyline fill="none" points="-93.7394223993,164.164826077 -40.5689161411,211.407891795 1.87972737661,254.341319169 66.6863017278,288.286964491 140.223482338,374.756822914 172.454882464,408.817952059 251.67542842,530.538856229 305.696546474,583.146438394 390.214963196,667.214007265 431.47771043,699.957568558 473.634775652,743.903284919 549.057817665,790.332995288 620.00836995,861.837204441 687.502805212,904.156113728 712.017854947,944.667586688 782.936361032,1019.60083615" stroke="#009EE0" stroke-width="7.5" /></g><g id="PathGroup"><polyline fill="none" points="-64.9359041613,223.037590622 -22.4231687124,266.104364765 44.3557734031,297.613673704 117.826836957,385.864940473 152.37700853,422.506230924 236.629061051,555.330121405 288.653195971,605.738786737 375.817100796,692.387436875 418.260240491,725.094364066 458.725457889,767.603754193 536.066077332,811.809137472 610.866708514,887.242519362 681.003205956,928.606987117 706.163262797,972.048670501" stroke="#009EE0" stroke-width="8.5" /></g><g id="PathGroup"><polyline fill="none" points="-89.3028921814,234.66728945 -46.7260648015,277.867410361 22.0252450785,306.940382917 95.4301915771,396.973058033 132.299134596,436.19450979 221.582693682,580.121386581 271.609845467,628.331135079 361.419238395,717.560866484 405.042770553,750.231159574 443.816140125,791.304223467 523.074336998,833.285279656 601.725047079,912.647834282 674.503606701,953.057860507 700.308670646,999.429754313" stroke="#009EE0" stroke-width="9.5" /></g><g id="PathGroup"><polyline fill="none" points="-71.0289608906,289.630455956 -0.305283246069,316.26709213 73.0335461968,408.081175592 112.221260663,449.882788656 206.536326314,604.912651756 254.566494963,650.923483421 347.021375995,742.734296093 391.825300614,775.367955082 428.906822361,815.004692741 510.082596665,854.76142184 592.583385643,938.053149202 668.004007445,977.508733897" stroke="#009EE0" stroke-width="10.5" /></g><g id="PathGroup"><polyline fill="none" points="-95.3318569796,301.393501552 -22.6358115707,325.593801343 50.6369008165,419.189293151 92.143386729,463.571067521 191.489958945,629.703916932 237.52314446,673.515831763 332.623513594,767.907725703 378.607830675,800.50475059 413.997504597,838.705162015 497.090856331,876.237564024 583.441724207,963.458464122" stroke="#009EE0" stroke-width="11.5" /></g><g id="PathGroup"><polyline fill="none" points="-119.634753069,313.156547147 -44.9663398953,334.920510556 28.2402554362,430.29741071 72.0655127952,477.259346387 176.443591576,654.495182107 220.479793956,696.108180105 318.225651194,793.081155312 365.390360737,825.641546099 399.088186833,862.40563129 484.099115998,897.713706208 574.300062771,988.863779042" stroke="#009EE0" stroke-width="12.5" /></g><g id="PathGroup"><polyline fill="none" points="-67.2968682199,344.247219769 5.84361005587,441.405528269 51.9876388615,490.947625252 161.397224208,679.286447283 203.436443452,718.700528447 303.827788793,818.254584921 352.172890798,850.778341607 384.178869069,886.106100564 471.107375664,919.189848392 565.158401336,1014.26909396" stroke="#009EE0" stroke-width="13.5" /></g><g id="PathGroup"><polyline fill="none" points="-89.6273965445,353.573928982 -16.5530353244,452.513645828 31.9097649278,504.635904118 146.350856839,704.077712459 186.393092949,741.292876789 289.429926393,843.428014531 338.95542086,875.915137115 369.269551305,909.806569838 458.115635331,940.665990576 556.0167399,1039.67440888" stroke="#009EE0" stroke-width="14.5" /></g><g id="PathGroup"><polyline fill="none" points="-111.957924869,362.900638195 -38.9496807048,463.621763388 11.8318909941,518.324182983 131.30448947,728.868977634 169.349742445,763.885225131 275.032063992,868.60144414 325.737950921,901.051932623 354.360233541,933.507039112 445.123894997,962.14213276 546.875078464,1065.0797238" stroke="#009EE0" stroke-width="15.5" /></g><g id="PathGroup"><polyline fill="none" points="-134.288453194,372.227347408 -61.3463260851,474.729880947 -8.24598293968,532.012461849 116.258122102,753.66024281 152.306391941,786.477573473 260.634201592,893.774873749 312.520480982,926.188728132 339.450915777,957.207508386 432.132154664,983.618274944" stroke="#009EE0" stroke-width="16.5" /></g><g id="PathGroup"><polyline fill="none" points="-83.7429714654,485.837998506 -28.3238568734,545.700740714 101.211754733,778.451507986 135.263041438,809.069921815 246.236339191,918.948303359 299.303011044,951.32552364 324.541598013,980.90797766" stroke="#009EE0" stroke-width="17.5" /></g><g id="PathGroup"><polyline fill="none" points="-106.139616846,496.946116065 -48.4017308071,559.38901958 86.1653873645,803.242773161 118.219690934,831.662270157 231.838476791,944.121732968 286.085541105,976.462319148" stroke="#009EE0" stroke-width="18.5" /></g><g id="PathGroup"><polyline fill="none" points="-128.536262226,508.054233624 -68.4796047409,573.077298446 71.1190199958,828.034038337 101.17634043,854.254618499 217.44061439,969.295162577" stroke="#009EE0" stroke-width="19.5" /></g><g id="PathGroup"><polyline fill="none" points="-88.5574786746,586.765577311 56.0726526272,852.825303512 84.1329899267,876.846966841 203.04275199,994.468592187" stroke="#009EE0" stroke-width="20.5" /></g><g id="PathGroup"><polyline fill="none" points="-108.635352608,600.453856177 41.0262852586,877.616568688 67.0896394231,899.439315183 188.644889589,1019.6420218" stroke="#009EE0" stroke-width="21.5" /></g><g id="PathGroup"><polyline fill="none" points="-128.713226542,614.142135042 25.9799178899,902.407833864 50.0462889194,922.031663525 174.247027189,1044.81545141" stroke="#009EE0" stroke-width="22.5" /></g><g id="PathGroup"><polyline fill="none" points="-148.791100476,627.830413908 10.9335505213,927.199099039 33.0029384157,944.624011868 159.849164788,1069.98888101" stroke="#009EE0" stroke-width="23.5" /></g><g id="PathGroup"><polyline fill="none" points="-168.86897441,641.518692773 -4.11281684736,951.990364215 15.9595879121,967.21636021 145.451302388,1095.16231062" stroke="#009EE0" stroke-width="24.5" /></g><g id="PathGroup"><polyline fill="none" points="-188.946848343,655.206971639 -19.159184216,976.781629391" stroke="#009EE0" stroke-width="25.5" /></g><g id="PathGroup"><polyline fill="none" points="-209.024722277,668.895250504 -34.2055515846,1001.57289457" stroke="#009EE0" stroke-width="26.5" /></g><g id="PathGroup"><polyline fill="none" points="-229.102596211,682.58352937 -49.2519189533,1026.36415974" stroke="#009EE0" stroke-width="27.5" /></g><g id="PathGroup"><polyline fill="none" points="-249.180470144,696.271808236 -64.2982863219,1051.15542492" stroke="#009EE0" stroke-width="28.5" /></g></g></svg>
