<svg baseProfile="full" height="100%" version="1.1" viewBox="0,-1,901,901" width="100%" xmlns="http://www.w3.org/2000/svg" xmlns:ev="http://www.w3.org/2001/xml-events" xmlns:xlink="http://www.w3.org/1999/xlink"><defs><clipPath id="LOGO_CLIPPATH"><rect height="901" width="901" x="0" y="-1" /></clipPath></defs><g clip-path="url(#LOGO_CLIPPATH )" id="Logo_GROUP"><g id="PathGroup"><polyline fill="none" points="0.0,0.0 44.0,44.0 63.0,63.0 147.0,147.0 158.0,158.0 202.0,202.0 269.0,269.0 343.0,343.0 389.0,389.0 412.0,412.0 453.0,453.0 504.0,504.0 593.0,593.0 642.0,642.0 655.0,655.0 703.0,703.0 777.0,777.0 820.0,820.0 900.0,900.0" stroke="#009EE0" stroke-width="0.5" /></g><g id="PathGroup"><polyline fill="none" points="-27.6467444738,5.02668081342 19.4099322728,49.5107684737 36.7134866158,69.1659722753 121.582196774,150.798062551 133.278198214,161.719209118 178.011992989,206.464921013 245.263530061,272.546828841 319.467736712,347.715144168 364.497763976,393.963912756 387.887303371,417.798091174 430.42327917,463.737396172 484.054293161,518.905662638 575.27229543,613.364883763 624.751901243,660.917269604 635.725420869,675.309864582 683.906673114,721.231973794 759.465267891,800.09833695 802.829292807,843.121566004 894.812322292,928.532227393" stroke="#009EE0" stroke-width="1.5" /></g><g id="PathGroup"><polyline fill="none" points="-55.2934889476,10.0533616268 -5.18013545444,55.0215369474 10.4269732315,75.3319445506 96.1643935471,154.596125102 108.556396428,165.438418236 154.023985978,210.929842026 221.527060122,276.093657683 295.935473423,352.430288335 339.995527953,398.927825512 363.774606741,423.596182348 407.84655834,474.474792345 464.108586321,533.811325276 557.544590859,633.729767525 607.503802486,679.834539208 616.450841738,695.619729164 664.813346227,739.463947587 741.930535781,823.1966739 785.658585613,866.243132008 889.624644584,957.064454786" stroke="#009EE0" stroke-width="2.5" /></g><g id="PathGroup"><polyline fill="none" points="-82.9402334214,15.0800424403 -29.7702031817,60.5323054211 -15.8595401527,81.4979168259 70.7465903207,158.394187653 83.8345946427,169.157627355 130.035978968,215.394763039 197.790590183,279.640486524 272.403210135,357.145432503 315.493291929,403.891738268 339.661910112,429.394273523 385.26983751,485.212188517 444.162879482,548.716987914 539.816886289,654.094651288 590.25570373,698.751808813 597.176262608,715.929593745 645.720019341,757.695921381 724.395803672,846.29501085 768.48787842,889.364698012 884.436966877,985.596682179" stroke="#009EE0" stroke-width="3.5" /></g><g id="PathGroup"><polyline fill="none" points="-54.3602709089,66.0430738948 -42.146053537,87.6638891013 45.3287870942,162.192250204 59.1127928569,172.876836473 106.047971957,219.859684052 174.054120244,283.187315366 248.870946846,361.860576671 290.991055906,408.855651024 315.549213483,435.192364697 362.69311668,495.949584689 424.217172643,563.622650552 522.089181719,674.459535051 573.007604973,717.669078417 577.901683477,736.239458327 626.626692455,775.927895175 706.861071562,869.3933478 751.317171227,912.486264016 879.249289169,1014.12890957" stroke="#009EE0" stroke-width="4.5" /></g><g id="PathGroup"><polyline fill="none" points="-68.4325669212,93.8298613766 19.9109838678,165.990312755 34.3909910711,176.596045591 82.0599649462,224.324605065 150.317650305,286.734144207 225.338683558,366.575720838 266.488819882,413.81956378 291.436516854,440.990455871 340.11639585,506.686980862 404.271465803,578.52831319 504.361477148,694.824418813 555.759506216,736.586348021 558.627104346,756.549322909 607.533365569,794.159868968 689.326339453,892.491684749 734.146464033,935.60783002 874.061611461,1042.66113696" stroke="#009EE0" stroke-width="5.5" /></g><g id="PathGroup"><polyline fill="none" points="-94.7190803055,99.9958336519 -5.50681935865,169.788375306 9.66918928537,180.315254709 58.0719579355,228.789526078 126.581180365,290.280973049 201.806420269,371.290865006 241.986583859,418.783476536 267.323820224,446.788547045 317.53967502,517.424377034 384.325758964,593.433975828 486.633772578,715.189302576 538.511407459,755.503617625 539.352525215,776.859187491 588.440038682,812.391842762 671.791607343,915.590021699 716.97575684,958.729396024" stroke="#009EE0" stroke-width="6.5" /></g><g id="PathGroup"><polyline fill="none" points="-121.00559369,106.161805927 -30.9246225851,173.586437858 -15.0526125004,184.034463827 34.0839509247,233.254447091 102.844710426,293.82780189 178.274156981,376.006009174 217.484347835,423.747389291 243.211123595,452.58663822 294.962954189,528.161773206 364.380052124,608.339638466 468.906068007,735.554186339 521.263308703,774.420887229 520.077946084,797.169052072 569.346711796,830.623816556 654.256875234,938.688358649 699.805049646,981.850962028" stroke="#009EE0" stroke-width="7.5" /></g><g id="PathGroup"><polyline fill="none" points="-147.292107074,112.327778203 -56.3424258115,177.384500409 -39.7744142862,187.753672946 10.0959439139,237.719368104 79.1082404873,297.374630732 154.741893692,380.721153341 192.982111812,428.711302047 219.098426966,458.384729394 272.386233359,538.899169378 344.434345285,623.245301104 451.178363437,755.919070101 504.015209946,793.338156833 500.803366953,817.478916654 550.25338491,848.855790349 636.722143124,961.786695599" stroke="#009EE0" stroke-width="8.5" /></g><g id="PathGroup"><polyline fill="none" points="-64.4962160719,191.472882064 -13.8920630968,242.184289117 55.3717705482,300.921459573 131.209630404,385.436297509 168.479875788,433.675214803 194.985730337,464.182820568 249.809512529,549.636565551 324.488638446,638.150963742 433.450658867,776.283953864 486.767111189,812.255426438 481.528787823,837.788781236 531.160058023,867.087764143 619.187411015,984.885032549" stroke="#009EE0" stroke-width="9.5" /></g><g id="PathGroup"><polyline fill="none" points="-89.2180178577,195.192091182 -37.8800701076,246.64921013 31.6353006091,304.468288415 107.677367115,390.151441677 143.977639765,438.639127559 170.873033707,469.980911742 227.232791699,560.373961723 304.542931606,653.05662638 415.722954296,796.648837626 469.519012432,831.172696042 462.254208692,858.098645818 512.066731137,885.319737937 601.652678906,1007.9833695" stroke="#009EE0" stroke-width="10.5" /></g><g id="PathGroup"><polyline fill="none" points="-61.8680771183,251.114131142 7.89883067002,308.015117256 84.1451038268,394.866585844 119.475403741,443.603040315 146.760337078,475.779002916 204.656070869,571.111357895 284.597224767,667.962289018 397.995249726,817.013721389 452.270913676,850.089965646 442.979629561,878.408510399 492.973404251,903.55171173 584.117946796,1031.08170645" stroke="#009EE0" stroke-width="11.5" /></g><g id="PathGroup"><polyline fill="none" points="-85.8560841291,255.579052155 -15.8376392691,311.561946098 60.6128405383,399.581730012 94.9731677179,448.566953071 122.647640449,481.577094091 182.079350039,581.848754068 264.651517928,682.867951656 380.267545156,837.378605152 435.022814919,869.00723525 423.70505043,898.718374981 473.880077365,921.783685524 566.583214687,1054.1800434" stroke="#009EE0" stroke-width="12.5" /></g><g id="PathGroup"><polyline fill="none" points="-109.84409114,260.043973168 -39.5741092082,315.108774939 37.0805772499,404.29687418 70.4709316944,453.530865827 98.5349438194,487.375185265 159.502629209,592.58615024 244.705811088,697.773614294 362.539840585,857.743488914 417.774716162,887.924504854 404.430471299,919.028239563 454.786750478,940.015659318 549.048482577,1077.27838035" stroke="#009EE0" stroke-width="13.5" /></g><g id="PathGroup"><polyline fill="none" points="-133.832098151,264.508894181 -63.3105791473,318.655603781 13.5483139614,409.012018348 45.9686956709,458.494778583 74.4222471901,493.173276439 136.925908379,603.323546412 224.760104249,712.679276932 344.812136015,878.108372677 400.526617405,906.841774459 385.155892168,939.338104145 435.693423592,958.247633111 531.513750468,1100.3767173" stroke="#009EE0" stroke-width="14.5" /></g><g id="PathGroup"><polyline fill="none" points="-87.0470490863,322.202432622 -9.98394932709,413.727162515 21.4664596474,463.458691339 50.3095505609,498.971367613 114.349187549,614.060942585 204.81439741,727.58493957 327.084431445,898.47325644 383.278518649,925.759044063 365.881313038,959.647968726 416.600096706,976.479606905" stroke="#009EE0" stroke-width="15.5" /></g><g id="PathGroup"><polyline fill="none" points="-110.783519025,325.749261464 -33.5162126156,418.442306683 -3.03577637611,468.422604095 26.1968539316,504.769458787 91.7724667189,624.798338757 184.86869057,742.490602208 309.356726874,918.838140202 366.030419892,944.676313667 346.606733907,979.957833308" stroke="#009EE0" stroke-width="16.5" /></g><g id="PathGroup"><polyline fill="none" points="-134.519988965,329.296090305 -57.048475904,423.157450851 -27.5380123996,473.386516851 2.08415730231,510.567549962 69.1957458888,635.535734929 164.922983731,757.396264846 291.629022304,939.203023965 348.782321135,963.593583271 327.332154776,1000.26769789" stroke="#009EE0" stroke-width="17.5" /></g><g id="PathGroup"><polyline fill="none" points="-80.5807391925,427.872595018 -52.0402484231,478.350429607 -22.028539327,516.365641136 46.6190250587,646.273131101 144.977276892,772.301927484 273.901317734,959.567907728 331.534222378,982.510852875" stroke="#009EE0" stroke-width="18.5" /></g><g id="PathGroup"><polyline fill="none" points="-76.5424844466,483.314342362 -46.1412359562,522.16373231 24.0423042286,657.010527274 125.031570052,787.207590122 256.173613163,979.93279149" stroke="#009EE0" stroke-width="19.5" /></g><g id="PathGroup"><polyline fill="none" points="-70.2539325855,527.961823484 1.46558339857,667.747923446 105.085863213,802.11325276 238.445908593,1000.29767525" stroke="#009EE0" stroke-width="20.5" /></g><g id="PathGroup"><polyline fill="none" points="-94.3666292148,533.759914659 -21.1111374315,678.485319618 85.1401563735,817.018915398 220.718204022,1020.66255902" stroke="#009EE0" stroke-width="21.5" /></g><g id="PathGroup"><polyline fill="none" points="-118.479325844,539.558005833 -43.6878582616,689.222715791 65.1944495341,831.924578036 202.990499452,1041.02744278" stroke="#009EE0" stroke-width="22.5" /></g><g id="PathGroup"><polyline fill="none" points="-142.592022473,545.356097007 -66.2645790916,699.960111963 45.2487426947,846.830240674 185.262794882,1061.39232654" stroke="#009EE0" stroke-width="23.5" /></g><g id="PathGroup"><polyline fill="none" points="-88.8412999217,710.697508135 25.3030358554,861.735903312 167.535090311,1081.7572103" stroke="#009EE0" stroke-width="24.5" /></g><g id="PathGroup"><polyline fill="none" points="-111.418020752,721.434904308 5.35732901602,876.64156595 149.807385741,1102.12209407" stroke="#009EE0" stroke-width="25.5" /></g><g id="PathGroup"><polyline fill="none" points="-133.994741582,732.17230048 -14.5883778233,891.547228588 132.079681171,1122.48697783" stroke="#009EE0" stroke-width="26.5" /></g><g id="PathGroup"><polyline fill="none" points="-156.571462412,742.909696652 -34.5340846627,906.452891226 114.3519766,1142.85186159" stroke="#009EE0" stroke-width="27.5" /></g><g id="PathGroup"><polyline fill="none" points="-179.148183242,753.647092825 -54.4797915021,921.358553864 96.6242720299,1163.21674535" stroke="#009EE0" stroke-width="28.5" /></g><g id="PathGroup"><polyline fill="none" points="-201.724904072,764.384488997 -74.4254983414,936.264216502 78.8965674596,1183.58162912" stroke="#009EE0" stroke-width="29.5" /></g><g id="PathGroup"><polyline fill="none" points="-94.3712051808,951.16987914 61.1688628892,1203.94651288" stroke="#009EE0" stroke-width="30.5" /></g><g id="PathGroup"><polyline fill="none" points="-114.31691202,966.075541778 43.4411583188,1224.31139664" stroke="#009EE0" stroke-width="31.5" /></g><g id="PathGroup"><polyline fill="none" points="-134.262618859,980.981204417 25.7134537485,1244.6762804" stroke="#009EE0" stroke-width="32.5" /></g></g></svg>
