<svg baseProfile="full" height="100%" version="1.1" viewBox="0,-1,901,901" width="100%" xmlns="http://www.w3.org/2000/svg" xmlns:ev="http://www.w3.org/2001/xml-events" xmlns:xlink="http://www.w3.org/1999/xlink"><defs><clipPath id="LOGO_CLIPPATH"><rect height="901" width="901" x="0" y="-1" /></clipPath></defs><g clip-path="url(#LOGO_CLIPPATH )" id="Logo_GROUP"><g id="PathGroup"><polyline fill="none" points="0.0,0.0 11.0,11.0 81.0,81.0 111.0,111.0 157.0,157.0 215.0,215.0 254.0,254.0 304.0,304.0 354.0,354.0 446.0,446.0 466.0,466.0 524.0,524.0 559.0,559.0 631.0,631.0 697.0,697.0 719.0,719.0 777.0,777.0 835.0,835.0 900.0,900.0" stroke="#009EE0" stroke-width="0.5" /></g><g id="PathGroup"><polyline fill="none" points="-24.8919087255,4.52580158646 -12.9692765723,16.963537591 54.7841247185,87.4597123177 86.1793126717,119.071151129 129.878499952,167.267630453 195.261460926,232.831154624 232.690700106,273.670122979 286.565664465,324.089896577 340.27268529,378.404115039 430.281537034,467.706448857 448.901832397,488.173242086 510.529615594,547.630250611 549.42011168,585.310183195 620.464155258,655.315550078 688.729636069,723.75072112 712.954888753,743.773102955 769.678657044,805.060611849 827.758881526,859.032815134 895.348978607,925.580617663" stroke="#009EE0" stroke-width="1.5" /></g><g id="PathGroup"><polyline fill="none" points="-49.7838174511,9.05160317292 -36.9385531447,22.927075182 28.5682494371,93.9194246353 61.3586253434,127.142302258 102.756999903,177.535260906 175.522921853,250.662309249 211.381400212,293.340245959 269.13132893,344.179793153 326.545370581,402.808230079 414.563074069,489.412897715 431.803664794,510.346484172 497.059231187,571.260501222 539.84022336,611.620366391 609.928310517,679.631100155 680.459272137,750.50144224 706.909777505,768.54620591 762.357314089,833.121223697 820.517763053,883.065630267 890.697957214,951.161235325" stroke="#009EE0" stroke-width="2.5" /></g><g id="PathGroup"><polyline fill="none" points="-60.907829717,28.890612773 2.35237415563,100.379136953 36.5379380151,135.213453388 75.6354998547,187.802891359 155.784382779,268.493463873 190.072100317,313.010368938 251.696993395,364.26968973 312.818055871,427.212345118 398.844611103,511.119346572 414.70549719,532.519726259 483.588846781,594.890751833 530.26033504,637.930549586 599.392465775,703.946650233 672.188908206,777.25216336 700.864666258,793.319308864 755.035971133,861.181835546 813.276644579,907.098445401 886.04693582,976.741852988" stroke="#009EE0" stroke-width="3.5" /></g><g id="PathGroup"><polyline fill="none" points="-84.8771062893,34.854150364 -23.8635011258,106.838849271 11.7172506868,143.284604517 48.5139998062,198.070521812 136.045843705,286.324618497 168.762800423,332.680491917 234.262657861,384.359586306 299.090741161,451.616460158 383.126148137,532.825795429 397.607329587,554.692968345 470.118462375,618.521002445 520.680446721,664.240732782 588.856621034,728.262200311 663.918544275,804.00288448 694.819555011,818.092411819 747.714628177,889.242447395 806.035526105,931.131260535 881.395914427,1002.32247065" stroke="#009EE0" stroke-width="4.5" /></g><g id="PathGroup"><polyline fill="none" points="-108.846382862,40.817687955 -50.0793764073,113.298561588 -13.1034366416,151.355755646 21.3924997578,208.338152266 116.307304632,304.155773122 147.453500529,352.350614896 216.828322326,404.449482883 285.363426451,476.020575197 367.407685172,554.532244287 380.509161984,576.866210431 456.648077968,642.151253056 511.100558401,690.550915977 578.320776292,752.577750389 655.648180343,830.7536056 688.774443763,842.865514774 740.393285222,917.303059244 798.794407631,955.164075668" stroke="#009EE0" stroke-width="5.5" /></g><g id="PathGroup"><polyline fill="none" points="-76.2952516887,119.758273906 -37.9241239699,159.426906775 -5.7290002907,218.605782719 96.5687655581,321.986927746 126.144200635,372.020737876 199.393986791,424.53937946 271.636111742,500.424690237 351.689222206,576.238693144 363.410994381,599.039452517 443.177693562,665.781503667 501.520670081,716.861099173 567.784931551,776.893300466 647.377816412,857.50432672 682.729332516,867.638617729 733.071942266,945.363671092 791.553289158,979.196890802" stroke="#009EE0" stroke-width="6.5" /></g><g id="PathGroup"><polyline fill="none" points="-62.7448112982,167.498057904 -32.8505003391,228.873413172 76.8302264845,339.818082371 104.834900741,391.690860855 181.959651256,444.629276036 257.908797032,524.828805276 335.97075924,597.945142001 346.312826777,621.212694603 429.707309156,689.411754278 491.940781761,743.171282368 557.249086809,801.208850544 639.10745248,884.25504784 676.684221269,892.411720683 725.75059931,973.424282941" stroke="#009EE0" stroke-width="7.5" /></g><g id="PathGroup"><polyline fill="none" points="-59.9720003876,239.141043625 57.0916874108,357.649236995 83.5256008464,411.360983834 164.525315721,464.719172613 244.181482322,549.232920316 320.252296275,619.651590859 329.214659174,643.385936689 416.236924749,713.042004889 482.360893441,769.481465564 546.713242068,825.524400622 630.837088549,911.00576896 670.639110021,917.184823638 718.429256355,1001.48489479" stroke="#009EE0" stroke-width="8.5" /></g><g id="PathGroup"><polyline fill="none" points="-87.093500436,249.408674078 37.3531483372,375.480391619 62.2163009522,431.031106813 147.090980186,484.809069189 230.454167613,573.637035355 304.533833309,641.358039716 312.116491571,665.559178776 402.766540343,736.6722555 472.781005121,795.791648759 536.177397326,849.8399507 622.566724618,937.75649008 664.593998774,941.957926593 711.107913399,1029.54550664" stroke="#009EE0" stroke-width="9.5" /></g><g id="PathGroup"><polyline fill="none" points="-114.215000484,259.676304531 17.6146092635,393.311546244 40.907001058,450.701229793 129.656644651,504.898965766 216.726852903,598.041150395 288.815370343,663.064488574 295.018323968,687.732420862 389.296155937,760.302506111 463.201116801,822.101831955 525.641552585,874.155500777 614.296360686,964.5072112" stroke="#009EE0" stroke-width="10.5" /></g><g id="PathGroup"><polyline fill="none" points="-141.336500533,269.943934984 -2.12392981014,411.142700868 19.5977011638,470.371352772 112.222309117,524.988862342 202.999538193,622.445265434 273.096907378,684.770937431 277.920156364,709.905662948 375.82577153,783.932756723 453.621228482,848.41201515 515.105707843,898.471050855 606.025996755,991.257932321" stroke="#009EE0" stroke-width="11.5" /></g><g id="PathGroup"><polyline fill="none" points="-168.458000581,280.211565437 -21.8624688838,428.973855492 -1.71159873037,490.041475751 94.7879735817,545.078758919 189.272223483,646.849380474 257.378444412,706.477386288 260.821988761,732.078905034 362.355387124,807.563007334 444.041340162,874.722198346 504.569863102,922.786600933 597.755632824,1018.00865344" stroke="#009EE0" stroke-width="12.5" /></g><g id="PathGroup"><polyline fill="none" points="-195.57950063,290.479195891 -41.6010079574,446.805010117 -23.0208986246,509.71159873 77.3536380469,565.168655496 175.544908774,671.253495513 241.659981446,728.183835146 243.723821158,754.25214712 348.885002717,831.193257945 434.461451842,901.032381541 494.03401836,947.102151011 589.485268892,1044.75937456" stroke="#009EE0" stroke-width="13.5" /></g><g id="PathGroup"><polyline fill="none" points="-222.701000678,300.746826344 -61.3395470311,464.636164741 -44.3301985188,529.38172171 59.919302512,585.258552072 161.817594064,695.657610553 225.941518481,749.890284003 226.625653555,776.425389206 335.414618311,854.823508556 424.881563522,927.342564737 483.498173619,971.417701088" stroke="#009EE0" stroke-width="14.5" /></g><g id="PathGroup"><polyline fill="none" points="-65.639498413,549.051844689 42.4849669772,605.348448649 148.090279354,720.061725592 210.223055515,771.59673286 209.527485952,798.598631293 321.944233905,878.453759167 415.301675202,953.652747932 472.962328877,995.733251166" stroke="#009EE0" stroke-width="15.5" /></g><g id="PathGroup"><polyline fill="none" points="-86.9487983072,568.721967668 25.0506314423,625.438345225 134.362964645,744.465840632 194.504592549,793.303181718 192.429318348,820.771873379 308.473849498,902.084009778 405.721786882,979.962931127" stroke="#009EE0" stroke-width="16.5" /></g><g id="PathGroup"><polyline fill="none" points="-108.258098201,588.392090647 7.61629590745,645.528241802 120.635649935,768.869955671 178.786129584,815.009630575 175.331150745,842.945115465 295.003465092,925.714260389 396.141898562,1006.27311432" stroke="#009EE0" stroke-width="17.5" /></g><g id="PathGroup"><polyline fill="none" points="-129.567398096,608.062213627 -9.81803962741,665.618138379 106.908335225,793.274070711 163.067666618,836.716079432 158.232983142,865.118357551 281.533080686,949.344511 386.562010243,1032.58329752" stroke="#009EE0" stroke-width="18.5" /></g><g id="PathGroup"><polyline fill="none" points="-150.87669799,627.732336606 -27.2523751623,685.708034955 93.1810205155,817.67818575 147.349203652,858.42252829 141.134815539,887.291599637 268.062696279,972.974761612" stroke="#009EE0" stroke-width="19.5" /></g><g id="PathGroup"><polyline fill="none" points="-172.185997884,647.402459585 -44.6867106971,705.797931532 79.4537058058,842.08230079 131.630740687,880.128977147 124.036647935,909.464841723 254.592311873,996.605012223" stroke="#009EE0" stroke-width="20.5" /></g><g id="PathGroup"><polyline fill="none" points="-193.495297778,667.072582564 -62.121046232,725.887828108 65.7263910961,866.486415829 115.912277721,901.835426004 106.938480332,931.63808381 241.121927467,1020.23526283" stroke="#009EE0" stroke-width="21.5" /></g><g id="PathGroup"><polyline fill="none" points="-79.5553817668,745.977724685 51.9990763863,890.890530869 100.193814755,923.541874862 89.8403127289,953.811325896 227.65154306,1043.86551345" stroke="#009EE0" stroke-width="22.5" /></g><g id="PathGroup"><polyline fill="none" points="-96.9897173017,766.067621262 38.2717616766,915.294645908 84.4753517896,945.248323719 72.7421451257,975.984567982" stroke="#009EE0" stroke-width="23.5" /></g><g id="PathGroup"><polyline fill="none" points="-114.424052837,786.157517838 24.5444469669,939.698760948 68.7568888239,966.954772576 55.6439775225,998.157810068" stroke="#009EE0" stroke-width="24.5" /></g><g id="PathGroup"><polyline fill="none" points="-131.858388371,806.247414415 10.8171322572,964.102875987 53.0384258583,988.661221434" stroke="#009EE0" stroke-width="25.5" /></g><g id="PathGroup"><polyline fill="none" points="-149.292723906,826.337310991 -2.9101824525,988.506991027" stroke="#009EE0" stroke-width="26.5" /></g><g id="PathGroup"><polyline fill="none" points="-166.727059441,846.427207568 -16.6374971622,1012.91110607" stroke="#009EE0" stroke-width="27.5" /></g><g id="PathGroup"><polyline fill="none" points="-184.161394976,866.517104144 -30.3648118719,1037.31522111" stroke="#009EE0" stroke-width="28.5" /></g><g id="PathGroup"><polyline fill="none" points="-201.595730511,886.607000721 -44.0921265816,1061.71933615" stroke="#009EE0" stroke-width="29.5" /></g><g id="PathGroup"><polyline fill="none" points="-219.030066046,906.696897298 -57.8194412913,1086.12345118" stroke="#009EE0" stroke-width="30.5" /></g></g></svg>
