<svg height="24" viewBox="0 0 24 24" width="24" xmlns="http://www.w3.org/2000/svg"><path d="m24 4.300781c-.898437.398438-1.800781.699219-2.800781.800782 1-.601563 1.800781-1.601563 2.199219-2.703125-1 .601562-2 1-3.097657 1.203125-1-1-2.300781-1.601563-3.699218-1.601563-2.703125 0-4.902344 2.199219-4.902344 4.898438 0 .402343 0 .800781.101562 1.101562-4.101562-.199219-7.699218-2.101562-10.101562-5.101562-.5.703125-.699219 1.601562-.699219 2.5 0 1.703125.898438 3.203125 2.199219 4.101562-.800781-.101562-1.597656-.300781-2.199219-.601562v.101562c0 2.398438 1.699219 4.398438 3.898438 4.800781-.398438.097657-.796875.199219-1.296875.199219-.300782 0-.601563 0-.902344-.101562.601562 2 2.402344 3.402343 4.601562 3.402343-1.699218 1.300782-3.800781 2.097657-6.101562 2.097657-.398438 0-.800781 0-1.199219-.097657 2.199219 1.398438 4.800781 2.199219 7.5 2.199219 9.101563 0 14-7.5 14-14 0-.199219 0-.398437 0-.601562 1-.699219 1.800781-1.597657 2.5-2.597657"/></svg>