<svg id="Layer_1" data-name="Layer 1" xmlns="http://www.w3.org/2000/svg" viewBox="0 0 1610.7015 2283.0953"><defs><style>.cls-1,.cls-10,.cls-100,.cls-101,.cls-102,.cls-103,.cls-104,.cls-105,.cls-106,.cls-107,.cls-108,.cls-109,.cls-11,.cls-12,.cls-13,.cls-14,.cls-15,.cls-16,.cls-17,.cls-18,.cls-19,.cls-2,.cls-20,.cls-21,.cls-22,.cls-23,.cls-24,.cls-25,.cls-26,.cls-27,.cls-28,.cls-29,.cls-3,.cls-30,.cls-31,.cls-32,.cls-33,.cls-34,.cls-35,.cls-36,.cls-37,.cls-38,.cls-39,.cls-4,.cls-40,.cls-41,.cls-42,.cls-43,.cls-44,.cls-45,.cls-46,.cls-47,.cls-48,.cls-49,.cls-5,.cls-50,.cls-51,.cls-52,.cls-53,.cls-54,.cls-55,.cls-56,.cls-57,.cls-58,.cls-59,.cls-6,.cls-60,.cls-61,.cls-62,.cls-63,.cls-64,.cls-65,.cls-66,.cls-67,.cls-68,.cls-69,.cls-7,.cls-70,.cls-71,.cls-72,.cls-73,.cls-74,.cls-75,.cls-76,.cls-77,.cls-78,.cls-79,.cls-8,.cls-80,.cls-81,.cls-82,.cls-83,.cls-84,.cls-85,.cls-86,.cls-87,.cls-88,.cls-89,.cls-9,.cls-90,.cls-91,.cls-92,.cls-93,.cls-94,.cls-95,.cls-96,.cls-97,.cls-98,.cls-99{fill:none;stroke:#009ee0;}.cls-1{stroke-width:2px;}.cls-2{stroke-width:2.1px;}.cls-3{stroke-width:2.2px;}.cls-4{stroke-width:2.3px;}.cls-5{stroke-width:2.4px;}.cls-6{stroke-width:2.5px;}.cls-7{stroke-width:2.6px;}.cls-8{stroke-width:2.7px;}.cls-9{stroke-width:2.8px;}.cls-10{stroke-width:2.9px;}.cls-11{stroke-width:3px;}.cls-12{stroke-width:3.1px;}.cls-13{stroke-width:3.2px;}.cls-14{stroke-width:3.3px;}.cls-15{stroke-width:3.4px;}.cls-16{stroke-width:3.5px;}.cls-17{stroke-width:3.6px;}.cls-18{stroke-width:3.7px;}.cls-19{stroke-width:3.8px;}.cls-20{stroke-width:3.9px;}.cls-21{stroke-width:4px;}.cls-22{stroke-width:4.1px;}.cls-23{stroke-width:4.2px;}.cls-24{stroke-width:4.3px;}.cls-25{stroke-width:4.4px;}.cls-26{stroke-width:4.5px;}.cls-27{stroke-width:4.6px;}.cls-28{stroke-width:4.7px;}.cls-29{stroke-width:4.8px;}.cls-30{stroke-width:4.9px;}.cls-31{stroke-width:5px;}.cls-32{stroke-width:5.1px;}.cls-33{stroke-width:5.2px;}.cls-34{stroke-width:5.3px;}.cls-35{stroke-width:5.4px;}.cls-36{stroke-width:5.5px;}.cls-37{stroke-width:5.6px;}.cls-38{stroke-width:5.7px;}.cls-39{stroke-width:5.8px;}.cls-40{stroke-width:5.9px;}.cls-41{stroke-width:6px;}.cls-42{stroke-width:6.1px;}.cls-43{stroke-width:6.2px;}.cls-44{stroke-width:6.3px;}.cls-45{stroke-width:6.4px;}.cls-46{stroke-width:6.5px;}.cls-47{stroke-width:6.6px;}.cls-48{stroke-width:6.7px;}.cls-49{stroke-width:6.8px;}.cls-50{stroke-width:6.9px;}.cls-51{stroke-width:7px;}.cls-52{stroke-width:7.1px;}.cls-53{stroke-width:7.2px;}.cls-54{stroke-width:7.3px;}.cls-55{stroke-width:7.4px;}.cls-56{stroke-width:7.5px;}.cls-57{stroke-width:7.6px;}.cls-58{stroke-width:7.7px;}.cls-59{stroke-width:7.8px;}.cls-60{stroke-width:7.9px;}.cls-61{stroke-width:8px;}.cls-62{stroke-width:8.1px;}.cls-63{stroke-width:8.2px;}.cls-64{stroke-width:8.3px;}.cls-65{stroke-width:8.4px;}.cls-66{stroke-width:8.5px;}.cls-67{stroke-width:8.6px;}.cls-68{stroke-width:8.7px;}.cls-69{stroke-width:8.8px;}.cls-70{stroke-width:8.9px;}.cls-71{stroke-width:9px;}.cls-72{stroke-width:9.1px;}.cls-73{stroke-width:9.2px;}.cls-74{stroke-width:9.3px;}.cls-75{stroke-width:9.4px;}.cls-76{stroke-width:9.5px;}.cls-77{stroke-width:9.6px;}.cls-78{stroke-width:9.7px;}.cls-79{stroke-width:9.8px;}.cls-80{stroke-width:9.9px;}.cls-81{stroke-width:10px;}.cls-82{stroke-width:10.1px;}.cls-83{stroke-width:10.2px;}.cls-84{stroke-width:10.3px;}.cls-85{stroke-width:10.4px;}.cls-86{stroke-width:10.5px;}.cls-87{stroke-width:10.6px;}.cls-88{stroke-width:10.7px;}.cls-89{stroke-width:10.8px;}.cls-90{stroke-width:10.9px;}.cls-91{stroke-width:11px;}.cls-92{stroke-width:11.1px;}.cls-93{stroke-width:11.2px;}.cls-94{stroke-width:11.3px;}.cls-95{stroke-width:11.4px;}.cls-96{stroke-width:11.5px;}.cls-97{stroke-width:11.6px;}.cls-98{stroke-width:11.7px;}.cls-99{stroke-width:11.8px;}.cls-100{stroke-width:11.9px;}.cls-101{stroke-width:12px;}.cls-102{stroke-width:12.1px;}.cls-103{stroke-width:12.2px;}.cls-104{stroke-width:12.3px;}.cls-105{stroke-width:12.4px;}.cls-106{stroke-width:12.5px;}.cls-107{stroke-width:12.6px;}.cls-108{stroke-width:12.7px;}.cls-109{stroke-width:12.8px;}</style></defs><title>overlay_opt</title><polyline class="cls-1" points="538.165 5.864 573.165 40.864 633.165 100.864 682.165 149.864 734.165 201.864 741.165 208.864 796.165 263.864 849.165 316.864 903.165 370.864 953.165 420.864 1013.165 480.864 1082.165 549.864 1125.165 592.864 1183.165 650.864 1195.165 662.864 1269.165 736.864 1295.165 762.864 1371.165 838.864 1438.165 905.864"/><polyline class="cls-2" points="522.468 3.333 558.93 38.693 619.305 102.837 668.875 152.238 718.541 205.312 726.993 212.373 780.504 270.478 841.381 320.02 894.349 384.216 949.003 429.404 1012.707 489.853 1082.104 558.664 1125.381 603.862 1183.323 660.363 1195.547 677.859 1269.28 747.664 1296.842 773.736 1372.499 849.279 1439.758 915.737"/><polyline class="cls-3" points="506.771 0.801 544.695 36.521 605.445 104.81 655.586 154.611 702.917 208.759 712.821 215.882 764.844 277.092 833.596 323.176 885.533 397.568 944.841 437.944 1012.25 498.841 1082.043 567.464 1125.596 614.86 1183.481 669.862 1195.93 692.855 1269.395 758.463 1298.518 784.607 1373.834 859.694 1441.35 925.609"/><polyline class="cls-4" points="530.459 34.35 591.584 106.784 642.296 156.985 687.293 212.207 698.649 219.391 749.183 283.706 825.811 326.332 876.717 410.92 940.678 446.483 1011.792 507.829 1081.981 576.264 1125.812 625.858 1183.639 679.36 1196.312 707.85 1269.51 769.262 1300.194 795.479 1375.168 870.109 1442.942 935.482"/><polyline class="cls-5" points="516.224 32.178 577.724 108.757 629.006 159.359 671.669 215.655 684.477 222.9 733.522 290.32 818.027 329.488 867.901 424.272 936.516 455.023 1011.334 516.818 1081.92 585.063 1126.028 636.856 1183.797 688.859 1196.694 722.845 1269.625 780.062 1301.871 806.35 1376.502 880.524 1444.535 945.354"/><polyline class="cls-6" points="501.989 30.007 563.864 110.73 615.717 161.732 656.044 219.102 670.305 226.409 717.862 296.933 810.242 332.644 859.085 437.624 932.354 463.562 1010.876 525.806 1081.858 593.863 1126.243 647.854 1183.956 698.358 1197.076 737.84 1269.741 790.861 1303.547 817.222 1377.836 890.939 1446.127 955.226"/><polyline class="cls-7" points="487.753 27.835 550.004 112.703 602.427 164.106 640.42 222.55 656.133 229.918 702.201 303.547 802.458 335.8 850.269 450.976 928.191 472.102 1010.419 534.794 1081.797 602.663 1126.459 658.852 1184.114 707.856 1197.458 752.835 1269.856 801.661 1305.223 828.093 1379.17 901.354 1447.719 965.099"/><polyline class="cls-8" points="536.143 114.676 589.137 166.479 624.796 225.997 641.961 233.427 686.54 310.161 794.673 338.956 841.453 464.328 924.029 480.642 1009.961 543.783 1081.736 611.463 1126.675 669.85 1184.272 717.355 1197.84 767.83 1269.971 812.46 1306.9 838.965 1380.504 911.769 1449.311 974.971"/><polyline class="cls-9" points="522.283 116.649 575.848 168.853 609.172 229.445 627.789 236.936 670.88 316.775 786.888 342.112 832.636 477.681 919.867 489.181 1009.503 552.771 1081.674 620.263 1126.89 680.847 1184.43 726.854 1198.223 782.825 1270.086 823.259 1308.576 849.836 1381.839 922.183 1450.904 984.844"/><polyline class="cls-10" points="508.423 118.622 562.558 171.227 593.548 232.893 613.617 240.445 655.219 323.389 779.104 345.268 823.82 491.033 915.704 497.721 1009.045 561.759 1081.613 629.062 1127.106 691.845 1184.588 736.352 1198.605 797.82 1270.201 834.059 1310.252 860.708 1383.173 932.598 1452.496 994.716"/><polyline class="cls-11" points="494.563 120.595 549.268 173.6 577.924 236.34 599.445 243.954 639.558 330.003 771.319 348.424 815.004 504.385 911.542 506.26 1008.587 570.748 1081.552 637.862 1127.322 702.843 1184.746 745.851 1198.987 812.816 1270.316 844.858 1311.929 871.579 1384.507 943.013 1454.088 1004.588"/><polyline class="cls-12" points="535.979 175.974 562.299 239.788 585.273 247.463 623.898 336.616 763.534 351.579 806.188 517.737 907.38 514.8 1008.13 579.736 1081.49 646.662 1127.537 713.841 1184.904 755.35 1199.369 827.811 1270.431 855.658 1313.605 882.451 1385.841 953.428 1455.681 1014.461"/><polyline class="cls-13" points="522.689 178.347 546.675 243.235 571.101 250.972 608.237 343.23 755.75 354.735 797.372 531.089 903.217 523.34 1007.672 588.725 1081.429 655.462 1127.753 724.839 1185.062 764.849 1199.751 842.806 1270.546 866.457 1315.281 893.323 1387.175 963.843 1457.273 1024.333"/><polyline class="cls-14" points="531.051 246.683 556.929 254.481 592.576 349.844 747.965 357.891 788.556 544.441 899.055 531.879 1007.214 597.713 1081.368 664.262 1127.969 735.837 1185.22 774.347 1200.134 857.801 1270.661 877.256 1316.958 904.194 1388.509 974.258 1458.865 1034.206"/><polyline class="cls-15" points="515.427 250.13 542.757 257.99 576.915 356.458 740.181 361.047 779.74 557.793 894.893 540.419 1006.756 606.701 1081.306 673.061 1128.184 746.835 1185.378 783.846 1200.516 872.796 1270.776 888.056 1318.634 915.066 1389.844 984.673 1460.458 1044.078"/><polyline class="cls-16" points="528.585 261.499 561.255 363.072 732.396 364.203 770.924 571.145 890.73 548.959 1006.299 615.69 1081.245 681.861 1128.4 757.833 1185.536 793.345 1200.898 887.791 1270.891 898.855 1320.31 925.937 1391.178 995.088 1462.05 1053.951"/><polyline class="cls-17" points="514.412 265.008 545.594 369.685 724.611 367.359 762.108 584.497 886.568 557.498 1005.841 624.678 1081.184 690.661 1128.616 768.831 1185.694 802.843 1201.28 902.786 1271.006 909.655 1321.987 936.809 1392.512 1005.503 1463.642 1063.823"/><polyline class="cls-18" points="529.933 376.299 716.827 370.515 753.292 597.849 882.406 566.038 1005.383 633.666 1081.122 699.461 1128.831 779.828 1185.852 812.342 1201.662 917.782 1271.121 920.454 1323.663 947.68 1393.846 1015.917 1465.235 1073.695"/><polyline class="cls-19" points="514.273 382.913 709.042 373.671 744.476 611.201 878.243 574.577 1004.925 642.655 1081.061 708.26 1129.047 790.826 1186.01 821.841 1202.045 932.777 1271.236 931.253 1325.34 958.552 1395.18 1026.332 1466.827 1083.568"/><polyline class="cls-20" points="498.612 389.527 701.258 376.827 735.66 624.553 874.081 583.117 1004.467 651.643 1081 717.06 1129.262 801.824 1186.169 831.339 1202.427 947.772 1271.351 942.053 1327.016 969.423 1396.514 1036.747 1468.419 1093.44"/><polyline class="cls-21" points="482.951 396.141 693.473 379.983 726.843 637.905 869.919 591.657 1004.01 660.631 1080.938 725.86 1129.478 812.822 1186.327 840.838 1202.809 962.767 1271.466 952.852 1328.692 980.295 1397.849 1047.162 1470.012 1103.313"/><polyline class="cls-22" points="467.291 402.754 685.688 383.139 718.027 651.257 865.756 600.196 1003.552 669.62 1080.877 734.66 1129.694 823.82 1186.485 850.337 1203.191 977.762 1271.582 963.651 1330.369 991.166 1399.183 1057.577 1471.604 1113.185"/><polyline class="cls-23" points="451.63 409.368 677.904 386.295 709.211 664.609 861.594 608.736 1003.094 678.608 1080.816 743.46 1129.909 834.818 1186.643 859.835 1203.573 992.757 1271.697 974.451 1332.045 1002.038 1400.517 1067.992 1473.196 1123.057"/><polyline class="cls-24" points="435.969 415.982 670.119 389.451 700.395 677.961 857.432 617.275 1002.636 687.596 1080.754 752.259 1130.125 845.816 1186.801 869.334 1203.955 1007.752 1271.812 985.25 1333.721 1012.909 1401.851 1078.407 1474.789 1132.93"/><polyline class="cls-25" points="420.308 422.596 662.335 392.606 691.579 691.313 853.269 625.815 1002.179 696.585 1080.693 761.059 1130.341 856.814 1186.959 878.833 1204.338 1022.747 1271.927 996.05 1335.398 1023.781 1403.185 1088.822 1476.381 1142.802"/><polyline class="cls-26" points="404.648 429.21 654.55 395.762 682.763 704.665 849.107 634.355 1001.721 705.573 1080.632 769.859 1130.556 867.811 1187.117 888.331 1204.72 1037.743 1272.042 1006.849 1337.074 1034.652 1404.519 1099.237 1477.973 1152.675"/><polyline class="cls-27" points="388.987 435.824 646.765 398.918 673.947 718.017 844.945 642.894 1001.263 714.561 1080.57 778.659 1130.772 878.809 1187.275 897.83 1205.102 1052.738 1272.157 1017.648 1338.75 1045.524 1405.854 1109.652 1479.566 1162.547"/><polyline class="cls-28" points="373.326 442.437 638.981 402.074 665.131 731.369 840.782 651.434 1000.805 723.55 1080.509 787.459 1130.988 889.807 1187.433 907.329 1205.484 1067.733 1272.272 1028.448 1340.427 1056.395 1407.188 1120.066 1481.158 1172.419"/><polyline class="cls-29" points="357.666 449.051 631.196 405.23 656.315 744.721 836.62 659.974 1000.348 732.538 1080.447 796.258 1131.203 900.805 1187.591 916.828 1205.866 1082.728 1272.387 1039.247 1342.103 1067.267 1408.522 1130.481 1482.75 1182.292"/><polyline class="cls-30" points="342.005 455.665 623.412 408.386 647.499 758.073 832.458 668.513 999.89 741.526 1080.386 805.058 1131.419 911.803 1187.749 926.326 1206.249 1097.723 1272.502 1050.047 1343.779 1078.138 1409.856 1140.896 1484.343 1192.164"/><polyline class="cls-31" points="326.344 462.279 615.627 411.542 638.683 771.425 828.295 677.053 999.432 750.515 1080.325 813.858 1131.635 922.801 1187.907 935.825 1206.631 1112.718 1272.617 1060.846 1345.456 1089.01 1411.19 1151.311 1485.935 1202.037"/><polyline class="cls-32" points="310.684 468.893 607.842 414.698 629.866 784.777 824.133 685.592 998.974 759.503 1080.263 822.658 1131.85 933.799 1188.065 945.324 1207.013 1127.713 1272.732 1071.645 1347.132 1099.881 1412.524 1161.726 1487.527 1211.909"/><polyline class="cls-33" points="295.023 475.506 600.058 417.854 621.05 798.129 819.971 694.132 998.516 768.492 1080.202 831.457 1132.066 944.797 1188.223 954.822 1207.395 1142.708 1272.847 1082.445 1348.808 1110.753 1413.859 1172.141 1489.12 1221.781"/><polyline class="cls-34" points="279.362 482.12 592.273 421.01 612.234 811.481 815.808 702.672 998.059 777.48 1080.141 840.257 1132.281 955.795 1188.382 964.321 1207.777 1157.704 1272.962 1093.244 1350.485 1121.624 1415.193 1182.556 1490.712 1231.654"/><polyline class="cls-35" points="263.702 488.734 584.488 424.166 603.418 824.833 811.646 711.211 997.601 786.468 1080.079 849.057 1132.497 966.792 1188.54 973.82 1208.159 1172.699 1273.077 1104.044 1352.161 1132.496 1416.527 1192.971 1492.304 1241.526"/><polyline class="cls-36" points="248.041 495.348 576.704 427.322 594.602 838.185 807.484 719.751 997.143 795.457 1080.018 857.857 1132.713 977.79 1188.698 983.318 1208.542 1187.694 1273.192 1114.843 1353.837 1143.367 1417.861 1203.386 1493.897 1251.399"/><polyline class="cls-37" points="232.38 501.962 568.919 430.478 585.786 851.537 803.321 728.29 996.685 804.445 1079.957 866.657 1132.928 988.788 1188.856 992.817 1208.924 1202.689 1273.307 1125.642 1355.514 1154.239 1419.195 1213.8 1495.489 1261.271"/><polyline class="cls-38" points="216.719 508.576 561.135 433.633 576.97 864.889 799.159 736.83 996.228 813.433 1079.895 875.456 1133.144 999.786 1189.014 1002.316 1209.306 1217.684 1273.422 1136.442 1357.19 1165.11 1420.529 1224.215 1497.081 1271.143"/><polyline class="cls-39" points="201.059 515.189 553.35 436.789 568.154 878.241 794.997 745.37 995.77 822.422 1079.834 884.256 1133.36 1010.784 1189.172 1011.814 1209.688 1232.679 1273.538 1147.241 1358.866 1175.982 1421.864 1234.63 1498.673 1281.016"/><polyline class="cls-40" points="185.398 521.803 545.565 439.945 559.338 891.593 790.834 753.909 995.312 831.41 1079.773 893.056 1133.575 1021.782 1189.33 1021.313 1210.07 1247.674 1273.653 1158.04 1360.543 1186.853 1423.198 1245.045 1500.266 1290.888"/><polyline class="cls-41" points="169.737 528.417 537.781 443.101 550.522 904.945 786.672 762.449 994.854 840.398 1079.711 901.856 1133.791 1032.78 1189.488 1030.812 1210.453 1262.669 1273.768 1168.84 1362.219 1197.725 1424.532 1255.46 1501.858 1300.761"/><polyline class="cls-42" points="529.996 446.257 541.706 918.297 782.51 770.989 994.396 849.387 1079.65 910.656 1134.007 1043.778 1189.646 1040.31 1210.835 1277.665 1273.883 1179.639 1363.896 1208.596 1425.866 1265.875 1503.45 1310.633"/><polyline class="cls-43" points="532.889 931.649 778.347 779.528 993.939 858.375 1079.589 919.455 1134.222 1054.776 1189.804 1049.809 1211.217 1292.66 1273.998 1190.439 1365.572 1219.468 1427.2 1276.29 1505.043 1320.506"/><polyline class="cls-44" points="524.073 945.001 774.185 788.068 993.481 867.363 1079.527 928.255 1134.438 1065.773 1189.962 1059.308 1211.599 1307.655 1274.113 1201.238 1367.248 1230.34 1428.534 1286.705 1506.635 1330.378"/><polyline class="cls-45" points="515.257 958.353 770.023 796.607 993.023 876.352 1079.466 937.055 1134.654 1076.771 1190.12 1068.806 1211.981 1322.65 1274.228 1212.037 1368.925 1241.211 1429.869 1297.12 1508.227 1340.25"/><polyline class="cls-46" points="506.441 971.705 765.86 805.147 992.565 885.34 1079.405 945.855 1134.869 1087.769 1190.278 1078.305 1212.363 1337.645 1274.343 1222.837 1370.601 1252.083 1431.203 1307.534 1509.82 1350.123"/><polyline class="cls-47" points="497.625 985.057 761.698 813.687 992.108 894.328 1079.343 954.654 1135.085 1098.767 1190.436 1087.804 1212.746 1352.64 1274.458 1233.636 1372.277 1262.954 1432.537 1317.949 1511.412 1359.995"/><polyline class="cls-48" points="488.809 998.41 757.536 822.226 991.65 903.317 1079.282 963.454 1135.301 1109.765 1190.595 1097.303 1213.128 1367.635 1274.573 1244.435 1373.954 1273.826 1433.871 1328.364 1513.004 1369.868"/><polyline class="cls-49" points="479.993 1011.762 753.373 830.766 991.192 912.305 1079.221 972.254 1135.516 1120.763 1190.753 1106.801 1213.51 1382.631 1274.688 1255.235 1375.63 1284.697 1435.205 1338.779 1514.597 1379.74"/><polyline class="cls-50" points="471.177 1025.114 749.211 839.305 990.734 921.294 1079.159 981.054 1135.732 1131.761 1190.911 1116.3 1213.892 1397.626 1274.803 1266.034 1377.306 1295.569 1436.539 1349.194 1516.189 1389.612"/><polyline class="cls-51" points="462.361 1038.466 745.049 847.845 990.277 930.282 1079.098 989.854 1135.947 1142.759 1191.069 1125.799 1214.274 1412.621 1274.918 1276.834 1378.983 1306.44 1437.874 1359.609 1517.781 1399.485"/><polyline class="cls-52" points="453.545 1051.818 740.886 856.385 989.819 939.27 1079.037 998.653 1136.163 1153.757 1191.227 1135.297 1214.657 1427.616 1275.033 1287.633 1380.659 1317.312 1439.208 1370.024 1519.374 1409.357"/><polyline class="cls-53" points="444.729 1065.17 736.724 864.924 989.361 948.259 1078.975 1007.453 1136.379 1164.754 1191.385 1144.796 1215.039 1442.611 1275.148 1298.432 1382.335 1328.183 1440.542 1380.439 1520.966 1419.23"/><polyline class="cls-54" points="435.913 1078.522 732.562 873.464 988.903 957.247 1078.914 1016.253 1136.594 1175.752 1191.543 1154.295 1215.421 1457.606 1275.263 1309.232 1384.012 1339.055 1441.876 1390.854 1522.558 1429.102"/><polyline class="cls-55" points="427.096 1091.874 728.399 882.003 988.445 966.235 1078.853 1025.053 1136.81 1186.75 1191.701 1163.793 1215.803 1472.601 1275.379 1320.031 1385.688 1349.926 1443.21 1401.268 1524.151 1438.975"/><polyline class="cls-56" points="418.28 1105.226 724.237 890.543 987.988 975.224 1078.791 1033.853 1137.026 1197.748 1191.859 1173.292 1216.185 1487.596 1275.494 1330.831 1387.364 1360.798 1444.544 1411.683 1525.743 1448.847"/><polyline class="cls-57" points="409.464 1118.578 720.075 899.083 987.53 984.212 1078.73 1042.652 1137.241 1208.746 1192.017 1182.791 1216.568 1502.592 1275.609 1341.63 1389.041 1371.669 1445.879 1422.098 1527.335 1458.719"/><polyline class="cls-58" points="400.648 1131.93 715.912 907.622 987.072 993.2 1078.668 1051.452 1137.457 1219.744 1192.175 1192.289 1216.95 1517.587 1275.724 1352.429 1390.717 1382.541 1447.213 1432.513 1528.928 1468.592"/><polyline class="cls-59" points="391.832 1145.282 711.75 916.162 986.614 1002.189 1078.607 1060.252 1137.673 1230.742 1192.333 1201.788 1217.332 1532.582 1275.839 1363.229 1392.393 1393.412 1448.547 1442.928 1530.52 1478.464"/><polyline class="cls-60" points="383.016 1158.634 707.588 924.702 986.157 1011.177 1078.546 1069.052 1137.888 1241.74 1192.491 1211.287 1217.714 1547.577 1275.954 1374.028 1394.07 1404.284 1449.881 1453.343 1532.112 1488.337"/><polyline class="cls-61" points="374.2 1171.986 703.425 933.241 985.699 1020.165 1078.484 1077.852 1138.104 1252.737 1192.65 1220.785 1218.096 1562.572 1276.069 1384.828 1395.746 1415.155 1451.215 1463.758 1533.705 1498.209"/><polyline class="cls-62" points="365.384 1185.338 699.263 941.781 985.241 1029.154 1078.423 1086.651 1138.32 1263.735 1192.808 1230.284 1218.478 1577.567 1276.184 1395.627 1397.423 1426.027 1452.549 1474.173 1535.297 1508.081"/><polyline class="cls-63" points="356.568 1198.69 695.101 950.32 984.783 1038.142 1078.362 1095.451 1138.535 1274.733 1192.966 1239.783 1218.861 1592.562 1276.299 1406.426 1399.099 1436.898 1453.884 1484.588 1536.889 1517.954"/><polyline class="cls-64" points="347.752 1212.042 690.938 958.86 984.325 1047.13 1078.3 1104.251 1138.751 1285.731 1193.124 1249.281 1219.243 1607.558 1276.414 1417.226 1400.775 1447.77 1455.218 1495.003 1538.482 1527.826"/><polyline class="cls-65" points="338.936 1225.394 686.776 967.4 983.868 1056.119 1078.239 1113.051 1138.966 1296.729 1193.282 1258.78 1219.625 1622.553 1276.529 1428.025 1402.452 1458.641 1456.552 1505.417 1540.074 1537.699"/><polyline class="cls-66" points="330.119 1238.746 682.614 975.939 983.41 1065.107 1078.178 1121.85 1139.182 1307.727 1193.44 1268.279 1220.007 1637.548 1276.644 1438.825 1404.128 1469.513 1457.886 1515.832 1541.666 1547.571"/><polyline class="cls-67" points="321.303 1252.098 678.451 984.479 982.952 1074.095 1078.116 1130.65 1139.398 1318.725 1193.598 1277.778 1220.389 1652.543 1276.759 1449.624 1405.804 1480.384 1459.22 1526.247 1543.259 1557.443"/><polyline class="cls-68" points="312.487 1265.45 674.289 993.018 982.494 1083.084 1078.055 1139.45 1139.613 1329.723 1193.756 1287.276 1220.772 1667.538 1276.874 1460.423 1407.481 1491.256 1460.554 1536.662 1544.851 1567.316"/><polyline class="cls-69" points="303.671 1278.802 670.127 1001.558 982.037 1092.072 1077.994 1148.25 1139.829 1340.721 1193.914 1296.775 1221.154 1682.533 1276.989 1471.223 1409.157 1502.127 1461.889 1547.077 1546.443 1577.188"/><polyline class="cls-70" points="294.855 1292.154 665.964 1010.098 981.579 1101.06 1077.932 1157.05 1140.045 1351.718 1194.072 1306.274 1221.536 1697.528 1277.104 1482.022 1410.833 1512.999 1463.223 1557.492 1548.036 1587.061"/><polyline class="cls-71" points="286.039 1305.506 661.802 1018.637 981.121 1110.049 1077.871 1165.849 1140.26 1362.716 1194.23 1315.772 1221.918 1712.523 1277.22 1492.821 1412.51 1523.87 1464.557 1567.907 1549.628 1596.933"/><polyline class="cls-72" points="277.223 1318.858 657.64 1027.177 980.663 1119.037 1077.81 1174.649 1140.476 1373.714 1194.388 1325.271 1222.3 1727.519 1277.335 1503.621 1414.186 1534.742 1465.891 1578.322 1551.22 1606.805"/><polyline class="cls-73" points="268.407 1332.21 653.477 1035.717 980.205 1128.026 1077.748 1183.449 1140.692 1384.712 1194.546 1334.77 1222.682 1742.514 1277.45 1514.42 1415.862 1545.613 1467.225 1588.737 1552.813 1616.678"/><polyline class="cls-74" points="259.591 1345.562 649.315 1044.256 979.748 1137.014 1077.687 1192.249 1140.907 1395.71 1194.704 1344.268 1223.065 1757.509 1277.565 1525.22 1417.539 1556.485 1468.559 1599.152 1554.405 1626.55"/><polyline class="cls-75" points="250.775 1358.914 645.153 1052.796 979.29 1146.002 1077.626 1201.049 1141.123 1406.708 1194.863 1353.767 1223.447 1772.504 1277.68 1536.019 1419.215 1567.357 1469.894 1609.566 1555.997 1636.423"/><polyline class="cls-76" points="241.959 1372.266 640.99 1061.335 978.832 1154.991 1077.564 1209.848 1141.339 1417.706 1195.021 1363.266 1223.829 1787.499 1277.795 1546.818 1420.891 1578.228 1471.228 1619.981 1557.59 1646.295"/><polyline class="cls-77" points="233.142 1385.618 636.828 1069.875 978.374 1163.979 1077.503 1218.648 1141.554 1428.704 1195.179 1372.764 1224.211 1802.494 1277.91 1557.618 1422.568 1589.1 1472.562 1630.396 1559.182 1656.168"/><polyline class="cls-78" points="224.326 1398.97 632.666 1078.415 977.917 1172.967 1077.441 1227.448 1141.77 1439.702 1195.337 1382.263 1224.593 1817.489 1278.025 1568.417 1424.244 1599.971 1473.896 1640.811 1560.774 1666.04"/><polyline class="cls-79" points="215.51 1412.322 628.504 1086.954 977.459 1181.956 1077.38 1236.248 1141.986 1450.699 1195.495 1391.762 1224.976 1832.484 1278.14 1579.216 1425.92 1610.843 1475.23 1651.226 1562.366 1675.912"/><polyline class="cls-80" points="206.694 1425.674 624.341 1095.494 977.001 1190.944 1077.319 1245.047 1142.201 1461.697 1195.653 1401.26 1225.358 1847.48 1278.255 1590.016 1427.597 1621.714 1476.564 1661.641 1563.959 1685.785"/><polyline class="cls-81" points="197.878 1439.026 620.179 1104.034 976.543 1199.932 1077.257 1253.847 1142.417 1472.695 1195.811 1410.759 1225.74 1862.475 1278.37 1600.815 1429.273 1632.586 1477.899 1672.056 1565.551 1695.657"/><polyline class="cls-82" points="189.062 1452.378 616.017 1112.573 976.086 1208.921 1077.196 1262.647 1142.632 1483.693 1195.969 1420.258 1226.122 1877.47 1278.485 1611.615 1430.949 1643.457 1479.233 1682.471 1567.143 1705.53"/><polyline class="cls-83" points="180.246 1465.73 611.854 1121.113 975.628 1217.909 1077.135 1271.447 1142.848 1494.691 1196.127 1429.757 1226.504 1892.465 1278.6 1622.414 1432.626 1654.329 1480.567 1692.886 1568.736 1715.402"/><polyline class="cls-84" points="171.43 1479.082 607.692 1129.652 975.17 1226.897 1077.073 1280.247 1143.064 1505.689 1196.285 1439.255 1226.887 1907.46 1278.715 1633.213 1434.302 1665.2 1481.901 1703.3 1570.328 1725.274"/><polyline class="cls-85" points="162.614 1492.435 603.53 1138.192 974.712 1235.886 1077.012 1289.046 1143.279 1516.687 1196.443 1448.754 1227.269 1922.455 1278.83 1644.013 1435.979 1676.072 1483.235 1713.715 1571.92 1735.147"/><polyline class="cls-86" points="153.798 1505.786 599.367 1146.732 974.254 1244.874 1076.951 1297.846 1143.495 1527.685 1196.601 1458.253 1227.651 1937.45 1278.945 1654.812 1437.655 1686.943 1484.569 1724.13 1573.513 1745.019"/><polyline class="cls-87" points="144.982 1519.138 595.205 1155.271 973.797 1253.862 1076.889 1306.646 1143.711 1538.683 1196.759 1467.751 1228.033 1952.445 1279.061 1665.612 1439.331 1697.815 1485.904 1734.545 1575.105 1754.892"/><polyline class="cls-88" points="136.165 1532.491 591.043 1163.811 973.339 1262.851 1076.828 1315.446 1143.926 1549.68 1196.917 1477.25 1228.415 1967.441 1279.176 1676.411 1441.008 1708.686 1487.238 1744.96 1576.697 1764.764"/><polyline class="cls-89" points="127.349 1545.843 586.88 1172.35 972.881 1271.839 1076.767 1324.246 1144.142 1560.678 1197.076 1486.749 1228.797 1982.436 1279.291 1687.21 1442.684 1719.558 1488.572 1755.375 1578.29 1774.637"/><polyline class="cls-90" points="118.533 1559.195 582.718 1180.89 972.423 1280.827 1076.705 1333.045 1144.358 1571.676 1197.234 1496.247 1229.18 1997.431 1279.406 1698.01 1444.36 1730.429 1489.906 1765.79 1579.882 1784.509"/><polyline class="cls-91" points="109.717 1572.547 578.556 1189.43 971.966 1289.816 1076.644 1341.845 1144.573 1582.674 1197.392 1505.746 1229.562 2012.426 1279.521 1708.809 1446.037 1741.301 1491.24 1776.205 1581.474 1794.381"/><polyline class="cls-92" points="100.901 1585.899 574.393 1197.969 971.508 1298.804 1076.583 1350.645 1144.789 1593.672 1197.55 1515.245 1229.944 2027.421 1279.636 1719.609 1447.713 1752.172 1492.574 1786.62 1583.067 1804.254"/><polyline class="cls-93" points="92.085 1599.251 570.231 1206.509 971.05 1307.793 1076.521 1359.445 1145.004 1604.67 1197.708 1524.743 1230.326 2042.416 1279.751 1730.408 1449.389 1763.044 1493.909 1797.034 1584.659 1814.126"/><polyline class="cls-94" points="83.269 1612.603 566.069 1215.049 970.592 1316.781 1076.46 1368.244 1145.22 1615.668 1197.866 1534.242 1230.708 2057.411 1279.866 1741.207 1451.066 1773.915 1495.243 1807.449 1586.251 1823.999"/><polyline class="cls-95" points="74.453 1625.955 561.906 1223.588 970.134 1325.769 1076.399 1377.044 1145.436 1626.666 1198.024 1543.741 1231.091 2072.407 1279.981 1752.007 1452.742 1784.787 1496.577 1817.864 1587.844 1833.871"/><polyline class="cls-96" points="65.637 1639.307 557.744 1232.128 969.677 1334.758 1076.337 1385.844 1145.651 1637.664 1198.182 1553.239 1231.473 2087.402 1280.096 1762.806 1454.418 1795.658 1497.911 1828.279 1589.436 1843.743"/><polyline class="cls-97" points="56.821 1652.659 553.582 1240.667 969.219 1343.746 1076.276 1394.644 1145.867 1648.661 1198.34 1562.738 1231.855 2102.397 1280.211 1773.606 1456.095 1806.53 1499.245 1838.694 1591.028 1853.616"/><polyline class="cls-98" points="48.005 1666.011 549.419 1249.207 968.761 1352.734 1076.215 1403.444 1146.083 1659.659 1198.498 1572.237 1232.237 2117.392 1280.326 1784.405 1457.771 1817.401 1500.579 1849.109 1592.621 1863.488"/><polyline class="cls-99" points="39.189 1679.363 545.257 1257.747 968.303 1361.723 1076.153 1412.243 1146.298 1670.657 1198.656 1581.735 1232.619 2132.387 1280.441 1795.204 1459.447 1828.273 1501.914 1859.524 1594.213 1873.361"/><polyline class="cls-100" points="30.372 1692.715 541.095 1266.286 967.846 1370.711 1076.092 1421.043 1146.514 1681.655 1198.814 1591.234 1233.001 2147.382 1280.556 1806.004 1461.124 1839.144 1503.248 1869.939 1595.805 1883.233"/><polyline class="cls-101" points="21.556 1706.067 536.932 1274.826 967.388 1379.699 1076.031 1429.843 1146.73 1692.653 1198.972 1600.733 1233.384 2162.377 1280.671 1816.803 1462.8 1850.016 1504.582 1880.354 1597.398 1893.105"/><polyline class="cls-102" points="12.74 1719.419 532.77 1283.365 966.93 1388.688 1075.969 1438.643 1146.945 1703.651 1199.13 1610.232 1233.766 2177.372 1280.786 1827.602 1464.476 1860.887 1505.916 1890.768 1598.99 1902.978"/><polyline class="cls-103" points="3.924 1732.771 528.608 1291.905 966.472 1397.676 1075.908 1447.443 1147.161 1714.649 1199.289 1619.73 1234.148 2192.368 1280.902 1838.402 1466.153 1871.759 1507.25 1901.183 1600.582 1912.85"/><polyline class="cls-104" points="524.445 1300.445 966.014 1406.664 1075.847 1456.242 1147.377 1725.647 1199.447 1629.229 1234.53 2207.363 1281.017 1849.201 1467.829 1882.63 1508.584 1911.598 1602.175 1922.723"/><polyline class="cls-105" points="520.283 1308.984 965.557 1415.653 1075.785 1465.042 1147.592 1736.644 1199.605 1638.728 1234.912 2222.358 1281.132 1860.001 1469.506 1893.502 1509.919 1922.013 1603.767 1932.595"/><polyline class="cls-106" points="516.121 1317.524 965.099 1424.641 1075.724 1473.842 1147.808 1747.642 1199.763 1648.226 1235.295 2237.353 1281.247 1870.8 1471.182 1904.373 1511.253 1932.428 1605.359 1942.467"/><polyline class="cls-107" points="511.958 1326.063 964.641 1433.629 1075.663 1482.642 1148.024 1758.64 1199.921 1657.725 1235.677 2252.348 1281.362 1881.599 1472.858 1915.245 1512.587 1942.843 1606.952 1952.34"/><polyline class="cls-108" points="507.796 1334.603 964.183 1442.618 1075.601 1491.441 1148.239 1769.638 1200.079 1667.224 1236.059 2267.343 1281.477 1892.399 1474.535 1926.117 1513.921 1953.258 1608.544 1962.212"/><polyline class="cls-109" points="503.634 1343.143 963.726 1451.606 1075.54 1500.241 1148.455 1780.636 1200.237 1676.722 1236.441 2282.338 1281.592 1903.198 1476.211 1936.988 1515.255 1963.673 1610.136 1972.085"/></svg>