<svg baseProfile="full" height="100%" version="1.1" viewBox="0,-1,901,901" width="100%" xmlns="http://www.w3.org/2000/svg" xmlns:ev="http://www.w3.org/2001/xml-events" xmlns:xlink="http://www.w3.org/1999/xlink"><defs><clipPath id="LOGO_CLIPPATH"><rect height="901" width="901" x="0" y="-1" /></clipPath></defs><g clip-path="url(#LOGO_CLIPPATH )" id="Logo_GROUP"><g id="PathGroup"><polyline fill="none" points="0.0,0.0 14.0,14.0 83.0,83.0 120.0,120.0 183.0,183.0 204.0,204.0 277.0,277.0 312.0,312.0 396.0,396.0 430.0,430.0 476.0,476.0 537.0,537.0 583.0,583.0 634.0,634.0 697.0,697.0 722.0,722.0 766.0,766.0 808.0,808.0 900.0,900.0" stroke="#009EE0" stroke-width="0.5" /></g><g id="PathGroup"><polyline fill="none" points="-27.1548095188,4.93723809432 -11.51968441,18.4221835801 57.1563428207,85.846995539 95.0657348778,123.649989427 158.312748578,186.942032118 179.997533165,209.828514891 253.028842006,284.098139506 288.501382515,319.609531935 369.821055342,402.607787573 405.550021483,437.917610151 451.907311421,482.67400607 515.787767832,549.457977623 559.691867677,600.254882429 615.057088334,655.42722795 682.96271375,722.376260456 711.742210605,746.650917969 754.702905281,790.522961707 802.326604024,833.578361521 894.812322292,928.532227393" stroke="#009EE0" stroke-width="1.5" /></g><g id="PathGroup"><polyline fill="none" points="-54.3096190375,9.87447618864 -37.0393688199,22.8443671601 31.3126856414,88.6939910779 70.1314697557,127.299978854 133.625497156,190.884064237 155.99506633,215.657029782 229.057684013,291.196279011 265.002765029,327.21906387 343.642110684,409.215575145 381.100042966,445.835220302 427.814622842,489.34801214 494.575535664,561.915955245 536.383735355,617.509764858 596.114176668,676.8544559 668.9254275,747.752520912 701.484421211,771.301835939 743.405810562,815.045923415 796.653208047,859.156723042 889.624644584,957.064454786" stroke="#009EE0" stroke-width="2.5" /></g><g id="PathGroup"><polyline fill="none" points="-62.5590532299,27.2665507402 5.4690284621,91.5409866169 45.1972046335,130.949968281 108.938245734,194.826096355 131.992599495,221.485544673 205.086526019,298.294418517 241.504147544,334.828595806 317.463166027,415.823362718 356.650064448,453.752830454 403.721934262,496.02201821 473.363303496,574.373932868 513.075603032,634.764647287 577.171265002,698.28168385 654.88814125,773.128781368 691.226631816,795.952753908 732.108715842,839.568885122 790.979812071,884.735084563 884.436966877,985.596682179" stroke="#009EE0" stroke-width="3.5" /></g><g id="PathGroup"><polyline fill="none" points="-88.0787376399,31.6887343203 -20.3746287172,94.3879821559 20.2629395113,134.599957708 84.2509943115,198.768128473 107.99013266,227.314059564 181.115368025,305.392558022 218.005530058,342.438127741 291.284221369,422.43115029 332.200085931,461.670440605 379.629245683,502.69602428 452.151071327,586.83191049 489.76747071,652.019529716 558.228353336,719.7089118 640.850855,798.505041825 680.968842421,820.603671878 720.811621123,864.09184683 785.306416094,910.313446084 879.249289169,1014.12890957" stroke="#009EE0" stroke-width="4.5" /></g><g id="PathGroup"><polyline fill="none" points="-113.59842205,36.1109179003 -46.2182858965,97.2349776948 -4.67132561082,138.249947135 59.5637428894,202.710160591 83.9876658251,233.142574455 157.144210032,312.490697528 194.506912573,350.047659676 265.105276711,429.038937863 307.750107414,469.588050756 355.536557104,509.37003035 430.938839159,599.289888113 466.459338387,669.274412144 539.285441671,741.13613975 626.81356875,823.881302281 670.711053027,845.254589847 709.514526404,888.614808537 779.633020118,935.891807605 874.061611461,1042.66113696" stroke="#009EE0" stroke-width="5.5" /></g><g id="PathGroup"><polyline fill="none" points="-72.0619430758,100.081973234 -29.605590733,141.899936562 34.8764914673,206.65219271 59.9851989901,238.971089347 133.173052038,319.588837034 171.008295087,357.657191611 238.926332053,435.646725435 283.300128897,477.505660907 331.443868525,516.044036421 409.726606991,611.747865735 443.151206065,686.529294573 520.342530005,762.5633677 612.7762825,849.257562737 660.453263632,869.905507816 698.217431685,913.137770245 773.959624141,961.470169125" stroke="#009EE0" stroke-width="6.5" /></g><g id="PathGroup"><polyline fill="none" points="-97.9056002551,102.928968773 -54.5398558552,145.549925989 10.1892400452,210.594224828 35.9827321551,244.799604238 109.201894044,326.686976539 147.509677602,365.266723546 212.747387395,442.254513008 258.850150379,485.423271058 307.351179945,522.718042491 388.514374823,624.205843358 419.843073742,703.784177002 501.399618339,783.99059565 598.738996251,874.633823193 650.195474237,894.556425786 686.920336966,937.660731952 768.286228165,987.048530646" stroke="#009EE0" stroke-width="7.5" /></g><g id="PathGroup"><polyline fill="none" points="-79.4741209773,149.199915416 -14.4980113769,214.536256946 11.9802653202,250.628119129 85.2307360504,333.785116045 124.011060116,372.876255482 186.568442738,448.862300581 234.400171862,493.34088121 283.258491366,529.392048561 367.302142655,636.663820981 396.53494142,721.039059431 482.456706673,805.417823599 584.701710001,900.010083649 639.937684843,919.207343755 675.623242247,962.18369366" stroke="#009EE0" stroke-width="8.5" /></g><g id="PathGroup"><polyline fill="none" points="-104.408386099,152.849904843 -39.185262799,218.478289064 -12.0222015148,256.45663402 61.2595780567,340.883255551 100.512442631,380.485787417 160.38949808,455.470088153 209.950193345,501.258491361 259.165802787,536.066054631 346.089910487,649.121798603 373.226809097,738.29394186 463.513795007,826.845051549 570.664423751,925.386344105 629.679895448,943.858261725 664.326147527,986.706655367" stroke="#009EE0" stroke-width="9.5" /></g><g id="PathGroup"><polyline fill="none" points="-63.8725142211,222.420321183 -36.0246683498,262.285148911 37.288420063,347.981395056 77.0138251456,388.095319352 134.210553422,462.077875726 185.500214828,509.176101512 235.073114208,542.740060701 324.877678318,661.579776226 349.918676774,755.548824289 444.570883341,848.272279499 556.627137501,950.762604561 619.422106053,968.509179694" stroke="#009EE0" stroke-width="10.5" /></g><g id="PathGroup"><polyline fill="none" points="-88.5597656433,226.362353301 -60.0271351848,268.113663802 13.3172620693,355.079534562 53.5152076601,395.704851287 108.031608764,468.685663298 161.05023631,517.093711663 210.980425628,549.414066771 303.66544615,674.037753848 326.610544452,772.803706718 425.627971675,869.699507449 542.589851251,976.138865017" stroke="#009EE0" stroke-width="11.5" /></g><g id="PathGroup"><polyline fill="none" points="-84.0296020198,273.942178693 -10.6538959244,362.177674067 30.0165901747,403.314383222 81.8526641065,475.293450871 136.600257793,525.011321814 186.887737049,556.088072841 282.453213982,686.495731471 303.302412129,790.058589147 406.685060009,891.126735399 528.552565001,1001.51512547" stroke="#009EE0" stroke-width="12.5" /></g><g id="PathGroup"><polyline fill="none" points="-108.032068855,279.770693584 -34.6250539181,369.275813573 6.51797268926,410.923915158 55.6737194487,481.901238444 112.150279276,532.928931966 162.79504847,562.762078911 261.240981814,698.953709093 279.994279807,807.313471575 387.742148343,912.553963349 514.515278751,1026.89138593" stroke="#009EE0" stroke-width="13.5" /></g><g id="PathGroup"><polyline fill="none" points="-132.03453569,285.599208475 -58.5962119118,376.373953079 -16.9806447962,418.533447093 29.4947747909,488.509026016 87.7003007586,540.846542117 138.702359891,569.436084981 240.028749646,711.411686716 256.686147484,824.568354004 368.799236678,933.981191299 500.477992501,1052.26764639" stroke="#009EE0" stroke-width="14.5" /></g><g id="PathGroup"><polyline fill="none" points="-82.5673699055,383.472092584 -40.4792622816,426.142979028 3.31583013315,495.116813589 63.2503222414,548.764152268 114.609671311,576.110091051 218.816517478,723.869664338 233.378015162,841.823236433 349.856325012,955.408419249 486.440706251,1077.64390684" stroke="#009EE0" stroke-width="15.5" /></g><g id="PathGroup"><polyline fill="none" points="-106.538527899,390.57023209 -63.9778797671,433.752510963 -22.8631145246,501.724601161 38.8003437241,556.681762419 90.5169827321,582.784097121 197.60428531,736.327641961 210.069882839,859.078118862 330.913413346,976.835647199" stroke="#009EE0" stroke-width="16.5" /></g><g id="PathGroup"><polyline fill="none" points="-87.4764972525,441.362042898 -49.0420591824,508.332388734 14.3503652069,564.59937257 66.4242941528,589.458103191 176.392053141,748.785619584 186.761750517,876.333001291 311.97050168,998.262875149" stroke="#009EE0" stroke-width="17.5" /></g><g id="PathGroup"><polyline fill="none" points="-75.2210038402,514.940176306 -10.0996133103,572.516982722 42.3316055736,596.132109262 155.179820973,761.243597206 163.453618194,893.58788372 293.027590014,1019.6901031" stroke="#009EE0" stroke-width="18.5" /></g><g id="PathGroup"><polyline fill="none" points="-101.399948498,521.547963879 -34.5495918276,580.434592873 18.2389169944,602.806115332 133.967588805,773.701574829 140.145485872,910.842766149 274.084678348,1041.11733105" stroke="#009EE0" stroke-width="19.5" /></g><g id="PathGroup"><polyline fill="none" points="-127.578893156,528.155751452 -58.9995703448,588.352203024 -5.85377158489,609.480121402 112.755356637,786.159552451 116.837353549,928.097648578 255.141766682,1062.544559" stroke="#009EE0" stroke-width="20.5" /></g><g id="PathGroup"><polyline fill="none" points="-83.4495488621,596.269813175 -29.9464601641,616.154127472 91.5431244688,798.617530074 93.5292212264,945.352531006 236.198855016,1083.97178695" stroke="#009EE0" stroke-width="21.5" /></g><g id="PathGroup"><polyline fill="none" points="-107.899527379,604.187423326 -54.0391487434,622.828133542 70.3308923006,811.075507696 70.2210889038,962.607413435 217.255943351,1105.3990149" stroke="#009EE0" stroke-width="22.5" /></g><g id="PathGroup"><polyline fill="none" points="-78.1318373226,629.502139612 49.1186601325,823.533485319 46.9129565813,979.862295864" stroke="#009EE0" stroke-width="23.5" /></g><g id="PathGroup"><polyline fill="none" points="-102.224525902,636.176145682 27.9064279643,835.991462942 23.6048242587,997.117178293" stroke="#009EE0" stroke-width="24.5" /></g><g id="PathGroup"><polyline fill="none" points="-126.317214481,642.850151752 6.69419579617,848.449440564 0.296691936189,1014.37206072" stroke="#009EE0" stroke-width="25.5" /></g><g id="PathGroup"><polyline fill="none" points="-150.40990306,649.524157822 -14.518036372,860.907418187 -23.0114403864,1031.62694315" stroke="#009EE0" stroke-width="26.5" /></g><g id="PathGroup"><polyline fill="none" points="-174.50259164,656.198163892 -35.7302685401,873.365395809 -46.3195727089,1048.88182558" stroke="#009EE0" stroke-width="27.5" /></g><g id="PathGroup"><polyline fill="none" points="-198.595280219,662.872169962 -56.9425007083,885.823373432 -69.6277050315,1066.13670801" stroke="#009EE0" stroke-width="28.5" /></g><g id="PathGroup"><polyline fill="none" points="-222.687968798,669.546176032 -78.1547328764,898.281351054 -92.935837354,1083.39159044" stroke="#009EE0" stroke-width="29.5" /></g></g></svg>
