<svg baseProfile="full" height="100%" version="1.1" viewBox="0,-1,901,901" width="100%" xmlns="http://www.w3.org/2000/svg" xmlns:ev="http://www.w3.org/2001/xml-events" xmlns:xlink="http://www.w3.org/1999/xlink"><defs><clipPath id="LOGO_CLIPPATH"><rect height="901" width="901" x="0" y="-1" /></clipPath></defs><g clip-path="url(#LOGO_CLIPPATH )" id="Logo_GROUP"><g id="PathGroup"><polyline fill="none" points="0.0,0.0 42.0,42.0 65.0,65.0 116.0,116.0 180.0,180.0 227.0,227.0 256.0,256.0 342.0,342.0 371.0,371.0 427.0,427.0 461.0,461.0 534.0,534.0 555.0,555.0 643.0,643.0 666.0,666.0 747.0,747.0 765.0,765.0 848.0,848.0 900.0,900.0" stroke="#009EE0" stroke-width="0.5" /></g><g id="PathGroup"><polyline fill="none" points="-27.2531965098,4.95512663814 16.3898206371,49.5504114456 40.2941544117,73.1006909437 92.5598998393,123.464697211 154.762111952,186.248920457 204.340959577,235.778262192 234.664610646,266.990958152 319.793785205,351.104066369 348.177827059,383.455858953 406.053657131,441.189458073 437.537225208,478.044007717 511.347434293,549.592025747 533.643637511,571.519860206 628.663477846,663.113531081 650.056581852,690.224108193 730.596139476,767.812576965 752.156223911,787.606136684 841.431325317,871.499202389 895.348978607,925.580617663" stroke="#009EE0" stroke-width="1.5" /></g><g id="PathGroup"><polyline fill="none" points="-54.5063930195,9.91025327628 -9.22035872586,57.1008228913 15.5883088233,81.2013818874 69.1197996787,130.929394423 129.524223904,192.497840914 181.681919154,244.556524383 213.329221292,277.981916304 297.587570409,360.208132739 325.355654119,395.911717907 385.107314261,455.378916146 414.074450416,495.088015435 488.694868586,565.184051493 512.287275022,588.039720413 614.326955693,683.227062161 634.113163705,714.448216387 714.192278952,788.62515393 739.312447821,810.212273368 834.862650633,894.998404777 890.697957214,951.161235325" stroke="#009EE0" stroke-width="2.5" /></g><g id="PathGroup"><polyline fill="none" points="-81.7595895293,14.8653799144 -34.8305380888,64.6512343369 -9.11753676503,89.302072831 45.679699518,138.394091634 104.286335856,198.746761371 159.022878731,253.334786575 191.993831937,288.972874457 275.381355614,369.312199108 302.533481178,408.36757686 364.160971392,469.568374218 390.611675624,512.132023152 466.042302878,580.77607724 490.930912533,604.559580619 599.990433539,703.340593242 618.169745557,738.67232458 697.788418429,809.437730894 726.468671732,832.818410051 828.29397595,918.497607166 886.04693582,976.741852988" stroke="#009EE0" stroke-width="3.5" /></g><g id="PathGroup"><polyline fill="none" points="-60.4407174517,72.2016457826 -33.8233823534,97.4027637747 22.2395993573,145.858788846 79.0484478083,204.995681829 136.363838308,262.113048767 170.658442583,299.963832609 253.175140818,378.416265478 279.711308237,420.823435813 343.214628523,483.757832291 367.148900833,529.176030869 443.389737171,596.368102986 469.574550044,621.079440825 585.653911385,723.454124323 602.226327409,762.896432774 681.384557905,830.250307859 713.624895643,855.424546735 821.725301266,941.996809555 881.395914427,1002.32247065" stroke="#009EE0" stroke-width="4.5" /></g><g id="PathGroup"><polyline fill="none" points="-58.5292279417,105.503454718 -1.20050080332,153.323486057 53.8105597603,211.244602286 113.704797885,270.891310958 149.323053229,310.954790761 230.968926023,387.520331847 256.889135297,433.279294767 322.268285653,497.947290364 343.686126041,546.220038587 420.737171464,611.960128733 448.218187555,637.599301032 571.317389231,743.567655404 586.282909261,787.120540967 664.980697381,851.062884824 700.781119553,878.030683419 815.156626583,965.496011943" stroke="#009EE0" stroke-width="5.5" /></g><g id="PathGroup"><polyline fill="none" points="-83.2350735301,113.604145662 -24.640600964,160.788183268 28.5726717124,217.493522743 91.0457574615,279.66957315 127.987663875,321.945748913 208.762711228,396.624398217 234.066962356,445.73515372 301.321942784,512.136748437 320.223351249,563.264046304 398.084605757,627.552154479 426.861825066,654.119161238 556.980867078,763.681186484 570.339491114,811.344649161 648.576836857,871.875461789 687.937343464,900.636820103 808.587951899,988.995214332" stroke="#009EE0" stroke-width="6.5" /></g><g id="PathGroup"><polyline fill="none" points="-107.940919118,121.704836606 -48.0807011247,168.25288048 3.33478366447,223.7424432 68.3867170385,288.447835342 106.65227452,332.936707065 186.556496432,405.728464586 211.244789415,458.191012673 280.375599915,526.32620651 296.760576457,580.308054021 375.432040049,643.144180226 405.505462577,670.639021445 542.644344924,783.794717565 554.396072966,835.568757354 632.172976333,892.688038753 675.093567375,923.242956787 802.019277216,1012.49441672" stroke="#009EE0" stroke-width="7.5" /></g><g id="PathGroup"><polyline fill="none" points="-71.5208012853,175.717577691 -21.9031043835,229.991363657 45.7276766154,297.226097533 85.3168851661,343.927665217 164.350281637,414.832530956 188.422616475,470.646871627 259.429257045,540.515664582 273.297801665,597.352061738 352.779474342,658.736205972 384.149100088,687.158881651 528.30782277,803.908248646 538.452654818,859.792865547 615.769115809,913.500615718 662.249791285,945.84909347 795.450602532,1035.99361911" stroke="#009EE0" stroke-width="8.5" /></g><g id="PathGroup"><polyline fill="none" points="-94.960901446,183.182274903 -47.1409924314,236.240284114 23.0686361923,306.004359725 63.9814958119,354.91862337 142.144066841,423.936597325 165.600443534,483.10273058 238.482914176,554.705122655 249.835026873,614.396069456 330.126908635,674.328231719 362.792737599,703.678741857 513.971300616,824.021779727 522.509236671,884.016973741 599.365255286,934.313192683 649.406015196,968.455230154" stroke="#009EE0" stroke-width="9.5" /></g><g id="PathGroup"><polyline fill="none" points="-72.3788804793,242.489204572 0.409595769231,314.782621917 42.6461064576,365.909581522 119.937852046,433.040663695 142.778270593,495.558589534 217.536571306,568.894580728 226.372252082,631.440077173 307.474342928,689.920257465 341.43637511,720.198602064 499.634778463,844.135310807 506.565818523,908.241081934 582.961394762,955.125769648 636.562239107,991.061366838" stroke="#009EE0" stroke-width="10.5" /></g><g id="PathGroup"><polyline fill="none" points="-97.6167685273,248.738125029 -22.2494446538,323.560884108 21.3107171034,376.900539674 97.7316372505,442.144730064 119.956097653,508.014448487 196.590228437,583.084038801 202.90947729,648.48408489 284.821777221,705.512283212 320.080012621,736.71846227 485.298256309,864.248841888 490.622400375,932.465190128 566.557534238,975.938346613" stroke="#009EE0" stroke-width="11.5" /></g><g id="PathGroup"><polyline fill="none" points="-122.854656575,254.987045486 -44.9084850769,332.3391463 -0.0246722508616,387.891497826 75.525422455,451.248796434 97.1339247119,520.47030744 175.643885568,597.273496873 179.446702498,665.528092608 262.169211513,721.104308958 298.723650132,753.238322476 470.961734155,884.362372969 474.678982227,956.689298321 550.153673714,996.750923577" stroke="#009EE0" stroke-width="12.5" /></g><g id="PathGroup"><polyline fill="none" points="-67.5675255,341.117408491 -21.3600616051,398.882455978 53.3192076596,460.352862803 74.3117517712,532.926166394 154.697542698,611.462954946 155.983927706,682.572100325 239.516645806,736.696334705 277.367287643,769.758182683 456.625212002,904.47590405 458.73556408,980.913406515" stroke="#009EE0" stroke-width="13.5" /></g><g id="PathGroup"><polyline fill="none" points="-90.2265659231,349.895670683 -42.6954509593,409.873414131 31.1129928642,469.456929173 51.4895788305,545.382025347 133.751199829,625.652413019 132.521152914,699.616108042 216.864080099,752.288360451 256.010925154,786.278042889 442.288689848,924.58943513 442.792145932,1005.13751471" stroke="#009EE0" stroke-width="14.5" /></g><g id="PathGroup"><polyline fill="none" points="-112.885606346,358.673932875 -64.0308403136,420.864372283 8.90677806881,478.560995542 28.6674058898,557.8378843 112.80485696,639.841871092 109.058378122,716.66011576 194.211514392,767.880386198 234.654562665,802.797903096 427.952167694,944.702966211 426.848727784,1029.3616229" stroke="#009EE0" stroke-width="15.5" /></g><g id="PathGroup"><polyline fill="none" points="-85.3662296678,431.855330435 -13.2994367266,487.665061912 5.84523294917,570.293743254 91.8585140903,654.031329165 85.5956033307,733.704123477 171.558948685,783.472411944 213.298200176,819.317763302 413.61564554,964.816497292 410.905309637,1053.58573109" stroke="#009EE0" stroke-width="16.5" /></g><g id="PathGroup"><polyline fill="none" points="-106.701619022,442.846288587 -35.505651522,496.769128281 -16.9769399915,582.749602207 70.912171221,668.220787237 62.1328285388,750.748131194 148.906382977,799.064437691 191.941837687,835.837623508 399.279123387,984.930028373" stroke="#009EE0" stroke-width="17.5" /></g><g id="PathGroup"><polyline fill="none" points="-128.037008376,453.837246739 -57.7118663174,505.873194651 -39.7991129322,595.20546116 49.9658283516,682.41024531 38.670053747,767.792138912 126.25381727,814.656463437 170.585475198,852.357483715 384.942601233,1005.04355945" stroke="#009EE0" stroke-width="18.5" /></g><g id="PathGroup"><polyline fill="none" points="-79.9180811128,514.97726102 -62.6212858729,607.661320114 29.0194854823,696.599703383 15.2072789552,784.836146629 103.601251563,830.248489184 149.229112709,868.877343921 370.606079079,1025.15709053" stroke="#009EE0" stroke-width="19.5" /></g><g id="PathGroup"><polyline fill="none" points="-85.4434588135,620.117179067 8.0731426129,710.789161456 -8.25549583668,801.880154346 80.9486858557,845.84051493 127.87275022,885.397204127 356.269556925,1045.27062161" stroke="#009EE0" stroke-width="20.5" /></g><g id="PathGroup"><polyline fill="none" points="-108.265631754,632.57303802 -12.8732002565,724.978619529 -31.7182706285,818.924162063 58.2961201485,861.432540677 106.516387731,901.917064334 341.933034772,1065.3841527" stroke="#009EE0" stroke-width="21.5" /></g><g id="PathGroup"><polyline fill="none" points="-131.087804695,645.028896974 -33.8195431258,739.168077601 -55.1810454204,835.968169781 35.6435544413,877.024566424 85.1600252418,918.43692454 327.596512618,1085.49768378" stroke="#009EE0" stroke-width="22.5" /></g><g id="PathGroup"><polyline fill="none" points="-153.909977636,657.484755927 -54.7658859952,753.357535674 -78.6438202122,853.012177498 12.990988734,892.61659217 63.8036627528,934.956784746 313.259990464,1105.61121486" stroke="#009EE0" stroke-width="23.5" /></g><g id="PathGroup"><polyline fill="none" points="-102.106595004,870.056185215 -9.66157697317,908.208617917 42.4473002638,951.476644953 298.923468311,1125.72474594" stroke="#009EE0" stroke-width="24.5" /></g><g id="PathGroup"><polyline fill="none" points="-125.569369796,887.100192933 -32.3141426804,923.800643663 21.0909377747,967.996505159 284.586946157,1145.83827702" stroke="#009EE0" stroke-width="25.5" /></g><g id="PathGroup"><polyline fill="none" points="-149.032144588,904.14420065 -54.9667083876,939.39266941 -0.265424714269,984.516365366" stroke="#009EE0" stroke-width="26.5" /></g><g id="PathGroup"><polyline fill="none" points="-77.6192740948,954.984695156 -21.6217872033,1001.03622557" stroke="#009EE0" stroke-width="27.5" /></g><g id="PathGroup"><polyline fill="none" points="-100.271839802,970.576720903 -42.9781496923,1017.55608578" stroke="#009EE0" stroke-width="28.5" /></g></g></svg>
