<svg baseProfile="full" height="100%" version="1.1" viewBox="0,-1,901,901" width="100%" xmlns="http://www.w3.org/2000/svg" xmlns:ev="http://www.w3.org/2001/xml-events" xmlns:xlink="http://www.w3.org/1999/xlink"><defs><clipPath id="LOGO_CLIPPATH"><rect height="901" width="901" x="0" y="-1" /></clipPath></defs><g clip-path="url(#LOGO_CLIPPATH )" id="Logo_GROUP"><g id="PathGroup"><polyline fill="none" points="0.0,0.0 35.0,35.0 65.0,65.0 102.0,102.0 163.0,163.0 209.0,209.0 272.0,272.0 309.0,309.0 360.0,360.0 420.0,420.0 499.0,499.0 542.0,542.0 556.0,556.0 636.0,636.0 685.0,685.0 749.0,749.0 774.0,774.0 818.0,818.0 900.0,900.0" stroke="#009EE0" stroke-width="0.5" /></g><g id="PathGroup"><polyline fill="none" points="-28.9257753569,5.25923188308 6.68079374619,40.2404729895 37.5112280956,70.3261073203 76.8883437475,107.919858128 137.424236736,167.677641871 183.604765868,214.088426414 247.876552071,278.561955503 285.27953716,315.131039282 334.748095762,366.192037821 403.375276825,438.805014739 478.809068112,518.399130638 524.558791191,562.348076943 540.060867271,576.541276685 620.367389055,656.146252134 672.211949624,709.909150278 735.842957409,770.257756943 759.489520308,796.769408844 813.851001506,841.943178809 895.170093169,926.564487573" stroke="#009EE0" stroke-width="1.5" /></g><g id="PathGroup"><polyline fill="none" points="-57.8515507139,10.5184637662 -21.6384125076,45.4809459791 10.0224561912,75.6522146406 51.776687495,113.839716256 111.848473472,172.355283742 158.209531736,219.176852829 223.753104142,285.123911006 261.559074321,321.262078564 309.496191525,372.384075641 386.750553649,457.610029479 458.618136224,537.798261275 507.117582383,582.696153887 524.121734543,597.082553371 604.734778109,676.292504267 659.423899249,734.818300557 722.685914818,791.515513886 744.979040617,819.538817689 809.702003012,865.886357619 890.340186337,953.128975145" stroke="#009EE0" stroke-width="2.5" /></g><g id="PathGroup"><polyline fill="none" points="-86.7773260708,15.7776956492 -49.9576187614,50.7214189686 -17.4663157132,80.978321961 26.6650312424,119.759574384 86.2727102085,177.032925612 132.814297604,224.265279243 199.629656214,291.685866509 237.838611481,327.393117846 284.244287287,378.576113462 370.125830474,476.415044218 438.427204336,557.197391913 489.676373574,603.04423083 508.182601814,617.623830056 589.102167164,696.438756401 646.635848873,759.727450835 709.528872226,812.773270829 730.468560925,842.308226533 805.553004518,889.829536428 885.510279506,979.693462718" stroke="#009EE0" stroke-width="3.5" /></g><g id="PathGroup"><polyline fill="none" points="-78.2768250152,55.9618919582 -44.9550876176,86.3044292813 1.55337498992,125.679432512 60.6969469446,181.710567483 107.419063471,229.353705657 175.506208285,298.247822013 214.118148642,333.524157127 258.992383049,384.768151283 353.501107299,495.220058957 418.236272448,576.59652255 472.235164766,623.392307774 492.243469086,638.165106741 573.469556219,716.585008535 633.847798497,784.636601113 696.371829635,834.031027773 715.958081233,865.077635377 801.404006024,913.772715237 880.680372674,1006.25795029" stroke="#009EE0" stroke-width="4.5" /></g><g id="PathGroup"><polyline fill="none" points="-72.443859522,91.6305366016 -23.5582812626,131.59929064 35.1211836808,186.388209354 82.0238293393,234.442132071 151.382760356,304.809777516 190.397685802,339.655196409 233.740478812,390.960189104 336.876384123,514.025073696 398.04534056,595.995653188 454.793955957,643.740384717 476.304336357,658.706383427 557.836945274,736.731260668 621.059748121,809.545751392 683.214787044,855.288784716 701.447601542,887.847044221 797.25500753,937.715894047 875.850465843,1032.82243786" stroke="#009EE0" stroke-width="5.5" /></g><g id="PathGroup"><polyline fill="none" points="-99.9326314264,96.9566439219 -48.6699375151,137.519148768 9.54542041692,191.065851225 56.6285952071,239.530558486 127.259312427,311.371733019 166.677222962,345.786235691 208.488574574,397.152226924 320.251660948,532.830088436 377.854408672,615.394783825 437.352747148,664.08846166 460.365203629,679.247660112 542.204334328,756.877512802 608.271697746,834.45490167 670.057744453,876.546541659 686.93712185,910.616453066 793.106009036,961.659072856" stroke="#009EE0" stroke-width="6.5" /></g><g id="PathGroup"><polyline fill="none" points="-73.7815937676,143.439006896 -16.0303428469,195.743493096 31.233361075,244.6189849 103.135864498,317.933688522 142.956760123,351.917274973 183.236670337,403.344264745 303.626937773,551.635103175 357.663476784,634.793914463 419.91153834,684.436538604 444.4260709,699.788936797 526.571723383,777.023764936 595.48364737,859.364051948 656.900701862,897.804298602 672.426642158,933.38586191 788.957010542,985.602251665" stroke="#009EE0" stroke-width="7.5" /></g><g id="PathGroup"><polyline fill="none" points="-98.8932500202,149.358865024 -41.6061061108,200.421134967 5.83812694286,249.707411314 79.0124165694,324.495644025 119.236297283,358.048314255 157.984766099,409.536302566 287.002214598,570.440117914 337.472544896,654.1930451 402.470329531,704.784615547 428.486938172,720.330213483 510.939112438,797.170017069 582.695596994,884.273202227 643.74365927,919.062055545 657.916162467,956.155270754 784.808012048,1009.54543047" stroke="#009EE0" stroke-width="8.5" /></g><g id="PathGroup"><polyline fill="none" points="-67.1818693746,205.098776837 -19.5571071893,254.795837729 54.8889686406,331.057599528 95.5158344437,364.179353537 132.732861861,415.728340387 270.377491422,589.245132654 317.281613008,673.592175738 385.029120722,725.132692491 412.547805443,740.871490168 495.306501493,817.316269203 569.907546619,909.182352505 630.586616679,940.319812488 643.405682775,978.924679598" stroke="#009EE0" stroke-width="9.5" /></g><g id="PathGroup"><polyline fill="none" points="-92.7576326385,209.776418708 -44.9523413214,259.884264143 30.7655207117,337.619555031 71.7953716041,370.310392819 107.480957624,421.920378207 253.752768247,608.050147393 297.09068112,692.991306375 367.587911914,745.480769434 396.608672715,761.412766853 479.673890547,837.462521337 557.119496243,934.091502783 617.429574088,961.577569431" stroke="#009EE0" stroke-width="10.5" /></g><g id="PathGroup"><polyline fill="none" points="-70.3475754536,264.972690557 6.64207278292,344.181510535 48.0749087646,376.441432101 82.229053386,428.112416028 237.128045072,626.855162132 276.899749231,712.390437013 350.146703105,765.828846377 380.669539986,781.954043539 464.041279602,857.608773471 544.331445867,959.000653062 604.272531497,982.835326374" stroke="#009EE0" stroke-width="11.5" /></g><g id="PathGroup"><polyline fill="none" points="-95.7428095857,270.061116971 -17.4813751459,350.743466038 24.354445925,382.572471382 56.9771491484,434.304453849 220.503321896,645.660176871 256.708817343,731.78956765 332.705494297,786.176923321 364.730407258,802.495320224 448.408668657,877.755025604 531.543395491,983.90980334" stroke="#009EE0" stroke-width="12.5" /></g><g id="PathGroup"><polyline fill="none" points="-121.138043718,275.149543386 -41.6048230747,357.305421541 0.633983085379,388.703510664 31.7252449107,440.496491669 203.878598721,664.465191611 236.517885455,751.188698288 315.264285488,806.525000264 348.791274529,823.036596909 432.776057712,897.901277738 518.755345116,1008.81895362" stroke="#009EE0" stroke-width="13.5" /></g><g id="PathGroup"><polyline fill="none" points="-65.7282710036,363.867377044 -23.0864797542,394.834549946 6.4733406731,446.68852949 187.253875546,683.27020635 216.326953567,770.587828926 297.823076679,826.873077207 332.852141801,843.577873595 417.143446766,918.047529872 505.96729474,1033.7281039" stroke="#009EE0" stroke-width="14.5" /></g><g id="PathGroup"><polyline fill="none" points="-89.8517189324,370.429332547 -46.8069425938,400.965589228 -18.7785635645,452.880567311 170.62915237,702.075221089 196.136021679,789.986959563 280.381867871,847.221154151 316.913009072,864.11915028 401.510835821,938.193782005 493.179244364,1058.63725417" stroke="#009EE0" stroke-width="15.5" /></g><g id="PathGroup"><polyline fill="none" points="-70.5274054334,407.09662851 -44.0304678022,459.072605132 154.004429195,720.880235828 175.945089791,809.386090201 262.940659062,867.569231094 300.973876344,884.660426965 385.878224876,958.340034139 480.391193989,1083.54640445" stroke="#009EE0" stroke-width="16.5" /></g><g id="PathGroup"><polyline fill="none" points="-69.2823720398,465.264642952 137.37970602,739.685250568 155.754157903,828.785220838 245.499450253,887.917308038 285.034743615,905.201703651 370.245613931,978.486286273" stroke="#009EE0" stroke-width="17.5" /></g><g id="PathGroup"><polyline fill="none" points="-94.5342762774,471.456680773 120.754982845,758.490265307 135.563226015,848.184351476 228.058241445,908.265384981 269.095610887,925.742980336 354.613002985,998.632538406" stroke="#009EE0" stroke-width="18.5" /></g><g id="PathGroup"><polyline fill="none" points="-119.786180515,477.648718594 104.130259669,777.295280046 115.372294127,867.583482113 210.617032636,928.613461924 253.156478158,946.284257021 338.98039204,1018.77879054" stroke="#009EE0" stroke-width="19.5" /></g><g id="PathGroup"><polyline fill="none" points="-145.038084753,483.840756414 87.5055364939,796.100294786 95.181362239,886.982612751 193.175823828,948.961538868 237.21734543,966.825533707 323.347781095,1038.92504267" stroke="#009EE0" stroke-width="20.5" /></g><g id="PathGroup"><polyline fill="none" points="-170.28998899,490.032794235 70.8808133186,814.905309525 74.990430351,906.381743388 175.734615019,969.309615811 221.278212701,987.366810392" stroke="#009EE0" stroke-width="21.5" /></g><g id="PathGroup"><polyline fill="none" points="-195.541893228,496.224832056 54.2560901433,833.710324264 54.7994984629,925.780874026 158.29340621,989.657692755" stroke="#009EE0" stroke-width="22.5" /></g><g id="PathGroup"><polyline fill="none" points="-220.793797466,502.416869877 37.631366968,852.515339003 34.6085665749,945.180004663 140.852197402,1010.0057697" stroke="#009EE0" stroke-width="23.5" /></g><g id="PathGroup"><polyline fill="none" points="-246.045701703,508.608907697 21.0066437927,871.320353743 14.4176346868,964.579135301 123.410988593,1030.35384664" stroke="#009EE0" stroke-width="24.5" /></g><g id="PathGroup"><polyline fill="none" points="-271.297605941,514.800945518 4.38192061739,890.125368482 -5.7732972012,983.978265938" stroke="#009EE0" stroke-width="25.5" /></g><g id="PathGroup"><polyline fill="none" points="-296.549510179,520.992983339 -12.2428025579,908.930383221 -25.9642290893,1003.37739658" stroke="#009EE0" stroke-width="26.5" /></g><g id="PathGroup"><polyline fill="none" points="-321.801414416,527.18502116 -28.8675257332,927.735397961 -46.1551609773,1022.77652721" stroke="#009EE0" stroke-width="27.5" /></g><g id="PathGroup"><polyline fill="none" points="-347.053318654,533.37705898 -45.4922489085,946.5404127 -66.3460928653,1042.17565785" stroke="#009EE0" stroke-width="28.5" /></g><g id="PathGroup"><polyline fill="none" points="-372.305222891,539.569096801 -62.1169720838,965.345427439 -86.5370247534,1061.57478849" stroke="#009EE0" stroke-width="29.5" /></g><g id="PathGroup"><polyline fill="none" points="-397.557127129,545.761134622 -78.7416952591,984.150442178" stroke="#009EE0" stroke-width="30.5" /></g></g></svg>
