<?xml version="1.0" encoding="UTF-8" standalone="no"?>
<svg width="154px" height="29px" viewBox="0 0 154 29" version="1.1" xmlns="http://www.w3.org/2000/svg" xmlns:xlink="http://www.w3.org/1999/xlink" xmlns:sketch="http://www.bohemiancoding.com/sketch/ns">
    <!-- Generator: Sketch 3.4.4 (17249) - http://www.bohemiancoding.com/sketch -->
    <title>navtitle-white</title>
    <desc>Created with Sketch.</desc>
    <defs></defs>
    <g id="Page-1" stroke="none" stroke-width="1" fill="none" fill-rule="evenodd" sketch:type="MSPage">
        <g id="navtitle-white" sketch:type="MSArtboardGroup" fill="#FFFFFF">
            <path d="M1,22.42 L7.24,22.42 L7.24,10.72 L7.3,10.72 L13.87,22.42 L20.29,22.42 L20.29,1 L14.05,1 L14.05,12.46 L13.99,12.46 L7.75,1 L1,1 L1,22.42 Z M32.13,16.87 C32.04,18.49 30.99,19.3 29.64,19.3 C28.56,19.3 27.78,18.58 27.78,17.86 C27.78,16.81 28.47,16.48 29.79,16.18 C30.6,16 31.41,15.79 32.13,15.43 L32.13,16.87 Z M37.83,12.55 C37.83,9.55 37.89,6.46 30.45,6.46 C26.76,6.46 22.62,7.18 22.44,11.56 L27.96,11.56 C27.99,10.9 28.35,9.97 30.18,9.97 C31.14,9.97 32.13,10.36 32.13,11.41 C32.13,12.4 31.32,12.64 30.51,12.79 C27.48,13.36 21.72,13.18 21.72,18.1 C21.72,21.37 24.21,22.81 27.21,22.81 C29.13,22.81 30.96,22.39 32.22,20.95 L32.28,20.95 C32.25,21.37 32.34,22 32.49,22.42 L38.55,22.42 C37.89,21.43 37.83,20.11 37.83,18.94 L37.83,12.55 Z M55.34,6.85 L49.28,6.85 L46.82,16.33 L46.76,16.33 L44.33,6.85 L38.06,6.85 L43.16,22.42 L50.18,22.42 L55.34,6.85 Z M55.78,22.42 L61.72,22.42 L61.72,6.85 L55.78,6.85 L55.78,22.42 Z M61.72,1 L55.78,1 L55.78,5.17 L61.72,5.17 L61.72,1 Z M69.09,13.87 C69.09,12.22 69.93,10.78 71.61,10.78 C73.35,10.78 74.19,12.13 74.19,13.84 C74.19,15.58 73.95,17.68 71.76,17.68 C69.63,17.68 69.09,15.64 69.09,13.87 L69.09,13.87 Z M79.98,6.85 L74.04,6.85 L74.04,8.74 L73.98,8.74 C73.29,7.15 71.64,6.46 69.9,6.46 C65.46,6.46 63.15,9.85 63.15,13.9 C63.15,18.07 65.22,21.49 69.81,21.49 C71.58,21.49 73.02,20.71 73.98,19.33 L74.04,19.33 L74.04,20.77 C74.04,22.06 73.62,24.34 71.7,24.34 C70.95,24.34 70.32,23.74 69.96,23.2 C69.84,23.02 69.69,22.81 69.63,22.66 L63.75,22.66 C64.29,26.86 68.19,27.85 71.88,27.85 C79.17,27.85 79.98,23.5 79.98,20.41 L79.98,6.85 Z M91.49,16.87 C91.4,18.49 90.35,19.3 89,19.3 C87.92,19.3 87.14,18.58 87.14,17.86 C87.14,16.81 87.83,16.48 89.15,16.18 C89.96,16 90.77,15.79 91.49,15.43 L91.49,16.87 Z M97.19,12.55 C97.19,9.55 97.25,6.46 89.81,6.46 C86.12,6.46 81.98,7.18 81.8,11.56 L87.32,11.56 C87.35,10.9 87.71,9.97 89.54,9.97 C90.5,9.97 91.49,10.36 91.49,11.41 C91.49,12.4 90.68,12.64 89.87,12.79 C86.84,13.36 81.08,13.18 81.08,18.1 C81.08,21.37 83.57,22.81 86.57,22.81 C88.49,22.81 90.32,22.39 91.58,20.95 L91.64,20.95 C91.61,21.37 91.7,22 91.85,22.42 L97.91,22.42 C97.25,21.43 97.19,20.11 97.19,18.94 L97.19,12.55 Z M106.48,2.11 L100.54,2.11 L100.54,6.85 L97.9,6.85 L97.9,10.51 L100.54,10.51 L100.54,17.95 C100.54,22.21 103.33,22.6 105.85,22.6 C107.11,22.6 108.46,22.42 109.66,22.42 L109.66,17.92 C109.21,17.98 108.76,18.01 108.31,18.01 C106.81,18.01 106.48,17.38 106.48,15.94 L106.48,10.51 L109.66,10.51 L109.66,6.85 L106.48,6.85 L106.48,2.11 Z M110.67,22.42 L116.61,22.42 L116.61,6.85 L110.67,6.85 L110.67,22.42 Z M116.61,1 L110.67,1 L110.67,5.17 L116.61,5.17 L116.61,1 Z M135.32,14.62 C135.32,10.3 132.68,6.46 126.83,6.46 C120.98,6.46 118.34,10.3 118.34,14.62 C118.34,18.94 120.98,22.81 126.83,22.81 C132.68,22.81 135.32,18.94 135.32,14.62 L135.32,14.62 Z M129.38,14.62 C129.38,16.27 129.08,18.49 126.83,18.49 C124.58,18.49 124.28,16.27 124.28,14.62 C124.28,12.97 124.58,10.78 126.83,10.78 C129.08,10.78 129.38,12.97 129.38,14.62 L129.38,14.62 Z M136.9,22.42 L142.84,22.42 L142.84,14.2 C142.84,11.71 144.19,11.2 145.21,11.2 C146.95,11.2 147.16,12.46 147.16,14.26 L147.16,22.42 L153.1,22.42 L153.1,11.74 C153.1,8.17 150.55,6.46 147.76,6.46 C145.39,6.46 143.8,7.27 142.69,8.83 L142.63,8.83 L142.63,6.85 L136.9,6.85 L136.9,22.42 Z" id="Navigation" sketch:type="MSShapeGroup"></path>
        </g>
    </g>
</svg>