<?xml version="1.0" standalone="no"?>
<!DOCTYPE svg PUBLIC "-//W3C//DTD SVG 1.1//EN" "http://www.w3.org/Graphics/SVG/1.1/DTD/svg11.dtd" >
<svg xmlns="http://www.w3.org/2000/svg">
<metadata>Generated by IcoMoon</metadata>
<defs>
<font id="MBA-Styleguide" horiz-adv-x="1024">
<font-face units-per-em="1024" ascent="819.8005865102639" descent="-204.19941348973606" />
<missing-glyph horiz-adv-x="1024" />
<glyph unicode="&#x20;" horiz-adv-x="512.5004887585533" d="" />
<glyph unicode="&#xe900;" glyph-name="attachment" d="M572.015 573.644l235.942-235.942 66.593 66.593-235.942 235.942c-114.832 114.832-302.503 114.832-417.336 0s-114.832-302.503 0-417.336l214.962-214.962 0.513 0.513c70.245-70.245 207.627-73.928 290.46 8.392 82.32 82.32 82.32 215.474 1.57 297.795l-202.374 202.374c-49.809 49.809-131.072 49.809-180.881 0-56.631-56.631-51.378-129.502 0-180.881l69.22-69.22 66.593 66.593-69.22 69.732c-6.278 6.278-9.962 14.67-9.962 23.607s3.684 17.297 9.962 23.607c13.101 13.101 34.081 13.101 47.182 0l200.804-200.804c45.613-45.613 45.613-120.598 0-166.21s-120.053-45.613-166.21 0l-206.057 206.057c-78.124 78.637-78.124 206.057 0 284.182 78.637 78.124 205.513 78.124 284.182 0z" />
<glyph unicode="&#xe901;" glyph-name="audio" d="M866.67 613.491l-534.794 115.345v-369.096c-20.98 9.449-44.043 14.158-68.163 14.158-92.795 0-167.78-74.985-167.78-167.78s74.985-167.78 167.78-167.78 167.78 74.985 167.78 167.78c0 1.057 0 215.474 0 215.474l335.56-77.58v-68.675c-20.98 9.449-43.531 14.158-67.618 14.158-92.795 0-167.78-74.985-167.78-167.78s74.985-167.78 167.78-167.78c92.795 0 167.78 74.985 167.78 167.78-0.513 2.114-0.513 491.776-0.513 491.776zM264.258 133.246c-40.359 0-73.416 33.024-73.416 73.416s33.024 73.416 73.416 73.416c40.359 0 73.416-33.024 73.416-73.416-0.513-40.359-33.024-73.416-73.416-73.416zM767.053 446.255l-335.56 78.124v80.751l335.015-72.359v-86.516zM698.891 48.299c-40.359 0-73.416 33.024-73.416 73.416s33.024 73.416 73.416 73.416 73.416-33.024 73.416-73.416c0-40.359-33.024-73.416-73.416-73.416z" />
<glyph unicode="&#xe902;" glyph-name="bzu" d="M515.704 697.669l-320.313-320.313v-426.016h249.844v99.297h-150.547v285.078l221.016 224.219 118.516-118.516h140.938l-259.453 256.25zM518.907 213.996h310.703v-96.094h-310.703v96.094zM518.907 50.637h310.703v-96.094h-310.703v96.094zM518.907 377.356h310.703v-96.094h-310.703z" />
<glyph unicode="&#xe903;" glyph-name="calendar" d="M656.93 612.466v115.857h-110.092v-115.857h-103.813v115.857h-110.092v-115.857h-159.388v-635.437h648.569v635.437h-165.153zM332.933 512.848v-64.479h110.092v64.479h103.301v-64.479h110.092v64.479h65.536v-120.053h-448.79v120.053h59.77zM273.163 76.614v216.531h449.335v-216.531h-449.335z" />
<glyph unicode="&#xe904;" glyph-name="chat" d="M872.948 706.83h-731.915l-0.513-542.129h103.301v-210.253l100.674-0.513 191.355 210.766h337.129v542.129zM773.331 264.318h-281.010v-4.196l-2.114 2.114-146.287-161.47v163.584h-103.813v342.895h533.225v-342.895z" />
<glyph unicode="&#xe905;" glyph-name="check" d="M514.871 727.81c-213.392 0-386.938-173.001-386.938-386.938 0-213.392 173.033-386.938 386.938-386.938s386.938 173.033 386.938 386.938c-0.513 213.392-173.545 386.938-386.938 386.938zM514.871 53.552c-158.331 0-287.321 128.99-287.321 287.321s128.99 287.321 287.321 287.321 287.321-128.99 287.321-287.321-128.99-287.321-287.321-287.321zM449.335 311.5l-77.58 74.985-69.22-71.302 147.312-143.66 259.005 258.492-70.789 70.245z" />
<glyph unicode="&#xe906;" glyph-name="check2" d="M730.858 549.012l-304.617-304.617-135.268 131.585-69.22-71.302 205.513-200.292 373.837 374.35z" />
<glyph unicode="&#xe907;" glyph-name="close" d="M505.422 726.753c-213.392 0-386.938-173.033-386.938-386.938 0-213.392 173.033-386.938 386.938-386.938 213.392 0 386.938 173.033 386.938 386.938-0.513 213.905-173.545 386.938-386.938 386.938zM505.422 53.039c-158.331 0-287.321 128.99-287.321 287.321s128.99 286.776 287.321 286.776c158.331 0 287.321-128.99 287.321-287.321s-128.99-286.776-287.321-286.776zM593.508 499.716l-89.656-89.143-89.143 89.143-70.245-70.245 89.143-89.143-89.143-89.656 70.245-70.245 89.143 89.143 89.656-89.143 70.245 70.245-89.143 89.656 89.143 89.143z" />
<glyph unicode="&#xe908;" glyph-name="close2" d="M737.168 489.241l-74.441 74.441-149.426-149.938-149.426 149.938-74.441-74.441 149.938-149.426-149.938-149.426 74.441-74.441 149.426 149.938 149.426-149.938 74.441 74.441-149.426 149.426z" />
<glyph unicode="&#xe909;" glyph-name="document" d="M573.584 704.716h-368.071v-728.776h615.513v481.302l-247.474 247.474zM551.547 589.916l151.508-151.508h-151.508v151.508zM302.503 72.963v534.794h154.679v-263.714h266.34v-271.049h-421.019z" />
<glyph unicode="&#xe90a;" glyph-name="down" d="M659.044 282.672l-88.599-89.143v460.866h-104.87v-460.866l-88.599 89.143-70.789-70.789 211.823-211.278 211.278 211.278z" />
<glyph unicode="&#xe90b;" glyph-name="download" d="M145.742 73.988h724.58v-99.617h-724.58v99.617zM719.871 344.524l-70.789 70.245-88.599-88.599v377.489h-104.87v-377.489l-88.599 88.599-70.245-70.245 211.278-211.823z" />
<glyph unicode="&#xe90c;" glyph-name="edit" d="M909.656 518.614l-207.627 207.627-542.642-545.268v-207.082h733.484v94.364h-432.006l448.79 450.36zM702.030 592.542l73.928-74.441-65.023-65.536-73.928 73.928 65.023 66.049zM253.752 68.222v73.928l316.661 317.718 73.928-73.928-316.661-317.718h-73.928z" />
<glyph unicode="&#xe90d;" glyph-name="edit2" d="M669.518 727.266l-542.642-545.268v-207.082h207.627l542.642 544.756-207.627 207.627zM669.518 593.567l74.441-73.928-65.536-65.536-73.928 73.928 65.023 65.536zM295.168 69.279h-73.928v73.928l316.661 317.718 73.928-73.928-316.661-317.718z" />
<glyph unicode="&#xe90e;" glyph-name="folder" d="M428.867 503.399v-95.934h363.331l-1.057-338.699h-527.427l0.513 434.632h164.641zM528.484 603.016h-363.875l-0.513-633.867h726.662l1.57 537.933h-363.331l-0.513 95.934z" />
<glyph unicode="&#xe90f;" glyph-name="heart" d="M854.082 637.098c-46.67 46.67-107.465 69.732-168.292 69.732s-122.167-23.063-168.292-69.732l-9.962-9.962-9.962 9.962c-46.67 46.67-107.465 69.732-168.292 69.732s-122.167-23.063-168.292-69.732c-92.795-92.795-92.795-243.79 0-337.129l346.546-346.546 346.546 346.546c92.795 93.339 92.795 244.335 0 337.129zM783.293 370.758l-276.302-276.302-275.789 276.302c-26.202 26.202-40.359 60.827-40.359 98.048s14.158 71.814 40.359 98.048c26.202 26.202 60.827 40.359 98.048 40.359s71.814-14.158 98.048-40.359l80.206-80.206 80.206 80.206c26.202 26.202 60.827 40.359 98.048 40.359s71.814-14.158 98.048-40.359c53.492-54.005 53.492-142.091-0.513-196.095z" />
<glyph unicode="&#xe910;" glyph-name="help" d="M566.826 624.285v-234.053h234.053v-112.398h-234.053v-234.053h-112.398v234.053h-234.053v112.398h234.053v234.053h112.398zM674.451 731.91h-327.328v-234.053h-234.053v-327.328h234.053v-234.053h327.328v234.053h234.053v327.328h-234.053v234.053z" />
<glyph unicode="&#xe911;" glyph-name="home" d="M511.7 726.241l-324.541-326.11-1.057-424.158h651.708l0.513 424.158-326.623 326.11zM738.225 75.589h-452.474l0.513 283.124 225.436 226.493 226.493-225.981v-283.637z" />
<glyph unicode="&#xe912;" glyph-name="image" d="M152.565 709.969v-730.345h730.345v730.345h-730.345zM777.015 610.352c-7.335-53.492-52.948-94.909-108.522-94.909s-101.187 41.416-108.522 94.909h217.044zM252.182 610.352h213.392c7.335-105.383 95.934-189.273 203.431-189.273 42.473 0 81.776 13.101 114.832 35.651v-377.489h-4.709l-385.368 384.311-141.546-141.546v288.378zM252.182 188.307l141.546 141.546 251.125-251.125h-392.703v109.579z" />
<glyph unicode="&#xe913;" glyph-name="information" d="M498.375 726.241c-213.392 0-386.938-173.033-386.938-386.938 0-213.392 173.033-386.938 386.938-386.938s386.938 173.001 386.938 386.938c0 213.905-173.545 386.938-386.938 386.938zM498.375 52.495c-158.331 0-287.321 128.99-287.321 287.321s128.99 287.321 287.321 287.321c158.331 0 287.321-128.99 287.321-287.321s-128.99-287.321-287.321-287.321zM443.857 542.189h108.522v-108.522h-108.522v108.522zM443.857 338.758h108.522v-194.526h-108.522v194.526z" />
<glyph unicode="&#xe914;" glyph-name="left" d="M824.709 394.333h-460.322l88.599 88.599-70.789 70.789-211.278-211.823 211.278-211.278 70.789 70.245-88.599 88.599h460.322z" />
<glyph unicode="&#xe915;" glyph-name="link" d="M879.771 709.456h-499.656v-170.919h99.617v71.302h300.421v-300.934h-300.421v64.479h158.331v99.617h-493.378v-498.599h499.656v234.885h235.398v500.168zM544.756 73.988h-300.421v299.364h135.781v-164.641h164.641v-134.756z" />
<glyph unicode="&#xe916;" glyph-name="location" d="M490.431 629.282c97.984 0 177.645-79.63 177.645-177.645 0-8.072-2.402-24.408-9.001-46.445-8.616-28.796-22.198-57.624-40.359-85.331l-128.477-196.928-130.303 198.946c-17.425 26.618-30.27 53.781-38.341 80.943-8.264 27.707-8.809 44.395-8.809 48.816 0.192 97.984 79.822 177.645 177.645 177.645zM490.431 740.334c-159.484 0-288.666-129.182-288.666-288.666 0-21.109 4.036-48.816 13.389-80.366 11.563-39.078 29.533-76.17 51.923-110.284l223.354-341.165 221.304 339.5c23.127 35.427 41.673 73.768 53.781 114.32 9.161 30.846 13.581 57.624 13.581 78.188 0 159.292-129.182 288.474-288.666 288.474v0zM559.779 454.936c0-38.309-31.070-69.38-69.38-69.38s-69.38 31.070-69.38 69.38c0 38.309 31.070 69.38 69.38 69.38s69.38-31.070 69.38-69.38z" />
<glyph unicode="&#xe917;" glyph-name="lock" d="M743.991 379.951v92.282c0 132.129-107.465 239.081-239.081 239.081-132.129 0-239.081-107.497-239.081-239.081v-91.738h-84.947v-418.905h649.594v418.393h-86.516zM370.153 472.233c0 73.928 60.283 134.211 134.211 134.211s134.211-60.283 134.211-134.211v-91.738h-268.454v91.738zM730.858 61.175h-450.36v219.671h450.36v-219.671z" />
<glyph unicode="&#xe918;" glyph-name="mail" d="M880.284 611.921l-735.598-0.513 0.513-540.015h735.598l-0.513 540.56zM738.225 522.266l-225.436-169.862-224.924 169.862h450.36zM244.847 170.978v265.283l267.91-201.861 268.454 202.374v-265.828h-536.364z" />
<glyph unicode="&#xe919;" glyph-name="mailRead" d="M781.723 528.576v176.685h-546.838v-185.589l-87.541-80.206 0.513-467.657h731.915l0.513 467.689-98.56 89.143zM329.25 610.896h358.11v-173.033h-358.11v173.033zM247.474 71.393l-0.513 269.479h533.737v-269.479h-533.225z" />
<glyph unicode="&#xe91a;" glyph-name="map" d="M565.192 707.342l-148.369-148.913h-267.91v-581.976h308.814l148.913 148.913h283.124v581.976h-324.541zM460.866 461.983l102.244 102.244v-341.325l-102.244-102.244v341.325zM248.531 458.844h117.971v-382.742h-117.971v382.742zM790.116 224.983h-132.642v382.742h132.642v-382.742z" />
<glyph unicode="&#xe91b;" glyph-name="media" d="M508.048 556.891l-364.388 168.837v-603.982l364.388-168.292 363.875 168.292v603.982l-363.875-168.837zM243.278 569.448l209.196-96.478v-384.824l-209.196 96.478v384.824zM771.762 185.136l-209.709-96.991v383.799l209.709 96.991v-383.799z" />
<glyph unicode="&#xe91c;" glyph-name="minus" d="M342.895 395.39h343.952v-110.092h-343.952v110.092zM514.871 726.753c-213.392 0-386.938-173.033-386.938-386.938 0-213.392 173.033-386.938 386.938-386.938s386.938 173.033 386.938 386.938c-0.513 213.905-173.545 386.938-386.938 386.938zM514.871 53.039c-158.331 0-287.321 128.99-287.321 287.321s128.99 286.776 287.321 286.776 287.321-128.99 287.321-287.321-128.99-286.776-287.321-286.776z" />
<glyph unicode="&#xe91d;" glyph-name="minus2" d="M248.531 398.016h540.56v-110.092h-540.56v110.092z" />
<glyph unicode="&#xe91e;" glyph-name="mute" d="M466.632 522.266h-188.76v-364.9h188.76l257.948-202.374v772.274l-257.948-205zM624.45 159.992l-123.737 96.991h-123.224v165.666h123.737l123.224 98.048v-360.704z" />
<glyph unicode="&#xe91f;" glyph-name="phone" d="M851.968 637.098l-1.57 2.082-92.282 92.282-251.67-251.67 94.909-94.364c-23.063-61.34-72.359-110.092-134.211-132.642l-94.909 92.795-251.67-251.67 92.282-91.738 2.082-1.57c56.087-45.1 110.636-48.752 125.819-48.752 1.057 0 1.57 0 2.114 0 307.244 0.513 557.312 250.613 557.312 557.857 0 6.823-1.57 68.163-48.239 127.42zM342.35 51.47v0h-1.57c-4.196 0-30.942 2.114-61.34 25.177l-17.297 17.297 111.149 111.149 68.675-68.163 54.517 20.436c98.56 34.081 175.628 114.288 205.513 214.449l8.905 44.556-63.454 63.454 110.636 110.636 17.297-17.297c23.063-30.398 25.177-60.827 25.177-63.966-0.513-252.695-206.057-457.695-458.239-457.695z" />
<glyph unicode="&#xe920;" glyph-name="photo" d="M707.795 569.992v89.656h-381.172v-89.656h-174.058v-592.451h729.833v592.451h-174.603zM787.489 72.418h-540.56v403.722h174.058v89.143h192.412v-89.656h174.058v-403.178zM344.464 284.241c0-92.795 74.985-167.78 167.78-167.78s167.78 74.985 167.78 167.78c0 92.795-74.985 167.78-167.78 167.78-92.282 0-167.78-75.498-167.78-167.78zM585.628 284.241c0-40.359-33.024-73.416-73.416-73.416s-73.416 33.024-73.416 73.416 33.024 73.416 73.416 73.416 73.416-33.024 73.416-73.416z" />
<glyph unicode="&#xe921;" glyph-name="plus" d="M497.702 726.753c-213.392 0-386.393-173.033-386.393-386.938 0-213.392 173.033-386.938 386.938-386.938s386.938 173.033 386.938 386.938c-0.513 213.905-173.545 386.938-387.45 386.938zM497.702 53.039c-158.331 0-286.776 128.445-286.776 286.776s128.445 287.321 286.776 287.321 287.321-128.99 287.321-287.321-128.99-286.776-287.321-286.776zM546.454 523.323h-99.617v-133.154h-133.154v-99.617h133.154v-133.699h99.617v133.699h133.154v99.617h-133.154z" />
<glyph unicode="&#xe922;" glyph-name="plus2" d="M782.236 395.39h-217.588v217.588h-104.87v-217.588h-218.101v-104.87h218.101v-218.101h104.87v218.101h217.588z" />
<glyph unicode="&#xe923;" glyph-name="print" d="M816.798 194.891v486.264h-608.594v-486.264h91.748v-211.020h425.098v211.020h91.748zM721.991 586.348v-214.079h-415.924v214.079h415.924zM636.36 72.559h-244.661v211.020h244.661v-211.020z" />
<glyph unicode="&#xe924;" glyph-name="question" d="M460.479 219.044h99.571v-99.549h-99.571v99.549zM512.717 47.771c-157.195 0-285.071 127.877-285.071 285.108 0 157.202 127.877 285.093 285.071 285.093 157.202 0 285.093-127.892 285.093-285.093-0.007-157.232-127.892-285.108-285.093-285.108v0zM512.717 716.888c-212.069 0-384-171.931-384-384.008 0-212.106 171.931-383.993 384-383.993 212.077 0 384.023 171.894 384.023 383.993 0 212.077-171.945 384.008-384.023 384.008v0zM524.919 556.657c-37.392 4.107-74.768-7.823-102.607-32.759-27.877-24.937-43.84-60.688-43.84-98.073h96.307c0 10.187 4.18 19.537 11.774 26.341 4.402 3.937 13.828 10.319 27.759 8.769 16.664-1.854 29.058-14.249 30.891-30.891 1.832-16.413-7.209-28.395-16.236-34.111-41.956-26.592-67.026-71.066-67.026-118.924v-4.743h96.321v4.743c0 14.662 8.31 28.711 22.249 37.554 42.879 27.161 66.014 75.462 60.452 126.068-6.811 61.523-54.52 109.226-116.044 116.029v0z" />
<glyph unicode="&#xe925;" glyph-name="right" d="M634.924 550.069l-70.245-70.789 88.599-88.599h-460.322v-104.87h460.322l-88.599-88.599 70.245-70.245 211.278 211.278z" />
<glyph unicode="&#xe926;" glyph-name="rss" d="M178.703 420.662v-110.027c178.222 0 323.548-145.166 323.548-323.516h110.027c0 238.985-194.398 433.543-433.543 433.543zM178.703 712.691v-110.027c339.211 0 615.545-276.366 615.545-615.545h110.027c0 399.975-325.438 725.573-725.573 725.573zM298.179 33.084c0-40.52-32.832-73.352-73.352-73.352s-73.352 32.832-73.352 73.352c0 40.52 32.832 73.352 73.352 73.352s73.352-32.832 73.352-73.352z" />
<glyph unicode="&#xe927;" glyph-name="search" d="M903.378 16.107l-179.824 179.824c38.79 53.492 61.34 119.541 61.34 190.842 0 180.881-146.287 327.167-327.167 327.167s-327.167-146.287-327.167-327.167 146.287-327.167 327.167-327.167c69.732 0 134.211 22.038 187.159 58.713l180.368-180.368 78.124 78.124zM457.727 164.476c-122.68 0-222.297 99.617-222.297 222.297s99.617 222.297 222.297 222.297 222.297-99.617 222.297-222.297-100.13-222.297-222.297-222.297z" />
<glyph unicode="&#xe928;" glyph-name="settings" d="M888.163 283.729v104.87h-74.985c-7.848 44.043-25.177 84.947-49.809 120.053l52.948 52.948-73.928 73.928-52.948-52.948c-35.138 24.632-76.010 41.929-120.053 49.809v74.985h-104.87v-74.985c-44.043-7.88-84.947-25.177-120.053-49.809l-52.948 52.948-73.928-73.928 52.948-52.948c-24.632-35.138-41.929-76.010-49.809-120.053h-74.985v-104.87h74.985c7.848-44.043 25.177-84.947 49.809-120.053l-52.948-52.948 73.928-73.928 52.948 52.948c35.138-24.632 76.010-41.929 120.053-49.809v-74.985h104.87v74.985c44.043 7.848 84.947 25.177 120.053 49.809l52.948-52.948 73.928 73.928-52.948 52.948c24.632 35.138 41.929 76.010 49.809 120.053h74.985zM516.953 140.068c-108.009 0-196.095 88.086-196.095 196.095s88.086 196.095 196.095 196.095 196.095-88.086 196.095-196.095c0-108.522-88.086-196.095-196.095-196.095z" />
<glyph unicode="&#xe929;" glyph-name="star" d="M306.187-51.319l-62.397 30.942 42.473 247.986-174.603 171.976 21.493 66.593 241.164 35.138 108.009 220.215h70.245l108.009-220.215 241.164-35.138 21.493-66.593-174.603-171.431 42.473-247.986-62.397-30.942-210.766 110.092-211.823-110.636zM516.953 171.523l153.077-80.206-29.373 170.919 124.794 122.68-171.976 25.177-76.555 156.249-76.555-156.249-171.976-25.177 124.794-122.167-29.373-170.919 153.077 79.694z" />
<glyph unicode="&#xe92a;" glyph-name="transfer" d="M412.082 291.897l-70.245 70.245-211.823-211.278 211.823-211.823 70.245 70.789-88.599 88.599h551.034v104.87h-551.034zM603.982 362.654l70.789-70.245 211.278 211.278-211.278 211.823-70.789-70.789 88.599-88.599h-551.547v-104.87h551.547z" />
<glyph unicode="&#xe92b;" glyph-name="trash" d="M609.235 614.035v96.478h-186.134v-96.478h-210.253v-99.617h57.656v-542.129h490.751v542.129h57.656v99.617h-209.709zM666.891 66.653h-301.991v447.765h301.991v-447.765z" />
<glyph unicode="&#xe92c;" glyph-name="unlocked" d="M378.033 392.763v95.421c0 72.871 59.258 131.585 131.585 131.585s131.585-59.258 131.585-131.585h110.092c0 133.186-108.522 241.708-241.708 241.708s-241.708-108.522-241.708-241.708v-94.909h-81.776v-417.336h649.594v416.823h-457.727zM736.111 75.589h-450.36v218.101h450.36v-218.101z" />
<glyph unicode="&#xe92d;" glyph-name="up" d="M722.466 468.261l-211.823 211.823-211.278-211.823 70.245-70.245 88.599 88.599v-460.322h104.87v460.322l88.599-88.599z" />
<glyph unicode="&#xe92e;" glyph-name="user" d="M509.105 327.003c106.952 0 193.469 86.516 193.469 193.469s-86.516 193.469-193.469 193.469c-106.952 0-193.469-86.516-193.469-193.469s87.029-193.469 193.469-193.469zM509.105 619.032c54.517 0 99.105-44.556 99.105-99.105s-44.556-99.105-99.105-99.105-99.105 44.556-99.105 99.105 45.1 99.105 99.105 99.105zM643.316 274.055h-268.967c-127.42 0-231.202-103.301-231.202-231.202v-81.263h731.402v81.263c0 127.388-103.813 231.202-231.202 231.202zM243.79 61.175c8.905 63.966 63.966 112.718 130.015 112.718h268.967c66.049 0 121.11-49.296 130.015-112.718h-529.029z" />
<glyph unicode="&#xe92f;" glyph-name="video" d="M300.934 369.701c71.814 0 133.154 43.531 159.388 105.383 26.202-61.852 88.086-105.383 159.388-105.383 95.934 0 173.545 77.58 173.545 173.545s-78.124 173.033-173.545 173.033c-71.814 0-133.154-43.531-159.388-105.383-26.746 61.852-88.086 105.383-159.388 105.383-95.934 0-173.545-77.58-173.545-173.033s77.58-173.545 173.545-173.545zM619.709 621.883c43.531 0 79.181-35.651 79.181-79.181s-35.651-79.181-79.181-79.181-79.181 35.651-79.181 79.181 35.651 79.181 79.181 79.181zM300.934 621.883c43.531 0 79.181-35.651 79.181-79.181s-35.651-79.181-79.181-79.181-79.181 36.163-79.181 79.694 35.651 78.637 79.181 78.637zM882.91 242.825h-92.282v88.086h-641.202v-366.47h641.202v95.934h92.282v182.45zM696.264 58.805h-452.474v177.742h452.474v-177.742z" />
<glyph unicode="&#xe930;" glyph-name="volumeDown" d="M688.929 514.194h104.87v-367.014h-104.87v367.014zM158.875 509.453v-364.9h188.216l257.948-202.374v772.274l-257.948-205h-188.216zM504.909 507.883v-360.704l-123.737 96.991h-122.68v165.666h123.737l122.68 98.048z" />
<glyph unicode="&#xe931;" glyph-name="volumeUp" d="M583.001 514.194h104.87v-367.014h-104.87v367.014zM771.762 646.291h104.87v-632.297h-104.87v632.297zM52.948 509.453v-364.9h188.216l257.948-202.374v772.274l-257.948-205h-188.216zM398.982 507.883v-360.704l-123.737 96.991h-122.68v165.666h123.737l122.68 98.048z" />
<glyph unicode="&#xe932;" glyph-name="wifi" horiz-adv-x="1089" d="M242.189 305.83l75.658-75.658c122.616 122.616 322.747 122.84 445.587 0l75.658 75.658c-164.353 164.577-432.326 164.833-596.903 0zM41.096 506.955l75.658-75.658c233.604 233.604 614.2 233.604 847.804 0l75.658 75.658c-275.341 275.565-723.523 275.565-999.12 0zM612.15 70.817c0-39.431-31.967-71.398-71.398-71.398s-71.398 31.967-71.398 71.398c0 39.431 31.967 71.398 71.398 71.398s71.398-31.967 71.398-71.398z" />
<glyph unicode="&#xe933;" glyph-name="clock" d="M513.807 602.513c158.385 0 286.781-128.396 286.781-286.781s-128.396-286.781-286.781-286.781c-158.385 0-286.781 128.396-286.781 286.781 0.179 158.313 128.468 286.602 286.763 286.781zM513.807 702.016c-213.339 0-386.285-172.946-386.285-386.285s172.946-386.285 386.285-386.285c213.339 0 386.285 172.946 386.285 386.285s-172.946 386.285-386.285 386.285v0zM664.739 231.991l-103.484 103.484v195.342h-94.267v-234.41l130.926-130.926z" />
</font>
</defs>
</svg>
