<svg baseProfile="full" height="100%" version="1.1" viewBox="0,-1,901,901" width="100%" xmlns="http://www.w3.org/2000/svg" xmlns:ev="http://www.w3.org/2001/xml-events" xmlns:xlink="http://www.w3.org/1999/xlink"><defs><clipPath id="LOGO_CLIPPATH"><rect height="901" width="901" x="0" y="-1" /></clipPath></defs><g clip-path="url(#LOGO_CLIPPATH )" id="Logo_GROUP"><g id="PathGroup"><polyline fill="none" points="0.0,0.0 45.0,45.0 74.0,74.0 122.0,122.0 172.0,172.0 240.0,240.0 286.0,286.0 312.0,312.0 386.0,386.0 444.0,444.0 463.0,463.0 544.0,544.0 577.0,577.0 605.0,605.0 658.0,658.0 748.0,748.0 780.0,780.0 849.0,849.0 900.0,900.0" stroke="#009EE0" stroke-width="0.5" /></g><g id="PathGroup"><polyline fill="none" points="-25.7773916446,4.68679848084 20.3558390736,51.5509794868 46.9988678583,81.4120754899 96.110103716,129.302278439 143.818966064,178.843195621 213.464001204,246.826475512 259.36189111,294.626190048 287.691697337,323.520261353 360.092749405,396.621410764 419.072801694,453.842498902 437.700497001,472.430543357 520.1780466,554.664170676 561.467249988,597.850268034 592.470916318,626.054027218 653.390001673,684.60353201 742.682699088,772.223259711 775.007199514,803.474921583 842.240414794,872.028417398 895.170093169,926.564487573" stroke="#009EE0" stroke-width="1.5" /></g><g id="PathGroup"><polyline fill="none" points="-51.5547832892,9.37359696168 -4.28832185271,58.1019589735 19.9977357166,88.8241509797 70.2202074319,136.604556878 115.637932128,185.686391242 186.928002409,253.652951024 232.723782219,303.252380096 263.383394674,335.040522706 334.185498811,407.242821529 394.145603389,463.684997804 412.400994002,481.861086713 496.3560932,565.328341352 545.934499977,618.700536067 579.941832636,647.108054436 648.780003347,711.207064021 737.365398176,796.446519421 770.014399028,826.949843165 835.480829587,895.056834795 890.340186337,953.128975145" stroke="#009EE0" stroke-width="2.5" /></g><g id="PathGroup"><polyline fill="none" points="-77.3321749339,14.0603954425 -28.9324827791,64.6529384603 -7.00339642504,96.2362264696 44.3303111479,143.906835317 87.4568981926,192.529586863 160.392003613,260.479426537 206.085673329,311.878570144 239.075092011,346.560784058 308.278248216,417.864232293 369.218405083,473.527496705 387.101491003,491.29163007 472.5341398,575.992512027 530.401749965,639.550804101 567.412748954,668.162081654 644.17000502,737.810596031 732.048097264,820.669779132 765.021598542,850.424764748 828.721244381,918.085252193 885.510279506,979.693462718" stroke="#009EE0" stroke-width="3.5" /></g><g id="PathGroup"><polyline fill="none" points="-103.109566578,18.7471939234 -53.5766437054,71.203917947 -34.0045285667,103.648301959 18.4404148639,151.209113756 59.2758642568,199.372782484 133.856004818,267.305902049 179.447564438,320.504760192 214.766789347,358.081045411 282.370997621,428.485643058 344.291206777,483.369995607 361.801988004,500.722173426 448.712186399,586.656682703 514.868999953,660.401072135 554.883665273,689.216108872 639.560006693,764.414128042 726.730796352,844.893038843 760.028798057,873.89968633 821.961659175,941.11366959 880.680372674,1006.25795029" stroke="#009EE0" stroke-width="4.5" /></g><g id="PathGroup"><polyline fill="none" points="-61.0056607084,111.060377449 -7.44948142017,158.511392195 31.094830321,206.215978106 107.320006022,274.132377561 152.809455548,329.13095024 190.458486684,369.601306764 256.463747027,439.107053822 319.364008472,493.212494509 336.502485005,510.152716783 424.890232999,597.320853379 499.336249942,681.251340168 542.354581591,710.27013609 634.950008366,791.017660052 721.41349544,869.116298553 755.035997571,897.374607913 815.202073969,964.142086988" stroke="#009EE0" stroke-width="5.5" /></g><g id="PathGroup"><polyline fill="none" points="-88.0067928501,118.472452939 -33.3393777042,165.813670635 2.91379638516,213.059173727 80.7840072263,280.958853073 126.171346658,337.757140288 166.150184021,381.121568117 230.556496432,449.728464586 294.436810166,503.054993411 311.202982006,519.583260139 401.068279599,607.985024055 483.80349993,702.101608202 529.825497909,731.324163308 630.34001004,817.621192062 716.096194527,893.339558264 750.043197085,920.849529496 808.442488762,987.170504386" stroke="#009EE0" stroke-width="6.5" /></g><g id="PathGroup"><polyline fill="none" points="-59.2292739882,173.115949074 -25.2672375506,219.902369348 54.2480084307,287.785328586 99.5332377673,346.383330336 141.841881358,392.64182947 204.649245837,460.349875351 269.509611861,512.897492313 285.903479007,529.013803496 377.246326199,618.64919473 468.270749918,722.951876236 517.296414227,752.378190526 625.730011713,844.224724073 710.778893615,917.562817975 745.050396599,944.324451078 801.682903556,1010.19892178" stroke="#009EE0" stroke-width="7.5" /></g><g id="PathGroup"><polyline fill="none" points="-85.1191702723,180.418227513 -53.4482714864,226.745564969 27.7120096351,294.611804098 72.895128877,355.009520384 117.533578695,404.162090823 178.741995243,470.971286115 244.582413555,522.739991214 260.603976007,538.444346853 353.424372799,629.313365406 452.737999907,743.802144269 504.767330545,773.432217743 621.120013386,870.828256083 705.461592703,941.786077685 740.057596113,967.799372661" stroke="#009EE0" stroke-width="8.5" /></g><g id="PathGroup"><polyline fill="none" points="-81.6293054223,233.58876059 1.17601083943,301.43827961 46.2570199866,363.635710432 93.2252760318,415.682352175 152.834744648,481.59269688 219.655215249,532.582490116 235.304473008,547.874890209 329.602419399,639.977536082 437.205249895,764.652412303 492.238246863,794.486244961 616.51001506,897.431788093 700.144291791,966.009337396" stroke="#009EE0" stroke-width="9.5" /></g><g id="PathGroup"><polyline fill="none" points="-109.810339358,240.431956211 -25.3599879562,308.264755122 19.6189110962,372.26190048 68.9169733686,427.202613528 126.927494054,492.214107644 194.728016944,542.424989018 210.004970009,557.305433566 305.780465999,650.641706758 421.672499883,785.502680337 479.709163182,815.540272179 611.900016733,924.035320104 694.826990879,990.232597107" stroke="#009EE0" stroke-width="10.5" /></g><g id="PathGroup"><polyline fill="none" points="-137.991373294,247.275151832 -51.8959867518,315.091230634 -7.01919779417,380.888090528 44.6086707055,438.722874881 101.020243459,502.835518408 169.800818638,552.26748792 184.70546701,566.735976922 281.958512599,661.305877434 406.139749872,806.35294837 467.1800795,836.594299397 607.290018406,950.638852114 689.509689967,1014.45585682" stroke="#009EE0" stroke-width="11.5" /></g><g id="PathGroup"><polyline fill="none" points="-78.4319855474,321.917706147 -33.6573066846,389.514280576 20.3003680424,450.243136234 75.1129928642,513.456929173 144.873620332,562.109986822 159.405964011,576.166520279 258.136559198,671.970048109 390.60699986,827.203216404 454.650995818,857.648326615 602.680020079,977.242384125" stroke="#009EE0" stroke-width="12.5" /></g><g id="PathGroup"><polyline fill="none" points="-104.967984343,328.744181659 -60.2954155749,398.140470624 -4.00793462077,461.763397587 49.2057422696,524.078339937 119.946422027,571.952485723 134.106461012,585.597063635 234.314605798,682.634218785 375.074249849,848.053484438 442.121912136,878.702353833 598.070021753,1003.84591614" stroke="#009EE0" stroke-width="13.5" /></g><g id="PathGroup"><polyline fill="none" points="-86.9335244653,406.766660672 -28.3162372839,473.28365894 23.2984916749,534.699750702 95.0192237212,581.794984625 108.806958013,595.027606992 210.492652398,693.298389461 359.541499837,868.903752471 429.592828454,899.756381051 593.460023426,1030.44944815" stroke="#009EE0" stroke-width="14.5" /></g><g id="PathGroup"><polyline fill="none" points="-113.571633356,415.39285072 -52.624539947,484.803920292 -2.60875891972,545.321161466 70.0920254156,591.637483527 83.507455014,604.458150349 186.670698998,703.962560137 344.008749825,889.754020505 417.063744772,920.810408269 588.850025099,1057.05298016" stroke="#009EE0" stroke-width="15.5" /></g><g id="PathGroup"><polyline fill="none" points="-76.9328426102,496.324181645 -28.5160095144,555.94257223 45.1648271099,601.479982429 58.2079520149,613.888693705 162.848745598,714.626730812 328.475999814,910.604288539 404.534661091,941.864435487 584.240026773,1083.65651217" stroke="#009EE0" stroke-width="16.5" /></g><g id="PathGroup"><polyline fill="none" points="-101.241145273,507.844442998 -54.423260109,566.563982995 20.2376288043,611.32248133 32.9084490158,623.319237062 139.026792198,725.290901488 312.943249802,931.454556572 392.005577409,962.918462705 579.630028446,1110.26004418" stroke="#009EE0" stroke-width="17.5" /></g><g id="PathGroup"><polyline fill="none" points="-80.3305107037,577.185393759 -4.68956950134,621.164980232 7.60894601677,632.749780418 115.204838798,735.955072164 297.41049979,952.304824606 379.476493727,983.972489923" stroke="#009EE0" stroke-width="18.5" /></g><g id="PathGroup"><polyline fill="none" points="-106.237761298,587.806804524 -29.616767807,631.007479134 -17.6905569823,642.180323775 91.3828853976,746.61924284 281.877749779,973.15509264" stroke="#009EE0" stroke-width="19.5" /></g><g id="PathGroup"><polyline fill="none" points="-132.145011893,598.428215288 -54.5439661126,640.849978036 -42.9900599814,651.610867131 67.5609319975,757.283413516 266.344999767,994.005360673" stroke="#009EE0" stroke-width="20.5" /></g><g id="PathGroup"><polyline fill="none" points="-79.4711644182,650.692476938 -68.2895629804,661.041410488 43.7389785973,767.947584191 250.812249755,1014.85562871" stroke="#009EE0" stroke-width="21.5" /></g><g id="PathGroup"><polyline fill="none" points="-93.5890659795,670.471953845 19.9170251972,778.611754867 235.279499744,1035.70589674" stroke="#009EE0" stroke-width="22.5" /></g><g id="PathGroup"><polyline fill="none" points="-118.888568979,679.902497201 -3.90492820292,789.275925543 219.746749732,1056.55616477" stroke="#009EE0" stroke-width="23.5" /></g><g id="PathGroup"><polyline fill="none" points="-144.188071978,689.333040558 -27.726881603,799.940096219 204.21399972,1077.40643281" stroke="#009EE0" stroke-width="24.5" /></g><g id="PathGroup"><polyline fill="none" points="-169.487574977,698.763583914 -51.5488350032,810.604266895 188.681249709,1098.25670084" stroke="#009EE0" stroke-width="25.5" /></g><g id="PathGroup"><polyline fill="none" points="-194.787077976,708.194127271 -75.3707884033,821.26843757 173.148499697,1119.10696888" stroke="#009EE0" stroke-width="26.5" /></g><g id="PathGroup"><polyline fill="none" points="-99.1927418034,831.932608246 157.615749685,1139.95723691" stroke="#009EE0" stroke-width="27.5" /></g><g id="PathGroup"><polyline fill="none" points="-123.014695204,842.596778922 142.082999674,1160.80750494" stroke="#009EE0" stroke-width="28.5" /></g><g id="PathGroup"><polyline fill="none" points="-146.836648604,853.260949598 126.550249662,1181.65777298" stroke="#009EE0" stroke-width="29.5" /></g><g id="PathGroup"><polyline fill="none" points="-170.658602004,863.925120273 111.01749965,1202.50804101" stroke="#009EE0" stroke-width="30.5" /></g><g id="PathGroup"><polyline fill="none" points="-194.480555404,874.589290949 95.4847496388,1223.35830904" stroke="#009EE0" stroke-width="31.5" /></g></g></svg>
