<svg baseProfile="full" height="100%" version="1.1" viewBox="0,-1,901,901" width="100%" xmlns="http://www.w3.org/2000/svg" xmlns:ev="http://www.w3.org/2001/xml-events" xmlns:xlink="http://www.w3.org/1999/xlink"><defs><clipPath id="LOGO_CLIPPATH"><rect height="901" width="901" x="0" y="-1" /></clipPath></defs><g clip-path="url(#LOGO_CLIPPATH )" id="Logo_GROUP"><g id="PathGroup"><polyline fill="none" points="0.0,0.0 14.0,14.0 59.0,59.0 116.0,116.0 172.0,172.0 226.0,226.0 268.0,268.0 332.0,332.0 396.0,396.0 403.0,403.0 471.0,471.0 522.0,522.0 569.0,569.0 631.0,631.0 652.0,652.0 744.0,744.0 778.0,778.0 808.0,808.0 900.0,900.0" stroke="#009EE0" stroke-width="0.3" /></g><g id="PathGroup"><polyline fill="none" points="-13.2212230288,-7.29446787796 5.00050108172,9.41534960767 47.3279526598,53.2760755693 105.562549932,110.938415656 160.293457455,166.346959964 218.534136416,222.608705123 260.493005984,265.235033302 324.275912507,329.917100002 383.112473954,397.706362334 393.138224504,404.656920052 467.890457207,482.590114047 519.277433623,530.997090214 570.479240694,583.926883364 633.277801911,642.170121685 657.035658135,663.985080189 749.439910113,755.143041684 783.706929529,789.680366234 811.844932173,815.580665973 907.246160144,913.13366526" stroke="#009EE0" stroke-width="0.6" /></g><g id="PathGroup"><polyline fill="none" points="-26.4424460576,-14.5889357559 -3.99899783656,4.83069921534 35.6559053196,47.5521511387 95.1250998632,105.876831312 148.58691491,160.693919929 211.068272832,219.217410245 252.986011968,262.470066604 316.551825014,327.834200004 370.224947908,399.412724667 383.276449007,406.313840104 464.780914414,494.180228094 516.554867245,539.994180428 571.958481388,598.853766729 635.555603822,653.34024337 662.07131627,675.970160379 754.879820226,766.286083367 789.413859058,801.360732467 815.689864345,823.161331945 914.492320287,926.267330521" stroke="#009EE0" stroke-width="0.9" /></g><g id="PathGroup"><polyline fill="none" points="-39.6636690864,-21.8834036339 -12.9984967548,0.246048823008 23.9838579794,41.828226708 84.6876497948,100.815246969 136.880372365,155.040879893 203.602409248,215.826115368 245.479017951,259.705099906 308.827737521,325.751300006 357.337421862,401.119087001 373.414673511,407.970760156 461.671371621,505.77034214 513.832300868,548.991270642 573.437722081,613.780650093 637.833405734,664.510365054 667.106974405,687.955240568 760.31973034,777.429125051 795.120788586,813.041098701 819.534796518,830.741997918 921.738480431,939.400995781" stroke="#009EE0" stroke-width="1.2" /></g><g id="PathGroup"><polyline fill="none" points="-52.8848921152,-29.1778715118 -21.9979956731,-4.33860156932 12.3118106392,36.1043022774 74.2501997263,95.7536626248 125.17382982,149.387839858 196.136545664,212.434820491 237.972023935,256.940133208 301.103650028,323.668400008 344.449895816,402.825449334 363.552898014,409.627680208 458.561828828,517.360456187 511.10973449,557.988360856 574.916962775,628.707533457 640.111207645,675.680486739 672.14263254,699.940320758 765.759640453,788.572166734 800.827718115,824.721464935 823.37972869,838.32266389 928.984640575,952.534661042" stroke="#009EE0" stroke-width="1.5" /></g><g id="PathGroup"><polyline fill="none" points="-66.106115144,-36.4723393898 -30.9974945914,-8.92325196165 0.639763298943,30.3803778467 63.8127496579,90.692078281 113.467287275,143.734799822 188.67068208,209.043525613 230.465029919,254.17516651 293.379562535,321.58550001 331.56236977,404.531811668 353.691122518,411.28460026 455.452286035,528.950570234 508.387168113,566.98545107 576.396203469,643.634416821 642.389009556,686.850608424 677.178290675,711.925400947 771.199550566,799.715208418 806.534647644,836.401831168 827.224660863,845.903329863 936.230800718,965.668326302" stroke="#009EE0" stroke-width="1.8" /></g><g id="PathGroup"><polyline fill="none" points="-79.3273381728,-43.7668072678 -39.9969935097,-13.507902354 -11.0322840413,24.6564534161 53.3752995895,85.6304939372 101.760744731,138.081759786 181.204818496,205.652230736 222.958035903,251.410199813 285.655475043,319.502600011 318.674843724,406.238174002 343.829347022,412.941520312 452.342743242,540.540684281 505.664601736,575.982541285 577.875444163,658.561300186 644.666811467,698.020730109 682.21394881,723.910481137 776.639460679,810.858250101 812.241577173,848.082197402 831.069593036,853.483995836 943.476960862,978.801991562" stroke="#009EE0" stroke-width="2.1" /></g><g id="PathGroup"><polyline fill="none" points="-92.5485612016,-51.0612751457 -48.996492428,-18.0925527463 -22.7043313815,18.9325289854 42.9378495211,80.5689095934 90.0542021856,132.428719751 173.738954912,202.260935858 215.451041887,248.645233115 277.93138755,317.419700013 305.787317678,407.944536335 333.967571525,414.598440364 449.233200449,552.130798328 502.942035358,584.979631499 579.354684856,673.48818355 646.944613379,709.190851794 687.249606944,735.895561326 782.079370792,822.001291785 817.948506702,859.762563636 834.914525208,861.064661808 950.723121006,991.935656823" stroke="#009EE0" stroke-width="2.4" /></g><g id="PathGroup"><polyline fill="none" points="-57.9959913462,-22.6772031386 -34.3763787217,13.2086045547 32.5003994527,75.5073252496 78.3476596407,126.775679715 166.273091328,198.869640981 207.94404787,245.880266417 270.207300057,315.336800015 292.899791632,409.650898669 324.105796029,416.255360416 446.123657656,563.720912375 500.219468981,593.976721713 580.83392555,688.415066914 649.22241529,720.360973478 692.285265079,747.880641516 787.519280906,833.144333468 823.655436231,871.44292987 838.759457381,868.645327781 957.969281149,1005.06932208" stroke="#009EE0" stroke-width="2.7" /></g><g id="PathGroup"><polyline fill="none" points="-66.9954902645,-27.261853531 -46.0484260619,7.48468012409 22.0629493843,70.4457409058 66.6411170958,121.12263968 158.807227744,195.478346104 200.437053854,243.115299719 262.483212564,313.253900017 280.012265586,411.357261003 314.244020532,417.912280468 443.014114863,575.311026421 497.496902603,602.973811927 582.313166244,703.341950278 651.500217201,731.531095163 697.320923214,759.865721705 792.959191019,844.287375152 829.362365759,883.123296103 842.604389553,876.225993753 965.215441293,1018.20298734" stroke="#009EE0" stroke-width="3.0" /></g><g id="PathGroup"><polyline fill="none" points="-57.7204734021,1.76075569344 11.6254993159,65.384156562 54.9345745509,115.469599644 151.34136416,192.087051226 192.930059838,240.350333021 254.759125071,311.171000019 267.12473954,413.063623336 304.382245036,419.56920052 439.90457207,586.901140468 494.774336226,611.970902141 583.792406938,718.268833643 653.778019112,742.701216848 702.356581349,771.850801895 798.399101132,855.430416835 835.069295288,894.803662337 846.449321726,883.806659726 972.461601437,1031.3366526" stroke="#009EE0" stroke-width="3.3" /></g><g id="PathGroup"><polyline fill="none" points="-69.3925207423,-3.96316873722 1.18804924744,60.3225722183 43.228032006,109.816559608 143.875500576,188.695756349 185.423065822,237.585366323 247.035037578,309.088100021 254.237213494,414.76998567 294.52046954,421.226120572 436.795029276,598.491254515 492.051769848,620.967992355 585.271647631,733.195717007 656.055821024,753.871338533 707.392239484,783.835882084 803.839011245,866.573458519 840.776224817,906.484028571 850.294253899,891.387325699 979.70776158,1044.47031786" stroke="#009EE0" stroke-width="3.6" /></g><g id="PathGroup"><polyline fill="none" points="-81.0645680825,-9.68709316788 -9.24940082097,55.2609878745 31.5214894611,104.163519573 136.409636992,185.304461472 177.916071805,234.820399625 239.310950085,307.005200023 241.349687448,416.476348003 284.658694043,422.883040623 433.685486483,610.081368562 489.329203471,629.965082569 586.750888325,748.122600371 658.333622935,765.041460218 712.427897619,795.820962274 809.278921358,877.716500202 846.483154346,918.164394804 854.139186071,898.967991671 986.953921724,1057.60398312" stroke="#009EE0" stroke-width="3.9" /></g><g id="PathGroup"><polyline fill="none" points="-92.7366154227,-15.4110175985 -19.6868508894,50.1994035307 19.8149469162,98.5104795371 128.943773408,181.913166594 170.409077789,232.055432927 231.586862592,304.922300025 228.462161402,418.182710337 274.796918547,424.539960675 430.57594369,621.671482609 486.606637094,638.962172783 588.230129019,763.049483735 660.611424846,776.211581902 717.463555754,807.806042463 814.718831472,888.859541886 852.190083875,929.844761038 857.984118244,906.548657644 994.200081868,1070.73764839" stroke="#009EE0" stroke-width="4.2" /></g><g id="PathGroup"><polyline fill="none" points="-104.408662763,-21.1349420292 -30.1243009578,45.1378191869 8.10840437125,92.8574395015 121.477909824,178.521871717 162.902083773,229.290466229 223.862775099,302.839400027 215.574635356,419.889072671 264.93514305,426.196880727 427.466400897,633.261596655 483.884070716,647.959262997 589.709369713,777.9763671 662.889226757,787.381703587 722.499213889,819.791122653 820.158741585,900.002583569 857.897013403,941.525127272 861.829050416,914.129323616 1001.44624201,1083.87131365" stroke="#009EE0" stroke-width="4.5" /></g><g id="PathGroup"><polyline fill="none" points="-116.080710103,-26.8588664598 -40.5617510262,40.0762348431 -3.59813817366,87.2043994659 114.01204624,175.13057684 155.395089757,226.525499531 216.138687606,300.756500029 202.68710931,421.595435004 255.073367554,427.853800779 424.356858104,644.851710702 481.161504339,656.956353211 591.188610406,792.903250464 665.167028668,798.551825272 727.534872024,831.776202842 825.598651698,911.145625253 863.603942932,953.205493505 865.673982589,921.709989589 1008.69240216,1097.00497891" stroke="#009EE0" stroke-width="4.8" /></g><g id="PathGroup"><polyline fill="none" points="-127.752757443,-32.5827908905 -50.9992010946,35.0146504993 -15.3046807186,81.5513594303 106.546182656,171.739281962 147.888095741,223.760532834 208.414600114,298.673600031 189.799583264,423.301797338 245.211592058,429.510720831 421.247315311,656.441824749 478.438937961,665.953443426 592.6678511,807.830133828 667.44483058,809.721946957 732.570530159,843.761283032 831.038561811,922.288666936 869.310872461,964.885859739 869.518914762,929.290655562 1015.9385623,1110.13864417" stroke="#009EE0" stroke-width="5.1" /></g><g id="PathGroup"><polyline fill="none" points="-61.436651163,29.9530661555 -27.0112232635,75.8983193946 99.0803190721,168.347987085 140.381101724,220.995566136 200.690512621,296.590700033 176.912057218,425.008159671 235.349816561,431.167640883 418.137772518,668.031938796 475.716371584,674.95053364 594.147091794,822.757017192 669.722632491,820.892068642 737.606188294,855.746363221 836.478471924,933.43170862 875.01780199,976.566225973 873.363846934,936.871321534 1023.18472244,1123.27230943" stroke="#009EE0" stroke-width="5.4" /></g><g id="PathGroup"><polyline fill="none" points="-71.8741012315,24.8914818117 -38.7177658084,70.245279359 91.6144554882,164.956692207 132.874107708,218.230599438 192.966425128,294.507800034 164.024531172,426.714522005 225.488041065,432.824560935 415.028229725,679.622052843 472.993805207,683.947623854 595.626332488,837.683900557 672.000434402,832.062190326 742.641846429,867.731443411 841.918382038,944.574750303 880.724731519,988.246592206 877.208779107,944.451987507 1030.43088259,1136.40597469" stroke="#009EE0" stroke-width="5.7" /></g><g id="PathGroup"><polyline fill="none" points="-82.3115512999,19.8298974679 -50.4243083533,64.5922393234 84.1485919042,161.56539733 125.367113692,215.46563274 185.242337635,292.424900036 151.137005126,428.420884339 215.626265568,434.481480987 411.918686932,691.21216689 470.271238829,692.944714068 597.105573181,852.610783921 674.278236313,843.232312011 747.677504563,879.7165236 847.358292151,955.717791987 886.431661047,999.92695844 881.053711279,952.032653479 1037.67704273,1149.53963995" stroke="#009EE0" stroke-width="6.0" /></g><g id="PathGroup"><polyline fill="none" points="-62.1308508982,58.9391992878 76.6827283202,158.174102453 117.860119676,212.700666042 177.518250142,290.342000038 138.24947908,430.127246672 205.764490072,436.138401039 408.809144139,702.802280936 467.548672452,701.941804282 598.584813875,867.537667285 676.556038225,854.402433696 752.713162698,891.70160379 852.798202264,966.86083367" stroke="#009EE0" stroke-width="6.3" /></g><g id="PathGroup"><polyline fill="none" points="-73.8373934431,53.2861592522 69.2168647362,154.782807575 110.35312566,209.935699344 169.794162649,288.25910004 125.361953034,431.833609006 195.902714576,437.795321091 405.699601346,714.392394983 464.826106074,710.938894496 600.064054569,882.464550649 678.833840136,865.572555381 757.748820833,903.686683979 858.238112377,978.003875354" stroke="#009EE0" stroke-width="6.6" /></g><g id="PathGroup"><polyline fill="none" points="-85.543935988,47.6331192166 61.7510011522,151.391512698 102.846131643,207.170732646 162.070075156,286.176200042 112.474426988,433.53997134 186.040939079,439.452241143 402.590058553,725.98250903 462.103539697,719.93598471 601.543295263,897.391434014 681.111642047,876.742677066 762.784478968,915.671764169 863.678022491,989.146917037" stroke="#009EE0" stroke-width="6.9" /></g><g id="PathGroup"><polyline fill="none" points="-97.2504785329,41.980079181 54.2851375682,148.000217821 95.3391376271,204.405765948 154.345987663,284.093300044 99.5869009419,435.246333673 176.179163583,441.109161195 399.48051576,737.572623077 459.38097332,728.933074924 603.022535956,912.318317378 683.389443958,887.91279875 767.820137103,927.656844358 869.117932604,1000.28995872" stroke="#009EE0" stroke-width="7.2" /></g><g id="PathGroup"><polyline fill="none" points="-108.957021078,36.3270391454 46.8192739842,144.608922943 87.8321436109,201.64079925 146.62190017,282.010400046 86.6993748959,436.952696007 166.317388086,442.766081247 396.370972967,749.162737124 456.658406942,737.930165138 604.50177665,927.245200742 685.66724587,899.082920435 772.855795238,939.641924547 874.557842717,1011.4330004" stroke="#009EE0" stroke-width="7.5" /></g><g id="PathGroup"><polyline fill="none" points="-120.663563623,30.6739991098 39.3534104002,141.217628066 80.3251495947,198.875832552 138.897812677,279.927500048 73.8118488499,438.65905834 156.45561259,444.423001299 393.261430174,760.75285117 453.935840565,746.927255352 605.981017344,942.172084106 687.945047781,910.25304212 777.891453373,951.627004737 879.99775283,1022.57604209" stroke="#009EE0" stroke-width="7.8" /></g><g id="PathGroup"><polyline fill="none" points="-132.370106168,25.0209590742 31.8875468162,137.826333189 72.8181555784,196.110865854 131.173725185,277.84460005 60.9243228039,440.365420674 146.593837094,446.079921351 390.151887381,772.342965217 451.213274187,755.924345567 607.460258038,957.098967471 690.222849692,921.423163805 782.927111508,963.612084926" stroke="#009EE0" stroke-width="8.1" /></g><g id="PathGroup"><polyline fill="none" points="-144.076648713,19.3679190386 24.4216832322,134.435038311 65.3111615622,193.345899157 123.449637692,275.761700052 48.0367967579,442.071783008 136.732061597,447.736841403 387.042344588,783.933079264 448.49070781,764.921435781 608.939498731,972.025850835 692.500651603,932.59328549 787.962769643,975.597165116" stroke="#009EE0" stroke-width="8.4" /></g><g id="PathGroup"><polyline fill="none" points="-155.783191257,13.7148790029 16.9558196482,131.043743434 57.804167546,190.580932459 115.725550199,273.678800054 35.1492707119,443.778145341 126.870286101,449.393761455 383.932801795,795.523193311 445.768141432,773.918525995 610.418739425,986.952734199 694.778453514,943.763407174 792.998427778,987.582245305" stroke="#009EE0" stroke-width="8.7" /></g><g id="PathGroup"><polyline fill="none" points="-167.489733802,8.06183896733 9.48995606425,127.652448556 50.2971735298,187.815965761 108.001462706,271.595900056 22.2617446659,445.484507675 117.008510604,451.050681507 380.823259002,807.113307358 443.045575055,782.915616209 611.897980119,1001.87961756 697.056255426,954.933528859 798.034085913,999.567325495" stroke="#009EE0" stroke-width="9.0" /></g><g id="PathGroup"><polyline fill="none" points="-179.196276347,2.40879893173 2.02409248025,124.261153679 42.7901795136,185.050999063 100.277375213,269.513000057 9.3742186199,447.190870009 107.146735108,452.707601559 377.713716209,818.703421404 440.323008678,791.912706423 613.377220813,1016.80650093" stroke="#009EE0" stroke-width="9.3" /></g><g id="PathGroup"><polyline fill="none" points="-190.902818892,-3.24424110388 -5.44177110374,120.869858802 35.2831854974,182.286032365 92.5532877201,267.430100059 -3.5133074261,448.897232342 97.2849596116,454.364521611 374.604173416,830.293535451 437.6004423,800.909796637 614.856461506,1031.73338429" stroke="#009EE0" stroke-width="9.6" /></g><g id="PathGroup"><polyline fill="none" points="-202.609361437,-8.89728113949 -12.9076346877,117.478563924 27.7761914812,179.521065667 84.8292002272,265.347200061 -16.4008334721,450.603594676 87.4231841152,456.021441663 371.494630622,841.883649498 434.877875923,809.906886851 616.3357022,1046.66026766" stroke="#009EE0" stroke-width="9.9" /></g><g id="PathGroup"><polyline fill="none" points="-214.315903982,-14.5503211751 -20.3734982717,114.087269047 20.2691974649,176.756098969 77.1051127343,263.264300063 -29.2883595181,452.309957009 77.5614086187,457.678361715 368.385087829,853.473763545 432.155309545,818.903977065 617.814942894,1061.58715102" stroke="#009EE0" stroke-width="10.2" /></g><g id="PathGroup"><polyline fill="none" points="-226.022446527,-20.2033612107 -27.8393618557,110.69597417 12.7622034487,173.991132271 69.3810252414,261.181400065 -42.1758855641,454.016319343 67.6996331223,459.335281767 365.275545036,865.063877592 429.432743168,827.901067279 619.294183588,1076.51403438" stroke="#009EE0" stroke-width="10.5" /></g><g id="PathGroup"><polyline fill="none" points="-237.728989072,-25.8564012463 -35.3052254397,107.304679292 5.25520943251,171.226165573 61.6569377485,259.098500067 -55.0634116101,455.722681677 57.8378576259,460.992201818 362.166002243,876.653991639 426.710176791,836.898157493 620.773424281,1091.44091775" stroke="#009EE0" stroke-width="10.8" /></g><g id="PathGroup"><polyline fill="none" points="-249.435531617,-31.5094412819 -42.7710890237,103.913384415 -2.2517845837,168.461198875 53.9328502556,257.015600069 -67.9509376561,457.42904401 47.9760821295,462.64912187 359.05645945,888.244105685 423.987610413,845.895247707 622.252664975,1106.36780111" stroke="#009EE0" stroke-width="11.1" /></g><g id="PathGroup"><polyline fill="none" points="-261.142074162,-37.1624813175 -50.2369526077,100.522089538 -9.75877859992,165.696232177 46.2087627627,254.932700071 -80.8384637021,459.135406344 38.1143066331,464.306041922 355.946916657,899.834219732 421.265044036,854.892337922 623.731905669,1121.29468448" stroke="#009EE0" stroke-width="11.4" /></g><g id="PathGroup"><polyline fill="none" points="-272.848616707,-42.8155213531 -57.7028161917,97.1307946602 -17.2657726161,162.93126548 38.4846752698,252.849800073 -93.7259897481,460.841768677 28.2525311367,465.962961974 352.837373864,911.424333779 418.542477658,863.889428136 625.211146363,1136.22156784" stroke="#009EE0" stroke-width="11.7" /></g><g id="PathGroup"><polyline fill="none" points="-65.1686797757,93.7394997828 -24.7727666323,160.166298782 30.7605877769,250.766900075 -106.613515794,462.548131011 18.3907556403,467.619882026 349.727831071,923.014447826 415.819911281,872.88651835 626.690387056,1151.14845121" stroke="#009EE0" stroke-width="12.0" /></g><g id="PathGroup"><polyline fill="none" points="-72.6345433597,90.3482049055 -32.2797606486,157.401332084 23.036500284,248.684000077 -119.50104184,464.254493345 8.52898014394,469.276802078 346.618288278,934.604561873 413.097344904,881.883608564 628.16962775,1166.07533457" stroke="#009EE0" stroke-width="12.3" /></g><g id="PathGroup"><polyline fill="none" points="-80.1004069437,86.9569100281 -39.7867546648,154.636365386 15.3124127911,246.601100078 -132.388567886,465.960855678 -1.33279535246,470.93372213 343.508745485,946.194675919 410.374778526,890.880698778 629.648868444,1181.00221793" stroke="#009EE0" stroke-width="12.6" /></g><g id="PathGroup"><polyline fill="none" points="-87.5662705276,83.5656151508 -47.293748681,151.871398688 7.5883252982,244.51820008 -145.276093932,467.667218012 -11.1945708489,472.590642182 340.399202692,957.784789966 407.652212149,899.877788992 631.128109138,1195.9291013" stroke="#009EE0" stroke-width="12.9" /></g><g id="PathGroup"><polyline fill="none" points="-95.0321341116,80.1743202734 -54.8007426972,149.10643199 -0.135762194704,242.435300082 -158.163619978,469.373580346 -21.0563463453,474.247562234 337.289659899,969.374904013 404.929645771,908.874879206 632.607349831,1210.85598466" stroke="#009EE0" stroke-width="13.2" /></g><g id="PathGroup"><polyline fill="none" points="-102.497997696,76.783025396 -62.3077367134,146.341465292 -7.8598496876,240.352400084 -171.051146024,471.079942679 -30.9181218417,475.904482286 334.180117106,980.96501806 402.207079394,917.87196942 634.086590525,1225.78286803" stroke="#009EE0" stroke-width="13.5" /></g><g id="PathGroup"><polyline fill="none" points="-69.8147307296,143.576498594 -15.5839371805,238.269500086 -183.93867207,472.786305013 -40.7798973381,477.561402338 331.070574313,992.555132107 399.484513016,926.869059634 635.565831219,1240.70975139" stroke="#009EE0" stroke-width="13.8" /></g><g id="PathGroup"><polyline fill="none" points="-77.3217247458,140.811531896 -23.3080246734,236.186600088 -196.826198116,474.492667346 -50.6416728345,479.21832239 327.96103152,1004.14524615 396.761946639,935.866149848 637.045071913,1255.63663476" stroke="#009EE0" stroke-width="14.1" /></g><g id="PathGroup"><polyline fill="none" points="-84.8287187621,138.046565198 -31.0321121663,234.10370009 -209.713724162,476.19902968 -60.5034483309,480.875242442 324.851488727,1015.7353602 394.039380262,944.863240063 638.524312606,1270.56351812" stroke="#009EE0" stroke-width="14.4" /></g><g id="PathGroup"><polyline fill="none" points="-92.3357127783,135.281598501 -38.7561996592,232.020800092 -222.601250208,477.905392014 -70.3652238273,482.532162494 321.741945934,1027.32547425 391.316813884,953.860330277 640.0035533,1285.49040148" stroke="#009EE0" stroke-width="14.7" /></g><g id="PathGroup"><polyline fill="none" points="-99.8427067945,132.516631803 -46.4802871521,229.937900094 -235.488776254,479.611754347 -80.2269993237,484.189082546 318.632403141,1038.91558829 388.594247507,962.857420491 641.482793994,1300.41728485" stroke="#009EE0" stroke-width="15.0" /></g><g id="PathGroup"><polyline fill="none" points="-107.349700811,129.751665105 -54.204374645,227.855000096 -248.3763023,481.318116681 -90.0887748201,485.846002598 315.522860348,1050.50570234" stroke="#009EE0" stroke-width="15.3" /></g><g id="PathGroup"><polyline fill="none" points="-114.856694827,126.986698407 -61.9284621379,225.772100098 -261.263828346,483.024479014 -99.9505503165,487.50292265 312.413317555,1062.09581639" stroke="#009EE0" stroke-width="15.6" /></g><g id="PathGroup"><polyline fill="none" points="-109.812325813,489.159842702 309.303774761,1073.68593043" stroke="#009EE0" stroke-width="15.9" /></g><g id="PathGroup"><polyline fill="none" points="-119.674101309,490.816762754 306.194231968,1085.27604448" stroke="#009EE0" stroke-width="16.2" /></g><g id="PathGroup"><polyline fill="none" points="-129.535876806,492.473682806 303.084689175,1096.86615853" stroke="#009EE0" stroke-width="16.5" /></g><g id="PathGroup"><polyline fill="none" points="-139.397652302,494.130602858 299.975146382,1108.45627257" stroke="#009EE0" stroke-width="16.8" /></g><g id="PathGroup"><polyline fill="none" points="-149.259427798,495.78752291 296.865603589,1120.04638662" stroke="#009EE0" stroke-width="17.1" /></g><g id="PathGroup"><polyline fill="none" points="-159.121203295,497.444442961 293.756060796,1131.63650067" stroke="#009EE0" stroke-width="17.4" /></g><g id="PathGroup"><polyline fill="none" points="-168.982978791,499.101363013 290.646518003,1143.22661472" stroke="#009EE0" stroke-width="17.7" /></g><g id="PathGroup"><polyline fill="none" points="-178.844754288,500.758283065 287.53697521,1154.81672876" stroke="#009EE0" stroke-width="18.0" /></g><g id="PathGroup"><polyline fill="none" points="-188.706529784,502.415203117 284.427432417,1166.40684281" stroke="#009EE0" stroke-width="18.3" /></g><g id="PathGroup"><polyline fill="none" points="-198.56830528,504.072123169 281.317889624,1177.99695686" stroke="#009EE0" stroke-width="18.6" /></g><g id="PathGroup"><polyline fill="none" points="-208.430080777,505.729043221 278.208346831,1189.5870709" stroke="#009EE0" stroke-width="18.9" /></g><g id="PathGroup"><polyline fill="none" points="-218.291856273,507.385963273 275.098804038,1201.17718495" stroke="#009EE0" stroke-width="19.2" /></g><g id="PathGroup"><polyline fill="none" points="-228.15363177,509.042883325 271.989261245,1212.767299" stroke="#009EE0" stroke-width="19.5" /></g><g id="PathGroup"><polyline fill="none" points="-238.015407266,510.699803377 268.879718452,1224.35741304" stroke="#009EE0" stroke-width="19.8" /></g><g id="PathGroup"><polyline fill="none" points="-247.877182763,512.356723429 265.770175659,1235.94752709" stroke="#009EE0" stroke-width="20.1" /></g><g id="PathGroup"><polyline fill="none" points="-257.738958259,514.013643481 262.660632866,1247.53764114" stroke="#009EE0" stroke-width="20.4" /></g><g id="PathGroup"><polyline fill="none" points="-267.600733755,515.670563533 259.551090073,1259.12775518" stroke="#009EE0" stroke-width="20.7" /></g><g id="PathGroup"><polyline fill="none" points="-277.462509252,517.327483585 256.44154728,1270.71786923" stroke="#009EE0" stroke-width="21.0" /></g><g id="PathGroup"><polyline fill="none" points="-287.324284748,518.984403637 253.332004487,1282.30798328" stroke="#009EE0" stroke-width="21.3" /></g><g id="PathGroup"><polyline fill="none" points="-297.186060245,520.641323689 250.222461694,1293.89809732" stroke="#009EE0" stroke-width="21.6" /></g><g id="PathGroup"><polyline fill="none" points="-307.047835741,522.298243741 247.112918901,1305.48821137" stroke="#009EE0" stroke-width="21.9" /></g><g id="PathGroup"><polyline fill="none" points="-316.909611237,523.955163793 244.003376107,1317.07832542" stroke="#009EE0" stroke-width="22.2" /></g><g id="PathGroup"><polyline fill="none" points="-326.771386734,525.612083845 240.893833314,1328.66843946" stroke="#009EE0" stroke-width="22.5" /></g><g id="PathGroup"><polyline fill="none" points="-336.63316223,527.269003897 237.784290521,1340.25855351" stroke="#009EE0" stroke-width="22.8" /></g><g id="PathGroup"><polyline fill="none" points="-346.494937727,528.925923949 234.674747728,1351.84866756" stroke="#009EE0" stroke-width="23.1" /></g><g id="PathGroup"><polyline fill="none" points="-356.356713223,530.582844001 231.565204935,1363.4387816" stroke="#009EE0" stroke-width="23.4" /></g><g id="PathGroup"><polyline fill="none" points="-366.218488719,532.239764053 228.455662142,1375.02889565" stroke="#009EE0" stroke-width="23.7" /></g><g id="PathGroup"><polyline fill="none" points="-376.080264216,533.896684105 225.346119349,1386.6190097" stroke="#009EE0" stroke-width="24.0" /></g><g id="PathGroup"><polyline fill="none" points="-385.942039712,535.553604156 222.236576556,1398.20912375" stroke="#009EE0" stroke-width="24.3" /></g><g id="PathGroup"><polyline fill="none" points="-395.803815209,537.210524208 219.127033763,1409.79923779" stroke="#009EE0" stroke-width="24.6" /></g><g id="PathGroup"><polyline fill="none" points="-405.665590705,538.86744426 216.01749097,1421.38935184" stroke="#009EE0" stroke-width="24.9" /></g><g id="PathGroup"><polyline fill="none" points="-415.527366201,540.524364312 212.907948177,1432.97946589" stroke="#009EE0" stroke-width="25.2" /></g><g id="PathGroup"><polyline fill="none" points="-425.389141698,542.181284364 209.798405384,1444.56957993" stroke="#009EE0" stroke-width="25.5" /></g><g id="PathGroup"><polyline fill="none" points="-435.250917194,543.838204416 206.688862591,1456.15969398" stroke="#009EE0" stroke-width="25.8" /></g><g id="PathGroup"><polyline fill="none" points="-445.112692691,545.495124468 203.579319798,1467.74980803" stroke="#009EE0" stroke-width="26.1" /></g><g id="PathGroup"><polyline fill="none" points="-454.974468187,547.15204452 200.469777005,1479.33992207" stroke="#009EE0" stroke-width="26.4" /></g><g id="PathGroup"><polyline fill="none" points="-464.836243683,548.808964572 197.360234212,1490.93003612" stroke="#009EE0" stroke-width="26.7" /></g><g id="PathGroup"><polyline fill="none" points="-474.69801918,550.465884624 194.250691419,1502.52015017" stroke="#009EE0" stroke-width="27.0" /></g><g id="PathGroup"><polyline fill="none" points="-484.559794676,552.122804676 191.141148626,1514.11026421" stroke="#009EE0" stroke-width="27.3" /></g><g id="PathGroup"><polyline fill="none" points="-494.421570173,553.779724728 188.031605833,1525.70037826" stroke="#009EE0" stroke-width="27.6" /></g><g id="PathGroup"><polyline fill="none" points="-504.283345669,555.43664478 184.92206304,1537.29049231" stroke="#009EE0" stroke-width="27.9" /></g><g id="PathGroup"><polyline fill="none" points="-514.145121165,557.093564832 181.812520247,1548.88060635" stroke="#009EE0" stroke-width="28.2" /></g><g id="PathGroup"><polyline fill="none" points="-524.006896662,558.750484884 178.702977453,1560.4707204" stroke="#009EE0" stroke-width="28.5" /></g><g id="PathGroup"><polyline fill="none" points="-533.868672158,560.407404936 175.59343466,1572.06083445" stroke="#009EE0" stroke-width="28.8" /></g><g id="PathGroup"><polyline fill="none" points="-543.730447655,562.064324988 172.483891867,1583.65094849" stroke="#009EE0" stroke-width="29.1" /></g><g id="PathGroup"><polyline fill="none" points="-553.592223151,563.72124504 169.374349074,1595.24106254" stroke="#009EE0" stroke-width="29.4" /></g><g id="PathGroup"><polyline fill="none" points="-563.453998647,565.378165092 166.264806281,1606.83117659" stroke="#009EE0" stroke-width="29.7" /></g><g id="PathGroup"><polyline fill="none" points="-573.315774144,567.035085144 163.155263488,1618.42129063" stroke="#009EE0" stroke-width="30.0" /></g><g id="PathGroup"><polyline fill="none" points="-583.17754964,568.692005196 160.045720695,1630.01140468" stroke="#009EE0" stroke-width="30.3" /></g><g id="PathGroup"><polyline fill="none" points="-593.039325137,570.348925248 156.936177902,1641.60151873" stroke="#009EE0" stroke-width="30.6" /></g><g id="PathGroup"><polyline fill="none" points="-602.901100633,572.0058453 153.826635109,1653.19163278" stroke="#009EE0" stroke-width="30.9" /></g><g id="PathGroup"><polyline fill="none" points="-612.762876129,573.662765351 150.717092316,1664.78174682" stroke="#009EE0" stroke-width="31.2" /></g><g id="PathGroup"><polyline fill="none" points="-622.624651626,575.319685403 147.607549523,1676.37186087" stroke="#009EE0" stroke-width="31.5" /></g><g id="PathGroup"><polyline fill="none" points="-632.486427122,576.976605455 144.49800673,1687.96197492" stroke="#009EE0" stroke-width="31.8" /></g><g id="PathGroup"><polyline fill="none" points="-642.348202619,578.633525507 141.388463937,1699.55208896" stroke="#009EE0" stroke-width="32.1" /></g><g id="PathGroup"><polyline fill="none" points="-652.209978115,580.290445559 138.278921144,1711.14220301" stroke="#009EE0" stroke-width="32.4" /></g><g id="PathGroup"><polyline fill="none" points="-662.071753611,581.947365611 135.169378351,1722.73231706" stroke="#009EE0" stroke-width="32.7" /></g><g id="PathGroup"><polyline fill="none" points="-671.933529108,583.604285663 132.059835558,1734.3224311" stroke="#009EE0" stroke-width="33.0" /></g><g id="PathGroup"><polyline fill="none" points="-681.795304604,585.261205715 128.950292765,1745.91254515" stroke="#009EE0" stroke-width="33.3" /></g><g id="PathGroup"><polyline fill="none" points="-691.657080101,586.918125767 125.840749972,1757.5026592" stroke="#009EE0" stroke-width="33.6" /></g><g id="PathGroup"><polyline fill="none" points="-701.518855597,588.575045819 122.731207179,1769.09277324" stroke="#009EE0" stroke-width="33.9" /></g><g id="PathGroup"><polyline fill="none" points="-711.380631093,590.231965871 119.621664386,1780.68288729" stroke="#009EE0" stroke-width="34.2" /></g><g id="PathGroup"><polyline fill="none" points="-721.24240659,591.888885923 116.512121593,1792.27300134" stroke="#009EE0" stroke-width="34.5" /></g><g id="PathGroup"><polyline fill="none" points="-731.104182086,593.545805975 113.402578799,1803.86311538" stroke="#009EE0" stroke-width="34.8" /></g><g id="PathGroup"><polyline fill="none" points="-740.965957583,595.202726027 110.293036006,1815.45322943" stroke="#009EE0" stroke-width="35.1" /></g><g id="PathGroup"><polyline fill="none" points="-750.827733079,596.859646079 107.183493213,1827.04334348" stroke="#009EE0" stroke-width="35.4" /></g><g id="PathGroup"><polyline fill="none" points="-760.689508575,598.516566131 104.07395042,1838.63345752" stroke="#009EE0" stroke-width="35.7" /></g><g id="PathGroup"><polyline fill="none" points="-770.551284072,600.173486183 100.964407627,1850.22357157" stroke="#009EE0" stroke-width="36.0" /></g><g id="PathGroup"><polyline fill="none" points="-780.413059568,601.830406235 97.8548648342,1861.81368562" stroke="#009EE0" stroke-width="36.3" /></g><g id="PathGroup"><polyline fill="none" points="-790.274835065,603.487326287 94.7453220412,1873.40379966" stroke="#009EE0" stroke-width="36.6" /></g><g id="PathGroup"><polyline fill="none" points="-800.136610561,605.144246339 91.6357792481,1884.99391371" stroke="#009EE0" stroke-width="36.9" /></g><g id="PathGroup"><polyline fill="none" points="-809.998386057,606.801166391 88.5262364551,1896.58402776" stroke="#009EE0" stroke-width="37.2" /></g><g id="PathGroup"><polyline fill="none" points="-819.860161554,608.458086443 85.416693662,1908.17414181" stroke="#009EE0" stroke-width="37.5" /></g><g id="PathGroup"><polyline fill="none" points="-829.72193705,610.115006495 82.307150869,1919.76425585" stroke="#009EE0" stroke-width="37.8" /></g><g id="PathGroup"><polyline fill="none" points="-839.583712547,611.771926546 79.1976080759,1931.3543699" stroke="#009EE0" stroke-width="38.1" /></g><g id="PathGroup"><polyline fill="none" points="-849.445488043,613.428846598 76.0880652829,1942.94448395" stroke="#009EE0" stroke-width="38.4" /></g><g id="PathGroup"><polyline fill="none" points="-859.307263539,615.08576665 72.9785224898,1954.53459799" stroke="#009EE0" stroke-width="38.7" /></g><g id="PathGroup"><polyline fill="none" points="-869.169039036,616.742686702 69.8689796968,1966.12471204" stroke="#009EE0" stroke-width="39.0" /></g><g id="PathGroup"><polyline fill="none" points="-879.030814532,618.399606754 66.7594369037,1977.71482609" stroke="#009EE0" stroke-width="39.3" /></g><g id="PathGroup"><polyline fill="none" points="-888.892590029,620.056526806 63.6498941107,1989.30494013" stroke="#009EE0" stroke-width="39.6" /></g><g id="PathGroup"><polyline fill="none" points="-898.754365525,621.713446858 60.5403513176,2000.89505418" stroke="#009EE0" stroke-width="39.9" /></g><g id="PathGroup"><polyline fill="none" points="-908.616141021,623.37036691 57.4308085246,2012.48516823" stroke="#009EE0" stroke-width="40.2" /></g><g id="PathGroup"><polyline fill="none" points="-918.477916518,625.027286962 54.3212657315,2024.07528227" stroke="#009EE0" stroke-width="40.5" /></g><g id="PathGroup"><polyline fill="none" points="-928.339692014,626.684207014 51.2117229385,2035.66539632" stroke="#009EE0" stroke-width="40.8" /></g><g id="PathGroup"><polyline fill="none" points="-938.201467511,628.341127066 48.1021801454,2047.25551037" stroke="#009EE0" stroke-width="41.1" /></g><g id="PathGroup"><polyline fill="none" points="-948.063243007,629.998047118 44.9926373524,2058.84562441" stroke="#009EE0" stroke-width="41.4" /></g><g id="PathGroup"><polyline fill="none" points="-957.925018503,631.65496717 41.8830945593,2070.43573846" stroke="#009EE0" stroke-width="41.7" /></g><g id="PathGroup"><polyline fill="none" points="-967.786794,633.311887222 38.7735517663,2082.02585251" stroke="#009EE0" stroke-width="42.0" /></g><g id="PathGroup"><polyline fill="none" points="-977.648569496,634.968807274 35.6640089733,2093.61596655" stroke="#009EE0" stroke-width="42.3" /></g><g id="PathGroup"><polyline fill="none" points="-987.510344993,636.625727326 32.5544661802,2105.2060806" stroke="#009EE0" stroke-width="42.6" /></g><g id="PathGroup"><polyline fill="none" points="-997.372120489,638.282647378 29.4449233872,2116.79619465" stroke="#009EE0" stroke-width="42.9" /></g><g id="PathGroup"><polyline fill="none" points="-1007.23389599,639.93956743 26.3353805941,2128.38630869" stroke="#009EE0" stroke-width="43.2" /></g><g id="PathGroup"><polyline fill="none" points="-1017.09567148,641.596487482 23.2258378011,2139.97642274" stroke="#009EE0" stroke-width="43.5" /></g><g id="PathGroup"><polyline fill="none" points="-1026.95744698,643.253407534 20.116295008,2151.56653679" stroke="#009EE0" stroke-width="43.8" /></g><g id="PathGroup"><polyline fill="none" points="-1036.81922247,644.910327586 17.006752215,2163.15665084" stroke="#009EE0" stroke-width="44.1" /></g><g id="PathGroup"><polyline fill="none" points="-1046.68099797,646.567247638 13.8972094219,2174.74676488" stroke="#009EE0" stroke-width="44.4" /></g><g id="PathGroup"><polyline fill="none" points="-1056.54277347,648.224167689 10.7876666289,2186.33687893" stroke="#009EE0" stroke-width="44.7" /></g><g id="PathGroup"><polyline fill="none" points="-1066.40454896,649.881087741 7.67812383582,2197.92699298" stroke="#009EE0" stroke-width="45.0" /></g><g id="PathGroup"><polyline fill="none" points="-1076.26632446,651.538007793 4.56858104277,2209.51710702" stroke="#009EE0" stroke-width="45.3" /></g><g id="PathGroup"><polyline fill="none" points="-1086.12809996,653.194927845 1.45903824972,2221.10722107" stroke="#009EE0" stroke-width="45.6" /></g><g id="PathGroup"><polyline fill="none" points="-1095.98987545,654.851847897 -1.65050454333,2232.69733512" stroke="#009EE0" stroke-width="45.9" /></g><g id="PathGroup"><polyline fill="none" points="-1105.85165095,656.508767949 -4.76004733637,2244.28744916" stroke="#009EE0" stroke-width="46.2" /></g><g id="PathGroup"><polyline fill="none" points="-1115.71342645,658.165688001 -7.86959012942,2255.87756321" stroke="#009EE0" stroke-width="46.5" /></g><g id="PathGroup"><polyline fill="none" points="-1125.57520194,659.822608053 -10.9791329225,2267.46767726" stroke="#009EE0" stroke-width="46.8" /></g><g id="PathGroup"><polyline fill="none" points="-1135.43697744,661.479528105 -14.0886757155,2279.0577913" stroke="#009EE0" stroke-width="47.1" /></g><g id="PathGroup"><polyline fill="none" points="-1145.29875294,663.136448157 -17.1982185086,2290.64790535" stroke="#009EE0" stroke-width="47.4" /></g><g id="PathGroup"><polyline fill="none" points="-1155.16052843,664.793368209 -20.3077613016,2302.2380194" stroke="#009EE0" stroke-width="47.7" /></g><g id="PathGroup"><polyline fill="none" points="-1165.02230393,666.450288261 -23.4173040947,2313.82813344" stroke="#009EE0" stroke-width="48.0" /></g><g id="PathGroup"><polyline fill="none" points="-1174.88407942,668.107208313 -26.5268468877,2325.41824749" stroke="#009EE0" stroke-width="48.3" /></g><g id="PathGroup"><polyline fill="none" points="-1184.74585492,669.764128365 -29.6363896808,2337.00836154" stroke="#009EE0" stroke-width="48.6" /></g><g id="PathGroup"><polyline fill="none" points="-1194.60763042,671.421048417 -32.7459324738,2348.59847558" stroke="#009EE0" stroke-width="48.9" /></g><g id="PathGroup"><polyline fill="none" points="-1204.46940591,673.077968469 -35.8554752669,2360.18858963" stroke="#009EE0" stroke-width="49.2" /></g><g id="PathGroup"><polyline fill="none" points="-1214.33118141,674.734888521 -38.9650180599,2371.77870368" stroke="#009EE0" stroke-width="49.5" /></g><g id="PathGroup"><polyline fill="none" points="-1224.19295691,676.391808573 -42.074560853,2383.36881772" stroke="#009EE0" stroke-width="49.8" /></g><g id="PathGroup"><polyline fill="none" points="-1234.0547324,678.048728625 -45.184103646,2394.95893177" stroke="#009EE0" stroke-width="50.1" /></g><g id="PathGroup"><polyline fill="none" points="-1243.9165079,679.705648677 -48.293646439,2406.54904582" stroke="#009EE0" stroke-width="50.4" /></g><g id="PathGroup"><polyline fill="none" points="-1253.7782834,681.362568729 -51.4031892321,2418.13915987" stroke="#009EE0" stroke-width="50.7" /></g><g id="PathGroup"><polyline fill="none" points="-1263.64005889,683.019488781 -54.5127320251,2429.72927391" stroke="#009EE0" stroke-width="51.0" /></g><g id="PathGroup"><polyline fill="none" points="-1273.50183439,684.676408833 -57.6222748182,2441.31938796" stroke="#009EE0" stroke-width="51.3" /></g><g id="PathGroup"><polyline fill="none" points="-1283.36360988,686.333328884 -60.7318176112,2452.90950201" stroke="#009EE0" stroke-width="51.6" /></g><g id="PathGroup"><polyline fill="none" points="-1293.22538538,687.990248936 -63.8413604043,2464.49961605" stroke="#009EE0" stroke-width="51.9" /></g><g id="PathGroup"><polyline fill="none" points="-1303.08716088,689.647168988 -66.9509031973,2476.0897301" stroke="#009EE0" stroke-width="52.2" /></g><g id="PathGroup"><polyline fill="none" points="-1312.94893637,691.30408904 -70.0604459904,2487.67984415" stroke="#009EE0" stroke-width="52.5" /></g><g id="PathGroup"><polyline fill="none" points="-1322.81071187,692.961009092 -73.1699887834,2499.26995819" stroke="#009EE0" stroke-width="52.8" /></g><g id="PathGroup"><polyline fill="none" points="-1332.67248737,694.617929144 -76.2795315765,2510.86007224" stroke="#009EE0" stroke-width="53.1" /></g><g id="PathGroup"><polyline fill="none" points="-1342.53426286,696.274849196 -79.3890743695,2522.45018629" stroke="#009EE0" stroke-width="53.4" /></g><g id="PathGroup"><polyline fill="none" points="-1352.39603836,697.931769248 -82.4986171626,2534.04030033" stroke="#009EE0" stroke-width="53.7" /></g><g id="PathGroup"><polyline fill="none" points="-1362.25781386,699.5886893 -85.6081599556,2545.63041438" stroke="#009EE0" stroke-width="54.0" /></g><g id="PathGroup"><polyline fill="none" points="-1372.11958935,701.245609352 -88.7177027487,2557.22052843" stroke="#009EE0" stroke-width="54.3" /></g><g id="PathGroup"><polyline fill="none" points="-1381.98136485,702.902529404 -91.8272455417,2568.81064247" stroke="#009EE0" stroke-width="54.6" /></g><g id="PathGroup"><polyline fill="none" points="-1391.84314035,704.559449456 -94.9367883348,2580.40075652" stroke="#009EE0" stroke-width="54.9" /></g><g id="PathGroup"><polyline fill="none" points="-1401.70491584,706.216369508 -98.0463311278,2591.99087057" stroke="#009EE0" stroke-width="55.2" /></g><g id="PathGroup"><polyline fill="none" points="-1411.56669134,707.87328956 -101.155873921,2603.58098461" stroke="#009EE0" stroke-width="55.5" /></g><g id="PathGroup"><polyline fill="none" points="-1421.42846683,709.530209612 -104.265416714,2615.17109866" stroke="#009EE0" stroke-width="55.8" /></g></g></svg>
