<svg baseProfile="full" height="100%" version="1.1" viewBox="0,-1,901,901" width="100%" xmlns="http://www.w3.org/2000/svg" xmlns:ev="http://www.w3.org/2001/xml-events" xmlns:xlink="http://www.w3.org/1999/xlink"><defs><clipPath id="LOGO_CLIPPATH"><rect height="901" width="901" x="0" y="-1" /></clipPath></defs><g clip-path="url(#LOGO_CLIPPATH )" id="Logo_GROUP"><g id="PathGroup"><polyline fill="none" points="0.0,0.0 10.0,10.0 99.0,99.0 135.0,135.0 177.0,177.0 206.0,206.0 289.0,289.0 332.0,332.0 383.0,383.0 415.0,415.0 460.0,460.0 544.0,544.0 591.0,591.0 633.0,633.0 694.0,694.0 709.0,709.0 767.0,767.0 802.0,802.0 900.0,900.0" stroke="#009EE0" stroke-width="0.5" /></g><g id="PathGroup"><polyline fill="none" points="-29.319323321,5.33078605836 -14.7013804852,19.0294962278 76.2785673064,117.020446619 115.393021534,155.407263301 158.615713779,198.119138717 190.861090211,226.643967894 270.615713779,310.119138717 317.329811893,353.586930789 370.996336422,406.063218785 407.354442482,437.749625277 450.186773505,486.224045945 534.604421011,566.084453705 578.973003997,617.388470345 622.477351751,655.125186413 682.008616385,720.404672295 698.452369757,731.334670274 754.072977685,791.837312537 789.308107918,824.117094641 895.170093169,926.564487573" stroke="#009EE0" stroke-width="1.5" /></g><g id="PathGroup"><polyline fill="none" points="-58.638646642,10.6615721167 -39.4027609703,28.0589924555 53.5571346128,135.040893238 95.7860430684,175.814526602 140.231427558,219.238277434 175.722180422,247.287935788 252.231427558,331.238277434 302.659623785,375.173861578 358.992672844,429.126437569 399.708884963,460.499250553 440.373547009,512.448091891 525.208842023,588.168907411 566.946007995,643.77694069 611.954703502,677.250372827 670.01723277,746.80934459 687.904739514,753.669340549 741.145955371,816.674625075 776.616215835,846.234189283 890.340186337,953.128975145" stroke="#009EE0" stroke-width="2.5" /></g><g id="PathGroup"><polyline fill="none" points="-64.1041414555,37.0884886833 30.8357019192,153.061339857 76.1790646026,196.221789903 121.847141337,240.35741615 160.583270633,267.931903682 233.847141337,352.35741615 287.989435678,396.760792367 346.989009266,452.189656354 392.063327445,483.24887583 430.560320514,538.672137836 515.813263034,610.253361116 554.919011992,670.165411035 601.432055253,699.37555924 658.025849155,773.214016885 677.357109272,776.004010823 728.218933056,841.511937612 763.924323753,868.351283924 885.510279506,979.693462718" stroke="#009EE0" stroke-width="3.5" /></g><g id="PathGroup"><polyline fill="none" points="-88.8055219406,46.1179849111 8.11426922561,171.081786476 56.5720861368,216.629053205 103.462855116,261.476554867 145.444360845,288.575871576 215.462855116,373.476554867 273.319247571,418.347723157 334.985345688,475.252875138 384.417769926,505.998501107 420.747094018,564.896183782 506.417684045,632.337814822 542.892015989,696.55388138 590.909407005,721.500745654 646.03446554,799.61868918 666.809479029,798.338681097 715.291910741,866.349250149 751.232431671,890.468378565 880.680372674,1006.25795029" stroke="#009EE0" stroke-width="4.5" /></g><g id="PathGroup"><polyline fill="none" points="-113.506902426,55.1474811388 -14.607163468,189.102233095 36.965107671,237.036316506 85.0785688944,282.595693584 130.305451056,309.21983947 197.078568894,394.595693584 258.649059463,439.934653946 322.98168211,498.316093923 376.772212408,528.748126384 410.933867523,591.120229727 497.022105056,654.422268527 530.865019986,722.942351725 580.386758756,743.625932067 634.043081925,826.023361474 656.261848786,820.673351371 702.364888426,891.186562686 738.540539589,912.585473206 875.850465843,1032.82243786" stroke="#009EE0" stroke-width="5.5" /></g><g id="PathGroup"><polyline fill="none" points="-138.208282911,64.1769773666 -37.3285961616,207.122679714 17.3581292052,257.443579807 66.6942826733,303.714832301 115.166541267,329.863807363 178.694282673,415.714832301 243.978871356,461.521584735 310.978018532,521.379312708 369.126654889,551.49775166 401.120641027,617.344275673 487.626526068,676.506722233 518.838023984,749.33082207 569.864110507,765.751118481 622.051698311,852.428033769 645.714218543,843.008021646 689.437866112,916.023875224 725.848647506,934.702567848 871.020559012,1059.38692544" stroke="#009EE0" stroke-width="6.5" /></g><g id="PathGroup"><polyline fill="none" points="-60.0500288552,225.143126333 -2.24884926057,277.850843108 48.3099964522,324.833971018 100.027631478,350.507775257 160.309996452,436.833971018 229.308683249,483.108515524 298.974354954,544.442531492 361.481097371,574.247376937 391.307414532,643.568321618 478.230947079,698.591175938 506.811027981,775.719292415 559.341462258,787.876304894 610.060314696,878.832706064 635.1665883,865.34269192 676.510843797,940.861187761 713.156755424,956.819662489 866.19065218,1085.95141301" stroke="#009EE0" stroke-width="7.5" /></g><g id="PathGroup"><polyline fill="none" points="-82.7714615488,243.163572952 -21.8558277264,298.258106409 29.9257102311,345.953109735 84.8887216891,371.151743151 141.925710231,457.953109735 214.638495141,504.695446313 286.970691376,567.505750277 353.835539852,596.997002214 381.494188036,669.792367564 468.83536809,720.675629643 494.784031978,802.10776276 548.818814009,810.001491308 598.068931081,905.237378359 624.618958058,887.677362194 663.583821482,965.698500298" stroke="#009EE0" stroke-width="8.5" /></g><g id="PathGroup"><polyline fill="none" points="-105.492894242,261.184019572 -41.4628061922,318.66536971 11.54142401,367.072248451 69.7498119002,391.795711045 123.54142401,479.072248451 199.968307034,526.282377102 274.967027798,590.568969062 346.189982334,619.746627491 371.680961541,696.016413509 459.439789102,742.760083349 482.757035976,828.496233105 538.29616576,832.126677721 586.077547466,931.642050654 614.071327815,910.012032469 650.656799167,990.535812836" stroke="#009EE0" stroke-width="9.5" /></g><g id="PathGroup"><polyline fill="none" points="-61.069784658,339.072633011 -6.84286221114,388.191387168 54.6109021114,412.439678939 105.157137789,500.191387168 185.298118927,547.869307891 262.96336422,613.632187846 338.544424815,642.496252767 361.867735046,722.240459455 450.044210113,764.844537054 470.730039973,854.88470345 527.773517511,854.251864135 574.086163851,958.046722949 603.523697572,932.346702743 637.729776853,1015.37312537" stroke="#009EE0" stroke-width="10.5" /></g><g id="PathGroup"><polyline fill="none" points="-80.6767631238,359.479896312 -25.2271484323,409.310525885 39.4719923225,433.083646833 86.7728515677,521.310525885 170.627930819,569.456238681 250.959700642,636.695406631 330.898867297,665.245878044 352.05450855,748.4645054 440.648631124,786.92899076 458.70304397,881.273173795 517.250869263,876.377050548 562.094780236,984.451395244 592.976067329,954.681373017 624.802754538,1040.21043791" stroke="#009EE0" stroke-width="11.5" /></g><g id="PathGroup"><polyline fill="none" points="-100.28374159,379.887159614 -43.6114346534,430.429664602 24.3330825336,453.727614727 68.3885653466,542.429664602 155.957742712,591.04316947 238.956037064,659.758625415 323.253309778,687.995503321 342.241282055,774.688551345 431.253052135,809.013444465 446.676047967,907.66164414 506.728221014,898.502236962 550.103396621,1010.85606754" stroke="#009EE0" stroke-width="12.5" /></g><g id="PathGroup"><polyline fill="none" points="-119.890720055,400.294422915 -61.9957208745,451.548803319 9.19417274476,474.371582621 50.0042791255,563.548803319 141.287554604,612.630100259 226.952373487,682.8218442 315.60775226,710.745128597 332.428055559,800.912597291 421.857473147,831.09789817 434.649051965,934.050114485 496.205572765,920.627423375 538.112013006,1037.26073983" stroke="#009EE0" stroke-width="13.5" /></g><g id="PathGroup"><polyline fill="none" points="-80.3800070956,472.667942035 -5.9447370441,495.015550515 31.6199929044,584.667942035 126.617366497,634.217031048 214.948709909,705.885062985 307.962194741,733.494753874 322.614829064,827.136643236 412.461894158,853.182351876 422.622055962,960.43858483 485.682924516,942.752609789 526.120629391,1063.66541213" stroke="#009EE0" stroke-width="14.5" /></g><g id="PathGroup"><polyline fill="none" points="-98.7642933167,493.787080752 -21.083646833,515.659518409 13.2357066833,605.787080752 111.94717839,655.803961837 202.945046331,728.948281769 300.316637223,756.244379151 312.801602568,853.360689182 403.066315169,875.266805581 410.595059959,986.827055175 475.160276267,964.877796202 514.129245776,1090.07008442" stroke="#009EE0" stroke-width="15.5" /></g><g id="PathGroup"><polyline fill="none" points="-117.148579538,514.906219469 -36.2225566218,536.303486302 -5.14857953782,626.906219469 97.2769902824,677.390892626 190.941382753,752.011500554 292.671079704,778.994004428 302.988376073,879.584735127 393.670736181,897.351259287 398.568063957,1013.21552552" stroke="#009EE0" stroke-width="16.5" /></g><g id="PathGroup"><polyline fill="none" points="-135.532865759,536.025358186 -51.3614664107,556.947454196 -23.5328657589,648.025358186 82.6068021751,698.977823415 178.937719175,775.074719339 285.025522186,801.743629704 293.175149577,905.808781073 384.275157192,919.435712992 386.541067954,1039.60399587" stroke="#009EE0" stroke-width="17.5" /></g><g id="PathGroup"><polyline fill="none" points="-153.91715198,557.144496903 -66.5003761996,577.59142209 -41.9171519801,669.144496903 67.9366140677,720.564754204 166.934055597,798.137938123 277.379964667,824.493254981 283.361923082,932.032827018 374.879578203,941.520166698 374.514071951,1065.99246621" stroke="#009EE0" stroke-width="18.5" /></g><g id="PathGroup"><polyline fill="none" points="-81.6392859884,598.235389984 -60.3014382012,690.26363562 53.2664259604,742.151684994 154.930392019,821.201156908 269.734407149,847.242880258 273.548696587,958.256872964 365.483999215,963.604620403 362.487075948,1092.38093656" stroke="#009EE0" stroke-width="19.5" /></g><g id="PathGroup"><polyline fill="none" points="-78.6857244223,711.382774336 38.5962378531,763.738615783 142.926728441,844.264375692 262.08884963,869.992505535 263.735470091,984.480918909" stroke="#009EE0" stroke-width="20.5" /></g><g id="PathGroup"><polyline fill="none" points="-97.0700106434,732.501913053 23.9260497457,785.325546572 130.923064863,867.327594477 254.443292112,892.742130811 253.922243596,1010.70496485" stroke="#009EE0" stroke-width="21.5" /></g><g id="PathGroup"><polyline fill="none" points="-115.454296865,753.62105177 9.25586163836,806.912477361 118.919401285,890.390813262 246.797734593,915.491756088 244.1090171,1036.9290108" stroke="#009EE0" stroke-width="22.5" /></g><g id="PathGroup"><polyline fill="none" points="-133.838583086,774.740190487 -5.41432646899,828.49940815 106.915737707,913.454032046 239.152177075,938.241381365 234.295790605,1063.15305675" stroke="#009EE0" stroke-width="23.5" /></g><g id="PathGroup"><polyline fill="none" points="-152.222869307,795.859329204 -20.0845145763,850.086338939 94.912074129,936.517250831 231.506619556,960.991006641 224.482564109,1089.37710269" stroke="#009EE0" stroke-width="24.5" /></g><g id="PathGroup"><polyline fill="none" points="-170.607155528,816.97846792 -34.7547026837,871.673269728 82.908410551,959.580469615 223.861062038,983.740631918" stroke="#009EE0" stroke-width="25.5" /></g><g id="PathGroup"><polyline fill="none" points="-188.991441749,838.097606637 -49.424890791,893.260200518 70.9047469731,982.6436884" stroke="#009EE0" stroke-width="26.5" /></g><g id="PathGroup"><polyline fill="none" points="-207.37572797,859.216745354 -64.0950788984,914.847131307 58.9010833951,1005.70690718" stroke="#009EE0" stroke-width="27.5" /></g><g id="PathGroup"><polyline fill="none" points="-78.7652670057,936.434062096 46.8974198171,1028.77012597" stroke="#009EE0" stroke-width="28.5" /></g><g id="PathGroup"><polyline fill="none" points="-93.4354551131,958.020992885 34.8937562392,1051.83334475" stroke="#009EE0" stroke-width="29.5" /></g></g></svg>
