<svg baseProfile="full" height="100%" version="1.1" viewBox="0,-1,901,901" width="100%" xmlns="http://www.w3.org/2000/svg" xmlns:ev="http://www.w3.org/2001/xml-events" xmlns:xlink="http://www.w3.org/1999/xlink"><defs><clipPath id="LOGO_CLIPPATH"><rect height="901" width="901" x="0" y="-1" /></clipPath></defs><g clip-path="url(#LOGO_CLIPPATH )" id="Logo_GROUP"><g id="PathGroup"><polyline fill="none" points="0.0,0.0 5.0,5.0 68.0,68.0 106.0,106.0 157.0,157.0 218.0,218.0 283.0,283.0 309.0,309.0 374.0,374.0 408.0,408.0 464.0,464.0 525.0,525.0 555.0,555.0 645.0,645.0 687.0,687.0 712.0,712.0 798.0,798.0 837.0,837.0 900.0,900.0" stroke="#009EE0" stroke-width="0.5" /></g><g id="PathGroup"><polyline fill="none" points="-25.7773916446,4.68679848084 -20.0645354738,9.69244728049 41.4255379874,72.7747218498 79.4903539701,109.934293757 129.18612152,160.223067463 192.953790579,219.642374388 258.049402593,284.570887981 287.813011897,320.485710039 357.398807309,391.33206281 392.381007037,426.222158457 449.349803155,489.027419611 510.603465382,547.959742834 541.794791228,579.69053384 635.133729097,668.622377071 678.656448585,711.624888828 707.10384658,737.127428871 792.234278062,825.399935229 831.149351462,864.075079163 894.812322292,928.532227393" stroke="#009EE0" stroke-width="1.5" /></g><g id="PathGroup"><polyline fill="none" points="-51.5547832892,9.37359696168 -45.1290709477,14.384894561 14.8510759749,77.5494436996 52.9807079401,113.868587514 101.372243039,163.446134927 167.907581158,221.284748777 233.098805187,286.141775961 266.626023793,331.971420079 340.797614618,408.664125619 376.762014074,444.444316914 434.699606309,514.054839222 496.206930764,570.919485668 528.589582457,604.38106768 625.267458194,692.244754141 670.312897169,736.249777655 702.20769316,762.254857743 786.468556124,852.799870457 825.298702925,891.150158326 889.624644584,957.064454786" stroke="#009EE0" stroke-width="2.5" /></g><g id="PathGroup"><polyline fill="none" points="-70.1936064215,19.0773418415 -11.7233860377,82.3241655494 26.4710619102,117.802881271 73.5583645586,166.66920239 142.861371737,222.927123165 208.14820778,287.712663942 245.43903569,343.457130118 324.196421927,425.996188429 361.143021111,462.66647537 420.049409464,539.082258833 481.810396146,593.879228501 515.384373685,629.07160152 615.401187291,715.867131212 661.969345754,760.874666483 697.311539741,787.382286614 780.702834185,880.199805686 819.448054387,918.225237489 884.436966877,985.596682179" stroke="#009EE0" stroke-width="3.5" /></g><g id="PathGroup"><polyline fill="none" points="-95.2581418954,23.769789122 -38.2978480502,87.0988873992 -0.0385841197734,121.737175028 45.7444860781,169.892269854 117.815162315,224.569497553 183.197610373,289.283551923 224.252047587,354.942840158 307.595229236,443.328251238 345.524028148,480.888633827 405.399212618,564.109678444 467.413861528,616.838971335 502.179164914,653.76213536 605.534916388,739.489508283 653.625794338,785.499555311 692.415386321,812.509715486 774.937112247,907.599740914 813.59740585,945.300316653 879.249289169,1014.12890957" stroke="#009EE0" stroke-width="4.5" /></g><g id="PathGroup"><polyline fill="none" points="-64.8723100628,91.873609249 -26.5482301497,125.671468785 17.9306075976,173.115337317 92.7689528942,226.211871941 158.247012966,290.854439903 203.065059483,366.428550197 290.994036545,460.660314048 329.905035185,499.110792284 390.749015773,589.137098055 453.01732691,639.798714169 488.973956142,678.4526692 595.668645485,763.111885353 645.282242923,810.124444139 687.519232901,837.637144357 769.171390309,934.999676143 807.746757312,972.375395816" stroke="#009EE0" stroke-width="5.5" /></g><g id="PathGroup"><polyline fill="none" points="-91.4467720754,96.6483310988 -53.0578761797,129.605762543 -9.88327088282,176.33840478 67.722743473,227.85424633 133.29641556,292.425327884 181.87807138,377.914260236 274.392843854,477.992376857 314.286042222,517.332950741 376.098818927,614.164517666 438.620792292,662.758457003 475.768747371,703.14320304 585.802374582,786.734262424 636.938691508,834.749332966 682.623079481,862.764573229 763.405668371,962.399611372" stroke="#009EE0" stroke-width="6.5" /></g><g id="PathGroup"><polyline fill="none" points="-79.5675222096,133.5400563 -37.6971493633,179.561472244 42.6765340519,229.496620718 108.345818153,293.996215864 160.691083277,389.399970276 257.791651163,495.324439667 298.667049259,535.555109197 361.448622082,639.191937277 424.224257674,685.718199837 462.563538599,727.833736879 575.936103679,810.356639495 628.595140092,859.374221794 677.726926061,887.8920021 757.639946432,989.7995466" stroke="#009EE0" stroke-width="7.5" /></g><g id="PathGroup"><polyline fill="none" points="-65.5110278438,182.784539707 17.6303246307,231.138995106 83.3952207462,295.567103845 139.504095173,400.885680315 241.190458471,512.656502476 283.048056296,553.777267654 346.798425236,664.219356888 409.827723056,708.67794267 449.358329828,752.524270719 566.069832776,833.979016565 620.251588677,883.999110622 672.830772642,913.019430972 751.874224494,1017.19948183" stroke="#009EE0" stroke-width="8.5" /></g><g id="PathGroup"><polyline fill="none" points="-93.3249063242,186.007607171 -7.41588479047,232.781369494 58.4446233395,297.137991826 118.31710707,412.371390355 224.58926578,529.988565286 267.429063334,571.999426111 332.148228391,689.2467765 395.431188439,731.637685504 436.153121056,777.214804559 556.203561873,857.601393636 611.908037262,908.62399945 667.934619222,938.146859843 746.108502556,1044.59941706" stroke="#009EE0" stroke-width="9.5" /></g><g id="PathGroup"><polyline fill="none" points="-121.138784805,189.230674634 -32.4620942116,234.423743883 33.4940259328,298.708879806 97.1301189667,423.857100394 207.988073089,547.320628095 251.810070371,590.221584568 317.498031545,714.274196111 381.034653821,754.597428338 422.947912285,801.905338399 546.33729097,881.223770707 603.564485846,933.248888277 663.038465802,963.274288714" stroke="#009EE0" stroke-width="10.5" /></g><g id="PathGroup"><polyline fill="none" points="-148.952663285,192.453742097 -57.5083036328,236.066118271 8.54342852606,300.279767787 75.9431308634,435.342810433 191.386880398,564.652690905 236.191077408,608.443743024 302.8478347,739.301615722 366.638119203,777.557171172 409.742703513,826.595872239 536.471020067,904.846147777 595.220934431,957.873777105 658.142312382,988.401717586" stroke="#009EE0" stroke-width="11.5" /></g><g id="PathGroup"><polyline fill="none" points="-82.554513054,237.708492659 -16.4071688807,301.850655768 54.75614276,446.828520473 174.785687707,581.984753715 220.572084445,626.665901481 288.197637854,764.329035333 352.241584585,800.516914006 396.537494742,851.286406079 526.604749164,928.468524848 586.877383015,982.498665933" stroke="#009EE0" stroke-width="12.5" /></g><g id="PathGroup"><polyline fill="none" points="-107.600722475,239.350867048 -41.3577662874,303.421543748 33.5691546567,458.314230512 158.184495016,599.316816524 204.953091482,644.888059938 273.547441009,789.356454944 337.845049967,823.476656839 383.33228597,875.976939919 516.738478261,952.090901919 578.5338316,1007.12355476" stroke="#009EE0" stroke-width="13.5" /></g><g id="PathGroup"><polyline fill="none" points="-66.3083636941,304.992431729 12.3821665534,469.799940552 141.583302325,616.648879334 189.334098519,663.110218395 258.897244163,814.383874555 323.448515349,846.436399673 370.127077199,900.667473759 506.872207358,975.713278989" stroke="#009EE0" stroke-width="14.5" /></g><g id="PathGroup"><polyline fill="none" points="-91.2589611008,306.56331971 -8.80482154994,481.285650591 124.982109634,633.980942143 173.715105556,681.332376852 244.247047318,839.411294166 309.051980731,869.396142507 356.921868427,925.358007599 497.005936455,999.33565606" stroke="#009EE0" stroke-width="15.5" /></g><g id="PathGroup"><polyline fill="none" points="-116.209558508,308.13420769 -29.9918096533,492.771360631 108.380916943,651.313004953 158.096112593,699.554535308 229.596850472,864.438713777 294.655446113,892.355885341 343.716659656,950.048541439 487.139665552,1022.95803313" stroke="#009EE0" stroke-width="16.5" /></g><g id="PathGroup"><polyline fill="none" points="-141.160155914,309.705095671 -51.1787977566,504.25707067 91.7797242518,668.645067762 142.47711963,717.776693765 214.946653627,889.466133388 280.258911495,915.315628175 330.511450884,974.739075279" stroke="#009EE0" stroke-width="17.5" /></g><g id="PathGroup"><polyline fill="none" points="-72.3657858599,515.742780709 75.1785315608,685.977130572 126.858126667,735.998852222 200.296456781,914.493552999 265.862376877,938.275371008 317.306242112,999.429609119" stroke="#009EE0" stroke-width="18.5" /></g><g id="PathGroup"><polyline fill="none" points="-93.5527739633,527.228490749 58.5773388697,703.309193381 111.239133704,754.221010679 185.646259936,939.52097261 251.465842259,961.235113842 304.101033341,1024.12014296" stroke="#009EE0" stroke-width="19.5" /></g><g id="PathGroup"><polyline fill="none" points="-114.739762067,538.714200788 41.9761461786,720.641256191 95.6201407411,772.443169135 170.99606309,964.548392221 237.069307641,984.194856676" stroke="#009EE0" stroke-width="20.5" /></g><g id="PathGroup"><polyline fill="none" points="-135.92675017,550.199910828 25.3749534875,737.973319 80.0011477782,790.665327592 156.345866245,989.575811832" stroke="#009EE0" stroke-width="21.5" /></g><g id="PathGroup"><polyline fill="none" points="-157.113738273,561.685620867 8.77376079647,755.30538181 64.3821548152,808.887486049 141.695669399,1014.60323144" stroke="#009EE0" stroke-width="22.5" /></g><g id="PathGroup"><polyline fill="none" points="-178.300726377,573.171330906 -7.8274318946,772.63744462 48.7631618523,827.109644506 127.045472554,1039.63065105" stroke="#009EE0" stroke-width="23.5" /></g><g id="PathGroup"><polyline fill="none" points="-199.48771448,584.657040946 -24.4286245857,789.969507429 33.1441688894,845.331802962 112.395275708,1064.65807067" stroke="#009EE0" stroke-width="24.5" /></g><g id="PathGroup"><polyline fill="none" points="-220.674702583,596.142750985 -41.0298172767,807.301570239 17.5251759264,863.553961419 97.7450788625,1089.68549028" stroke="#009EE0" stroke-width="25.5" /></g><g id="PathGroup"><polyline fill="none" points="-241.861690687,607.628461025 -57.6310099678,824.633633048 1.90618296348,881.776119876 83.094882017,1114.71290989" stroke="#009EE0" stroke-width="26.5" /></g><g id="PathGroup"><polyline fill="none" points="-263.04867879,619.114171064 -74.2322026589,841.965695858 -13.7128099995,899.998278333 68.4446851715,1139.7403295" stroke="#009EE0" stroke-width="27.5" /></g><g id="PathGroup"><polyline fill="none" points="-90.8333953499,859.297758667 -29.3318029624,918.220436789 53.794488326,1164.76774911" stroke="#009EE0" stroke-width="28.5" /></g><g id="PathGroup"><polyline fill="none" points="-107.434588041,876.629821477 -44.9507959254,936.442595246 39.1442914805,1189.79516872" stroke="#009EE0" stroke-width="29.5" /></g><g id="PathGroup"><polyline fill="none" points="-124.035780732,893.961884286 -60.5697888883,954.664753703 24.494094635,1214.82258833" stroke="#009EE0" stroke-width="30.5" /></g><g id="PathGroup"><polyline fill="none" points="-140.636973423,911.293947096 -76.1887818512,972.88691216 9.84389778953,1239.85000794" stroke="#009EE0" stroke-width="31.5" /></g></g></svg>
