<svg baseProfile="full" height="100%" version="1.1" viewBox="0,-1,901,901" width="100%" xmlns="http://www.w3.org/2000/svg" xmlns:ev="http://www.w3.org/2001/xml-events" xmlns:xlink="http://www.w3.org/1999/xlink"><defs><clipPath id="LOGO_CLIPPATH"><rect height="901" width="901" x="0" y="-1" /></clipPath></defs><g clip-path="url(#LOGO_CLIPPATH )" id="Logo_GROUP"><g id="PathGroup"><polyline fill="none" points="0.0,0.0 36.0,36.0 87.0,87.0 119.0,119.0 186.0,186.0 240.0,240.0 270.0,270.0 318.0,318.0 385.0,385.0 404.0,404.0 482.0,482.0 541.0,541.0 552.0,552.0 639.0,639.0 664.0,664.0 734.0,734.0 793.0,793.0 842.0,842.0 900.0,900.0" stroke="#009EE0" stroke-width="0.5" /></g><g id="PathGroup"><polyline fill="none" points="-27.6467444738,5.02668081342 10.7685320985,43.7674337805 60.8795810958,99.5985600872 96.6568315684,130.868985822 160.322939657,197.166403725 217.68766625,252.550687735 251.390264135,290.920748816 298.903849534,336.51747924 365.706691131,402.428948129 386.622661148,421.270729412 468.564370656,503.082785967 528.87516399,562.058925702 546.179144999,575.283420003 632.185786075,662.012311674 657.213476502,690.133180036 729.585199512,757.99728186 787.263831685,820.406137507 836.470222283,866.175639772 895.348978607,925.580617663" stroke="#009EE0" stroke-width="1.5" /></g><g id="PathGroup"><polyline fill="none" points="-55.2934889476,10.0533616268 -14.462935803,51.5348675611 34.7591621917,112.197120174 74.3136631368,142.737971643 134.645879314,208.33280745 195.375332499,265.101375469 232.780528269,311.841497632 279.807699068,355.034958479 346.413382262,419.857896258 369.245322295,438.541458823 455.128741312,524.165571934 516.750327979,583.117851404 540.358289998,598.566840007 625.371572149,685.024623348 650.426953004,716.266360073 725.170399024,781.994563719 781.527663369,847.812275014 830.940444565,890.351279544 890.697957214,951.161235325" stroke="#009EE0" stroke-width="2.5" /></g><g id="PathGroup"><polyline fill="none" points="-82.9402334214,15.0800424403 -39.6944037045,59.3023013416 8.63874328748,124.795680262 51.9704947052,154.606957465 108.968818972,219.499211176 173.062998749,277.652063204 214.170792404,332.762246448 260.711548603,373.552437719 327.120073393,437.286844387 351.867983443,455.812188235 441.693111968,545.248357901 504.625491969,604.176777106 534.537434997,621.85026001 618.557358224,708.036935022 643.640429507,742.399540109 720.755598536,805.991845579 775.791495054,875.218412521 825.410666848,914.526919317 886.04693582,976.741852988" stroke="#009EE0" stroke-width="3.5" /></g><g id="PathGroup"><polyline fill="none" points="-64.925871606,67.0697351222 -17.4816756167,137.394240349 29.6273262736,166.475943287 83.291758629,230.665614901 150.750664998,290.202750938 195.561056539,353.682995264 241.615398137,392.069916958 307.826764524,454.715792516 334.49064459,473.082917646 428.257482623,566.331143868 492.500655959,625.235702808 528.716579997,645.133680014 611.743144298,731.049246696 636.853906009,768.532720145 716.340798049,829.989127439 770.055326738,902.624550028 819.880889131,938.702559089 881.395914427,1002.32247065" stroke="#009EE0" stroke-width="4.5" /></g><g id="PathGroup"><polyline fill="none" points="-90.1573395075,74.8371689027 -43.6020945209,149.992800436 7.28415784194,178.344929109 57.6146982862,241.832018626 128.438331248,302.753438673 176.951320673,374.60374408 222.519247671,410.587396198 288.533455655,472.144740645 317.113305738,490.353647058 414.821853279,587.413929835 480.375819949,646.29462851 522.895724996,668.417100017 604.928930373,754.06155837 630.067382511,794.665900182 711.925997561,853.986409298 764.319158423,930.030687535 814.351111414,962.878198861" stroke="#009EE0" stroke-width="5.5" /></g><g id="PathGroup"><polyline fill="none" points="-69.722513425,162.591360523 -15.0590105897,190.21391493 31.9376379435,252.998422351 106.125997498,315.304126408 158.341584808,395.524492896 203.423097205,429.104875437 269.240146786,489.573688774 299.735966886,507.62437647 401.386223935,608.496715801 468.250983938,667.353554212 517.074869995,691.700520021 598.114716448,777.073870044 623.280859013,820.799080218 707.511197073,877.983691158 758.582990107,957.436825042" stroke="#009EE0" stroke-width="6.5" /></g><g id="PathGroup"><polyline fill="none" points="-95.8429323292,175.18992061 -37.4021790213,202.082900752 6.26057760071,264.164826077 83.8136637473,327.854814142 139.731848942,416.445241712 184.326946739,447.622354677 249.946837917,507.002636904 282.358628033,524.895105881 387.950594591,629.579501768 456.126147928,688.412479914 511.254014994,714.983940024 591.300502522,800.086181718 616.494335515,846.932260255 703.096396585,901.980973018 752.846821792,984.84296255" stroke="#009EE0" stroke-width="7.5" /></g><g id="PathGroup"><polyline fill="none" points="-59.7453474529,213.951886574 -19.416482742,275.331229802 61.5013299969,340.405501877 121.122113077,437.365990528 165.230796274,466.139833916 230.653529048,524.431585033 264.981289181,542.165835293 374.514965247,650.662287735 444.001311918,709.471405616 505.433159993,738.267360028 584.486288597,823.098493392 609.707812017,873.065440291 698.681596097,925.978254877 747.110653477,1012.24910006" stroke="#009EE0" stroke-width="8.5" /></g><g id="PathGroup"><polyline fill="none" points="-82.0885158845,225.820872396 -45.0935430848,286.497633527 39.1889962465,352.956189611 102.512377212,458.286739344 146.134645808,484.657313156 211.360220179,541.860533162 247.603950328,559.436564704 361.079335903,671.745073702 431.876475908,730.530331318 499.612304992,761.550780031 577.672074672,846.110805066 602.92128852,899.198620327 694.266795609,949.975536737 741.374485161,1039.65523756" stroke="#009EE0" stroke-width="9.5" /></g><g id="PathGroup"><polyline fill="none" points="-70.7706034276,297.664037252 16.8766624961,365.506877346 83.9026413463,479.20748816 127.038495342,503.174792396 192.06691131,559.289481291 230.226611476,576.707294116 347.643706558,692.827859669 419.751639897,751.58925702 493.791449991,784.834200035 570.857860746,869.12311674 596.134765022,925.331800364 689.851995122,973.972818597" stroke="#009EE0" stroke-width="10.5" /></g><g id="PathGroup"><polyline fill="none" points="-96.4476637703,308.830440977 -5.43567125427,378.057565081 65.2929054809,500.128236976 107.942344876,521.692271635 172.773602441,576.71842942 212.849272624,593.978023528 334.208077214,713.910645636 407.626803887,772.648182722 487.97059499,808.117620038 564.043646821,892.135428413 589.348241524,951.4649804 685.437194634,997.970100456" stroke="#009EE0" stroke-width="11.5" /></g><g id="PathGroup"><polyline fill="none" points="-122.124724113,319.996844703 -27.7480050047,390.608252815 46.6831696155,521.048985792 88.8461944104,540.209750875 153.480293572,594.147377549 195.471933771,611.248752939 320.77244787,734.993431603 395.501967877,793.707108425 482.14973999,831.401040042 557.229432895,915.147740087 582.561718026,977.598160436" stroke="#009EE0" stroke-width="12.5" /></g><g id="PathGroup"><polyline fill="none" points="-147.801784456,331.163248428 -50.060338755,403.15894055 28.0734337502,541.969734608 69.7500439446,558.727230114 134.186984703,611.576325678 178.094594919,628.519482351 307.336818526,756.07621757 383.377131867,814.766034127 476.328884989,854.684460045 550.41521897,938.160051761 575.775194528,1003.73134047" stroke="#009EE0" stroke-width="13.5" /></g><g id="PathGroup"><polyline fill="none" points="-72.3726725054,415.709628284 9.46369788479,562.890483424 50.6538934788,577.244709354 114.893675834,629.005273807 160.717256066,645.790211762 293.901189182,777.159003537 371.252295856,835.824959829 470.508029988,877.967880049 543.601005045,961.172363435 568.988671031,1029.86452051" stroke="#009EE0" stroke-width="14.5" /></g><g id="PathGroup"><polyline fill="none" points="-94.6850062558,428.260316019 -9.14603798058,583.81123224 31.557743013,595.762188593 95.6003669653,646.434221936 143.339917214,663.060941174 280.465559838,798.241789504 359.127459846,856.883885531 464.687174987,901.251300052 536.786791119,984.184675109" stroke="#009EE0" stroke-width="15.5" /></g><g id="PathGroup"><polyline fill="none" points="-116.997340006,440.811003753 -27.755773846,604.731981056 12.4615925472,614.279667833 76.3070580963,663.863170065 125.962578361,680.331670586 267.029930494,819.324575471 347.002623836,877.942811233 458.866319986,924.534720056 529.972577194,1007.19698678" stroke="#009EE0" stroke-width="16.5" /></g><g id="PathGroup"><polyline fill="none" points="-139.309673757,453.361691488 -46.3655097113,625.652729872 -6.63455791857,632.797147073 57.0137492273,681.292118194 108.585239509,697.602399997 253.594301149,840.407361437 334.877787825,899.001736935 453.045464985,947.818140059 523.158363268,1030.20929846" stroke="#009EE0" stroke-width="17.5" /></g><g id="PathGroup"><polyline fill="none" points="-161.622007507,465.912379223 -64.9752455767,646.573478688 -25.7307083844,651.314626312 37.7204403584,698.721066323 91.2079006566,714.873129409 240.158671805,861.490147404 322.752951815,920.060662637 447.224609984,971.101560063" stroke="#009EE0" stroke-width="18.5" /></g><g id="PathGroup"><polyline fill="none" points="-83.5849814421,667.494227504 -44.8268588502,669.832105552 18.4271314894,716.150014452 73.8305618042,732.14385882 226.723042461,882.572933371 310.628115805,941.119588339 441.403754983,994.384980066" stroke="#009EE0" stroke-width="19.5" /></g><g id="PathGroup"><polyline fill="none" points="-102.194717307,688.414976319 -63.923009316,688.349584791 -0.866177379608,733.578962582 56.4532229518,749.414588232 213.287413117,903.655719338 298.503279795,962.178514041 435.582899983,1017.66840007" stroke="#009EE0" stroke-width="20.5" /></g><g id="PathGroup"><polyline fill="none" points="-83.0191597818,706.867064031 -20.1594862486,751.007910711 39.0758840994,766.685317644 199.851783773,924.738505305 286.378443784,983.237439743" stroke="#009EE0" stroke-width="21.5" /></g><g id="PathGroup"><polyline fill="none" points="-102.115310248,725.38454327 -39.4527951176,768.43685884 21.698545247,783.956047055 186.416154429,945.821291272 274.253607774,1004.29636544" stroke="#009EE0" stroke-width="22.5" /></g><g id="PathGroup"><polyline fill="none" points="-121.211460713,743.90202251 -58.7461039865,785.865806969 4.3212063946,801.226776467 172.980525085,966.904077239 262.128771764,1025.35529115" stroke="#009EE0" stroke-width="23.5" /></g><g id="PathGroup"><polyline fill="none" points="-78.0394128555,803.294755098 -13.0561324578,818.497505878 159.54489574,987.986863206" stroke="#009EE0" stroke-width="24.5" /></g><g id="PathGroup"><polyline fill="none" points="-97.3327217245,820.723703227 -30.4334713102,835.76823529 146.109266396,1009.06964917" stroke="#009EE0" stroke-width="25.5" /></g><g id="PathGroup"><polyline fill="none" points="-116.626030593,838.152651356 -47.8108101626,853.038964702 132.673637052,1030.15243514" stroke="#009EE0" stroke-width="26.5" /></g><g id="PathGroup"><polyline fill="none" points="-135.919339462,855.581599485 -65.188149015,870.309694113 119.238007708,1051.23522111" stroke="#009EE0" stroke-width="27.5" /></g><g id="PathGroup"><polyline fill="none" points="-82.5654878674,887.580423525 105.802378364,1072.31800707" stroke="#009EE0" stroke-width="28.5" /></g><g id="PathGroup"><polyline fill="none" points="-99.9428267198,904.851152936 92.3667490196,1093.40079304" stroke="#009EE0" stroke-width="29.5" /></g><g id="PathGroup"><polyline fill="none" points="-117.320165572,922.121882348 78.9311196754,1114.48357901" stroke="#009EE0" stroke-width="30.5" /></g><g id="PathGroup"><polyline fill="none" points="-134.697504425,939.392611759 65.4954903313,1135.56636497" stroke="#009EE0" stroke-width="31.5" /></g></g></svg>
