<svg baseProfile="full" height="100%" version="1.1" viewBox="0,-1,901,901" width="100%" xmlns="http://www.w3.org/2000/svg" xmlns:ev="http://www.w3.org/2001/xml-events" xmlns:xlink="http://www.w3.org/1999/xlink"><defs><clipPath id="LOGO_CLIPPATH"><rect height="901" width="901" x="0" y="-1" /></clipPath></defs><g clip-path="url(#LOGO_CLIPPATH )" id="Logo_GROUP"><g id="PathGroup"><polyline fill="none" points="0.0,0.0 38.0,38.0 84.0,84.0 123.0,123.0 187.0,187.0 231.0,231.0 283.0,283.0 340.0,340.0 391.0,391.0 423.0,423.0 498.0,498.0 514.0,514.0 565.0,565.0 611.0,611.0 684.0,684.0 718.0,718.0 788.0,788.0 836.0,836.0 900.0,900.0" stroke="#009EE0" stroke-width="0.5" /></g><g id="PathGroup"><polyline fill="none" points="-23.7112648334,4.31113906062 14.7705066343,44.0324653314 59.2451642414,91.9497236786 99.4148000641,131.587685601 160.813724091,196.913574231 206.482758954,240.791061817 255.878499952,293.267630453 315.25279608,349.477652565 366.956207371,400.894242569 402.319589129,436.136613195 478.435670202,511.900971173 494.394197496,527.842416991 542.972202447,578.812173434 589.381798997,623.949648079 677.283004708,712.211380226 710.898857541,743.634620648 780.118004447,813.823906484 829.096822811,861.377867221 894.812322292,928.532227393" stroke="#009EE0" stroke-width="1.5" /></g><g id="PathGroup"><polyline fill="none" points="-47.4225296668,8.62227812124 -8.45898673133,50.0649306628 34.4903284828,99.8994473571 75.8296001281,140.175371202 134.627448182,206.827148461 181.965517908,250.582123634 228.756999903,303.535260906 290.50559216,358.95530513 342.912414742,410.788485139 381.639178259,449.273226389 458.871340403,525.801942345 474.788394991,541.684833983 520.944404895,592.624346868 567.763597993,636.899296159 670.566009416,740.422760452 703.797715083,769.269241297 772.236008893,839.647812968 822.193645621,886.755734442 889.624644584,957.064454786" stroke="#009EE0" stroke-width="2.5" /></g><g id="PathGroup"><polyline fill="none" points="-71.1337945002,12.9334171819 -31.688480097,56.0973959942 9.73549272425,107.849171036 52.2444001922,148.763056803 108.441172273,216.740722692 157.448276863,260.373185451 201.635499855,313.802891359 265.75838824,368.432957695 318.868622113,420.682727708 360.958767388,462.409839584 439.307010605,539.702913518 455.182592487,555.527250974 498.916607342,606.436520303 546.14539699,649.848944238 663.849014124,768.634140678 696.696572624,794.903861945 764.35401334,865.471719452 815.290468432,912.133601663 884.436966877,985.596682179" stroke="#009EE0" stroke-width="3.5" /></g><g id="PathGroup"><polyline fill="none" points="-54.9179734627,62.1298613256 -15.0193430343,115.798894714 28.6592002563,157.350742404 82.2548963646,226.654296922 132.931035817,270.164247268 174.513999806,324.070521812 241.01118432,377.91061026 294.824829485,430.576970277 340.278356518,475.546452778 419.742680806,553.60388469 435.576789983,569.369667965 476.888809789,620.248693737 524.527195987,662.798592318 657.132018832,796.845520904 689.595430166,820.538482593 756.472017787,891.295625936 808.387291243,937.511468884 879.249289169,1014.12890957" stroke="#009EE0" stroke-width="4.5" /></g><g id="PathGroup"><polyline fill="none" points="-78.1474668283,68.162326657 -39.7741787929,123.748618393 5.07400032032,165.938428005 56.0686204558,236.567871153 108.413794771,279.955309085 147.392499758,334.338152266 216.2639804,387.388262825 270.781036856,440.471212847 319.597945647,488.683065973 400.178351008,567.504855863 415.970987478,583.212084956 454.861012236,634.060867171 502.908994984,675.748240397 650.415023541,825.056901129 682.494287707,846.173103242 748.590022233,917.11953242 801.484114053,962.889336106" stroke="#009EE0" stroke-width="5.5" /></g><g id="PathGroup"><polyline fill="none" points="-64.5290145515,131.698342071 -18.5111996156,174.526113606 29.8823445469,246.481445384 83.8965537254,289.746370902 120.270999709,344.605782719 191.51677648,396.865915391 246.737244227,450.365455416 298.917534776,501.819679167 380.61402121,581.405827035 396.365184974,597.054501948 432.833214684,647.873040605 481.29079398,688.697888477 643.698028249,853.268281355 675.393145249,871.80772389 740.70802668,942.943438904 794.580936864,988.267203327" stroke="#009EE0" stroke-width="6.5" /></g><g id="PathGroup"><polyline fill="none" points="-89.2838503101,139.64806575 -42.0963995516,183.113799207 3.69606863806,256.395019614 59.3793126797,299.537432719 93.1494996609,354.873413172 166.76957256,406.343567956 222.693451598,460.259697985 278.237123906,514.956292362 361.049691411,595.306798208 376.759382469,610.896918939 410.805417131,661.685214039 459.672592977,701.647536556 636.981032957,881.479661581 668.29200279,897.442344538 732.826031126,968.767345388" stroke="#009EE0" stroke-width="7.5" /></g><g id="PathGroup"><polyline fill="none" points="-65.6815994875,191.701484808 -22.4902072708,266.308593845 34.8620716339,309.328494536 66.0279996124,365.141043625 142.02236864,415.821220521 198.649658969,470.153940555 257.556713035,528.092905556 341.485361613,609.20776938 357.153579965,624.73933593 388.777619578,675.497387474 438.054391974,714.597184636 630.264037665,909.691041807 661.190860331,923.076965187 724.944035573,994.591251872" stroke="#009EE0" stroke-width="8.5" /></g><g id="PathGroup"><polyline fill="none" points="-89.2667994234,200.289170409 -48.6764831796,276.222168075 10.3448305881,319.119556353 38.906499564,375.408674078 117.27516472,425.298873086 174.60586634,480.048183124 236.876302165,541.229518751 321.921031814,623.108740553 337.547777461,638.581752921 366.749822025,689.309560908 416.43619097,727.546832715 623.547042373,937.902422033 654.089717873,948.711585835 717.06204002,1020.41515836" stroke="#009EE0" stroke-width="9.5" /></g><g id="PathGroup"><polyline fill="none" points="-74.8627590885,286.135742306 -14.1724104576,328.91061817 11.7849995155,385.676304531 92.5279608005,434.776525651 150.562073711,489.942425693 216.195891294,554.366131945 302.356702016,637.009711725 317.941974956,652.424169913 344.722024473,703.121734342 394.817989967,740.496480795 616.830047081,966.113802259" stroke="#009EE0" stroke-width="10.5" /></g><g id="PathGroup"><polyline fill="none" points="-101.049034997,296.049316537 -38.6896515034,338.701679987 -15.3365005329,395.943934984 67.7807568806,444.254178216 126.518281083,499.836668262 195.515480423,567.50274514 282.792372218,650.910682898 298.336172452,666.266586904 322.69422692,716.933907776 373.199788964,753.446128874 610.113051789,994.325182485" stroke="#009EE0" stroke-width="11.5" /></g><g id="PathGroup"><polyline fill="none" points="-63.2068925491,348.492741804 -42.4580005814,406.211565437 43.0335529606,453.731830781 102.474488454,509.730910832 174.835069553,580.639358334 263.228042419,664.81165407 278.730369948,680.109003895 300.666429367,730.74608121 351.581587961,766.395776953 603.396056497,1022.53656271" stroke="#009EE0" stroke-width="12.5" /></g><g id="PathGroup"><polyline fill="none" points="-69.5795006298,416.479195891 18.2863490407,463.209483346 78.4306958248,519.625153401 154.154658682,593.775971529 243.663712621,678.712625243 259.124567443,693.951420886 278.638631815,744.558254644 329.963386957,779.345425033 596.679061206,1050.74794294" stroke="#009EE0" stroke-width="13.5" /></g><g id="PathGroup"><polyline fill="none" points="-96.7010006783,426.746826344 -6.46085487928,472.687135911 54.386903196,529.51939597 133.474247811,606.912584724 224.099382823,692.613596416 239.518764939,707.793837878 256.610834262,758.370428079 308.345185954,792.295073112 589.962065914,1078.95932316" stroke="#009EE0" stroke-width="14.5" /></g><g id="PathGroup"><polyline fill="none" points="-123.822500727,437.014456797 -31.2080587992,482.164788476 30.3431105671,539.41363854 112.793836941,620.049197918 204.535053024,706.514567588 219.912962435,721.636254869 234.583036709,772.182601513 286.726984951,805.244721192 583.245070622,1107.17070339" stroke="#009EE0" stroke-width="15.5" /></g><g id="PathGroup"><polyline fill="none" points="-150.944000775,447.28208725 -55.9552627192,491.642441041 6.29931793825,549.307881109 92.1134260703,633.185811113 184.970723226,720.415538761 200.30715993,735.47867186 212.555239156,785.994774947 265.108783948,818.194369271 576.52807533,1135.38208361" stroke="#009EE0" stroke-width="16.5" /></g><g id="PathGroup"><polyline fill="none" points="-80.7024666391,501.120093606 -17.7444746906,559.202123678 71.4330151997,646.322424307 165.406393427,734.316509933 180.701357426,749.321088852 190.527441604,799.806948381 243.490582944,831.144017351 569.811080038,1163.59346384" stroke="#009EE0" stroke-width="17.5" /></g><g id="PathGroup"><polyline fill="none" points="-105.449670559,510.597746172 -41.7882673195,569.096366248 50.7526043291,659.459037502 145.842063629,748.217481106 161.095554922,763.163505843 168.499644051,813.619121815 221.872381941,844.09366543 563.094084746,1191.80484407" stroke="#009EE0" stroke-width="18.5" /></g><g id="PathGroup"><polyline fill="none" points="-130.196874479,520.075398737 -65.8320599483,578.990608817 30.0721934585,672.595650696 126.277733831,762.118452278 141.489752417,777.005922834 146.471846498,827.43129525 200.254180938,857.04331351 556.377089454,1220.01622429" stroke="#009EE0" stroke-width="19.5" /></g><g id="PathGroup"><polyline fill="none" points="-89.8758525772,588.884851386 9.39178258786,685.732263891 106.713404032,776.019423451 121.883949913,790.848339825 124.444048945,841.243468684 178.635979934,869.992961589 549.660094162,1248.22760452" stroke="#009EE0" stroke-width="20.5" /></g><g id="PathGroup"><polyline fill="none" points="-113.919645206,598.779093956 -11.2886282828,698.868877085 87.1490742338,789.920394623 102.278147408,804.690756817 102.416251393,855.055642118 157.017778931,882.942609669 542.943098871,1276.43898474" stroke="#009EE0" stroke-width="21.5" /></g><g id="PathGroup"><polyline fill="none" points="-137.963437835,608.673336525 -31.9690391534,712.00549028 67.5847444354,803.821365796 82.6723449041,818.533173808 80.38845384,868.867815552 135.399577928,895.892257748 536.226103579,1304.65036497" stroke="#009EE0" stroke-width="22.5" /></g><g id="PathGroup"><polyline fill="none" points="-162.007230464,618.567579094 -52.649450024,725.142103474 48.020414637,817.722336968 63.0665423998,832.375590799 58.3606562873,882.679988986 113.781376925,908.841905827 529.509108287,1332.8617452" stroke="#009EE0" stroke-width="23.5" /></g><g id="PathGroup"><polyline fill="none" points="-186.051023093,628.461821664 -73.3298608946,738.278716669 28.4560848386,831.623308141 43.4607398954,846.21800779 36.3328587346,896.492162421 92.1631759213,921.791553907 522.792112995,1361.07312542" stroke="#009EE0" stroke-width="24.5" /></g><g id="PathGroup"><polyline fill="none" points="-94.0102717652,751.415329863 8.89175504024,845.524279314 23.854937391,860.060424782 14.3050611818,910.304335855 70.544974918,934.741201986 516.075117703,1389.28450565" stroke="#009EE0" stroke-width="25.5" /></g><g id="PathGroup"><polyline fill="none" points="-114.690682636,764.551943058 -10.6725747582,859.425250486 4.24913488668,873.902841773 -7.7227363709,924.116509289 48.9267739147,947.690850066 509.358122411,1417.49588587" stroke="#009EE0" stroke-width="26.5" /></g><g id="PathGroup"><polyline fill="none" points="-135.371093506,777.688556252 -30.2369045565,873.326221659 -15.3566676177,887.745258764 -29.7505339236,937.928682723 27.3085729114,960.640498145 502.641127119,1445.7072661" stroke="#009EE0" stroke-width="27.5" /></g><g id="PathGroup"><polyline fill="none" points="-156.051504377,790.825169447 -49.8012343549,887.227192831 -34.962470122,901.587675755 -51.7783314763,951.740856157 5.69037190814,973.590146225 495.924131827,1473.91864632" stroke="#009EE0" stroke-width="28.5" /></g><g id="PathGroup"><polyline fill="none" points="-176.731915248,803.961782642 -69.3655641533,901.128164004 -54.5682726264,915.430092747 -73.8061290291,965.553029591 -15.9278290951,986.539794304" stroke="#009EE0" stroke-width="29.5" /></g><g id="PathGroup"><polyline fill="none" points="-88.9298939517,915.029135176 -74.1740751308,929.272509738 -95.8339265818,979.365203026 -37.5460300984,999.489442384" stroke="#009EE0" stroke-width="30.5" /></g></g></svg>
