<svg baseProfile="full" height="100%" version="1.1" viewBox="0,-1,901,901" width="100%" xmlns="http://www.w3.org/2000/svg" xmlns:ev="http://www.w3.org/2001/xml-events" xmlns:xlink="http://www.w3.org/1999/xlink"><defs><clipPath id="LOGO_CLIPPATH"><rect height="901" width="901" x="0" y="-1" /></clipPath></defs><g clip-path="url(#LOGO_CLIPPATH )" id="Logo_GROUP"><g id="PathGroup"><polyline fill="none" points="0.0,0.0 5.0,5.0 65.0,65.0 147.0,147.0 154.0,154.0 232.0,232.0 287.0,287.0 304.0,304.0 383.0,383.0 413.0,413.0 491.0,491.0 503.0,503.0 598.0,598.0 623.0,623.0 653.0,653.0 722.0,722.0 771.0,771.0 814.0,814.0 900.0,900.0" stroke="#009EE0" stroke-width="0.5" /></g><g id="PathGroup"><polyline fill="none" points="-26.2693265997,4.77624119994 -18.2476525191,11.3526885924 38.5257765348,74.1167698179 130.031174235,165.900236828 135.670308651,176.472703777 215.067774851,254.800433143 271.986727778,310.634755281 293.09959587,327.163358776 370.142475302,407.873360421 400.467620806,436.915256046 475.640876965,514.4114788 490.768224566,525.716154378 584.863117492,623.853864662 610.240503406,648.372332307 646.966729485,680.342268503 718.020466008,748.098339204 766.304186999,798.603429864 809.734628971,839.546361972 895.170093169,926.564487573" stroke="#009EE0" stroke-width="1.5" /></g><g id="PathGroup"><polyline fill="none" points="-52.5386531993,9.55248239988 -41.4953050382,17.7053771848 12.0515530695,83.2335396358 113.06234847,184.800473656 117.340617302,198.945407554 198.135549702,277.600866286 256.973455555,334.269510561 282.19919174,350.326717553 357.284950603,432.746720842 387.935241612,460.830512092 460.281753931,537.8229576 478.536449131,548.432308756 571.726234984,649.707729324 597.481006813,673.744664613 640.93345897,707.684537006 714.040932016,774.196678408 761.608373998,826.206859728 805.469257941,865.092723943 890.340186337,953.128975145" stroke="#009EE0" stroke-width="2.5" /></g><g id="PathGroup"><polyline fill="none" points="-64.7429575573,24.0580657772 -14.4226703957,92.3503094537 96.0935227044,203.700710484 99.0109259532,221.418111331 181.203324553,300.401299429 241.960183333,357.904265842 271.29878761,373.490076329 344.427425905,457.620081263 375.402862418,484.745768137 444.922630896,561.234436401 466.304673697,571.148463134 558.589352476,675.561593986 584.721510219,699.11699692 634.900188456,735.026805509 710.061398024,800.295017612 756.912560996,853.810289592 801.203886912,890.639085915 885.510279506,979.693462718" stroke="#009EE0" stroke-width="3.5" /></g><g id="PathGroup"><polyline fill="none" points="-87.9906100763,30.4107543695 -40.8968938609,101.467079272 79.1246969392,222.600947312 80.6812346043,243.890815108 164.271099404,323.201732572 226.946911111,381.539021123 260.39838348,396.653435105 331.569901207,482.493441684 362.870483224,508.661024183 429.563507862,584.645915201 454.072898263,593.864617512 545.452469967,701.415458649 571.962013626,724.489329227 628.866917941,762.369074012 706.081864032,826.393356816 752.216747995,881.413719456 796.938515883,916.185447886 880.680372674,1006.25795029" stroke="#009EE0" stroke-width="4.5" /></g><g id="PathGroup"><polyline fill="none" points="-67.3711173262,110.58384909 62.155871174,241.501184139 62.3515432554,266.363518886 147.338874255,346.002165714 211.933638888,405.173776403 249.49797935,419.816793882 318.712376508,507.366802105 350.33810403,532.576280229 414.204384827,608.057394001 441.841122828,616.58077189 532.315587459,727.269323311 559.202517032,749.861661533 622.833647426,789.711342516 702.10233004,852.49169602 747.520934994,909.01714932 792.673144853,941.731809858 875.850465843,1032.82243786" stroke="#009EE0" stroke-width="5.5" /></g><g id="PathGroup"><polyline fill="none" points="-93.8453407914,119.700618907 45.1870454089,260.401420967 44.0218519065,288.836222663 130.406649106,368.802598857 196.920366666,428.808531684 238.59757522,442.980152658 305.85485181,532.240162526 337.805724836,556.491536275 398.845261793,631.468872801 429.609347394,639.296926268 519.178704951,753.123187973 546.443020439,775.23399384 616.800376911,817.053611019 698.122796047,878.590035224 742.825121993,936.620579184 788.407773824,967.278171829" stroke="#009EE0" stroke-width="6.5" /></g><g id="PathGroup"><polyline fill="none" points="-120.319564257,128.817388725 28.2182196437,279.301657795 25.6921605576,311.30892644 113.474423957,391.603032 181.907094444,452.443286965 227.69717109,466.143511434 292.997327112,557.113522947 325.273345642,580.406792321 383.486138758,654.880351601 417.37757196,662.013080646 506.041822443,778.977052635 533.683523845,800.606326147 610.767106397,844.395879522 694.143262055,904.688374428 738.129308992,964.224009048" stroke="#009EE0" stroke-width="7.5" /></g><g id="PathGroup"><polyline fill="none" points="-146.793787722,137.934158543 11.2493938785,298.201894623 7.36246920864,333.781630217 96.5421988079,414.403465143 166.893822221,476.078042246 216.79676696,489.306870211 280.139802413,581.986883368 312.740966448,604.322048367 368.127015724,678.291830401 405.145796526,684.729235024 492.904939935,804.830917297 520.924027252,825.978658453 604.733835882,871.738148025 690.163728063,930.786713632 733.433495991,991.827438912" stroke="#009EE0" stroke-width="8.5" /></g><g id="PathGroup"><polyline fill="none" points="-173.268011187,147.050928361 -5.71943188672,317.102131451 -10.9672221403,356.254333994 79.6099736589,437.203898286 151.880549999,499.712797526 205.89636283,512.470228987 267.282277715,606.860243789 300.208587254,628.237304412 352.767892689,701.703309202 392.914021091,707.445389402 479.768057427,830.684781959 508.164530658,851.35099076 598.700565367,899.080416528 686.184194071,956.885052836 728.737682989,1019.43086878" stroke="#009EE0" stroke-width="9.5" /></g><g id="PathGroup"><polyline fill="none" points="-199.742234652,156.167698179 -22.6882576519,336.002368279 -29.2969134892,378.727037771 62.6777485099,460.004331429 136.867277777,523.347552807 194.9959587,535.633587763 254.424753016,631.73360421 287.67620806,652.152560458 337.408769655,725.114788002 380.682245657,730.16154378 466.631174919,856.538646621 495.405034065,876.723323067 592.667294852,926.422685031 682.204660079,982.98339204" stroke="#009EE0" stroke-width="10.5" /></g><g id="PathGroup"><polyline fill="none" points="-226.216458118,165.284467997 -39.6570834171,354.902605107 -47.6266048381,401.199741548 45.7455233609,482.804764572 121.854005554,546.982308088 184.09555457,558.79694654 241.567228318,656.606964631 275.143828866,676.067816504 322.04964662,748.526266802 368.450470223,752.877698158 453.494292411,882.392511283 482.645537471,902.095655373 586.634024338,953.764953534 678.225126087,1009.08173124" stroke="#009EE0" stroke-width="11.5" /></g><g id="PathGroup"><polyline fill="none" points="-252.690681583,174.401237815 -56.6259091823,373.802841935 -65.956296187,423.672445325 28.8132982119,505.605197715 106.840733332,570.617063368 173.195150439,581.960305316 228.70970362,681.480325052 262.611449672,699.98307255 306.690523586,771.937745602 356.218694788,775.593852536 440.357409902,908.246375946 469.886040878,927.46798768 580.600753823,981.107222037" stroke="#009EE0" stroke-width="12.5" /></g><g id="PathGroup"><polyline fill="none" points="-84.285987536,446.145149102 11.8810730629,528.405630858 91.8274611097,594.251818649 162.294746309,605.123664092 215.852178921,706.353685473 250.079070478,723.898328596 291.331400551,795.349224402 343.986919354,798.310006914 427.220527394,934.100240608 457.126544284,952.840319987 574.567483308,1008.44949054" stroke="#009EE0" stroke-width="13.5" /></g><g id="PathGroup"><polyline fill="none" points="-102.615678885,468.617852879 -5.05115208611,551.206064 76.8141888874,617.88657393 151.394342179,628.287022869 202.994654223,731.227045894 237.546691284,747.813584642 275.972277517,818.760703202 331.75514392,821.026161292 414.083644886,959.95410527 444.367047691,978.212652293" stroke="#009EE0" stroke-width="14.5" /></g><g id="PathGroup"><polyline fill="none" points="-120.945370234,491.090556657 -21.9833772351,574.006497143 61.8009166651,641.52132921 140.493938049,651.450381645 190.137129525,756.100406314 225.01431209,771.728840687 260.613154482,842.172182003 319.523368485,843.74231567 400.946762378,985.807969932" stroke="#009EE0" stroke-width="15.5" /></g><g id="PathGroup"><polyline fill="none" points="-139.275061583,513.563260434 -38.9156023841,596.806930286 46.7876444428,665.156084491 129.593533919,674.613740422 177.279604826,780.973766735 212.481932896,795.644096733 245.254031448,865.583660803 307.291593051,866.458470048 387.80987987,1011.66183459" stroke="#009EE0" stroke-width="16.5" /></g><g id="PathGroup"><polyline fill="none" points="-157.604752932,536.035964211 -55.8478275331,619.607363429 31.7743722204,688.790839772 118.693129789,697.777099198 164.422080128,805.847127156 199.949553702,819.559352779 229.894908413,888.995139603 295.059817617,889.174624426 374.672997362,1037.51569926" stroke="#009EE0" stroke-width="17.5" /></g><g id="PathGroup"><polyline fill="none" points="-72.7800526821,642.407796572 16.7610999981,712.425595052 107.792725659,720.940457974 151.56455543,830.720487577 187.417174508,843.474608825 214.535785379,912.406618403 282.828042183,911.890778804 361.536114854,1063.36956392" stroke="#009EE0" stroke-width="18.5" /></g><g id="PathGroup"><polyline fill="none" points="-89.7122778312,665.208229715 1.74782777578,736.060350333 96.8923215291,744.103816751 138.707030731,855.593847998 174.884795314,867.389864871 199.176662344,935.818097203 270.596266748,934.606933182 348.399232345,1089.22342858" stroke="#009EE0" stroke-width="19.5" /></g><g id="PathGroup"><polyline fill="none" points="-106.64450298,688.008662858 -13.2654444466,759.695105614 85.9919173991,767.267175527 125.849506033,880.467208419 162.35241612,891.305120917 183.81753931,959.229576003 258.364491314,957.32308756 335.262349837,1115.07729324" stroke="#009EE0" stroke-width="20.5" /></g><g id="PathGroup"><polyline fill="none" points="-123.576728129,710.809096001 -28.2787166689,783.329860895 75.0915132691,790.430534303 112.991981335,905.34056884 149.820036926,915.220376962 168.458416275,982.641054804" stroke="#009EE0" stroke-width="21.5" /></g><g id="PathGroup"><polyline fill="none" points="-140.508953278,733.609529144 -43.2919888912,806.964616175 64.191109139,813.59389308 100.134456636,930.213929261 137.287657732,939.135633008 153.099293241,1006.0525336" stroke="#009EE0" stroke-width="22.5" /></g><g id="PathGroup"><polyline fill="none" points="-157.441178427,756.409962286 -58.3052611135,830.599371456 53.290705009,836.757251856 87.2769319379,955.087289682 124.755278538,963.050889054 137.740170206,1029.4640124" stroke="#009EE0" stroke-width="23.5" /></g><g id="PathGroup"><polyline fill="none" points="-174.373403576,779.210395429 -73.3185333359,854.234126737 42.3903008789,859.920610632 74.4194072395,979.960650103" stroke="#009EE0" stroke-width="24.5" /></g><g id="PathGroup"><polyline fill="none" points="-88.3318055582,877.868882017 31.4898967489,883.083969409 61.5618825412,1004.83401052" stroke="#009EE0" stroke-width="25.5" /></g><g id="PathGroup"><polyline fill="none" points="-103.345077781,901.503637298 20.5894926188,906.247328185 48.7043578428,1029.70737095" stroke="#009EE0" stroke-width="26.5" /></g><g id="PathGroup"><polyline fill="none" points="-118.358350003,925.138392579 9.68908848879,929.410686961 35.8468331445,1054.58073137" stroke="#009EE0" stroke-width="27.5" /></g><g id="PathGroup"><polyline fill="none" points="-133.371622225,948.773147859 -1.21131564126,952.574045738 22.9893084461,1079.45409179" stroke="#009EE0" stroke-width="28.5" /></g><g id="PathGroup"><polyline fill="none" points="-148.384894447,972.40790314 -12.1117197713,975.737404514 10.1317837478,1104.32745221" stroke="#009EE0" stroke-width="29.5" /></g></g></svg>
