<svg baseProfile="full" height="100%" version="1.1" viewBox="0,-1,901,901" width="100%" xmlns="http://www.w3.org/2000/svg" xmlns:ev="http://www.w3.org/2001/xml-events" xmlns:xlink="http://www.w3.org/1999/xlink"><defs><clipPath id="LOGO_CLIPPATH"><rect height="901" width="901" x="0" y="-1" /></clipPath></defs><g clip-path="url(#LOGO_CLIPPATH )" id="Logo_GROUP"><g id="PathGroup"><polyline fill="none" points="0.0,0.0 39.0,39.0 59.0,59.0 137.0,137.0 168.0,168.0 235.0,235.0 296.0,296.0 333.0,333.0 356.0,356.0 403.0,403.0 455.0,455.0 525.0,525.0 587.0,587.0 642.0,642.0 681.0,681.0 729.0,729.0 761.0,761.0 840.0,840.0 900.0,900.0" stroke="#009EE0" stroke-width="0.3" /></g><g id="PathGroup"><polyline fill="none" points="-11.9954142712,-6.61815959789 28.2288746191,33.4870282035 46.5918770469,55.1220514726 128.049057505,134.873823044 157.118685356,166.38848158 226.699494265,233.710967595 288.093839908,297.221733442 325.085511813,334.16656622 346.157606662,357.7684155 396.03346344,407.511914046 447.437384018,461.542693597 520.328889217,533.501218974 584.607771975,599.777998477 645.414931708,653.399484262 685.251648275,692.22156348 732.674760449,738.084940046 766.464303609,771.68369721 844.813003022,849.219273394 906.763082801,912.258087576" stroke="#009EE0" stroke-width="0.6" /></g><g id="PathGroup"><polyline fill="none" points="-23.9908285423,-13.2363191958 17.4577492382,27.974056407 34.1837540938,51.2441029452 119.09811501,132.747646087 146.237370712,164.776963159 218.39898853,232.421935191 280.187679817,298.443466884 317.171023627,335.33313244 336.315213324,359.536831 389.06692688,412.023828092 439.874768036,468.085387194 515.657778433,542.002437949 582.215543949,612.555996954 648.829863415,664.798968523 689.50329655,703.443126961 736.349520898,747.169880092 771.928607217,782.36739442 849.626006044,858.438546788 913.526165602,924.516175153" stroke="#009EE0" stroke-width="0.9" /></g><g id="PathGroup"><polyline fill="none" points="-35.9862428135,-19.8544787937 6.68662385735,22.4610846104 21.7756311407,47.3661544179 110.147172515,130.621469131 135.356056068,163.165444739 210.098482794,231.132902786 272.281519725,299.665200327 309.25653544,336.49969866 326.472819986,361.3052465 382.10039032,416.535742138 432.312152054,474.628080792 510.98666765,550.503656923 579.823315924,625.333995431 652.244795123,676.198452785 693.754944826,714.664690441 740.024281348,756.254820138 777.392910826,793.05109163 854.439009065,867.657820182 920.289248402,936.774262729" stroke="#009EE0" stroke-width="1.2" /></g><g id="PathGroup"><polyline fill="none" points="-47.9816570847,-26.4726383915 -4.08450152354,16.9481128139 9.36750818764,43.4882058905 101.19623002,128.495292175 124.474741424,161.553926318 201.797977059,229.843870382 264.375359633,300.886933769 301.342047254,337.66626488 316.630426648,363.073662 375.13385376,421.047656183 424.749536071,481.170774389 506.315556867,559.004875897 577.431087899,638.111993907 655.659726831,687.597937047 698.006593101,725.886253922 743.699041797,765.339760184 782.857214435,803.73478884 859.252012087,876.877093576 927.052331203,949.032350306" stroke="#009EE0" stroke-width="1.5" /></g><g id="PathGroup"><polyline fill="none" points="-59.9770713558,-33.0907979894 -14.8556269044,11.4351410174 -3.04061476545,39.6102573631 92.2452875245,126.369115218 113.59342678,159.942407898 193.497471324,228.554837977 256.469199541,302.108667211 293.427559067,338.8328311 306.78803331,364.8420775 368.1673172,425.559570229 417.186920089,487.713467986 501.644446084,567.506094872 575.038859873,650.889992384 659.074658538,698.997421308 702.258241376,737.107817402 747.373802246,774.42470023 788.321518043,814.418486049 864.065015109,886.09636697 933.815414004,961.290437882" stroke="#009EE0" stroke-width="1.8" /></g><g id="PathGroup"><polyline fill="none" points="-71.972485627,-39.7089575873 -25.6267522853,5.92216922085 -15.4487377185,35.7323088357 83.2943450294,124.242938262 102.712112136,158.330889478 185.196965589,227.265805572 248.56303945,303.330400653 285.513070881,339.999397319 296.945639972,366.610493 361.20078064,430.071484275 409.624304107,494.256161583 496.9733353,576.007313846 572.646631848,663.667990861 662.489590246,710.39690557 706.509889651,748.329380882 751.048562695,783.509640276 793.785821652,825.102183259 868.878018131,895.315640364 940.578496805,973.548525458" stroke="#009EE0" stroke-width="2.1" /></g><g id="PathGroup"><polyline fill="none" points="-83.9678998982,-46.3271171852 -36.3978776662,0.409197424328 -27.8568606716,31.8543603083 74.3434025344,122.116761306 91.8307974923,156.719371057 176.896459854,225.976773168 240.656879358,304.552134096 277.598582694,341.165963539 287.103246634,368.378908499 354.23424408,434.583398321 402.061688125,500.79885518 492.302224517,584.508532821 570.254403823,676.445989338 665.904521954,721.796389832 710.761537926,759.550944363 754.723323145,792.594580323 799.250125261,835.785880469 873.691021153,904.534913757 947.341579605,985.806613035" stroke="#009EE0" stroke-width="2.4" /></g><g id="PathGroup"><polyline fill="none" points="-95.9633141693,-52.9452767831 -47.1690030471,-5.1037743722 -40.2649836247,27.976411781 65.3924600393,119.99058435 80.9494828484,155.107852637 168.595954119,224.687740763 232.750719266,305.773867538 269.684094508,342.332529759 277.260853296,370.147323999 347.26770752,439.095312367 394.499072143,507.341548777 487.631113734,593.009751795 567.862175797,689.223987815 669.319453662,733.195874093 715.013186201,770.772507843 758.398083594,801.679520369 804.714428869,846.469577679 878.504024175,913.754187151 954.104662406,998.064700611" stroke="#009EE0" stroke-width="2.7" /></g><g id="PathGroup"><polyline fill="none" points="-57.940128428,-10.6167461687 -52.6731065778,24.0984632536 56.4415175442,117.864407393 70.0681682044,153.496334216 160.295448383,223.398708358 224.844559174,306.99560098 261.769606321,343.499095979 267.418459958,371.915739499 340.301170959,443.607226413 386.936456161,513.884242375 482.96000295,601.510970769 565.469947772,702.001986292 672.734385369,744.595358355 719.264834477,781.994071323 762.072844043,810.764460415 810.178732478,857.153274889 883.317027196,922.973460545 960.867745207,1010.32278819" stroke="#009EE0" stroke-width="3.0" /></g><g id="PathGroup"><polyline fill="none" points="-65.0812295309,20.2205147262 47.4905750491,115.738230437 59.1868535605,151.884815796 151.994942648,222.109675954 216.938399083,308.217334422 253.855118135,344.665662199 257.57606662,373.684154999 333.334634399,448.119140459 379.373840179,520.426935972 478.288892167,610.012189744 563.077719747,714.779984769 676.149317077,755.994842617 723.516482752,793.215634804 765.747604492,819.849400461 815.643036087,867.836972099 888.130030218,932.192733939 967.630828008,1022.58087576" stroke="#009EE0" stroke-width="3.3" /></g><g id="PathGroup"><polyline fill="none" points="-77.489352484,16.3425661988 38.539632554,113.612053481 48.3055389165,150.273297376 143.694436913,220.820643549 209.032238991,309.439067865 245.940629948,345.832228419 247.733673282,375.452570499 326.368097839,452.631054505 371.811224196,526.969629569 473.617781384,618.513408718 560.685491721,727.557983246 679.564248785,767.394326878 727.768131027,804.437198284 769.422364942,828.934340507 821.107339695,878.520669309 892.94303324,941.412007333 974.393910808,1034.83896334" stroke="#009EE0" stroke-width="3.6" /></g><g id="PathGroup"><polyline fill="none" points="-89.8974754371,12.4646176714 29.5886900589,111.485876524 37.4242242726,148.661778955 135.393931178,219.531611145 201.126078899,310.660801307 238.026141762,346.998794639 237.891279944,377.220985999 319.401561279,457.14296855 364.248608214,533.512323166 468.9466706,627.014627692 558.293263696,740.335981722 682.979180492,778.79381114 732.019779302,815.658761765 773.097125391,838.019280553 826.571643304,889.204366519 897.756036262,950.631280727 981.156993609,1047.09705092" stroke="#009EE0" stroke-width="3.9" /></g><g id="PathGroup"><polyline fill="none" points="-102.30559839,8.58666914406 20.6377475638,109.359699568 26.5429096286,147.050260535 127.093425443,218.24257874 193.219918807,311.882534749 230.111653575,348.165360859 228.048886606,378.989401499 312.435024719,461.654882596 356.685992232,540.055016763 464.275559817,635.515846667 555.90103567,753.113980199 686.3941122,790.193295402 736.271427577,826.880325245 776.77188584,847.104220599 832.035946913,899.888063728 902.569039284,959.850554121" stroke="#009EE0" stroke-width="4.2" /></g><g id="PathGroup"><polyline fill="none" points="-114.713721343,4.70872061668 11.6868050687,107.233522612 15.6615949847,145.438742114 118.792919707,216.953546335 185.313758716,313.104268191 222.197165389,349.331927079 218.206493268,380.757816999 305.468488159,466.166796642 349.12337625,546.597710361 459.604449034,644.017065641 553.508807645,765.891978676 689.809043908,801.592779663 740.523075852,838.101888725 780.446646289,856.189160645 837.500250521,910.571760938 907.382042306,969.069827515" stroke="#009EE0" stroke-width="4.5" /></g><g id="PathGroup"><polyline fill="none" points="-127.121844296,0.830772089297 2.73586257362,105.107345655 4.78028034071,143.827223694 110.492413972,215.664513931 177.407598624,314.326001634 214.282677202,350.498493299 208.36409993,382.526232499 298.501951599,470.678710688 341.560760268,553.140403958 454.933338251,652.518284616 551.11657962,778.669977153 693.223975615,812.992263925 744.774724128,849.323452206 784.121406739,865.274100691 842.96455413,921.255458148 912.195045327,978.289100909" stroke="#009EE0" stroke-width="4.8" /></g><g id="PathGroup"><polyline fill="none" points="-139.529967249,-3.04717643808 -6.21507992147,102.981168699 -6.10103430325,142.215705274 102.191908237,214.375481526 169.501438532,315.547735076 206.368189016,351.665059518 198.521706592,384.294647999 291.535415039,475.190624734 333.998144286,559.683097555 450.262227467,661.01950359 548.724351594,791.44797563 696.638907323,824.391748187 749.026372403,860.545015686 787.796167188,874.359040737 848.428857739,931.939155358 917.008048349,987.508374303" stroke="#009EE0" stroke-width="5.1" /></g><g id="PathGroup"><polyline fill="none" points="-151.938090203,-6.92512496546 -15.1660224166,100.854991743 -16.9823489472,140.604186853 93.8914025019,213.086449121 161.595278441,316.769468518 198.453700829,352.831625738 188.679313254,386.063063499 284.568878479,479.70253878 326.435528304,566.225791152 445.591116684,669.520722564 546.332123569,804.225974107 700.053839031,835.791232448 753.278020678,871.766579166 791.470927637,883.443980783 853.893161347,942.622852568 921.821051371,996.727647697" stroke="#009EE0" stroke-width="5.4" /></g><g id="PathGroup"><polyline fill="none" points="-164.346213156,-10.8030734928 -24.1169649117,98.7288147864 -27.8636635912,138.992668433 85.5908967667,211.797416717 153.689118349,317.99120196 190.539212643,353.998191958 178.836919916,387.831478999 277.602341919,484.214452826 318.872912321,572.768484749 440.920005901,678.021941539 543.939895544,817.003972584 703.468770739,847.19071671 757.529668953,882.988142647 795.145688086,892.528920829 859.357464956,953.306549778 926.634054393,1005.94692109" stroke="#009EE0" stroke-width="5.7" /></g><g id="PathGroup"><polyline fill="none" points="-176.754336109,-14.6810220202 -33.0679074068,96.6026378301 -38.7449782351,137.381150012 77.2903910315,210.508384312 145.782958257,319.212935403 182.624724456,355.164758178 168.994526578,389.599894499 270.635805359,488.726366872 311.310296339,579.311178346 436.248895117,686.523160513 541.547667518,829.78197106 706.883702446,858.590200971 761.781317228,894.209706127 798.820448535,901.613860875 864.821768565,963.990246988" stroke="#009EE0" stroke-width="6.0" /></g><g id="PathGroup"><polyline fill="none" points="-189.162459062,-18.5589705476 -42.0188499018,94.4764608738 -49.6262928791,135.769631592 68.9898852963,209.219351908 137.876798165,320.434668845 174.71023627,356.331324398 159.15213324,391.368309999 263.669268799,493.238280917 303.747680357,585.853871944 431.577784334,695.024379487 539.155439493,842.559969537 710.298634154,869.989685233 766.032965504,905.431269608 802.495208985,910.698800921 870.286072173,974.673944198" stroke="#009EE0" stroke-width="6.3" /></g><g id="PathGroup"><polyline fill="none" points="-201.570582015,-22.436919075 -50.9697923969,92.3502839174 -60.507607523,134.158113172 60.6893795611,207.930319503 129.970638074,321.656402287 166.795748083,357.497890618 149.309739902,393.136725498 256.702732239,497.750194963 296.185064375,592.396565541 426.906673551,703.525598462 536.763211468,855.337968014 713.713565862,881.389169495 770.284613779,916.652833088 806.169969434,919.783740968 875.750375782,985.357641407" stroke="#009EE0" stroke-width="6.6" /></g><g id="PathGroup"><polyline fill="none" points="-71.388922167,132.546594751 52.3888738259,206.641287098 122.064477982,322.878135729 158.881259897,358.664456838 139.467346564,394.905140998 249.736195679,502.262109009 288.622448393,598.939259138 422.235562768,712.026817436 534.370983442,868.115966491 717.128497569,892.788653756 774.536262054,927.874396568 809.844729883,928.868681014 881.214679391,996.041338617" stroke="#009EE0" stroke-width="6.9" /></g><g id="PathGroup"><polyline fill="none" points="-82.2702368109,130.935076331 44.0883680907,205.352254694 114.15831789,324.099869172 150.96677171,359.831023058 129.624953226,396.673556498 242.769659119,506.774023055 281.059832411,605.481952735 417.564451984,720.528036411 531.978755417,880.893964968 720.543429277,904.188138018 778.787910329,939.095960049 813.519490332,937.95362106 886.678982999,1006.72503583" stroke="#009EE0" stroke-width="7.2" /></g><g id="PathGroup"><polyline fill="none" points="-93.1515514549,129.32355791 35.7878623556,204.063222289 106.252157798,325.321602614 143.052283523,360.997589278 119.782559888,398.441971998 235.803122559,511.285937101 273.497216428,612.024646332 412.893341201,729.029255385 529.586527392,893.671963445 723.958360985,915.58762228 783.039558604,950.317523529 817.194250782,947.038561106 892.143286608,1017.40873304" stroke="#009EE0" stroke-width="7.5" /></g><g id="PathGroup"><polyline fill="none" points="-104.032866099,127.71203949 27.4873566204,202.774189885 98.3459977067,326.543336056 135.137795337,362.164155498 109.94016655,400.210387498 228.836585998,515.797851147 265.934600446,618.567339929 408.222230418,737.530474359 527.194299366,906.449961922 727.373292692,926.987106541 787.291206879,961.53908701 820.869011231,956.123501152 897.607590217,1028.09243025" stroke="#009EE0" stroke-width="7.8" /></g><g id="PathGroup"><polyline fill="none" points="-114.914180743,126.10052107 19.1868508852,201.48515748 90.4398376149,327.765069498 127.22330715,363.330721717 100.097773212,401.978802998 221.870049438,520.309765193 258.371984464,625.110033527 403.551119634,746.031693334 524.802071341,919.227960398 730.7882244,938.386590803 791.542855155,972.76065049" stroke="#009EE0" stroke-width="8.1" /></g><g id="PathGroup"><polyline fill="none" points="-125.795495387,124.489002649 10.88634515,200.196125075 82.5336775232,328.98680294 119.308818964,364.497287937 90.2553798744,403.747218498 214.903512878,524.821679238 250.809368482,631.652727124 398.880008851,754.532912308 522.409843316,932.005958875 734.203156108,949.786075065 795.79450343,983.98221397" stroke="#009EE0" stroke-width="8.4" /></g><g id="PathGroup"><polyline fill="none" points="-136.676810031,122.877484229 2.58583941482,198.907092671 74.6275174315,330.208536383 111.394330777,365.663854157 80.4129865364,405.515633998 207.936976318,529.333593284 243.2467525,638.195420721 394.208898068,763.034131282 520.01761529,944.783957352 737.618087815,961.185559326" stroke="#009EE0" stroke-width="8.7" /></g><g id="PathGroup"><polyline fill="none" points="-147.558124675,121.265965808 -5.71466632037,197.618060266 66.7213573397,331.430269825 103.479842591,366.830420377 70.5705931984,407.284049498 200.970439758,533.84550733 235.684136518,644.738114318 389.537787284,771.535350257 517.625387265,957.561955829 741.033019523,972.585043588" stroke="#009EE0" stroke-width="9.0" /></g><g id="PathGroup"><polyline fill="none" points="-158.439439319,119.654447388 -14.0151720556,196.329027861 58.815197248,332.652003267 95.5653544044,367.996986597 60.7281998604,409.052464998 194.003903198,538.357421376 228.121520536,651.280807915 384.866676501,780.036569231 515.23315924,970.339954306" stroke="#009EE0" stroke-width="9.3" /></g><g id="PathGroup"><polyline fill="none" points="-169.320753963,118.042928968 -22.3156777907,195.039995457 50.9090371563,333.873736709 87.6508662178,369.163552817 50.8858065225,410.820880498 187.037366638,542.869335422 220.558904553,657.823501513 380.195565718,788.537788205 512.840931214,983.117952783" stroke="#009EE0" stroke-width="9.6" /></g><g id="PathGroup"><polyline fill="none" points="-180.202068606,116.431410547 -30.6161835259,193.750963052 43.0028770645,335.095470152 79.7363780313,370.330119037 41.0434131845,412.589295998 180.070830078,547.381249468 212.996288571,664.36619511 375.524454935,797.03900718 510.448703189,995.89595126" stroke="#009EE0" stroke-width="9.9" /></g><g id="PathGroup"><polyline fill="none" points="-191.08338325,114.819892127 -38.9166892611,192.461930648 35.0967169728,336.317203594 71.8218898448,371.496685257 31.2010198465,414.357711498 173.104293518,551.893163514 205.433672589,670.908888707 370.853344151,805.540226154 508.056475163,1008.67394974" stroke="#009EE0" stroke-width="10.2" /></g><g id="PathGroup"><polyline fill="none" points="-201.964697894,113.208373706 -47.2171949963,191.172898243 27.1905568811,337.538937036 63.9074016583,372.663251477 21.3586265085,416.126126998 166.137756958,556.40507756 197.871056607,677.451582304 366.182233368,814.041445129 505.664247138,1021.45194821" stroke="#009EE0" stroke-width="10.5" /></g><g id="PathGroup"><polyline fill="none" points="-212.846012538,111.596855286 -55.5177007315,189.883865838 19.2843967893,338.760670478 55.9929134718,373.829817697 11.5162331705,417.894542497 159.171220398,560.916991605 190.308440625,683.994275901 361.511122585,822.542664103 503.272019113,1034.22994669" stroke="#009EE0" stroke-width="10.8" /></g><g id="PathGroup"><polyline fill="none" points="-63.8182064667,188.594833434 11.3782366976,339.982403921 48.0784252852,374.996383916 1.67383983254,419.662957997 152.204683838,565.428905651 182.745824643,690.536969498 356.840011801,831.043883077 500.879791087,1047.00794517" stroke="#009EE0" stroke-width="11.1" /></g><g id="PathGroup"><polyline fill="none" points="-72.1187122018,187.305801029 3.47207660587,341.204137363 40.1639370987,376.162950136 -8.16855350545,421.431373497 145.238147278,569.940819697 175.183208661,697.079663096 352.168901018,839.545102052 498.487563062,1059.78594364" stroke="#009EE0" stroke-width="11.4" /></g><g id="PathGroup"><polyline fill="none" points="-80.419217937,186.016768624 -4.43408348586,342.425870805 32.2494489122,377.329516356 -18.0109468434,423.199788997 138.271610718,574.452733743 167.620592678,703.622356693 347.497790235,848.046321026 496.095335037,1072.56394212" stroke="#009EE0" stroke-width="11.7" /></g><g id="PathGroup"><polyline fill="none" points="-88.7197236722,184.72773622 -12.3402435776,343.647604247 24.3349607257,378.496082576 -27.8533401814,424.968204497 131.305074158,578.964647789 160.057976696,710.16505029 342.826679451,856.54754 493.703107011,1085.3419406" stroke="#009EE0" stroke-width="12.0" /></g><g id="PathGroup"><polyline fill="none" points="-97.0202294074,183.438703815 -20.2464036693,344.86933769 16.4204725392,379.662648796 -37.6957335194,426.736619997 124.338537598,583.476561835 152.495360714,716.707743887 338.155568668,865.048758975 491.310878986,1098.11993907" stroke="#009EE0" stroke-width="12.3" /></g><g id="PathGroup"><polyline fill="none" points="-105.320735143,182.149671411 -28.1525637611,346.091071132 8.50598435263,380.829215016 -47.5381268574,428.505035497 117.372001037,587.988475881 144.932744732,723.250437484 333.484457885,873.549977949 488.918650961,1110.89793755" stroke="#009EE0" stroke-width="12.6" /></g><g id="PathGroup"><polyline fill="none" points="-113.621240878,180.860639006 -36.0587238528,347.312804574 0.59149616611,381.995781236 -57.3805201954,430.273450997 110.405464477,592.500389927 137.37012875,729.793131082 328.813347102,882.051196924 486.526422935,1123.67593603" stroke="#009EE0" stroke-width="12.9" /></g><g id="PathGroup"><polyline fill="none" points="-121.921746613,179.571606601 -43.9648839445,348.534538016 -7.32299202041,383.162347456 -67.2229135334,432.041866497 103.438927917,597.012303972 129.807512768,736.335824679 324.142236318,890.552415898 484.13419491,1136.45393451" stroke="#009EE0" stroke-width="13.2" /></g><g id="PathGroup"><polyline fill="none" points="-130.222252348,178.282574197 -51.8710440363,349.756271459 -15.2374802069,384.328913676 -77.0653068713,433.810281997 96.4723913573,601.524218018 122.244896786,742.878518276 319.471125535,899.053634872 481.741966885,1149.23193298" stroke="#009EE0" stroke-width="13.5" /></g><g id="PathGroup"><polyline fill="none" points="-138.522758083,176.993541792 -59.777204128,350.978004901 -23.1519683935,385.495479896 -86.9077002093,435.578697497 89.5058547972,606.036132064 114.682280803,749.421211873 314.800014752,907.554853847 479.349738859,1162.00993146" stroke="#009EE0" stroke-width="13.8" /></g><g id="PathGroup"><polyline fill="none" points="-67.6833642197,352.199738343 -31.06645658,386.662046115 -96.7500935473,437.347112997 82.5393182372,610.54804611 107.119664821,755.96390547 310.128903968,916.056072821 476.957510834,1174.78792994" stroke="#009EE0" stroke-width="14.1" /></g><g id="PathGroup"><polyline fill="none" points="-75.5895243115,353.421471785 -38.9809447665,387.828612335 -106.592486885,439.115528497 75.5727816771,615.059960156 99.5570488391,762.506599067 305.457793185,924.557291795 474.565282809,1187.56592841" stroke="#009EE0" stroke-width="14.4" /></g><g id="PathGroup"><polyline fill="none" points="-83.4956844032,354.643205227 -46.895432953,388.995178555 -116.434880223,440.883943997 68.606245117,619.571874202 91.994432857,769.049292665 300.786682402,933.05851077 472.173054783,1200.34392689" stroke="#009EE0" stroke-width="14.7" /></g><g id="PathGroup"><polyline fill="none" points="-91.4018444949,355.86493867 -54.8099211395,390.161744775 -126.277273561,442.652359496 61.639708557,624.083788248 84.4318168748,775.591986262 296.115571619,941.559729744 469.780826758,1213.12192537" stroke="#009EE0" stroke-width="15.0" /></g><g id="PathGroup"><polyline fill="none" points="-99.3080045867,357.086672112 -62.7244093261,391.328310995 -136.119666899,444.420774996 54.6731719969,628.595702294 76.8692008927,782.134679859 291.444460835,950.060948718 467.388598733,1225.89992384" stroke="#009EE0" stroke-width="15.3" /></g><g id="PathGroup"><polyline fill="none" points="-145.962060237,446.189190496 47.7066354368,633.107616339 69.3065849105,788.677373456 286.773350052,958.562167693 464.996370707,1238.67792232" stroke="#009EE0" stroke-width="15.6" /></g><g id="PathGroup"><polyline fill="none" points="-155.804453575,447.957605996 40.7400988768,637.619530385 61.7439689284,795.220067053 282.102239269,967.063386667" stroke="#009EE0" stroke-width="15.9" /></g><g id="PathGroup"><polyline fill="none" points="-165.646846913,449.726021496 33.7735623167,642.131444431 54.1813529462,801.762760651 277.431128485,975.564605642" stroke="#009EE0" stroke-width="16.2" /></g><g id="PathGroup"><polyline fill="none" points="-175.489240251,451.494436996 26.8070257567,646.643358477 46.6187369641,808.305454248 272.760017702,984.065824616" stroke="#009EE0" stroke-width="16.5" /></g><g id="PathGroup"><polyline fill="none" points="-185.331633589,453.262852496 19.8404891966,651.155272523 39.0561209819,814.848147845 268.088906919,992.56704359" stroke="#009EE0" stroke-width="16.8" /></g><g id="PathGroup"><polyline fill="none" points="-195.174026927,455.031267996 12.8739526365,655.667186569 31.4935049998,821.390841442 263.417796135,1001.06826256" stroke="#009EE0" stroke-width="17.1" /></g><g id="PathGroup"><polyline fill="none" points="-205.016420265,456.799683496 5.90741607647,660.179100615 23.9308890176,827.933535039 258.746685352,1009.56948154" stroke="#009EE0" stroke-width="17.4" /></g><g id="PathGroup"><polyline fill="none" points="-214.858813603,458.568098996 -1.05912048359,664.69101466 16.3682730355,834.476228636 254.075574569,1018.07070051" stroke="#009EE0" stroke-width="17.7" /></g><g id="PathGroup"><polyline fill="none" points="-224.701206941,460.336514496 -8.02565704365,669.202928706 8.80565705335,841.018922234 249.404463786,1026.57191949" stroke="#009EE0" stroke-width="18.0" /></g><g id="PathGroup"><polyline fill="none" points="-234.543600279,462.104929996 -14.9921936037,673.714842752 1.2430410712,847.561615831 244.733353002,1035.07313846" stroke="#009EE0" stroke-width="18.3" /></g><g id="PathGroup"><polyline fill="none" points="-244.385993617,463.873345496 -21.9587301638,678.226756798 -6.31957491095,854.104309428 240.062242219,1043.57435744" stroke="#009EE0" stroke-width="18.6" /></g><g id="PathGroup"><polyline fill="none" points="-254.228386955,465.641760996 -28.9252667238,682.738670844 -13.8821908931,860.647003025 235.391131436,1052.07557641" stroke="#009EE0" stroke-width="18.9" /></g><g id="PathGroup"><polyline fill="none" points="-264.070780293,467.410176495 -35.8918032839,687.25058489 -21.4448068752,867.189696622 230.720020652,1060.57679539" stroke="#009EE0" stroke-width="19.2" /></g><g id="PathGroup"><polyline fill="none" points="-273.913173631,469.178591995 -42.858339844,691.762498936 -29.0074228574,873.73239022 226.048909869,1069.07801436" stroke="#009EE0" stroke-width="19.5" /></g><g id="PathGroup"><polyline fill="none" points="-283.755566969,470.947007495 -49.824876404,696.274412982 -36.5700388395,880.275083817 221.377799086,1077.57923333" stroke="#009EE0" stroke-width="19.8" /></g><g id="PathGroup"><polyline fill="none" points="-293.597960307,472.715422995 -56.7914129641,700.786327027 -44.1326548217,886.817777414 216.706688303,1086.08045231" stroke="#009EE0" stroke-width="20.1" /></g><g id="PathGroup"><polyline fill="none" points="-303.440353645,474.483838495 -63.7579495241,705.298241073 -51.6952708038,893.360471011 212.035577519,1094.58167128" stroke="#009EE0" stroke-width="20.4" /></g><g id="PathGroup"><polyline fill="none" points="-70.7244860842,709.810155119 -59.257886786,899.903164608 207.364466736,1103.08289026" stroke="#009EE0" stroke-width="20.7" /></g><g id="PathGroup"><polyline fill="none" points="-77.6910226443,714.322069165 -66.8205027681,906.445858205 202.693355953,1111.58410923" stroke="#009EE0" stroke-width="21.0" /></g><g id="PathGroup"><polyline fill="none" points="-74.3831187503,912.988551803 198.022245169,1120.08532821" stroke="#009EE0" stroke-width="21.3" /></g><g id="PathGroup"><polyline fill="none" points="-81.9457347324,919.5312454 193.351134386,1128.58654718" stroke="#009EE0" stroke-width="21.6" /></g><g id="PathGroup"><polyline fill="none" points="-89.5083507146,926.073938997 188.680023603,1137.08776615" stroke="#009EE0" stroke-width="21.9" /></g><g id="PathGroup"><polyline fill="none" points="-97.0709666967,932.616632594 184.008912819,1145.58898513" stroke="#009EE0" stroke-width="22.2" /></g><g id="PathGroup"><polyline fill="none" points="-104.633582679,939.159326191 179.337802036,1154.0902041" stroke="#009EE0" stroke-width="22.5" /></g><g id="PathGroup"><polyline fill="none" points="-112.196198661,945.702019788 174.666691253,1162.59142308" stroke="#009EE0" stroke-width="22.8" /></g><g id="PathGroup"><polyline fill="none" points="-119.758814643,952.244713386 169.99558047,1171.09264205" stroke="#009EE0" stroke-width="23.1" /></g><g id="PathGroup"><polyline fill="none" points="-127.321430625,958.787406983 165.324469686,1179.59386103" stroke="#009EE0" stroke-width="23.4" /></g><g id="PathGroup"><polyline fill="none" points="-134.884046607,965.33010058 160.653358903,1188.09508" stroke="#009EE0" stroke-width="23.7" /></g><g id="PathGroup"><polyline fill="none" points="-142.44666259,971.872794177 155.98224812,1196.59629898" stroke="#009EE0" stroke-width="24.0" /></g></g></svg>
