<svg baseProfile="full" height="100%" version="1.1" viewBox="0,-1,901,901" width="100%" xmlns="http://www.w3.org/2000/svg" xmlns:ev="http://www.w3.org/2001/xml-events" xmlns:xlink="http://www.w3.org/1999/xlink"><defs><clipPath id="LOGO_CLIPPATH"><rect height="901" width="901" x="0" y="-1" /></clipPath></defs><g clip-path="url(#LOGO_CLIPPATH )" id="Logo_GROUP"><g id="PathGroup"><polyline fill="none" points="0.0,0.0 10.0,10.0 53.0,53.0 113.0,113.0 163.0,163.0 216.0,216.0 262.0,262.0 340.0,340.0 367.0,367.0 416.0,416.0 487.0,487.0 502.0,502.0 578.0,578.0 639.0,639.0 655.0,655.0 715.0,715.0 791.0,791.0 845.0,845.0 900.0,900.0" stroke="#009EE0" stroke-width="0.5" /></g><g id="PathGroup"><polyline fill="none" points="-28.5322273929,5.1876777078 -13.9258642191,14.247707778 24.4309451744,57.9808740572 89.1858620863,117.304281058 138.466571512,167.807378351 192.932063667,222.623466868 236.932978032,274.475752869 324.457489978,361.463466221 351.724562147,389.26344534 406.05634557,439.372713505 473.179021114,512.494715975 495.062664869,528.713917371 571.756702577,605.295077162 632.749453815,663.412510571 647.806911136,683.093762165 709.331500463,739.656806626 785.666453085,815.424440164 839.421121009,869.266975691 895.348978607,925.580617663" stroke="#009EE0" stroke-width="1.5" /></g><g id="PathGroup"><polyline fill="none" points="-57.0644547858,10.3753554156 -37.8517284383,18.4954155561 -4.13810965113,62.9617481144 65.3717241725,121.608562116 113.933143024,172.614756703 169.864127335,229.246933736 211.865956064,286.951505738 308.914979956,382.926932442 336.449124294,411.52689068 396.112691141,462.74542701 459.358042229,537.98943195 488.125329738,555.427834741 565.513405155,632.590154324 626.49890763,687.825021142 640.613822273,711.187524331 703.663000927,764.313613252 780.33290617,839.848880327 833.842242019,893.533951383 890.697957214,951.161235325" stroke="#009EE0" stroke-width="2.5" /></g><g id="PathGroup"><polyline fill="none" points="-61.7775926574,22.7431233341 -32.7071644767,67.9426221716 41.5575862588,125.912843174 89.3997145354,177.422135054 146.796191002,235.870400603 186.798934095,299.427258607 293.372469934,404.390398663 321.173686441,433.790336019 386.169036711,486.118140515 445.537063343,563.484147925 481.187994607,582.141752112 559.270107732,659.885231487 620.248361445,712.237531714 633.420733409,739.281286496 697.99450139,788.970419879 774.999359255,864.273320491 828.263363028,917.800927074 886.04693582,976.741852988" stroke="#009EE0" stroke-width="3.5" /></g><g id="PathGroup"><polyline fill="none" points="-61.2762193023,72.9234962288 17.7434483451,130.217124232 64.8662860471,182.229513406 123.728254669,242.493867471 161.731912127,311.903011476 277.829959912,425.853864884 305.898248588,456.053781359 376.225382281,509.49085402 431.716084458,588.9788639 474.250659476,608.855669482 553.026810309,687.180308649 613.99781526,736.650042285 626.227644546,767.375048661 692.326001854,813.627226505 769.665812341,888.697760655 822.684484038,942.067902766 881.395914427,1002.32247065" stroke="#009EE0" stroke-width="4.5" /></g><g id="PathGroup"><polyline fill="none" points="-89.8452741278,77.9043702861 -6.07068956863,134.52140529 40.3328575589,187.036891757 100.660318336,249.117334339 136.664890159,324.378764345 262.28744989,447.317331104 290.622810735,478.317226699 366.281727851,532.863567525 417.895105572,614.473579875 467.313324344,635.569586853 546.783512886,714.475385811 607.747269075,761.062552856 619.034555682,795.468810827 686.657502317,838.284033131 764.332265426,913.122200818 817.105605047,966.334878457" stroke="#009EE0" stroke-width="5.5" /></g><g id="PathGroup"><polyline fill="none" points="-118.414328953,82.8852443433 -29.8848274824,138.825686348 15.7994290707,191.844270108 77.5923820036,255.740801207 111.597868191,336.854517214 246.744939868,468.780797325 275.347372881,500.580672039 356.338073422,556.236281029 404.074126686,639.96829585 460.375989213,662.283504223 540.540215464,741.770462973 601.496722891,785.475063427 611.841466819,823.562572992 680.98900278,862.940839757 758.998718511,937.546640982 811.526726057,990.601854149" stroke="#009EE0" stroke-width="6.5" /></g><g id="PathGroup"><polyline fill="none" points="-146.983383779,87.8661184005 -53.6989653961,143.129967406 -8.7339994175,196.65164846 54.5244456709,262.364268075 86.5308462228,349.330270083 231.202429846,490.244263546 260.071935028,522.844117378 346.394418992,579.608994534 390.253147801,665.463011825 453.438654082,688.997421594 534.296918041,769.065540136 595.246176706,809.887573999 604.648377955,851.656335157 675.320503244,887.597646384 753.665171596,961.971081145" stroke="#009EE0" stroke-width="7.5" /></g><g id="PathGroup"><polyline fill="none" points="-77.5131033098,147.434248464 -33.2674279057,201.459026811 31.4565093381,268.987734943 61.4638242546,361.806022952 215.659919824,511.707729767 244.796497175,545.107562718 336.450764562,602.981708039 376.432168915,690.9577278 446.501318951,715.711338964 528.053620618,796.360617298 588.995630521,834.30008457 597.455289091,879.750097322 669.652003707,912.25445301 748.331624681,986.395521309" stroke="#009EE0" stroke-width="8.5" /></g><g id="PathGroup"><polyline fill="none" points="-101.327241224,151.738529522 -57.8008563939,206.266405163 8.38857300541,275.61120181 36.3968022864,374.281775821 200.117409802,533.171195988 229.521059322,567.371008058 326.507110133,626.354421544 362.61119003,716.452443775 439.56398382,742.425256335 521.810323195,823.65569446 582.745084336,858.712595141 590.262200228,907.843859488 663.983504171,936.911259636 742.998077766,1010.81996147" stroke="#009EE0" stroke-width="9.5" /></g><g id="PathGroup"><polyline fill="none" points="-82.3342848821,211.073783514 -14.6793633273,282.234668678 11.3297803183,386.75752869 184.57489978,554.634662209 214.245621469,589.634453398 316.563455703,649.727135049 348.790211144,741.94715975 432.626648689,769.139173705 515.567025773,850.950771622 576.494538151,883.125105712 583.069111364,935.937621653 658.315004634,961.568066262" stroke="#009EE0" stroke-width="10.5" /></g><g id="PathGroup"><polyline fill="none" points="-106.86771337,215.881161866 -37.7472996601,288.858135546 -13.7372416499,399.233281558 169.032389758,576.09812843 198.970183616,611.897898737 306.619801273,673.099848554 334.969232258,767.441875725 425.689313558,795.853091076 509.32372835,878.245848784 570.243991966,907.537616284 575.876022501,964.031383818" stroke="#009EE0" stroke-width="11.5" /></g><g id="PathGroup"><polyline fill="none" points="-131.401141859,220.688540217 -60.8152359928,295.481602414 -38.8042636181,411.709034427 153.489879736,597.561594651 183.694745763,634.161344077 296.676146843,696.472562059 321.148253373,792.9365917 418.751978427,822.567008446 503.080430927,905.540925947 563.993445781,931.950126855 568.682933637,992.125145984" stroke="#009EE0" stroke-width="12.5" /></g><g id="PathGroup"><polyline fill="none" points="-63.8712855862,424.184787296 137.947369714,619.025060872 168.41930791,656.424789417 286.732492414,719.845275564 307.327274487,818.431307674 411.814643296,849.280925817 496.837133504,932.836003109 557.742899596,956.362637426 561.489844773,1020.21890815" stroke="#009EE0" stroke-width="13.5" /></g><g id="PathGroup"><polyline fill="none" points="-88.9383075544,436.660540165 122.404859692,640.488527092 153.143870057,678.688234757 276.788837984,743.217989069 293.506295602,843.926023649 404.877308165,875.994843187 490.593836082,960.131080271 551.492353411,980.775147997" stroke="#009EE0" stroke-width="14.5" /></g><g id="PathGroup"><polyline fill="none" points="-114.005329523,449.136293034 106.86234967,661.951993313 137.868432204,700.951680096 266.845183554,766.590702574 279.685316716,869.420739624 397.939973033,902.708760558 484.350538659,987.426157433" stroke="#009EE0" stroke-width="15.5" /></g><g id="PathGroup"><polyline fill="none" points="-139.072351491,461.612045903 91.3198396476,683.415459534 122.592994351,723.215125436 256.901529125,789.963416078 265.86433783,894.915455599 391.002637902,929.422677928 478.107241236,1014.7212346" stroke="#009EE0" stroke-width="16.5" /></g><g id="PathGroup"><polyline fill="none" points="-164.139373459,474.087798772 75.7773296256,704.878925755 107.317556497,745.478570776 246.957874695,813.336129583 252.043358945,920.410171574 384.065302771,956.136595299 471.863943813,1042.01631176" stroke="#009EE0" stroke-width="17.5" /></g><g id="PathGroup"><polyline fill="none" points="-189.206395427,486.563551641 60.2348196036,726.342391976 92.0421186444,767.742016116 237.014220265,836.708843088 238.222380059,945.904887549 377.12796764,982.850512669" stroke="#009EE0" stroke-width="18.5" /></g><g id="PathGroup"><polyline fill="none" points="-214.273417395,499.03930451 44.6923095815,747.805858197 76.7666807913,790.005461455 227.070565835,860.081556593 224.401401174,971.399603524" stroke="#009EE0" stroke-width="19.5" /></g><g id="PathGroup"><polyline fill="none" points="-239.340439363,511.515057379 29.1497995595,769.269324418 61.4912429382,812.268906795 217.126911406,883.454270098 210.580422288,996.894319499" stroke="#009EE0" stroke-width="20.5" /></g><g id="PathGroup"><polyline fill="none" points="-264.407461332,523.990810248 13.6072895375,790.732790639 46.2158050851,834.532352135 207.183256976,906.826983603 196.759443402,1022.38903547" stroke="#009EE0" stroke-width="21.5" /></g><g id="PathGroup"><polyline fill="none" points="-289.4744833,536.466563117 -1.93522048452,812.19625686 30.940367232,856.795797475 197.239602546,930.199697108 182.938464517,1047.88375145" stroke="#009EE0" stroke-width="22.5" /></g><g id="PathGroup"><polyline fill="none" points="-314.541505268,548.942315986 -17.4777305065,833.65972308 15.6649293789,879.059242814 187.295948116,953.572410613 169.117485631,1073.37846742" stroke="#009EE0" stroke-width="23.5" /></g><g id="PathGroup"><polyline fill="none" points="-339.608527236,561.418068855 -33.0202405286,855.123189301 0.38949152585,901.322688154 177.352293687,976.945124118" stroke="#009EE0" stroke-width="24.5" /></g><g id="PathGroup"><polyline fill="none" points="-364.675549204,573.893821724 -48.5627505506,876.586655522 -14.8859463272,923.586133494 167.408639257,1000.31783762" stroke="#009EE0" stroke-width="25.5" /></g><g id="PathGroup"><polyline fill="none" points="-389.742571172,586.369574593 -64.1052605726,898.050121743 -30.1613841803,945.849578834 157.464984827,1023.69055113" stroke="#009EE0" stroke-width="26.5" /></g><g id="PathGroup"><polyline fill="none" points="-79.6477705946,919.513587964 -45.4368220334,968.113024173 147.521330398,1047.06326463" stroke="#009EE0" stroke-width="27.5" /></g><g id="PathGroup"><polyline fill="none" points="-95.1902806167,940.977054185 -60.7122598865,990.376469513" stroke="#009EE0" stroke-width="28.5" /></g><g id="PathGroup"><polyline fill="none" points="-110.732790639,962.440520406 -75.9876977396,1012.63991485" stroke="#009EE0" stroke-width="29.5" /></g></g></svg>
