<?xml version="1.0" encoding="utf-8"?>
<!-- Generator: Adobe Illustrator 21.0.2, SVG Export Plug-In . SVG Version: 6.00 Build 0)  -->
<svg version="1.1" id="Layer_1" xmlns:ev="http://www.w3.org/2001/xml-events"
	 xmlns="http://www.w3.org/2000/svg" xmlns:xlink="http://www.w3.org/1999/xlink" x="0px" y="0px" viewBox="0 0 902 902"
	 style="enable-background:new 0 0 902 902;" xml:space="preserve">
<style type="text/css">
	.st0{clip-path:url(#SVGID_2_);}
	.st1{fill:none;stroke:#009EE0;stroke-width:2;}
	.st2{fill:none;stroke:#009EE0;stroke-width:2.1;}
	.st3{fill:none;stroke:#009EE0;stroke-width:2.2;}
	.st4{fill:none;stroke:#009EE0;stroke-width:2.3;}
	.st5{fill:none;stroke:#009EE0;stroke-width:2.4;}
	.st6{fill:none;stroke:#009EE0;stroke-width:2.5;}
	.st7{fill:none;stroke:#009EE0;stroke-width:2.6;}
	.st8{fill:none;stroke:#009EE0;stroke-width:2.7;}
	.st9{fill:none;stroke:#009EE0;stroke-width:2.8;}
	.st10{fill:none;stroke:#009EE0;stroke-width:2.9;}
	.st11{fill:none;stroke:#009EE0;stroke-width:3;}
	.st12{fill:none;stroke:#009EE0;stroke-width:3.1;}
	.st13{fill:none;stroke:#009EE0;stroke-width:3.2;}
	.st14{fill:none;stroke:#009EE0;stroke-width:3.3;}
	.st15{fill:none;stroke:#009EE0;stroke-width:3.4;}
	.st16{fill:none;stroke:#009EE0;stroke-width:3.5;}
	.st17{fill:none;stroke:#009EE0;stroke-width:3.6;}
	.st18{fill:none;stroke:#009EE0;stroke-width:3.7;}
	.st19{fill:none;stroke:#009EE0;stroke-width:3.8;}
	.st20{fill:none;stroke:#009EE0;stroke-width:3.9;}
	.st21{fill:none;stroke:#009EE0;stroke-width:4;}
	.st22{fill:none;stroke:#009EE0;stroke-width:4.1;}
	.st23{fill:none;stroke:#009EE0;stroke-width:4.2;}
	.st24{fill:none;stroke:#009EE0;stroke-width:4.3;}
	.st25{fill:none;stroke:#009EE0;stroke-width:4.4;}
	.st26{fill:none;stroke:#009EE0;stroke-width:4.5;}
	.st27{fill:none;stroke:#009EE0;stroke-width:4.6;}
	.st28{fill:none;stroke:#009EE0;stroke-width:4.7;}
	.st29{fill:none;stroke:#009EE0;stroke-width:4.8;}
	.st30{fill:none;stroke:#009EE0;stroke-width:4.9;}
	.st31{fill:none;stroke:#009EE0;stroke-width:5;}
	.st32{fill:none;stroke:#009EE0;stroke-width:5.1;}
	.st33{fill:none;stroke:#009EE0;stroke-width:5.2;}
	.st34{fill:none;stroke:#009EE0;stroke-width:5.3;}
	.st35{fill:none;stroke:#009EE0;stroke-width:5.4;}
	.st36{fill:none;stroke:#009EE0;stroke-width:5.5;}
	.st37{fill:none;stroke:#009EE0;stroke-width:5.6;}
	.st38{fill:none;stroke:#009EE0;stroke-width:5.7;}
	.st39{fill:none;stroke:#009EE0;stroke-width:5.8;}
	.st40{fill:none;stroke:#009EE0;stroke-width:5.9;}
	.st41{fill:none;stroke:#009EE0;stroke-width:6;}
	.st42{fill:none;stroke:#009EE0;stroke-width:6.1;}
	.st43{fill:none;stroke:#009EE0;stroke-width:6.2;}
	.st44{fill:none;stroke:#009EE0;stroke-width:6.3;}
	.st45{fill:none;stroke:#009EE0;stroke-width:6.4;}
	.st46{fill:none;stroke:#009EE0;stroke-width:6.5;}
	.st47{fill:none;stroke:#009EE0;stroke-width:6.6;}
	.st48{fill:none;stroke:#009EE0;stroke-width:6.7;}
	.st49{fill:none;stroke:#009EE0;stroke-width:6.8;}
	.st50{fill:none;stroke:#009EE0;stroke-width:6.9;}
	.st51{fill:none;stroke:#009EE0;stroke-width:7;}
	.st52{fill:none;stroke:#009EE0;stroke-width:7.1;}
	.st53{fill:none;stroke:#009EE0;stroke-width:7.2;}
	.st54{fill:none;stroke:#009EE0;stroke-width:7.3;}
	.st55{fill:none;stroke:#009EE0;stroke-width:7.4;}
	.st56{fill:none;stroke:#009EE0;stroke-width:7.5;}
	.st57{fill:none;stroke:#009EE0;stroke-width:7.6;}
	.st58{fill:none;stroke:#009EE0;stroke-width:7.7;}
	.st59{fill:none;stroke:#009EE0;stroke-width:7.8;}
	.st60{fill:none;stroke:#009EE0;stroke-width:7.9;}
	.st61{fill:none;stroke:#009EE0;stroke-width:8;}
	.st62{fill:none;stroke:#009EE0;stroke-width:8.1;}
	.st63{fill:none;stroke:#009EE0;stroke-width:8.2;}
	.st64{fill:none;stroke:#009EE0;stroke-width:8.3;}
	.st65{fill:none;stroke:#009EE0;stroke-width:8.4;}
	.st66{fill:none;stroke:#009EE0;stroke-width:8.5;}
	.st67{fill:none;stroke:#009EE0;stroke-width:8.6;}
	.st68{fill:none;stroke:#009EE0;stroke-width:8.7;}
	.st69{fill:none;stroke:#009EE0;stroke-width:8.8;}
	.st70{fill:none;stroke:#009EE0;stroke-width:8.9;}
	.st71{fill:none;stroke:#009EE0;stroke-width:9;}
	.st72{fill:none;stroke:#009EE0;stroke-width:9.1;}
	.st73{fill:none;stroke:#009EE0;stroke-width:9.2;}
	.st74{fill:none;stroke:#009EE0;stroke-width:9.3;}
	.st75{fill:none;stroke:#009EE0;stroke-width:9.4;}
	.st76{fill:none;stroke:#009EE0;stroke-width:9.5;}
	.st77{fill:none;stroke:#009EE0;stroke-width:9.6;}
	.st78{fill:none;stroke:#009EE0;stroke-width:9.7;}
	.st79{fill:none;stroke:#009EE0;stroke-width:9.8;}
	.st80{fill:none;stroke:#009EE0;stroke-width:9.9;}
	.st81{fill:none;stroke:#009EE0;stroke-width:10;}
	.st82{fill:none;stroke:#009EE0;stroke-width:10.1;}
	.st83{fill:none;stroke:#009EE0;stroke-width:10.2;}
	.st84{fill:none;stroke:#009EE0;stroke-width:10.3;}
	.st85{fill:none;stroke:#009EE0;stroke-width:10.4;}
	.st86{fill:none;stroke:#009EE0;stroke-width:10.5;}
	.st87{fill:none;stroke:#009EE0;stroke-width:10.6;}
	.st88{fill:none;stroke:#009EE0;stroke-width:10.7;}
	.st89{fill:none;stroke:#009EE0;stroke-width:10.8;}
	.st90{fill:none;stroke:#009EE0;stroke-width:10.9;}
	.st91{fill:none;stroke:#009EE0;stroke-width:11;}
	.st92{fill:none;stroke:#009EE0;stroke-width:11.1;}
	.st93{fill:none;stroke:#009EE0;stroke-width:11.2;}
	.st94{fill:none;stroke:#009EE0;stroke-width:11.3;}
	.st95{fill:none;stroke:#009EE0;stroke-width:11.4;}
	.st96{fill:none;stroke:#009EE0;stroke-width:11.5;}
	.st97{fill:none;stroke:#009EE0;stroke-width:11.6;}
	.st98{fill:none;stroke:#009EE0;stroke-width:11.7;}
	.st99{fill:none;stroke:#009EE0;stroke-width:11.8;}
	.st100{fill:none;stroke:#009EE0;stroke-width:11.9;}
	.st101{fill:none;stroke:#009EE0;stroke-width:12;}
	.st102{fill:none;stroke:#009EE0;stroke-width:12.1;}
	.st103{fill:none;stroke:#009EE0;stroke-width:12.2;}
	.st104{fill:none;stroke:#009EE0;stroke-width:12.3;}
	.st105{fill:none;stroke:#009EE0;stroke-width:12.4;}
	.st106{fill:none;stroke:#009EE0;stroke-width:12.5;}
	.st107{fill:none;stroke:#009EE0;stroke-width:12.6;}
	.st108{fill:none;stroke:#009EE0;stroke-width:12.7;}
	.st109{fill:none;stroke:#009EE0;stroke-width:12.8;}
</style>
<g>
	<defs>
		<rect id="SVGID_1_" width="902" height="902"/>
	</defs>
	<clipPath id="SVGID_2_">
		<use xlink:href="#SVGID_1_"  style="overflow:visible;"/>
	</clipPath>
	<g id="Logo_GROUP" class="st0">
		<g id="PathGroup">
			<polyline class="st1" points="0,2 35,37 95,97 144,146 196,198 203,205 258,260 311,313 365,367 415,417 475,477 544,546 
				587,589 645,647 657,659 731,733 757,759 833,835 900,902 			"/>
		</g>
		<g id="PathGroup_1_">
			<polyline class="st2" points="-15.7,-0.5 20.8,34.8 81.1,99 130.7,148.4 180.4,201.4 188.8,208.5 242.3,266.6 303.2,316.2 
				356.2,380.4 410.8,425.5 474.5,486 543.9,554.8 587.2,600 645.2,656.5 657.4,674 731.1,743.8 758.7,769.9 834.3,845.4 
				901.6,911.9 			"/>
		</g>
		<g id="PathGroup_2_">
			<polyline class="st3" points="-31.4,-3.1 6.5,32.7 67.3,100.9 117.4,150.7 164.8,204.9 174.7,212 226.7,273.2 295.4,319.3 
				347.4,393.7 406.7,434.1 474.1,495 543.9,563.6 587.4,611 645.3,666 657.8,689 731.2,754.6 760.4,780.7 835.7,855.8 903.2,921.7 
							"/>
		</g>
		<g id="PathGroup_3_">
			<polyline class="st4" points="-7.7,30.5 53.4,102.9 104.1,153.1 149.1,208.3 160.5,215.5 211,279.8 287.6,322.5 338.6,407.1 
				402.5,442.6 473.6,504 543.8,572.4 587.6,622 645.5,675.5 658.1,704 731.3,765.4 762,791.6 837,866.2 904.8,931.6 			"/>
		</g>
		<g id="PathGroup_4_">
			<polyline class="st5" points="-21.9,28.3 39.6,104.9 90.8,155.5 133.5,211.8 146.3,219 195.4,286.5 279.9,325.6 329.7,420.4 
				398.4,451.2 473.2,513 543.8,581.2 587.9,633 645.6,685 658.5,719 731.5,776.2 763.7,802.5 838.3,876.7 906.4,941.5 			"/>
		</g>
		<g id="PathGroup_5_">
			<polyline class="st6" points="-36.2,26.1 25.7,106.9 77.6,157.9 117.9,215.2 132.1,222.5 179.7,293.1 272.1,328.8 320.9,433.8 
				394.2,459.7 472.7,521.9 543.7,590 588.1,644 645.8,694.5 658.9,734 731.6,787 765.4,813.4 839.7,887.1 908,951.4 			"/>
		</g>
		<g id="PathGroup_6_">
			<polyline class="st7" points="-50.4,24 11.8,108.8 64.3,160.2 102.3,218.7 118,226.1 164,299.7 264.3,331.9 312.1,447.1 
				390,468.2 472.3,530.9 543.6,598.8 588.3,655 645.9,704 659.3,749 731.7,797.8 767.1,824.2 841,897.5 909.6,961.2 			"/>
		</g>
		<g id="PathGroup_7_">
			<polyline class="st8" points="-2,110.8 51,162.6 86.6,222.1 103.8,229.6 148.4,306.3 256.5,335.1 303.3,460.5 385.9,476.8 
				471.8,539.9 543.6,607.6 588.5,666 646.1,713.5 659.7,764 731.8,808.6 768.7,835.1 842.3,907.9 911.1,971.1 			"/>
		</g>
		<g id="PathGroup_8_">
			<polyline class="st9" points="-15.9,112.8 37.7,165 71,225.6 89.6,233.1 132.7,312.9 248.7,338.2 294.5,473.8 381.7,485.3 
				471.3,548.9 543.5,616.4 588.7,677 646.3,723 660.1,779 731.9,819.4 770.4,846 843.7,918.3 912.7,981 			"/>
		</g>
		<g id="PathGroup_9_">
			<polyline class="st10" points="-29.7,114.8 24.4,167.4 55.4,229 75.5,236.6 117.1,319.5 240.9,341.4 285.7,487.2 377.5,493.9 
				470.9,557.9 543.4,625.2 588.9,688 646.4,732.5 660.4,794 732,830.2 772.1,856.8 845,928.7 914.3,990.9 			"/>
		</g>
		<g id="PathGroup_10_">
			<polyline class="st11" points="-43.6,116.7 11.1,169.7 39.8,232.5 61.3,240.1 101.4,326.1 233.2,344.6 276.8,500.5 373.4,502.4 
				470.4,566.9 543.4,634 589.2,699 646.6,742 660.8,809 732.2,841 773.8,867.7 846.3,939.1 915.9,1000.7 			"/>
		</g>
		<g id="PathGroup_11_">
			<polyline class="st12" points="-2.2,172.1 24.1,235.9 47.1,243.6 85.7,332.8 225.4,347.7 268,513.9 369.2,510.9 470,575.9 
				543.3,642.8 589.4,710 646.7,751.5 661.2,823.9 732.3,851.8 775.4,878.6 847.7,949.6 917.5,1010.6 			"/>
		</g>
		<g id="PathGroup_12_">
			<polyline class="st13" points="-15.5,174.5 8.5,239.4 32.9,247.1 70.1,339.4 217.6,350.9 259.2,527.2 365.1,519.5 469.5,584.9 
				543.3,651.6 589.6,721 646.9,761 661.6,838.9 732.4,862.6 777.1,889.5 849,960 919.1,1020.5 			"/>
		</g>
		<g id="PathGroup_13_">
			<polyline class="st14" points="-7.1,242.8 18.8,250.6 54.4,346 209.8,354 250.4,540.6 360.9,528 469,593.8 543.2,660.4 
				589.8,732 647.1,770.5 662,853.9 732.5,873.4 778.8,900.3 850.3,970.4 920.7,1030.3 			"/>
		</g>
		<g id="PathGroup_14_">
			<polyline class="st15" points="-22.7,246.3 4.6,254.1 38.8,352.6 202,357.2 241.6,553.9 356.7,536.6 468.6,602.8 543.1,669.2 
				590,743 647.2,780 662.4,868.9 732.6,884.2 780.5,911.2 851.7,980.8 922.3,1040.2 			"/>
		</g>
		<g id="PathGroup_15_">
			<polyline class="st16" points="-9.6,257.6 23.1,359.2 194.2,360.3 232.8,567.3 352.6,545.1 468.1,611.8 543.1,678 590.2,754 
				647.4,789.5 662.7,883.9 732.7,895 782.1,922.1 853,991.2 923.9,1050.1 			"/>
		</g>
		<g id="PathGroup_16_">
			<polyline class="st17" points="-23.8,261.1 7.4,365.8 186.4,363.5 223.9,580.6 348.4,553.6 467.7,620.8 543,686.8 590.5,765 
				647.5,799 663.1,898.9 732.8,905.8 783.8,932.9 854.3,1001.6 925.5,1060 			"/>
		</g>
		<g id="PathGroup_17_">
			<polyline class="st18" points="-8.2,372.4 178.7,366.7 215.1,594 344.2,562.2 467.2,629.8 543,695.6 590.7,776 647.7,808.5 
				663.5,913.9 733,916.6 785.5,943.8 855.7,1012.1 927.1,1069.8 			"/>
		</g>
		<g id="PathGroup_18_">
			<polyline class="st19" points="-23.9,379 170.9,369.8 206.3,607.3 340.1,570.7 466.8,638.8 542.9,704.4 590.9,787 647.8,818 
				663.9,928.9 733.1,927.4 787.2,954.7 857,1022.5 928.7,1079.7 			"/>
		</g>
		<g id="PathGroup_19_">
			<polyline class="st20" points="-39.6,385.7 163.1,373 197.5,620.7 335.9,579.3 466.3,647.8 542.8,713.2 591.1,798 648,827.5 
				664.3,943.9 733.2,938.2 788.9,965.6 858.3,1032.9 930.3,1089.6 			"/>
		</g>
		<g id="PathGroup_20_">
			<polyline class="st21" points="-55.2,392.3 155.3,376.1 188.7,634 331.8,587.8 465.8,656.8 542.8,722 591.3,809 648.2,837 
				664.6,958.9 733.3,949 790.5,976.4 859.7,1043.3 931.8,1099.4 			"/>
		</g>
		<g id="PathGroup_21_">
			<polyline class="st22" points="-70.9,398.9 147.5,379.3 179.9,647.4 327.6,596.3 465.4,665.8 542.7,730.8 591.5,820 648.3,846.5 
				665,973.9 733.4,959.8 792.2,987.3 861,1053.7 933.4,1109.3 			"/>
		</g>
		<g id="PathGroup_22_">
			<polyline class="st23" points="-86.5,405.5 139.7,382.4 171,660.7 323.4,604.9 464.9,674.7 542.7,739.6 591.7,831 648.5,856 
				665.4,988.9 733.5,970.6 793.9,998.2 862.4,1064.1 935,1119.2 			"/>
		</g>
		<g id="PathGroup_23_">
			<polyline class="st24" points="-102.2,412.1 132,385.6 162.2,674.1 319.3,613.4 464.5,683.7 542.6,748.4 592,842 648.6,865.5 
				665.8,1003.9 733.6,981.4 795.6,1009 863.7,1074.5 936.6,1129.1 			"/>
		</g>
		<g id="PathGroup_24_">
			<polyline class="st25" points="-117.9,418.7 124.2,388.7 153.4,687.4 315.1,622 464,692.7 542.5,757.2 592.2,852.9 648.8,875 
				666.2,1018.9 733.8,992.2 797.2,1019.9 865,1085 938.2,1138.9 			"/>
		</g>
		<g id="PathGroup_25_">
			<polyline class="st26" points="-133.5,425.3 116.4,391.9 144.6,700.8 310.9,630.5 463.6,701.7 542.5,766 592.4,863.9 649,884.5 
				666.6,1033.9 733.9,1003 798.9,1030.8 866.4,1095.4 939.8,1148.8 			"/>
		</g>
		<g id="PathGroup_26_">
			<polyline class="st27" points="-149.2,432 108.6,395.1 135.8,714.2 306.8,639 463.1,710.7 542.4,774.8 592.6,874.9 649.1,894 
				666.9,1048.9 734,1013.8 800.6,1041.7 867.7,1105.8 941.4,1158.7 			"/>
		</g>
		<g id="PathGroup_27_">
			<polyline class="st28" points="-164.8,438.6 100.8,398.2 127,727.5 302.6,647.6 462.6,719.7 542.3,783.6 592.8,885.9 
				649.3,903.5 667.3,1063.9 734.1,1024.6 802.3,1052.5 869,1116.2 943,1168.6 			"/>
		</g>
		<g id="PathGroup_28_">
			<polyline class="st29" points="-180.5,445.2 93,401.4 118.1,740.9 298.5,656.1 462.2,728.7 542.3,792.4 593,896.9 649.4,913 
				667.7,1078.9 734.2,1035.4 803.9,1063.4 870.4,1126.6 944.6,1178.4 			"/>
		</g>
		<g id="PathGroup_29_">
			<polyline class="st30" points="-196.2,451.8 85.2,404.5 109.3,754.2 294.3,664.6 461.7,737.7 542.2,801.2 593.3,907.9 
				649.6,922.5 668.1,1093.9 734.3,1046.2 805.6,1074.3 871.7,1137 946.2,1188.3 			"/>
		</g>
		<g id="PathGroup_30_">
			<polyline class="st31" points="-211.8,458.4 77.5,407.7 100.5,767.6 290.1,673.2 461.3,746.7 542.2,810 593.5,918.9 649.7,932 
				668.5,1108.9 734.5,1057 807.3,1085.1 873,1147.4 947.8,1198.2 			"/>
		</g>
		<g id="PathGroup_31_">
			<polyline class="st32" points="-227.5,465 69.7,410.8 91.7,780.9 286,681.7 460.8,755.6 542.1,818.8 593.7,929.9 649.9,941.5 
				668.8,1123.8 734.6,1067.8 809,1096 874.4,1157.9 949.4,1208 			"/>
		</g>
		<g id="PathGroup_32_">
			<polyline class="st33" points="-243.1,471.6 61.9,414 82.9,794.3 281.8,690.3 460.4,764.6 542,827.6 593.9,940.9 650.1,951 
				669.2,1138.8 734.7,1078.6 810.6,1106.9 875.7,1168.3 951,1217.9 			"/>
		</g>
		<g id="PathGroup_33_">
			<polyline class="st34" points="-258.8,478.3 54.1,417.1 74.1,807.6 277.6,698.8 459.9,773.6 542,836.4 594.1,951.9 650.2,960.5 
				669.6,1153.8 734.8,1089.4 812.3,1117.8 877,1178.7 952.5,1227.8 			"/>
		</g>
		<g id="PathGroup_34_">
			<polyline class="st35" points="-274.5,484.9 46.3,420.3 65.3,821 273.5,707.3 459.4,782.6 541.9,845.2 594.3,962.9 650.4,970 
				670,1168.8 734.9,1100.2 814,1128.6 878.4,1189.1 954.1,1237.7 			"/>
		</g>
		<g id="PathGroup_35_">
			<polyline class="st36" points="-290.1,491.5 38.5,423.5 56.4,834.3 269.3,715.9 459,791.6 541.9,854 594.5,973.9 650.5,979.5 
				670.4,1183.8 735,1111 815.7,1139.5 879.7,1199.5 955.7,1247.5 			"/>
		</g>
		<g id="PathGroup_36_">
			<polyline class="st37" points="-305.8,498.1 30.8,426.6 47.6,847.7 265.2,724.4 458.5,800.6 541.8,862.8 594.8,984.9 650.7,989 
				670.8,1198.8 735.1,1121.8 817.3,1150.4 881,1209.9 957.3,1257.4 			"/>
		</g>
		<g id="PathGroup_37_">
			<polyline class="st38" points="-321.4,504.7 23,429.8 38.8,861 261,733 458.1,809.6 541.7,871.6 595,995.9 650.8,998.5 
				671.1,1213.8 735.3,1132.6 819,1161.2 882.4,1220.4 958.9,1267.3 			"/>
		</g>
		<g id="PathGroup_38_">
			<polyline class="st39" points="-337.1,511.3 15.2,432.9 30,874.4 256.8,741.5 457.6,818.6 541.7,880.4 595.2,1006.9 651,1008 
				671.5,1228.8 735.4,1143.4 820.7,1172.1 883.7,1230.8 960.5,1277.2 			"/>
		</g>
		<g id="PathGroup_39_">
			<polyline class="st40" points="-352.8,517.9 7.4,436.1 21.2,887.7 252.7,750 457.1,827.5 541.6,889.2 595.4,1017.9 651.2,1017.4 
				671.9,1243.8 735.5,1154.2 822.4,1183 885,1241.2 962.1,1287 			"/>
		</g>
		<g id="PathGroup_40_">
			<polyline class="st41" points="-368.4,524.6 -0.4,439.2 12.4,901.1 248.5,758.6 456.7,836.5 541.5,898 595.6,1028.9 
				651.3,1026.9 672.3,1258.8 735.6,1165 824.1,1193.9 886.4,1251.6 963.7,1296.9 			"/>
		</g>
		<g id="PathGroup_41_">
			<polyline class="st42" points="-8.2,442.4 3.5,914.4 244.3,767.1 456.2,845.5 541.5,906.8 595.8,1039.9 651.5,1036.4 
				672.7,1273.8 735.7,1175.8 825.7,1204.7 887.7,1262 965.3,1306.8 			"/>
		</g>
		<g id="PathGroup_42_">
			<polyline class="st43" points="-5.3,927.8 240.2,775.7 455.8,854.5 541.4,915.6 596.1,1050.9 651.6,1045.9 673.1,1288.8 
				735.8,1186.6 827.4,1215.6 889,1272.4 966.9,1316.6 			"/>
		</g>
		<g id="PathGroup_43_">
			<polyline class="st44" points="-14.1,941.1 236,784.2 455.3,863.5 541.4,924.4 596.3,1061.9 651.8,1055.4 673.4,1303.8 
				735.9,1197.4 829.1,1226.5 890.4,1282.8 968.5,1326.5 			"/>
		</g>
		<g id="PathGroup_44_">
			<polyline class="st45" points="-22.9,954.5 231.9,792.7 454.9,872.5 541.3,933.2 596.5,1072.9 652,1064.9 673.8,1318.8 
				736.1,1208.2 830.8,1237.3 891.7,1293.3 970.1,1336.4 			"/>
		</g>
		<g id="PathGroup_45_">
			<polyline class="st46" points="-31.7,967.8 227.7,801.3 454.4,881.5 541.2,942 596.7,1083.9 652.1,1074.4 674.2,1333.8 
				736.2,1219 832.4,1248.2 893,1303.7 971.7,1346.3 			"/>
		</g>
		<g id="PathGroup_46_">
			<polyline class="st47" points="-40.5,981.2 223.5,809.8 453.9,890.5 541.2,950.8 596.9,1094.9 652.3,1083.9 674.6,1348.8 
				736.3,1229.8 834.1,1259.1 894.4,1314.1 973.2,1356.1 			"/>
		</g>
		<g id="PathGroup_47_">
			<polyline class="st48" points="-49.4,994.5 219.4,818.4 453.5,899.5 541.1,959.6 597.1,1105.9 652.4,1093.4 675,1363.8 
				736.4,1240.6 835.8,1270 895.7,1324.5 974.8,1366 			"/>
		</g>
		<g id="PathGroup_48_">
			<polyline class="st49" points="-58.2,1007.9 215.2,826.9 453,908.4 541.1,968.4 597.4,1116.9 652.6,1102.9 675.3,1378.8 
				736.5,1251.4 837.5,1280.8 897,1334.9 976.4,1375.9 			"/>
		</g>
		<g id="PathGroup_49_">
			<polyline class="st50" points="-67,1021.2 211,835.4 452.6,917.4 541,977.2 597.6,1127.9 652.7,1112.4 675.7,1393.8 
				736.6,1262.2 839.1,1291.7 898.4,1345.3 978,1385.7 			"/>
		</g>
		<g id="PathGroup_50_">
			<polyline class="st51" points="-75.8,1034.6 206.9,844 452.1,926.4 540.9,986 597.8,1138.9 652.9,1121.9 676.1,1408.8 
				736.8,1273 840.8,1302.6 899.7,1355.7 979.6,1395.6 			"/>
		</g>
		<g id="PathGroup_51_">
			<polyline class="st52" points="-84.6,1048 202.7,852.5 451.7,935.4 540.9,994.8 598,1149.9 653.1,1131.4 676.5,1423.8 
				736.9,1283.8 842.5,1313.4 901,1366.2 981.2,1405.5 			"/>
		</g>
		<g id="PathGroup_52_">
			<polyline class="st53" points="-93.4,1061.3 198.6,861.1 451.2,944.4 540.8,1003.6 598.2,1160.9 653.2,1140.9 676.9,1438.7 
				737,1294.6 844.2,1324.3 902.4,1376.6 982.8,1415.4 			"/>
		</g>
		<g id="PathGroup_53_">
			<polyline class="st54" points="-102.3,1074.7 194.4,869.6 450.7,953.4 540.7,1012.4 598.4,1171.9 653.4,1150.4 677.3,1453.7 
				737.1,1305.4 845.8,1335.2 903.7,1387 984.4,1425.2 			"/>
		</g>
		<g id="PathGroup_54_">
			<polyline class="st55" points="-111.1,1088 190.2,878.1 450.3,962.4 540.7,1021.2 598.6,1182.9 653.5,1159.9 677.6,1468.7 
				737.2,1316.2 847.5,1346.1 905,1397.4 986,1435.1 			"/>
		</g>
		<g id="PathGroup_55_">
			<polyline class="st56" points="-119.9,1101.4 186.1,886.7 449.8,971.4 540.6,1030 598.9,1193.9 653.7,1169.4 678,1483.7 
				737.3,1327 849.2,1356.9 906.4,1407.8 987.6,1445 			"/>
		</g>
		<g id="PathGroup_56_">
			<polyline class="st57" points="-128.7,1114.7 181.9,895.2 449.4,980.3 540.6,1038.8 599.1,1204.9 653.9,1178.9 678.4,1498.7 
				737.4,1337.8 850.9,1367.8 907.7,1418.2 989.2,1454.9 			"/>
		</g>
		<g id="PathGroup_57_">
			<polyline class="st58" points="-137.5,1128.1 177.7,903.8 448.9,989.3 540.5,1047.6 599.3,1215.9 654,1188.4 678.8,1513.7 
				737.6,1348.6 852.6,1378.7 909,1428.6 990.8,1464.7 			"/>
		</g>
		<g id="PathGroup_58_">
			<polyline class="st59" points="-146.3,1141.4 173.6,912.3 448.4,998.3 540.4,1056.4 599.5,1226.9 654.2,1197.9 679.2,1528.7 
				737.7,1359.4 854.2,1389.5 910.4,1439.1 992.4,1474.6 			"/>
		</g>
		<g id="PathGroup_59_">
			<polyline class="st60" points="-155.1,1154.8 169.4,920.8 448,1007.3 540.4,1065.2 599.7,1237.9 654.3,1207.4 679.5,1543.7 
				737.8,1370.2 855.9,1400.4 911.7,1449.5 993.9,1484.5 			"/>
		</g>
		<g id="PathGroup_60_">
			<polyline class="st61" points="-164,1168.1 165.3,929.4 447.5,1016.3 540.3,1074 599.9,1248.9 654.5,1216.9 679.9,1558.7 
				737.9,1381 857.6,1411.3 913.1,1459.9 995.5,1494.3 			"/>
		</g>
		<g id="PathGroup_61_">
			<polyline class="st62" points="-172.8,1181.5 161.1,937.9 447.1,1025.3 540.3,1082.8 600.2,1259.9 654.6,1226.4 680.3,1573.7 
				738,1391.8 859.3,1422.2 914.4,1470.3 997.1,1504.2 			"/>
		</g>
		<g id="PathGroup_62_">
			<polyline class="st63" points="-181.6,1194.8 156.9,946.5 446.6,1034.3 540.2,1091.6 600.4,1270.9 654.8,1235.9 680.7,1588.7 
				738.1,1402.6 860.9,1433 915.7,1480.7 998.7,1514.1 			"/>
		</g>
		<g id="PathGroup_63_">
			<polyline class="st64" points="-190.4,1208.2 152.8,955 446.2,1043.3 540.1,1100.4 600.6,1281.9 655,1245.4 681.1,1603.7 
				738.2,1413.4 862.6,1443.9 917.1,1491.1 1000.3,1524 			"/>
		</g>
		<g id="PathGroup_64_">
			<polyline class="st65" points="-199.2,1221.5 148.6,963.5 445.7,1052.3 540.1,1109.2 600.8,1292.9 655.1,1254.9 681.5,1618.7 
				738.4,1424.2 864.3,1454.8 918.4,1501.6 1001.9,1533.8 			"/>
		</g>
		<g id="PathGroup_65_">
			<polyline class="st66" points="-208,1234.9 144.4,972.1 445.2,1061.2 540,1118 601,1303.9 655.3,1264.4 681.8,1633.7 738.5,1435 
				866,1465.6 919.7,1512 1003.5,1543.7 			"/>
		</g>
		<g id="PathGroup_66_">
			<polyline class="st67" points="-216.9,1248.2 140.3,980.6 444.8,1070.2 540,1126.8 601.2,1314.9 655.4,1273.9 682.2,1648.7 
				738.6,1445.8 867.6,1476.5 921.1,1522.4 1005.1,1553.6 			"/>
		</g>
		<g id="PathGroup_67_">
			<polyline class="st68" points="-225.7,1261.6 136.1,989.2 444.3,1079.2 539.9,1135.6 601.4,1325.9 655.6,1283.4 682.6,1663.7 
				738.7,1456.6 869.3,1487.4 922.4,1532.8 1006.7,1563.5 			"/>
		</g>
		<g id="PathGroup_68_">
			<polyline class="st69" points="-234.5,1274.9 132,997.7 443.9,1088.2 539.8,1144.4 601.7,1336.9 655.7,1292.9 683,1678.7 
				738.8,1467.4 871,1498.3 923.7,1543.2 1008.3,1573.3 			"/>
		</g>
		<g id="PathGroup_69_">
			<polyline class="st70" points="-243.3,1288.3 127.8,1006.2 443.4,1097.2 539.8,1153.2 601.9,1347.9 655.9,1302.4 683.4,1693.7 
				738.9,1478.2 872.7,1509.1 925.1,1553.6 1009.9,1583.2 			"/>
		</g>
		<g id="PathGroup_70_">
			<polyline class="st71" points="-252.1,1301.6 123.6,1014.8 443,1106.2 539.7,1162 602.1,1358.9 656.1,1311.9 683.8,1708.7 
				739.1,1489 874.3,1520 926.4,1564 1011.5,1593.1 			"/>
		</g>
		<g id="PathGroup_71_">
			<polyline class="st72" points="-260.9,1315 119.5,1023.3 442.5,1115.2 539.6,1170.8 602.3,1369.8 656.2,1321.4 684.1,1723.7 
				739.2,1499.8 876,1530.9 927.7,1574.5 1013.1,1602.9 			"/>
		</g>
		<g id="PathGroup_72_">
			<polyline class="st73" points="-269.8,1328.3 115.3,1031.9 442,1124.2 539.6,1179.6 602.5,1380.8 656.4,1330.9 684.5,1738.6 
				739.3,1510.6 877.7,1541.7 929.1,1584.9 1014.6,1612.8 			"/>
		</g>
		<g id="PathGroup_73_">
			<polyline class="st74" points="-278.6,1341.7 111.1,1040.4 441.6,1133.1 539.5,1188.4 602.7,1391.8 656.5,1340.4 684.9,1753.6 
				739.4,1521.4 879.4,1552.6 930.4,1595.3 1016.2,1622.7 			"/>
		</g>
		<g id="PathGroup_74_">
			<polyline class="st75" points="-287.4,1355 107,1048.9 441.1,1142.1 539.5,1197.2 603,1402.8 656.7,1349.9 685.3,1768.6 
				739.5,1532.2 881,1563.5 931.7,1605.7 1017.8,1632.6 			"/>
		</g>
		<g id="PathGroup_75_">
			<polyline class="st76" points="-296.2,1368.4 102.8,1057.5 440.7,1151.1 539.4,1206 603.2,1413.8 656.9,1359.4 685.7,1783.6 
				739.6,1543 882.7,1574.4 933.1,1616.1 1019.4,1642.4 			"/>
		</g>
		<g id="PathGroup_76_">
			<polyline class="st77" points="-305,1381.8 98.7,1066 440.2,1160.1 539.3,1214.8 603.4,1424.8 657,1368.9 686,1798.6 
				739.7,1553.8 884.4,1585.2 934.4,1626.5 1021,1652.3 			"/>
		</g>
		<g id="PathGroup_77_">
			<polyline class="st78" points="-313.8,1395.1 94.5,1074.6 439.8,1169.1 539.3,1223.6 603.6,1435.8 657.2,1378.4 686.4,1813.6 
				739.9,1564.6 886.1,1596.1 935.7,1636.9 1022.6,1662.2 			"/>
		</g>
		<g id="PathGroup_78_">
			<polyline class="st79" points="-322.7,1408.5 90.3,1083.1 439.3,1178.1 539.2,1232.4 603.8,1446.8 657.3,1387.9 686.8,1828.6 
				740,1575.4 887.8,1607 937.1,1647.4 1024.2,1672 			"/>
		</g>
		<g id="PathGroup_79_">
			<polyline class="st80" points="-331.5,1421.8 86.2,1091.6 438.8,1187.1 539.2,1241.2 604,1457.8 657.5,1397.4 687.2,1843.6 
				740.1,1586.2 889.4,1617.8 938.4,1657.8 1025.8,1681.9 			"/>
		</g>
		<g id="PathGroup_80_">
			<polyline class="st81" points="-340.3,1435.2 82,1100.2 438.4,1196.1 539.1,1250 604.3,1468.8 657.6,1406.9 687.6,1858.6 
				740.2,1597 891.1,1628.7 939.7,1668.2 1027.4,1691.8 			"/>
		</g>
		<g id="PathGroup_81_">
			<polyline class="st82" points="-349.1,1448.5 77.9,1108.7 437.9,1205.1 539,1258.8 604.5,1479.8 657.8,1416.4 688,1873.6 
				740.3,1607.8 892.8,1639.6 941.1,1678.6 1029,1701.7 			"/>
		</g>
		<g id="PathGroup_82_">
			<polyline class="st83" points="-357.9,1461.9 73.7,1117.2 437.5,1214 539,1267.6 604.7,1490.8 658,1425.9 688.3,1888.6 
				740.4,1618.5 894.5,1650.5 942.4,1689 1030.6,1711.5 			"/>
		</g>
		<g id="PathGroup_83_">
			<polyline class="st84" points="-366.7,1475.2 69.5,1125.8 437,1223 538.9,1276.4 604.9,1501.8 658.1,1435.4 688.7,1903.6 
				740.6,1629.3 896.1,1661.3 943.7,1699.4 1032.2,1721.4 			"/>
		</g>
		<g id="PathGroup_84_">
			<polyline class="st85" points="-375.6,1488.6 65.4,1134.3 436.5,1232 538.8,1285.2 605.1,1512.8 658.3,1444.9 689.1,1918.6 
				740.7,1640.1 897.8,1672.2 945.1,1709.9 1033.8,1731.3 			"/>
		</g>
		<g id="PathGroup_85_">
			<polyline class="st86" points="-384.4,1501.9 61.2,1142.9 436.1,1241 538.8,1294 605.3,1523.8 658.4,1454.4 689.5,1933.6 
				740.8,1650.9 899.5,1683.1 946.4,1720.3 1035.3,1741.2 			"/>
		</g>
		<g id="PathGroup_86_">
			<polyline class="st87" points="-393.2,1515.3 57,1151.4 435.6,1250 538.7,1302.8 605.5,1534.8 658.6,1463.9 689.9,1948.6 
				740.9,1661.7 901.2,1694 947.7,1730.7 1036.9,1751 			"/>
		</g>
		<g id="PathGroup_87_">
			<polyline class="st88" points="-402,1528.6 52.9,1159.9 435.2,1259 538.7,1311.6 605.8,1545.8 658.8,1473.4 690.3,1963.6 
				741,1672.5 902.8,1704.8 949.1,1741.1 1038.5,1760.9 			"/>
		</g>
		<g id="PathGroup_88_">
			<polyline class="st89" points="-410.8,1542 48.7,1168.5 434.7,1268 538.6,1320.4 606,1556.8 658.9,1482.9 690.6,1978.6 
				741.1,1683.3 904.5,1715.7 950.4,1751.5 1040.1,1770.8 			"/>
		</g>
		<g id="PathGroup_89_">
			<polyline class="st90" points="-419.6,1555.3 44.6,1177 434.3,1277 538.5,1329.2 606.2,1567.8 659.1,1492.4 691,1993.6 
				741.2,1694.1 906.2,1726.6 951.7,1761.9 1041.7,1780.6 			"/>
		</g>
		<g id="PathGroup_90_">
			<polyline class="st91" points="-428.4,1568.7 40.4,1185.6 433.8,1286 538.5,1338 606.4,1578.8 659.2,1501.9 691.4,2008.6 
				741.4,1704.9 907.9,1737.4 953.1,1772.3 1043.3,1790.5 			"/>
		</g>
		<g id="PathGroup_91_">
			<polyline class="st92" points="-437.3,1582 36.2,1194.1 433.3,1294.9 538.4,1346.8 606.6,1589.8 659.4,1511.4 691.8,2023.6 
				741.5,1715.7 909.5,1748.3 954.4,1782.8 1044.9,1800.4 			"/>
		</g>
		<g id="PathGroup_92_">
			<polyline class="st93" points="-446.1,1595.4 32.1,1202.6 432.9,1303.9 538.4,1355.6 606.8,1600.8 659.5,1520.9 692.2,2038.6 
				741.6,1726.5 911.2,1759.2 955.7,1793.2 1046.5,1810.3 			"/>
		</g>
		<g id="PathGroup_93_">
			<polyline class="st94" points="-454.9,1608.7 27.9,1211.2 432.4,1312.9 538.3,1364.4 607.1,1611.8 659.7,1530.4 692.5,2053.5 
				741.7,1737.3 912.9,1770.1 957.1,1803.6 1048.1,1820.1 			"/>
		</g>
		<g id="PathGroup_94_">
			<polyline class="st95" points="-463.7,1622.1 23.7,1219.7 432,1321.9 538.2,1373.2 607.3,1622.8 659.9,1539.9 692.9,2068.5 
				741.8,1748.1 914.6,1780.9 958.4,1814 1049.7,1830 			"/>
		</g>
		<g id="PathGroup_95_">
			<polyline class="st96" points="-472.5,1635.4 19.6,1228.3 431.5,1330.9 538.2,1382 607.5,1633.8 660,1549.4 693.3,2083.5 
				741.9,1758.9 916.3,1791.8 959.7,1824.4 1051.3,1839.9 			"/>
		</g>
		<g id="PathGroup_96_">
			<polyline class="st97" points="-481.3,1648.8 15.4,1236.8 431.1,1339.9 538.1,1390.8 607.7,1644.8 660.2,1558.9 693.7,2098.5 
				742,1769.7 917.9,1802.7 961.1,1834.8 1052.9,1849.8 			"/>
		</g>
		<g id="PathGroup_97_">
			<polyline class="st98" points="-490.2,1662.1 11.3,1245.3 430.6,1348.9 538,1399.6 607.9,1655.8 660.3,1568.4 694.1,2113.5 
				742.2,1780.5 919.6,1813.5 962.4,1845.2 1054.5,1859.6 			"/>
		</g>
		<g id="PathGroup_98_">
			<polyline class="st99" points="-499,1675.5 7.1,1253.9 430.1,1357.9 538,1408.4 608.1,1666.8 660.5,1577.9 694.5,2128.5 
				742.3,1791.3 921.3,1824.4 963.7,1855.7 1056,1869.5 			"/>
		</g>
		<g id="PathGroup_99_">
			<polyline class="st100" points="-507.8,1688.9 2.9,1262.4 429.7,1366.8 537.9,1417.2 608.3,1677.8 660.6,1587.4 694.8,2143.5 
				742.4,1802.1 923,1835.3 965.1,1866.1 1057.6,1879.4 			"/>
		</g>
		<g id="PathGroup_100_">
			<polyline class="st101" points="-516.6,1702.2 -1.2,1271 429.2,1375.8 537.9,1426 608.6,1688.8 660.8,1596.9 695.2,2158.5 
				742.5,1812.9 924.6,1846.2 966.4,1876.5 1059.2,1889.2 			"/>
		</g>
		<g id="PathGroup_101_">
			<polyline class="st102" points="-525.4,1715.6 -5.4,1279.5 428.8,1384.8 537.8,1434.8 608.8,1699.8 661,1606.4 695.6,2173.5 
				742.6,1823.7 926.3,1857 967.8,1886.9 1060.8,1899.1 			"/>
		</g>
		<g id="PathGroup_102_">
			<polyline class="st103" points="-534.2,1728.9 -9.6,1288 428.3,1393.8 537.7,1443.6 609,1710.8 661.1,1615.9 696,2188.5 
				742.7,1834.5 928,1867.9 969.1,1897.3 1062.4,1909 			"/>
		</g>
		<g id="PathGroup_103_">
			<polyline class="st104" points="-13.7,1296.6 427.8,1402.8 537.7,1452.4 609.2,1721.8 661.3,1625.4 696.4,2203.5 742.9,1845.3 
				929.7,1878.8 970.4,1907.7 1064,1918.9 			"/>
		</g>
		<g id="PathGroup_104_">
			<polyline class="st105" points="-17.9,1305.1 427.4,1411.8 537.6,1461.2 609.4,1732.8 661.4,1634.9 696.7,2218.5 743,1856.1 
				931.3,1889.6 971.8,1918.1 1065.6,1928.7 			"/>
		</g>
		<g id="PathGroup_105_">
			<polyline class="st106" points="-22,1313.7 426.9,1420.8 537.6,1470 609.6,1743.8 661.6,1644.4 697.1,2233.5 743.1,1866.9 
				933,1900.5 973.1,1928.6 1067.2,1938.6 			"/>
		</g>
		<g id="PathGroup_106_">
			<polyline class="st107" points="-26.2,1322.2 426.5,1429.8 537.5,1478.8 609.9,1754.8 661.8,1653.9 697.5,2248.5 743.2,1877.7 
				934.7,1911.4 974.4,1939 1068.8,1948.5 			"/>
		</g>
		<g id="PathGroup_107_">
			<polyline class="st108" points="-30.4,1330.7 426,1438.8 537.4,1487.6 610.1,1765.8 661.9,1663.4 697.9,2263.5 743.3,1888.5 
				936.4,1922.3 975.8,1949.4 1070.4,1958.3 			"/>
		</g>
		<g id="PathGroup_108_">
			<polyline class="st109" points="-34.5,1339.3 425.6,1447.7 537.4,1496.4 610.3,1776.8 662.1,1672.9 698.3,2278.5 743.4,1899.3 
				938,1933.1 977.1,1959.8 1072,1968.2 			"/>
		</g>
	</g>
</g>
</svg>
